G04 #@! TF.GenerationSoftware,KiCad,Pcbnew,5.1.4*
G04 #@! TF.CreationDate,2019-08-29T18:54:14+02:00*
G04 #@! TF.ProjectId,NixieClock,4e697869-6543-46c6-9f63-6b2e6b696361,rev?*
G04 #@! TF.SameCoordinates,Original*
G04 #@! TF.FileFunction,Paste,Top*
G04 #@! TF.FilePolarity,Positive*
%FSLAX46Y46*%
G04 Gerber Fmt 4.6, Leading zero omitted, Abs format (unit mm)*
G04 Created by KiCad (PCBNEW 5.1.4) date 2019-08-29 18:54:14*
%MOMM*%
%LPD*%
G04 APERTURE LIST*
%ADD10R,1.900000X0.800000*%
%ADD11R,0.800000X0.900000*%
%ADD12R,0.450000X1.500000*%
%ADD13C,0.100000*%
%ADD14C,1.150000*%
%ADD15R,1.220000X0.650000*%
%ADD16R,1.500000X4.000000*%
%ADD17C,0.950000*%
%ADD18C,1.425000*%
%ADD19C,1.525000*%
%ADD20R,1.200000X0.900000*%
%ADD21R,1.925000X0.700000*%
%ADD22R,0.700000X1.925000*%
%ADD23R,1.000000X1.000000*%
%ADD24R,5.250000X4.550000*%
%ADD25R,1.100000X4.600000*%
%ADD26C,0.600000*%
%ADD27R,2.800000X5.300000*%
%ADD28C,0.875000*%
G04 APERTURE END LIST*
D10*
X91500000Y-135500000D03*
X88500000Y-136450000D03*
X88500000Y-134550000D03*
D11*
X93750000Y-158000000D03*
X94700000Y-160000000D03*
X92800000Y-160000000D03*
D10*
X46000000Y-147000000D03*
X43000000Y-147950000D03*
X43000000Y-146050000D03*
D12*
X96277000Y-146369000D03*
X96927000Y-146369000D03*
X97577000Y-146369000D03*
X98227000Y-146369000D03*
X98877000Y-146369000D03*
X99527000Y-146369000D03*
X100177000Y-146369000D03*
X100827000Y-146369000D03*
X100827000Y-152269000D03*
X100177000Y-152269000D03*
X99527000Y-152269000D03*
X98877000Y-152269000D03*
X98227000Y-152269000D03*
X97577000Y-152269000D03*
X96927000Y-152269000D03*
X96277000Y-152269000D03*
D13*
G36*
X70474505Y-165951204D02*
G01*
X70498773Y-165954804D01*
X70522572Y-165960765D01*
X70545671Y-165969030D01*
X70567850Y-165979520D01*
X70588893Y-165992132D01*
X70608599Y-166006747D01*
X70626777Y-166023223D01*
X70643253Y-166041401D01*
X70657868Y-166061107D01*
X70670480Y-166082150D01*
X70680970Y-166104329D01*
X70689235Y-166127428D01*
X70695196Y-166151227D01*
X70698796Y-166175495D01*
X70700000Y-166199999D01*
X70700000Y-166850001D01*
X70698796Y-166874505D01*
X70695196Y-166898773D01*
X70689235Y-166922572D01*
X70680970Y-166945671D01*
X70670480Y-166967850D01*
X70657868Y-166988893D01*
X70643253Y-167008599D01*
X70626777Y-167026777D01*
X70608599Y-167043253D01*
X70588893Y-167057868D01*
X70567850Y-167070480D01*
X70545671Y-167080970D01*
X70522572Y-167089235D01*
X70498773Y-167095196D01*
X70474505Y-167098796D01*
X70450001Y-167100000D01*
X69549999Y-167100000D01*
X69525495Y-167098796D01*
X69501227Y-167095196D01*
X69477428Y-167089235D01*
X69454329Y-167080970D01*
X69432150Y-167070480D01*
X69411107Y-167057868D01*
X69391401Y-167043253D01*
X69373223Y-167026777D01*
X69356747Y-167008599D01*
X69342132Y-166988893D01*
X69329520Y-166967850D01*
X69319030Y-166945671D01*
X69310765Y-166922572D01*
X69304804Y-166898773D01*
X69301204Y-166874505D01*
X69300000Y-166850001D01*
X69300000Y-166199999D01*
X69301204Y-166175495D01*
X69304804Y-166151227D01*
X69310765Y-166127428D01*
X69319030Y-166104329D01*
X69329520Y-166082150D01*
X69342132Y-166061107D01*
X69356747Y-166041401D01*
X69373223Y-166023223D01*
X69391401Y-166006747D01*
X69411107Y-165992132D01*
X69432150Y-165979520D01*
X69454329Y-165969030D01*
X69477428Y-165960765D01*
X69501227Y-165954804D01*
X69525495Y-165951204D01*
X69549999Y-165950000D01*
X70450001Y-165950000D01*
X70474505Y-165951204D01*
X70474505Y-165951204D01*
G37*
D14*
X70000000Y-166525000D03*
D13*
G36*
X70474505Y-163901204D02*
G01*
X70498773Y-163904804D01*
X70522572Y-163910765D01*
X70545671Y-163919030D01*
X70567850Y-163929520D01*
X70588893Y-163942132D01*
X70608599Y-163956747D01*
X70626777Y-163973223D01*
X70643253Y-163991401D01*
X70657868Y-164011107D01*
X70670480Y-164032150D01*
X70680970Y-164054329D01*
X70689235Y-164077428D01*
X70695196Y-164101227D01*
X70698796Y-164125495D01*
X70700000Y-164149999D01*
X70700000Y-164800001D01*
X70698796Y-164824505D01*
X70695196Y-164848773D01*
X70689235Y-164872572D01*
X70680970Y-164895671D01*
X70670480Y-164917850D01*
X70657868Y-164938893D01*
X70643253Y-164958599D01*
X70626777Y-164976777D01*
X70608599Y-164993253D01*
X70588893Y-165007868D01*
X70567850Y-165020480D01*
X70545671Y-165030970D01*
X70522572Y-165039235D01*
X70498773Y-165045196D01*
X70474505Y-165048796D01*
X70450001Y-165050000D01*
X69549999Y-165050000D01*
X69525495Y-165048796D01*
X69501227Y-165045196D01*
X69477428Y-165039235D01*
X69454329Y-165030970D01*
X69432150Y-165020480D01*
X69411107Y-165007868D01*
X69391401Y-164993253D01*
X69373223Y-164976777D01*
X69356747Y-164958599D01*
X69342132Y-164938893D01*
X69329520Y-164917850D01*
X69319030Y-164895671D01*
X69310765Y-164872572D01*
X69304804Y-164848773D01*
X69301204Y-164824505D01*
X69300000Y-164800001D01*
X69300000Y-164149999D01*
X69301204Y-164125495D01*
X69304804Y-164101227D01*
X69310765Y-164077428D01*
X69319030Y-164054329D01*
X69329520Y-164032150D01*
X69342132Y-164011107D01*
X69356747Y-163991401D01*
X69373223Y-163973223D01*
X69391401Y-163956747D01*
X69411107Y-163942132D01*
X69432150Y-163929520D01*
X69454329Y-163919030D01*
X69477428Y-163910765D01*
X69501227Y-163904804D01*
X69525495Y-163901204D01*
X69549999Y-163900000D01*
X70450001Y-163900000D01*
X70474505Y-163901204D01*
X70474505Y-163901204D01*
G37*
D14*
X70000000Y-164475000D03*
D13*
G36*
X89974505Y-159451204D02*
G01*
X89998773Y-159454804D01*
X90022572Y-159460765D01*
X90045671Y-159469030D01*
X90067850Y-159479520D01*
X90088893Y-159492132D01*
X90108599Y-159506747D01*
X90126777Y-159523223D01*
X90143253Y-159541401D01*
X90157868Y-159561107D01*
X90170480Y-159582150D01*
X90180970Y-159604329D01*
X90189235Y-159627428D01*
X90195196Y-159651227D01*
X90198796Y-159675495D01*
X90200000Y-159699999D01*
X90200000Y-160350001D01*
X90198796Y-160374505D01*
X90195196Y-160398773D01*
X90189235Y-160422572D01*
X90180970Y-160445671D01*
X90170480Y-160467850D01*
X90157868Y-160488893D01*
X90143253Y-160508599D01*
X90126777Y-160526777D01*
X90108599Y-160543253D01*
X90088893Y-160557868D01*
X90067850Y-160570480D01*
X90045671Y-160580970D01*
X90022572Y-160589235D01*
X89998773Y-160595196D01*
X89974505Y-160598796D01*
X89950001Y-160600000D01*
X89049999Y-160600000D01*
X89025495Y-160598796D01*
X89001227Y-160595196D01*
X88977428Y-160589235D01*
X88954329Y-160580970D01*
X88932150Y-160570480D01*
X88911107Y-160557868D01*
X88891401Y-160543253D01*
X88873223Y-160526777D01*
X88856747Y-160508599D01*
X88842132Y-160488893D01*
X88829520Y-160467850D01*
X88819030Y-160445671D01*
X88810765Y-160422572D01*
X88804804Y-160398773D01*
X88801204Y-160374505D01*
X88800000Y-160350001D01*
X88800000Y-159699999D01*
X88801204Y-159675495D01*
X88804804Y-159651227D01*
X88810765Y-159627428D01*
X88819030Y-159604329D01*
X88829520Y-159582150D01*
X88842132Y-159561107D01*
X88856747Y-159541401D01*
X88873223Y-159523223D01*
X88891401Y-159506747D01*
X88911107Y-159492132D01*
X88932150Y-159479520D01*
X88954329Y-159469030D01*
X88977428Y-159460765D01*
X89001227Y-159454804D01*
X89025495Y-159451204D01*
X89049999Y-159450000D01*
X89950001Y-159450000D01*
X89974505Y-159451204D01*
X89974505Y-159451204D01*
G37*
D14*
X89500000Y-160025000D03*
D13*
G36*
X89974505Y-157401204D02*
G01*
X89998773Y-157404804D01*
X90022572Y-157410765D01*
X90045671Y-157419030D01*
X90067850Y-157429520D01*
X90088893Y-157442132D01*
X90108599Y-157456747D01*
X90126777Y-157473223D01*
X90143253Y-157491401D01*
X90157868Y-157511107D01*
X90170480Y-157532150D01*
X90180970Y-157554329D01*
X90189235Y-157577428D01*
X90195196Y-157601227D01*
X90198796Y-157625495D01*
X90200000Y-157649999D01*
X90200000Y-158300001D01*
X90198796Y-158324505D01*
X90195196Y-158348773D01*
X90189235Y-158372572D01*
X90180970Y-158395671D01*
X90170480Y-158417850D01*
X90157868Y-158438893D01*
X90143253Y-158458599D01*
X90126777Y-158476777D01*
X90108599Y-158493253D01*
X90088893Y-158507868D01*
X90067850Y-158520480D01*
X90045671Y-158530970D01*
X90022572Y-158539235D01*
X89998773Y-158545196D01*
X89974505Y-158548796D01*
X89950001Y-158550000D01*
X89049999Y-158550000D01*
X89025495Y-158548796D01*
X89001227Y-158545196D01*
X88977428Y-158539235D01*
X88954329Y-158530970D01*
X88932150Y-158520480D01*
X88911107Y-158507868D01*
X88891401Y-158493253D01*
X88873223Y-158476777D01*
X88856747Y-158458599D01*
X88842132Y-158438893D01*
X88829520Y-158417850D01*
X88819030Y-158395671D01*
X88810765Y-158372572D01*
X88804804Y-158348773D01*
X88801204Y-158324505D01*
X88800000Y-158300001D01*
X88800000Y-157649999D01*
X88801204Y-157625495D01*
X88804804Y-157601227D01*
X88810765Y-157577428D01*
X88819030Y-157554329D01*
X88829520Y-157532150D01*
X88842132Y-157511107D01*
X88856747Y-157491401D01*
X88873223Y-157473223D01*
X88891401Y-157456747D01*
X88911107Y-157442132D01*
X88932150Y-157429520D01*
X88954329Y-157419030D01*
X88977428Y-157410765D01*
X89001227Y-157404804D01*
X89025495Y-157401204D01*
X89049999Y-157400000D01*
X89950001Y-157400000D01*
X89974505Y-157401204D01*
X89974505Y-157401204D01*
G37*
D14*
X89500000Y-157975000D03*
D15*
X75810000Y-164550000D03*
X75810000Y-165500000D03*
X75810000Y-166450000D03*
X73190000Y-166450000D03*
X73190000Y-165500000D03*
X73190000Y-164550000D03*
D13*
G36*
X86474505Y-159451204D02*
G01*
X86498773Y-159454804D01*
X86522572Y-159460765D01*
X86545671Y-159469030D01*
X86567850Y-159479520D01*
X86588893Y-159492132D01*
X86608599Y-159506747D01*
X86626777Y-159523223D01*
X86643253Y-159541401D01*
X86657868Y-159561107D01*
X86670480Y-159582150D01*
X86680970Y-159604329D01*
X86689235Y-159627428D01*
X86695196Y-159651227D01*
X86698796Y-159675495D01*
X86700000Y-159699999D01*
X86700000Y-160350001D01*
X86698796Y-160374505D01*
X86695196Y-160398773D01*
X86689235Y-160422572D01*
X86680970Y-160445671D01*
X86670480Y-160467850D01*
X86657868Y-160488893D01*
X86643253Y-160508599D01*
X86626777Y-160526777D01*
X86608599Y-160543253D01*
X86588893Y-160557868D01*
X86567850Y-160570480D01*
X86545671Y-160580970D01*
X86522572Y-160589235D01*
X86498773Y-160595196D01*
X86474505Y-160598796D01*
X86450001Y-160600000D01*
X85549999Y-160600000D01*
X85525495Y-160598796D01*
X85501227Y-160595196D01*
X85477428Y-160589235D01*
X85454329Y-160580970D01*
X85432150Y-160570480D01*
X85411107Y-160557868D01*
X85391401Y-160543253D01*
X85373223Y-160526777D01*
X85356747Y-160508599D01*
X85342132Y-160488893D01*
X85329520Y-160467850D01*
X85319030Y-160445671D01*
X85310765Y-160422572D01*
X85304804Y-160398773D01*
X85301204Y-160374505D01*
X85300000Y-160350001D01*
X85300000Y-159699999D01*
X85301204Y-159675495D01*
X85304804Y-159651227D01*
X85310765Y-159627428D01*
X85319030Y-159604329D01*
X85329520Y-159582150D01*
X85342132Y-159561107D01*
X85356747Y-159541401D01*
X85373223Y-159523223D01*
X85391401Y-159506747D01*
X85411107Y-159492132D01*
X85432150Y-159479520D01*
X85454329Y-159469030D01*
X85477428Y-159460765D01*
X85501227Y-159454804D01*
X85525495Y-159451204D01*
X85549999Y-159450000D01*
X86450001Y-159450000D01*
X86474505Y-159451204D01*
X86474505Y-159451204D01*
G37*
D14*
X86000000Y-160025000D03*
D13*
G36*
X86474505Y-157401204D02*
G01*
X86498773Y-157404804D01*
X86522572Y-157410765D01*
X86545671Y-157419030D01*
X86567850Y-157429520D01*
X86588893Y-157442132D01*
X86608599Y-157456747D01*
X86626777Y-157473223D01*
X86643253Y-157491401D01*
X86657868Y-157511107D01*
X86670480Y-157532150D01*
X86680970Y-157554329D01*
X86689235Y-157577428D01*
X86695196Y-157601227D01*
X86698796Y-157625495D01*
X86700000Y-157649999D01*
X86700000Y-158300001D01*
X86698796Y-158324505D01*
X86695196Y-158348773D01*
X86689235Y-158372572D01*
X86680970Y-158395671D01*
X86670480Y-158417850D01*
X86657868Y-158438893D01*
X86643253Y-158458599D01*
X86626777Y-158476777D01*
X86608599Y-158493253D01*
X86588893Y-158507868D01*
X86567850Y-158520480D01*
X86545671Y-158530970D01*
X86522572Y-158539235D01*
X86498773Y-158545196D01*
X86474505Y-158548796D01*
X86450001Y-158550000D01*
X85549999Y-158550000D01*
X85525495Y-158548796D01*
X85501227Y-158545196D01*
X85477428Y-158539235D01*
X85454329Y-158530970D01*
X85432150Y-158520480D01*
X85411107Y-158507868D01*
X85391401Y-158493253D01*
X85373223Y-158476777D01*
X85356747Y-158458599D01*
X85342132Y-158438893D01*
X85329520Y-158417850D01*
X85319030Y-158395671D01*
X85310765Y-158372572D01*
X85304804Y-158348773D01*
X85301204Y-158324505D01*
X85300000Y-158300001D01*
X85300000Y-157649999D01*
X85301204Y-157625495D01*
X85304804Y-157601227D01*
X85310765Y-157577428D01*
X85319030Y-157554329D01*
X85329520Y-157532150D01*
X85342132Y-157511107D01*
X85356747Y-157491401D01*
X85373223Y-157473223D01*
X85391401Y-157456747D01*
X85411107Y-157442132D01*
X85432150Y-157429520D01*
X85454329Y-157419030D01*
X85477428Y-157410765D01*
X85501227Y-157404804D01*
X85525495Y-157401204D01*
X85549999Y-157400000D01*
X86450001Y-157400000D01*
X86474505Y-157401204D01*
X86474505Y-157401204D01*
G37*
D14*
X86000000Y-157975000D03*
D16*
X79200000Y-159000000D03*
X82800000Y-159000000D03*
D13*
G36*
X79760779Y-165851144D02*
G01*
X79783834Y-165854563D01*
X79806443Y-165860227D01*
X79828387Y-165868079D01*
X79849457Y-165878044D01*
X79869448Y-165890026D01*
X79888168Y-165903910D01*
X79905438Y-165919562D01*
X79921090Y-165936832D01*
X79934974Y-165955552D01*
X79946956Y-165975543D01*
X79956921Y-165996613D01*
X79964773Y-166018557D01*
X79970437Y-166041166D01*
X79973856Y-166064221D01*
X79975000Y-166087500D01*
X79975000Y-166662500D01*
X79973856Y-166685779D01*
X79970437Y-166708834D01*
X79964773Y-166731443D01*
X79956921Y-166753387D01*
X79946956Y-166774457D01*
X79934974Y-166794448D01*
X79921090Y-166813168D01*
X79905438Y-166830438D01*
X79888168Y-166846090D01*
X79869448Y-166859974D01*
X79849457Y-166871956D01*
X79828387Y-166881921D01*
X79806443Y-166889773D01*
X79783834Y-166895437D01*
X79760779Y-166898856D01*
X79737500Y-166900000D01*
X79262500Y-166900000D01*
X79239221Y-166898856D01*
X79216166Y-166895437D01*
X79193557Y-166889773D01*
X79171613Y-166881921D01*
X79150543Y-166871956D01*
X79130552Y-166859974D01*
X79111832Y-166846090D01*
X79094562Y-166830438D01*
X79078910Y-166813168D01*
X79065026Y-166794448D01*
X79053044Y-166774457D01*
X79043079Y-166753387D01*
X79035227Y-166731443D01*
X79029563Y-166708834D01*
X79026144Y-166685779D01*
X79025000Y-166662500D01*
X79025000Y-166087500D01*
X79026144Y-166064221D01*
X79029563Y-166041166D01*
X79035227Y-166018557D01*
X79043079Y-165996613D01*
X79053044Y-165975543D01*
X79065026Y-165955552D01*
X79078910Y-165936832D01*
X79094562Y-165919562D01*
X79111832Y-165903910D01*
X79130552Y-165890026D01*
X79150543Y-165878044D01*
X79171613Y-165868079D01*
X79193557Y-165860227D01*
X79216166Y-165854563D01*
X79239221Y-165851144D01*
X79262500Y-165850000D01*
X79737500Y-165850000D01*
X79760779Y-165851144D01*
X79760779Y-165851144D01*
G37*
D17*
X79500000Y-166375000D03*
D13*
G36*
X79760779Y-164101144D02*
G01*
X79783834Y-164104563D01*
X79806443Y-164110227D01*
X79828387Y-164118079D01*
X79849457Y-164128044D01*
X79869448Y-164140026D01*
X79888168Y-164153910D01*
X79905438Y-164169562D01*
X79921090Y-164186832D01*
X79934974Y-164205552D01*
X79946956Y-164225543D01*
X79956921Y-164246613D01*
X79964773Y-164268557D01*
X79970437Y-164291166D01*
X79973856Y-164314221D01*
X79975000Y-164337500D01*
X79975000Y-164912500D01*
X79973856Y-164935779D01*
X79970437Y-164958834D01*
X79964773Y-164981443D01*
X79956921Y-165003387D01*
X79946956Y-165024457D01*
X79934974Y-165044448D01*
X79921090Y-165063168D01*
X79905438Y-165080438D01*
X79888168Y-165096090D01*
X79869448Y-165109974D01*
X79849457Y-165121956D01*
X79828387Y-165131921D01*
X79806443Y-165139773D01*
X79783834Y-165145437D01*
X79760779Y-165148856D01*
X79737500Y-165150000D01*
X79262500Y-165150000D01*
X79239221Y-165148856D01*
X79216166Y-165145437D01*
X79193557Y-165139773D01*
X79171613Y-165131921D01*
X79150543Y-165121956D01*
X79130552Y-165109974D01*
X79111832Y-165096090D01*
X79094562Y-165080438D01*
X79078910Y-165063168D01*
X79065026Y-165044448D01*
X79053044Y-165024457D01*
X79043079Y-165003387D01*
X79035227Y-164981443D01*
X79029563Y-164958834D01*
X79026144Y-164935779D01*
X79025000Y-164912500D01*
X79025000Y-164337500D01*
X79026144Y-164314221D01*
X79029563Y-164291166D01*
X79035227Y-164268557D01*
X79043079Y-164246613D01*
X79053044Y-164225543D01*
X79065026Y-164205552D01*
X79078910Y-164186832D01*
X79094562Y-164169562D01*
X79111832Y-164153910D01*
X79130552Y-164140026D01*
X79150543Y-164128044D01*
X79171613Y-164118079D01*
X79193557Y-164110227D01*
X79216166Y-164104563D01*
X79239221Y-164101144D01*
X79262500Y-164100000D01*
X79737500Y-164100000D01*
X79760779Y-164101144D01*
X79760779Y-164101144D01*
G37*
D17*
X79500000Y-164625000D03*
D10*
X58500000Y-153500000D03*
X61500000Y-152550000D03*
X61500000Y-154450000D03*
D13*
G36*
X39649504Y-147301204D02*
G01*
X39673773Y-147304804D01*
X39697571Y-147310765D01*
X39720671Y-147319030D01*
X39742849Y-147329520D01*
X39763893Y-147342133D01*
X39783598Y-147356747D01*
X39801777Y-147373223D01*
X39818253Y-147391402D01*
X39832867Y-147411107D01*
X39845480Y-147432151D01*
X39855970Y-147454329D01*
X39864235Y-147477429D01*
X39870196Y-147501227D01*
X39873796Y-147525496D01*
X39875000Y-147550000D01*
X39875000Y-148475000D01*
X39873796Y-148499504D01*
X39870196Y-148523773D01*
X39864235Y-148547571D01*
X39855970Y-148570671D01*
X39845480Y-148592849D01*
X39832867Y-148613893D01*
X39818253Y-148633598D01*
X39801777Y-148651777D01*
X39783598Y-148668253D01*
X39763893Y-148682867D01*
X39742849Y-148695480D01*
X39720671Y-148705970D01*
X39697571Y-148714235D01*
X39673773Y-148720196D01*
X39649504Y-148723796D01*
X39625000Y-148725000D01*
X38375000Y-148725000D01*
X38350496Y-148723796D01*
X38326227Y-148720196D01*
X38302429Y-148714235D01*
X38279329Y-148705970D01*
X38257151Y-148695480D01*
X38236107Y-148682867D01*
X38216402Y-148668253D01*
X38198223Y-148651777D01*
X38181747Y-148633598D01*
X38167133Y-148613893D01*
X38154520Y-148592849D01*
X38144030Y-148570671D01*
X38135765Y-148547571D01*
X38129804Y-148523773D01*
X38126204Y-148499504D01*
X38125000Y-148475000D01*
X38125000Y-147550000D01*
X38126204Y-147525496D01*
X38129804Y-147501227D01*
X38135765Y-147477429D01*
X38144030Y-147454329D01*
X38154520Y-147432151D01*
X38167133Y-147411107D01*
X38181747Y-147391402D01*
X38198223Y-147373223D01*
X38216402Y-147356747D01*
X38236107Y-147342133D01*
X38257151Y-147329520D01*
X38279329Y-147319030D01*
X38302429Y-147310765D01*
X38326227Y-147304804D01*
X38350496Y-147301204D01*
X38375000Y-147300000D01*
X39625000Y-147300000D01*
X39649504Y-147301204D01*
X39649504Y-147301204D01*
G37*
D18*
X39000000Y-148012500D03*
D13*
G36*
X39649504Y-150276204D02*
G01*
X39673773Y-150279804D01*
X39697571Y-150285765D01*
X39720671Y-150294030D01*
X39742849Y-150304520D01*
X39763893Y-150317133D01*
X39783598Y-150331747D01*
X39801777Y-150348223D01*
X39818253Y-150366402D01*
X39832867Y-150386107D01*
X39845480Y-150407151D01*
X39855970Y-150429329D01*
X39864235Y-150452429D01*
X39870196Y-150476227D01*
X39873796Y-150500496D01*
X39875000Y-150525000D01*
X39875000Y-151450000D01*
X39873796Y-151474504D01*
X39870196Y-151498773D01*
X39864235Y-151522571D01*
X39855970Y-151545671D01*
X39845480Y-151567849D01*
X39832867Y-151588893D01*
X39818253Y-151608598D01*
X39801777Y-151626777D01*
X39783598Y-151643253D01*
X39763893Y-151657867D01*
X39742849Y-151670480D01*
X39720671Y-151680970D01*
X39697571Y-151689235D01*
X39673773Y-151695196D01*
X39649504Y-151698796D01*
X39625000Y-151700000D01*
X38375000Y-151700000D01*
X38350496Y-151698796D01*
X38326227Y-151695196D01*
X38302429Y-151689235D01*
X38279329Y-151680970D01*
X38257151Y-151670480D01*
X38236107Y-151657867D01*
X38216402Y-151643253D01*
X38198223Y-151626777D01*
X38181747Y-151608598D01*
X38167133Y-151588893D01*
X38154520Y-151567849D01*
X38144030Y-151545671D01*
X38135765Y-151522571D01*
X38129804Y-151498773D01*
X38126204Y-151474504D01*
X38125000Y-151450000D01*
X38125000Y-150525000D01*
X38126204Y-150500496D01*
X38129804Y-150476227D01*
X38135765Y-150452429D01*
X38144030Y-150429329D01*
X38154520Y-150407151D01*
X38167133Y-150386107D01*
X38181747Y-150366402D01*
X38198223Y-150348223D01*
X38216402Y-150331747D01*
X38236107Y-150317133D01*
X38257151Y-150304520D01*
X38279329Y-150294030D01*
X38302429Y-150285765D01*
X38326227Y-150279804D01*
X38350496Y-150276204D01*
X38375000Y-150275000D01*
X39625000Y-150275000D01*
X39649504Y-150276204D01*
X39649504Y-150276204D01*
G37*
D18*
X39000000Y-150987500D03*
D10*
X46000000Y-142000000D03*
X43000000Y-142950000D03*
X43000000Y-141050000D03*
X43000000Y-137000000D03*
X46000000Y-136050000D03*
X46000000Y-137950000D03*
D13*
G36*
X40185779Y-124526144D02*
G01*
X40208834Y-124529563D01*
X40231443Y-124535227D01*
X40253387Y-124543079D01*
X40274457Y-124553044D01*
X40294448Y-124565026D01*
X40313168Y-124578910D01*
X40330438Y-124594562D01*
X40346090Y-124611832D01*
X40359974Y-124630552D01*
X40371956Y-124650543D01*
X40381921Y-124671613D01*
X40389773Y-124693557D01*
X40395437Y-124716166D01*
X40398856Y-124739221D01*
X40400000Y-124762500D01*
X40400000Y-125237500D01*
X40398856Y-125260779D01*
X40395437Y-125283834D01*
X40389773Y-125306443D01*
X40381921Y-125328387D01*
X40371956Y-125349457D01*
X40359974Y-125369448D01*
X40346090Y-125388168D01*
X40330438Y-125405438D01*
X40313168Y-125421090D01*
X40294448Y-125434974D01*
X40274457Y-125446956D01*
X40253387Y-125456921D01*
X40231443Y-125464773D01*
X40208834Y-125470437D01*
X40185779Y-125473856D01*
X40162500Y-125475000D01*
X39587500Y-125475000D01*
X39564221Y-125473856D01*
X39541166Y-125470437D01*
X39518557Y-125464773D01*
X39496613Y-125456921D01*
X39475543Y-125446956D01*
X39455552Y-125434974D01*
X39436832Y-125421090D01*
X39419562Y-125405438D01*
X39403910Y-125388168D01*
X39390026Y-125369448D01*
X39378044Y-125349457D01*
X39368079Y-125328387D01*
X39360227Y-125306443D01*
X39354563Y-125283834D01*
X39351144Y-125260779D01*
X39350000Y-125237500D01*
X39350000Y-124762500D01*
X39351144Y-124739221D01*
X39354563Y-124716166D01*
X39360227Y-124693557D01*
X39368079Y-124671613D01*
X39378044Y-124650543D01*
X39390026Y-124630552D01*
X39403910Y-124611832D01*
X39419562Y-124594562D01*
X39436832Y-124578910D01*
X39455552Y-124565026D01*
X39475543Y-124553044D01*
X39496613Y-124543079D01*
X39518557Y-124535227D01*
X39541166Y-124529563D01*
X39564221Y-124526144D01*
X39587500Y-124525000D01*
X40162500Y-124525000D01*
X40185779Y-124526144D01*
X40185779Y-124526144D01*
G37*
D17*
X39875000Y-125000000D03*
D13*
G36*
X38435779Y-124526144D02*
G01*
X38458834Y-124529563D01*
X38481443Y-124535227D01*
X38503387Y-124543079D01*
X38524457Y-124553044D01*
X38544448Y-124565026D01*
X38563168Y-124578910D01*
X38580438Y-124594562D01*
X38596090Y-124611832D01*
X38609974Y-124630552D01*
X38621956Y-124650543D01*
X38631921Y-124671613D01*
X38639773Y-124693557D01*
X38645437Y-124716166D01*
X38648856Y-124739221D01*
X38650000Y-124762500D01*
X38650000Y-125237500D01*
X38648856Y-125260779D01*
X38645437Y-125283834D01*
X38639773Y-125306443D01*
X38631921Y-125328387D01*
X38621956Y-125349457D01*
X38609974Y-125369448D01*
X38596090Y-125388168D01*
X38580438Y-125405438D01*
X38563168Y-125421090D01*
X38544448Y-125434974D01*
X38524457Y-125446956D01*
X38503387Y-125456921D01*
X38481443Y-125464773D01*
X38458834Y-125470437D01*
X38435779Y-125473856D01*
X38412500Y-125475000D01*
X37837500Y-125475000D01*
X37814221Y-125473856D01*
X37791166Y-125470437D01*
X37768557Y-125464773D01*
X37746613Y-125456921D01*
X37725543Y-125446956D01*
X37705552Y-125434974D01*
X37686832Y-125421090D01*
X37669562Y-125405438D01*
X37653910Y-125388168D01*
X37640026Y-125369448D01*
X37628044Y-125349457D01*
X37618079Y-125328387D01*
X37610227Y-125306443D01*
X37604563Y-125283834D01*
X37601144Y-125260779D01*
X37600000Y-125237500D01*
X37600000Y-124762500D01*
X37601144Y-124739221D01*
X37604563Y-124716166D01*
X37610227Y-124693557D01*
X37618079Y-124671613D01*
X37628044Y-124650543D01*
X37640026Y-124630552D01*
X37653910Y-124611832D01*
X37669562Y-124594562D01*
X37686832Y-124578910D01*
X37705552Y-124565026D01*
X37725543Y-124553044D01*
X37746613Y-124543079D01*
X37768557Y-124535227D01*
X37791166Y-124529563D01*
X37814221Y-124526144D01*
X37837500Y-124525000D01*
X38412500Y-124525000D01*
X38435779Y-124526144D01*
X38435779Y-124526144D01*
G37*
D17*
X38125000Y-125000000D03*
D13*
G36*
X40510779Y-138351144D02*
G01*
X40533834Y-138354563D01*
X40556443Y-138360227D01*
X40578387Y-138368079D01*
X40599457Y-138378044D01*
X40619448Y-138390026D01*
X40638168Y-138403910D01*
X40655438Y-138419562D01*
X40671090Y-138436832D01*
X40684974Y-138455552D01*
X40696956Y-138475543D01*
X40706921Y-138496613D01*
X40714773Y-138518557D01*
X40720437Y-138541166D01*
X40723856Y-138564221D01*
X40725000Y-138587500D01*
X40725000Y-139162500D01*
X40723856Y-139185779D01*
X40720437Y-139208834D01*
X40714773Y-139231443D01*
X40706921Y-139253387D01*
X40696956Y-139274457D01*
X40684974Y-139294448D01*
X40671090Y-139313168D01*
X40655438Y-139330438D01*
X40638168Y-139346090D01*
X40619448Y-139359974D01*
X40599457Y-139371956D01*
X40578387Y-139381921D01*
X40556443Y-139389773D01*
X40533834Y-139395437D01*
X40510779Y-139398856D01*
X40487500Y-139400000D01*
X40012500Y-139400000D01*
X39989221Y-139398856D01*
X39966166Y-139395437D01*
X39943557Y-139389773D01*
X39921613Y-139381921D01*
X39900543Y-139371956D01*
X39880552Y-139359974D01*
X39861832Y-139346090D01*
X39844562Y-139330438D01*
X39828910Y-139313168D01*
X39815026Y-139294448D01*
X39803044Y-139274457D01*
X39793079Y-139253387D01*
X39785227Y-139231443D01*
X39779563Y-139208834D01*
X39776144Y-139185779D01*
X39775000Y-139162500D01*
X39775000Y-138587500D01*
X39776144Y-138564221D01*
X39779563Y-138541166D01*
X39785227Y-138518557D01*
X39793079Y-138496613D01*
X39803044Y-138475543D01*
X39815026Y-138455552D01*
X39828910Y-138436832D01*
X39844562Y-138419562D01*
X39861832Y-138403910D01*
X39880552Y-138390026D01*
X39900543Y-138378044D01*
X39921613Y-138368079D01*
X39943557Y-138360227D01*
X39966166Y-138354563D01*
X39989221Y-138351144D01*
X40012500Y-138350000D01*
X40487500Y-138350000D01*
X40510779Y-138351144D01*
X40510779Y-138351144D01*
G37*
D17*
X40250000Y-138875000D03*
D13*
G36*
X40510779Y-140101144D02*
G01*
X40533834Y-140104563D01*
X40556443Y-140110227D01*
X40578387Y-140118079D01*
X40599457Y-140128044D01*
X40619448Y-140140026D01*
X40638168Y-140153910D01*
X40655438Y-140169562D01*
X40671090Y-140186832D01*
X40684974Y-140205552D01*
X40696956Y-140225543D01*
X40706921Y-140246613D01*
X40714773Y-140268557D01*
X40720437Y-140291166D01*
X40723856Y-140314221D01*
X40725000Y-140337500D01*
X40725000Y-140912500D01*
X40723856Y-140935779D01*
X40720437Y-140958834D01*
X40714773Y-140981443D01*
X40706921Y-141003387D01*
X40696956Y-141024457D01*
X40684974Y-141044448D01*
X40671090Y-141063168D01*
X40655438Y-141080438D01*
X40638168Y-141096090D01*
X40619448Y-141109974D01*
X40599457Y-141121956D01*
X40578387Y-141131921D01*
X40556443Y-141139773D01*
X40533834Y-141145437D01*
X40510779Y-141148856D01*
X40487500Y-141150000D01*
X40012500Y-141150000D01*
X39989221Y-141148856D01*
X39966166Y-141145437D01*
X39943557Y-141139773D01*
X39921613Y-141131921D01*
X39900543Y-141121956D01*
X39880552Y-141109974D01*
X39861832Y-141096090D01*
X39844562Y-141080438D01*
X39828910Y-141063168D01*
X39815026Y-141044448D01*
X39803044Y-141024457D01*
X39793079Y-141003387D01*
X39785227Y-140981443D01*
X39779563Y-140958834D01*
X39776144Y-140935779D01*
X39775000Y-140912500D01*
X39775000Y-140337500D01*
X39776144Y-140314221D01*
X39779563Y-140291166D01*
X39785227Y-140268557D01*
X39793079Y-140246613D01*
X39803044Y-140225543D01*
X39815026Y-140205552D01*
X39828910Y-140186832D01*
X39844562Y-140169562D01*
X39861832Y-140153910D01*
X39880552Y-140140026D01*
X39900543Y-140128044D01*
X39921613Y-140118079D01*
X39943557Y-140110227D01*
X39966166Y-140104563D01*
X39989221Y-140101144D01*
X40012500Y-140100000D01*
X40487500Y-140100000D01*
X40510779Y-140101144D01*
X40510779Y-140101144D01*
G37*
D17*
X40250000Y-140625000D03*
D13*
G36*
X48185779Y-151026144D02*
G01*
X48208834Y-151029563D01*
X48231443Y-151035227D01*
X48253387Y-151043079D01*
X48274457Y-151053044D01*
X48294448Y-151065026D01*
X48313168Y-151078910D01*
X48330438Y-151094562D01*
X48346090Y-151111832D01*
X48359974Y-151130552D01*
X48371956Y-151150543D01*
X48381921Y-151171613D01*
X48389773Y-151193557D01*
X48395437Y-151216166D01*
X48398856Y-151239221D01*
X48400000Y-151262500D01*
X48400000Y-151737500D01*
X48398856Y-151760779D01*
X48395437Y-151783834D01*
X48389773Y-151806443D01*
X48381921Y-151828387D01*
X48371956Y-151849457D01*
X48359974Y-151869448D01*
X48346090Y-151888168D01*
X48330438Y-151905438D01*
X48313168Y-151921090D01*
X48294448Y-151934974D01*
X48274457Y-151946956D01*
X48253387Y-151956921D01*
X48231443Y-151964773D01*
X48208834Y-151970437D01*
X48185779Y-151973856D01*
X48162500Y-151975000D01*
X47587500Y-151975000D01*
X47564221Y-151973856D01*
X47541166Y-151970437D01*
X47518557Y-151964773D01*
X47496613Y-151956921D01*
X47475543Y-151946956D01*
X47455552Y-151934974D01*
X47436832Y-151921090D01*
X47419562Y-151905438D01*
X47403910Y-151888168D01*
X47390026Y-151869448D01*
X47378044Y-151849457D01*
X47368079Y-151828387D01*
X47360227Y-151806443D01*
X47354563Y-151783834D01*
X47351144Y-151760779D01*
X47350000Y-151737500D01*
X47350000Y-151262500D01*
X47351144Y-151239221D01*
X47354563Y-151216166D01*
X47360227Y-151193557D01*
X47368079Y-151171613D01*
X47378044Y-151150543D01*
X47390026Y-151130552D01*
X47403910Y-151111832D01*
X47419562Y-151094562D01*
X47436832Y-151078910D01*
X47455552Y-151065026D01*
X47475543Y-151053044D01*
X47496613Y-151043079D01*
X47518557Y-151035227D01*
X47541166Y-151029563D01*
X47564221Y-151026144D01*
X47587500Y-151025000D01*
X48162500Y-151025000D01*
X48185779Y-151026144D01*
X48185779Y-151026144D01*
G37*
D17*
X47875000Y-151500000D03*
D13*
G36*
X46435779Y-151026144D02*
G01*
X46458834Y-151029563D01*
X46481443Y-151035227D01*
X46503387Y-151043079D01*
X46524457Y-151053044D01*
X46544448Y-151065026D01*
X46563168Y-151078910D01*
X46580438Y-151094562D01*
X46596090Y-151111832D01*
X46609974Y-151130552D01*
X46621956Y-151150543D01*
X46631921Y-151171613D01*
X46639773Y-151193557D01*
X46645437Y-151216166D01*
X46648856Y-151239221D01*
X46650000Y-151262500D01*
X46650000Y-151737500D01*
X46648856Y-151760779D01*
X46645437Y-151783834D01*
X46639773Y-151806443D01*
X46631921Y-151828387D01*
X46621956Y-151849457D01*
X46609974Y-151869448D01*
X46596090Y-151888168D01*
X46580438Y-151905438D01*
X46563168Y-151921090D01*
X46544448Y-151934974D01*
X46524457Y-151946956D01*
X46503387Y-151956921D01*
X46481443Y-151964773D01*
X46458834Y-151970437D01*
X46435779Y-151973856D01*
X46412500Y-151975000D01*
X45837500Y-151975000D01*
X45814221Y-151973856D01*
X45791166Y-151970437D01*
X45768557Y-151964773D01*
X45746613Y-151956921D01*
X45725543Y-151946956D01*
X45705552Y-151934974D01*
X45686832Y-151921090D01*
X45669562Y-151905438D01*
X45653910Y-151888168D01*
X45640026Y-151869448D01*
X45628044Y-151849457D01*
X45618079Y-151828387D01*
X45610227Y-151806443D01*
X45604563Y-151783834D01*
X45601144Y-151760779D01*
X45600000Y-151737500D01*
X45600000Y-151262500D01*
X45601144Y-151239221D01*
X45604563Y-151216166D01*
X45610227Y-151193557D01*
X45618079Y-151171613D01*
X45628044Y-151150543D01*
X45640026Y-151130552D01*
X45653910Y-151111832D01*
X45669562Y-151094562D01*
X45686832Y-151078910D01*
X45705552Y-151065026D01*
X45725543Y-151053044D01*
X45746613Y-151043079D01*
X45768557Y-151035227D01*
X45791166Y-151029563D01*
X45814221Y-151026144D01*
X45837500Y-151025000D01*
X46412500Y-151025000D01*
X46435779Y-151026144D01*
X46435779Y-151026144D01*
G37*
D17*
X46125000Y-151500000D03*
D13*
G36*
X40449505Y-127251204D02*
G01*
X40473773Y-127254804D01*
X40497572Y-127260765D01*
X40520671Y-127269030D01*
X40542850Y-127279520D01*
X40563893Y-127292132D01*
X40583599Y-127306747D01*
X40601777Y-127323223D01*
X40618253Y-127341401D01*
X40632868Y-127361107D01*
X40645480Y-127382150D01*
X40655970Y-127404329D01*
X40664235Y-127427428D01*
X40670196Y-127451227D01*
X40673796Y-127475495D01*
X40675000Y-127499999D01*
X40675000Y-128525001D01*
X40673796Y-128549505D01*
X40670196Y-128573773D01*
X40664235Y-128597572D01*
X40655970Y-128620671D01*
X40645480Y-128642850D01*
X40632868Y-128663893D01*
X40618253Y-128683599D01*
X40601777Y-128701777D01*
X40583599Y-128718253D01*
X40563893Y-128732868D01*
X40542850Y-128745480D01*
X40520671Y-128755970D01*
X40497572Y-128764235D01*
X40473773Y-128770196D01*
X40449505Y-128773796D01*
X40425001Y-128775000D01*
X37574999Y-128775000D01*
X37550495Y-128773796D01*
X37526227Y-128770196D01*
X37502428Y-128764235D01*
X37479329Y-128755970D01*
X37457150Y-128745480D01*
X37436107Y-128732868D01*
X37416401Y-128718253D01*
X37398223Y-128701777D01*
X37381747Y-128683599D01*
X37367132Y-128663893D01*
X37354520Y-128642850D01*
X37344030Y-128620671D01*
X37335765Y-128597572D01*
X37329804Y-128573773D01*
X37326204Y-128549505D01*
X37325000Y-128525001D01*
X37325000Y-127499999D01*
X37326204Y-127475495D01*
X37329804Y-127451227D01*
X37335765Y-127427428D01*
X37344030Y-127404329D01*
X37354520Y-127382150D01*
X37367132Y-127361107D01*
X37381747Y-127341401D01*
X37398223Y-127323223D01*
X37416401Y-127306747D01*
X37436107Y-127292132D01*
X37457150Y-127279520D01*
X37479329Y-127269030D01*
X37502428Y-127260765D01*
X37526227Y-127254804D01*
X37550495Y-127251204D01*
X37574999Y-127250000D01*
X40425001Y-127250000D01*
X40449505Y-127251204D01*
X40449505Y-127251204D01*
G37*
D19*
X39000000Y-128012500D03*
D13*
G36*
X40449505Y-133226204D02*
G01*
X40473773Y-133229804D01*
X40497572Y-133235765D01*
X40520671Y-133244030D01*
X40542850Y-133254520D01*
X40563893Y-133267132D01*
X40583599Y-133281747D01*
X40601777Y-133298223D01*
X40618253Y-133316401D01*
X40632868Y-133336107D01*
X40645480Y-133357150D01*
X40655970Y-133379329D01*
X40664235Y-133402428D01*
X40670196Y-133426227D01*
X40673796Y-133450495D01*
X40675000Y-133474999D01*
X40675000Y-134500001D01*
X40673796Y-134524505D01*
X40670196Y-134548773D01*
X40664235Y-134572572D01*
X40655970Y-134595671D01*
X40645480Y-134617850D01*
X40632868Y-134638893D01*
X40618253Y-134658599D01*
X40601777Y-134676777D01*
X40583599Y-134693253D01*
X40563893Y-134707868D01*
X40542850Y-134720480D01*
X40520671Y-134730970D01*
X40497572Y-134739235D01*
X40473773Y-134745196D01*
X40449505Y-134748796D01*
X40425001Y-134750000D01*
X37574999Y-134750000D01*
X37550495Y-134748796D01*
X37526227Y-134745196D01*
X37502428Y-134739235D01*
X37479329Y-134730970D01*
X37457150Y-134720480D01*
X37436107Y-134707868D01*
X37416401Y-134693253D01*
X37398223Y-134676777D01*
X37381747Y-134658599D01*
X37367132Y-134638893D01*
X37354520Y-134617850D01*
X37344030Y-134595671D01*
X37335765Y-134572572D01*
X37329804Y-134548773D01*
X37326204Y-134524505D01*
X37325000Y-134500001D01*
X37325000Y-133474999D01*
X37326204Y-133450495D01*
X37329804Y-133426227D01*
X37335765Y-133402428D01*
X37344030Y-133379329D01*
X37354520Y-133357150D01*
X37367132Y-133336107D01*
X37381747Y-133316401D01*
X37398223Y-133298223D01*
X37416401Y-133281747D01*
X37436107Y-133267132D01*
X37457150Y-133254520D01*
X37479329Y-133244030D01*
X37502428Y-133235765D01*
X37526227Y-133229804D01*
X37550495Y-133226204D01*
X37574999Y-133225000D01*
X40425001Y-133225000D01*
X40449505Y-133226204D01*
X40449505Y-133226204D01*
G37*
D19*
X39000000Y-133987500D03*
D20*
X39000000Y-142850000D03*
X39000000Y-146150000D03*
D13*
G36*
X44685779Y-151026144D02*
G01*
X44708834Y-151029563D01*
X44731443Y-151035227D01*
X44753387Y-151043079D01*
X44774457Y-151053044D01*
X44794448Y-151065026D01*
X44813168Y-151078910D01*
X44830438Y-151094562D01*
X44846090Y-151111832D01*
X44859974Y-151130552D01*
X44871956Y-151150543D01*
X44881921Y-151171613D01*
X44889773Y-151193557D01*
X44895437Y-151216166D01*
X44898856Y-151239221D01*
X44900000Y-151262500D01*
X44900000Y-151737500D01*
X44898856Y-151760779D01*
X44895437Y-151783834D01*
X44889773Y-151806443D01*
X44881921Y-151828387D01*
X44871956Y-151849457D01*
X44859974Y-151869448D01*
X44846090Y-151888168D01*
X44830438Y-151905438D01*
X44813168Y-151921090D01*
X44794448Y-151934974D01*
X44774457Y-151946956D01*
X44753387Y-151956921D01*
X44731443Y-151964773D01*
X44708834Y-151970437D01*
X44685779Y-151973856D01*
X44662500Y-151975000D01*
X44087500Y-151975000D01*
X44064221Y-151973856D01*
X44041166Y-151970437D01*
X44018557Y-151964773D01*
X43996613Y-151956921D01*
X43975543Y-151946956D01*
X43955552Y-151934974D01*
X43936832Y-151921090D01*
X43919562Y-151905438D01*
X43903910Y-151888168D01*
X43890026Y-151869448D01*
X43878044Y-151849457D01*
X43868079Y-151828387D01*
X43860227Y-151806443D01*
X43854563Y-151783834D01*
X43851144Y-151760779D01*
X43850000Y-151737500D01*
X43850000Y-151262500D01*
X43851144Y-151239221D01*
X43854563Y-151216166D01*
X43860227Y-151193557D01*
X43868079Y-151171613D01*
X43878044Y-151150543D01*
X43890026Y-151130552D01*
X43903910Y-151111832D01*
X43919562Y-151094562D01*
X43936832Y-151078910D01*
X43955552Y-151065026D01*
X43975543Y-151053044D01*
X43996613Y-151043079D01*
X44018557Y-151035227D01*
X44041166Y-151029563D01*
X44064221Y-151026144D01*
X44087500Y-151025000D01*
X44662500Y-151025000D01*
X44685779Y-151026144D01*
X44685779Y-151026144D01*
G37*
D17*
X44375000Y-151500000D03*
D13*
G36*
X42935779Y-151026144D02*
G01*
X42958834Y-151029563D01*
X42981443Y-151035227D01*
X43003387Y-151043079D01*
X43024457Y-151053044D01*
X43044448Y-151065026D01*
X43063168Y-151078910D01*
X43080438Y-151094562D01*
X43096090Y-151111832D01*
X43109974Y-151130552D01*
X43121956Y-151150543D01*
X43131921Y-151171613D01*
X43139773Y-151193557D01*
X43145437Y-151216166D01*
X43148856Y-151239221D01*
X43150000Y-151262500D01*
X43150000Y-151737500D01*
X43148856Y-151760779D01*
X43145437Y-151783834D01*
X43139773Y-151806443D01*
X43131921Y-151828387D01*
X43121956Y-151849457D01*
X43109974Y-151869448D01*
X43096090Y-151888168D01*
X43080438Y-151905438D01*
X43063168Y-151921090D01*
X43044448Y-151934974D01*
X43024457Y-151946956D01*
X43003387Y-151956921D01*
X42981443Y-151964773D01*
X42958834Y-151970437D01*
X42935779Y-151973856D01*
X42912500Y-151975000D01*
X42337500Y-151975000D01*
X42314221Y-151973856D01*
X42291166Y-151970437D01*
X42268557Y-151964773D01*
X42246613Y-151956921D01*
X42225543Y-151946956D01*
X42205552Y-151934974D01*
X42186832Y-151921090D01*
X42169562Y-151905438D01*
X42153910Y-151888168D01*
X42140026Y-151869448D01*
X42128044Y-151849457D01*
X42118079Y-151828387D01*
X42110227Y-151806443D01*
X42104563Y-151783834D01*
X42101144Y-151760779D01*
X42100000Y-151737500D01*
X42100000Y-151262500D01*
X42101144Y-151239221D01*
X42104563Y-151216166D01*
X42110227Y-151193557D01*
X42118079Y-151171613D01*
X42128044Y-151150543D01*
X42140026Y-151130552D01*
X42153910Y-151111832D01*
X42169562Y-151094562D01*
X42186832Y-151078910D01*
X42205552Y-151065026D01*
X42225543Y-151053044D01*
X42246613Y-151043079D01*
X42268557Y-151035227D01*
X42291166Y-151029563D01*
X42314221Y-151026144D01*
X42337500Y-151025000D01*
X42912500Y-151025000D01*
X42935779Y-151026144D01*
X42935779Y-151026144D01*
G37*
D17*
X42625000Y-151500000D03*
D21*
X104024500Y-166972000D03*
X104024500Y-165702000D03*
X104024500Y-164432000D03*
X104024500Y-163162000D03*
X104024500Y-161892000D03*
X104024500Y-160622000D03*
X104024500Y-159352000D03*
X104024500Y-158082000D03*
X104024500Y-156812000D03*
X104024500Y-155542000D03*
X104024500Y-154272000D03*
D22*
X105537000Y-152759500D03*
X106807000Y-152759500D03*
X108077000Y-152759500D03*
X109347000Y-152759500D03*
X110617000Y-152759500D03*
X111887000Y-152759500D03*
X113157000Y-152759500D03*
X114427000Y-152759500D03*
X115697000Y-152759500D03*
X116967000Y-152759500D03*
X118237000Y-152759500D03*
D21*
X119749500Y-154272000D03*
X119749500Y-155542000D03*
X119749500Y-156812000D03*
X119749500Y-158082000D03*
X119749500Y-159352000D03*
X119749500Y-160622000D03*
X119749500Y-161892000D03*
X119749500Y-163162000D03*
X119749500Y-164432000D03*
X119749500Y-165702000D03*
X119749500Y-166972000D03*
D22*
X105537000Y-168484500D03*
X106807000Y-168484500D03*
X108077000Y-168484500D03*
X109347000Y-168484500D03*
X110617000Y-168484500D03*
X118237000Y-168484500D03*
X116967000Y-168484500D03*
X115697000Y-168484500D03*
X114427000Y-168484500D03*
X113157000Y-168484500D03*
X111887000Y-168484500D03*
X118237000Y-148799500D03*
X116967000Y-148799500D03*
X115697000Y-148799500D03*
X114427000Y-148799500D03*
X113157000Y-148799500D03*
X111887000Y-148799500D03*
X110617000Y-148799500D03*
X109347000Y-148799500D03*
X108077000Y-148799500D03*
X106807000Y-148799500D03*
X105537000Y-148799500D03*
D21*
X104024500Y-147287000D03*
X104024500Y-146017000D03*
X104024500Y-144747000D03*
X104024500Y-143477000D03*
X104024500Y-142207000D03*
X104024500Y-140937000D03*
X104024500Y-139667000D03*
X104024500Y-138397000D03*
X104024500Y-137127000D03*
X104024500Y-135857000D03*
X104024500Y-134587000D03*
D22*
X105537000Y-133074500D03*
X106807000Y-133074500D03*
X108077000Y-133074500D03*
X109347000Y-133074500D03*
X110617000Y-133074500D03*
X111887000Y-133074500D03*
X113157000Y-133074500D03*
X114427000Y-133074500D03*
X115697000Y-133074500D03*
X116967000Y-133074500D03*
X118237000Y-133074500D03*
D21*
X119749500Y-147287000D03*
X119749500Y-146017000D03*
X119749500Y-144747000D03*
X119749500Y-143477000D03*
X119749500Y-142207000D03*
X119749500Y-134587000D03*
X119749500Y-135857000D03*
X119749500Y-137127000D03*
X119749500Y-138397000D03*
X119749500Y-139667000D03*
X119749500Y-140937000D03*
D23*
X60472000Y-147287000D03*
X62972000Y-147287000D03*
D24*
X68872000Y-151327000D03*
X74422000Y-156177000D03*
X74422000Y-151327000D03*
X68872000Y-156177000D03*
D25*
X69107000Y-144602000D03*
X71647000Y-144602000D03*
X74187000Y-144602000D03*
D13*
G36*
X56146703Y-141272722D02*
G01*
X56161264Y-141274882D01*
X56175543Y-141278459D01*
X56189403Y-141283418D01*
X56202710Y-141289712D01*
X56215336Y-141297280D01*
X56227159Y-141306048D01*
X56238066Y-141315934D01*
X56247952Y-141326841D01*
X56256720Y-141338664D01*
X56264288Y-141351290D01*
X56270582Y-141364597D01*
X56275541Y-141378457D01*
X56279118Y-141392736D01*
X56281278Y-141407297D01*
X56282000Y-141422000D01*
X56282000Y-141722000D01*
X56281278Y-141736703D01*
X56279118Y-141751264D01*
X56275541Y-141765543D01*
X56270582Y-141779403D01*
X56264288Y-141792710D01*
X56256720Y-141805336D01*
X56247952Y-141817159D01*
X56238066Y-141828066D01*
X56227159Y-141837952D01*
X56215336Y-141846720D01*
X56202710Y-141854288D01*
X56189403Y-141860582D01*
X56175543Y-141865541D01*
X56161264Y-141869118D01*
X56146703Y-141871278D01*
X56132000Y-141872000D01*
X54482000Y-141872000D01*
X54467297Y-141871278D01*
X54452736Y-141869118D01*
X54438457Y-141865541D01*
X54424597Y-141860582D01*
X54411290Y-141854288D01*
X54398664Y-141846720D01*
X54386841Y-141837952D01*
X54375934Y-141828066D01*
X54366048Y-141817159D01*
X54357280Y-141805336D01*
X54349712Y-141792710D01*
X54343418Y-141779403D01*
X54338459Y-141765543D01*
X54334882Y-141751264D01*
X54332722Y-141736703D01*
X54332000Y-141722000D01*
X54332000Y-141422000D01*
X54332722Y-141407297D01*
X54334882Y-141392736D01*
X54338459Y-141378457D01*
X54343418Y-141364597D01*
X54349712Y-141351290D01*
X54357280Y-141338664D01*
X54366048Y-141326841D01*
X54375934Y-141315934D01*
X54386841Y-141306048D01*
X54398664Y-141297280D01*
X54411290Y-141289712D01*
X54424597Y-141283418D01*
X54438457Y-141278459D01*
X54452736Y-141274882D01*
X54467297Y-141272722D01*
X54482000Y-141272000D01*
X56132000Y-141272000D01*
X56146703Y-141272722D01*
X56146703Y-141272722D01*
G37*
D26*
X55307000Y-141572000D03*
D13*
G36*
X56146703Y-142542722D02*
G01*
X56161264Y-142544882D01*
X56175543Y-142548459D01*
X56189403Y-142553418D01*
X56202710Y-142559712D01*
X56215336Y-142567280D01*
X56227159Y-142576048D01*
X56238066Y-142585934D01*
X56247952Y-142596841D01*
X56256720Y-142608664D01*
X56264288Y-142621290D01*
X56270582Y-142634597D01*
X56275541Y-142648457D01*
X56279118Y-142662736D01*
X56281278Y-142677297D01*
X56282000Y-142692000D01*
X56282000Y-142992000D01*
X56281278Y-143006703D01*
X56279118Y-143021264D01*
X56275541Y-143035543D01*
X56270582Y-143049403D01*
X56264288Y-143062710D01*
X56256720Y-143075336D01*
X56247952Y-143087159D01*
X56238066Y-143098066D01*
X56227159Y-143107952D01*
X56215336Y-143116720D01*
X56202710Y-143124288D01*
X56189403Y-143130582D01*
X56175543Y-143135541D01*
X56161264Y-143139118D01*
X56146703Y-143141278D01*
X56132000Y-143142000D01*
X54482000Y-143142000D01*
X54467297Y-143141278D01*
X54452736Y-143139118D01*
X54438457Y-143135541D01*
X54424597Y-143130582D01*
X54411290Y-143124288D01*
X54398664Y-143116720D01*
X54386841Y-143107952D01*
X54375934Y-143098066D01*
X54366048Y-143087159D01*
X54357280Y-143075336D01*
X54349712Y-143062710D01*
X54343418Y-143049403D01*
X54338459Y-143035543D01*
X54334882Y-143021264D01*
X54332722Y-143006703D01*
X54332000Y-142992000D01*
X54332000Y-142692000D01*
X54332722Y-142677297D01*
X54334882Y-142662736D01*
X54338459Y-142648457D01*
X54343418Y-142634597D01*
X54349712Y-142621290D01*
X54357280Y-142608664D01*
X54366048Y-142596841D01*
X54375934Y-142585934D01*
X54386841Y-142576048D01*
X54398664Y-142567280D01*
X54411290Y-142559712D01*
X54424597Y-142553418D01*
X54438457Y-142548459D01*
X54452736Y-142544882D01*
X54467297Y-142542722D01*
X54482000Y-142542000D01*
X56132000Y-142542000D01*
X56146703Y-142542722D01*
X56146703Y-142542722D01*
G37*
D26*
X55307000Y-142842000D03*
D13*
G36*
X56146703Y-143812722D02*
G01*
X56161264Y-143814882D01*
X56175543Y-143818459D01*
X56189403Y-143823418D01*
X56202710Y-143829712D01*
X56215336Y-143837280D01*
X56227159Y-143846048D01*
X56238066Y-143855934D01*
X56247952Y-143866841D01*
X56256720Y-143878664D01*
X56264288Y-143891290D01*
X56270582Y-143904597D01*
X56275541Y-143918457D01*
X56279118Y-143932736D01*
X56281278Y-143947297D01*
X56282000Y-143962000D01*
X56282000Y-144262000D01*
X56281278Y-144276703D01*
X56279118Y-144291264D01*
X56275541Y-144305543D01*
X56270582Y-144319403D01*
X56264288Y-144332710D01*
X56256720Y-144345336D01*
X56247952Y-144357159D01*
X56238066Y-144368066D01*
X56227159Y-144377952D01*
X56215336Y-144386720D01*
X56202710Y-144394288D01*
X56189403Y-144400582D01*
X56175543Y-144405541D01*
X56161264Y-144409118D01*
X56146703Y-144411278D01*
X56132000Y-144412000D01*
X54482000Y-144412000D01*
X54467297Y-144411278D01*
X54452736Y-144409118D01*
X54438457Y-144405541D01*
X54424597Y-144400582D01*
X54411290Y-144394288D01*
X54398664Y-144386720D01*
X54386841Y-144377952D01*
X54375934Y-144368066D01*
X54366048Y-144357159D01*
X54357280Y-144345336D01*
X54349712Y-144332710D01*
X54343418Y-144319403D01*
X54338459Y-144305543D01*
X54334882Y-144291264D01*
X54332722Y-144276703D01*
X54332000Y-144262000D01*
X54332000Y-143962000D01*
X54332722Y-143947297D01*
X54334882Y-143932736D01*
X54338459Y-143918457D01*
X54343418Y-143904597D01*
X54349712Y-143891290D01*
X54357280Y-143878664D01*
X54366048Y-143866841D01*
X54375934Y-143855934D01*
X54386841Y-143846048D01*
X54398664Y-143837280D01*
X54411290Y-143829712D01*
X54424597Y-143823418D01*
X54438457Y-143818459D01*
X54452736Y-143814882D01*
X54467297Y-143812722D01*
X54482000Y-143812000D01*
X56132000Y-143812000D01*
X56146703Y-143812722D01*
X56146703Y-143812722D01*
G37*
D26*
X55307000Y-144112000D03*
D13*
G36*
X56146703Y-145082722D02*
G01*
X56161264Y-145084882D01*
X56175543Y-145088459D01*
X56189403Y-145093418D01*
X56202710Y-145099712D01*
X56215336Y-145107280D01*
X56227159Y-145116048D01*
X56238066Y-145125934D01*
X56247952Y-145136841D01*
X56256720Y-145148664D01*
X56264288Y-145161290D01*
X56270582Y-145174597D01*
X56275541Y-145188457D01*
X56279118Y-145202736D01*
X56281278Y-145217297D01*
X56282000Y-145232000D01*
X56282000Y-145532000D01*
X56281278Y-145546703D01*
X56279118Y-145561264D01*
X56275541Y-145575543D01*
X56270582Y-145589403D01*
X56264288Y-145602710D01*
X56256720Y-145615336D01*
X56247952Y-145627159D01*
X56238066Y-145638066D01*
X56227159Y-145647952D01*
X56215336Y-145656720D01*
X56202710Y-145664288D01*
X56189403Y-145670582D01*
X56175543Y-145675541D01*
X56161264Y-145679118D01*
X56146703Y-145681278D01*
X56132000Y-145682000D01*
X54482000Y-145682000D01*
X54467297Y-145681278D01*
X54452736Y-145679118D01*
X54438457Y-145675541D01*
X54424597Y-145670582D01*
X54411290Y-145664288D01*
X54398664Y-145656720D01*
X54386841Y-145647952D01*
X54375934Y-145638066D01*
X54366048Y-145627159D01*
X54357280Y-145615336D01*
X54349712Y-145602710D01*
X54343418Y-145589403D01*
X54338459Y-145575543D01*
X54334882Y-145561264D01*
X54332722Y-145546703D01*
X54332000Y-145532000D01*
X54332000Y-145232000D01*
X54332722Y-145217297D01*
X54334882Y-145202736D01*
X54338459Y-145188457D01*
X54343418Y-145174597D01*
X54349712Y-145161290D01*
X54357280Y-145148664D01*
X54366048Y-145136841D01*
X54375934Y-145125934D01*
X54386841Y-145116048D01*
X54398664Y-145107280D01*
X54411290Y-145099712D01*
X54424597Y-145093418D01*
X54438457Y-145088459D01*
X54452736Y-145084882D01*
X54467297Y-145082722D01*
X54482000Y-145082000D01*
X56132000Y-145082000D01*
X56146703Y-145082722D01*
X56146703Y-145082722D01*
G37*
D26*
X55307000Y-145382000D03*
D13*
G36*
X51196703Y-145082722D02*
G01*
X51211264Y-145084882D01*
X51225543Y-145088459D01*
X51239403Y-145093418D01*
X51252710Y-145099712D01*
X51265336Y-145107280D01*
X51277159Y-145116048D01*
X51288066Y-145125934D01*
X51297952Y-145136841D01*
X51306720Y-145148664D01*
X51314288Y-145161290D01*
X51320582Y-145174597D01*
X51325541Y-145188457D01*
X51329118Y-145202736D01*
X51331278Y-145217297D01*
X51332000Y-145232000D01*
X51332000Y-145532000D01*
X51331278Y-145546703D01*
X51329118Y-145561264D01*
X51325541Y-145575543D01*
X51320582Y-145589403D01*
X51314288Y-145602710D01*
X51306720Y-145615336D01*
X51297952Y-145627159D01*
X51288066Y-145638066D01*
X51277159Y-145647952D01*
X51265336Y-145656720D01*
X51252710Y-145664288D01*
X51239403Y-145670582D01*
X51225543Y-145675541D01*
X51211264Y-145679118D01*
X51196703Y-145681278D01*
X51182000Y-145682000D01*
X49532000Y-145682000D01*
X49517297Y-145681278D01*
X49502736Y-145679118D01*
X49488457Y-145675541D01*
X49474597Y-145670582D01*
X49461290Y-145664288D01*
X49448664Y-145656720D01*
X49436841Y-145647952D01*
X49425934Y-145638066D01*
X49416048Y-145627159D01*
X49407280Y-145615336D01*
X49399712Y-145602710D01*
X49393418Y-145589403D01*
X49388459Y-145575543D01*
X49384882Y-145561264D01*
X49382722Y-145546703D01*
X49382000Y-145532000D01*
X49382000Y-145232000D01*
X49382722Y-145217297D01*
X49384882Y-145202736D01*
X49388459Y-145188457D01*
X49393418Y-145174597D01*
X49399712Y-145161290D01*
X49407280Y-145148664D01*
X49416048Y-145136841D01*
X49425934Y-145125934D01*
X49436841Y-145116048D01*
X49448664Y-145107280D01*
X49461290Y-145099712D01*
X49474597Y-145093418D01*
X49488457Y-145088459D01*
X49502736Y-145084882D01*
X49517297Y-145082722D01*
X49532000Y-145082000D01*
X51182000Y-145082000D01*
X51196703Y-145082722D01*
X51196703Y-145082722D01*
G37*
D26*
X50357000Y-145382000D03*
D13*
G36*
X51196703Y-143812722D02*
G01*
X51211264Y-143814882D01*
X51225543Y-143818459D01*
X51239403Y-143823418D01*
X51252710Y-143829712D01*
X51265336Y-143837280D01*
X51277159Y-143846048D01*
X51288066Y-143855934D01*
X51297952Y-143866841D01*
X51306720Y-143878664D01*
X51314288Y-143891290D01*
X51320582Y-143904597D01*
X51325541Y-143918457D01*
X51329118Y-143932736D01*
X51331278Y-143947297D01*
X51332000Y-143962000D01*
X51332000Y-144262000D01*
X51331278Y-144276703D01*
X51329118Y-144291264D01*
X51325541Y-144305543D01*
X51320582Y-144319403D01*
X51314288Y-144332710D01*
X51306720Y-144345336D01*
X51297952Y-144357159D01*
X51288066Y-144368066D01*
X51277159Y-144377952D01*
X51265336Y-144386720D01*
X51252710Y-144394288D01*
X51239403Y-144400582D01*
X51225543Y-144405541D01*
X51211264Y-144409118D01*
X51196703Y-144411278D01*
X51182000Y-144412000D01*
X49532000Y-144412000D01*
X49517297Y-144411278D01*
X49502736Y-144409118D01*
X49488457Y-144405541D01*
X49474597Y-144400582D01*
X49461290Y-144394288D01*
X49448664Y-144386720D01*
X49436841Y-144377952D01*
X49425934Y-144368066D01*
X49416048Y-144357159D01*
X49407280Y-144345336D01*
X49399712Y-144332710D01*
X49393418Y-144319403D01*
X49388459Y-144305543D01*
X49384882Y-144291264D01*
X49382722Y-144276703D01*
X49382000Y-144262000D01*
X49382000Y-143962000D01*
X49382722Y-143947297D01*
X49384882Y-143932736D01*
X49388459Y-143918457D01*
X49393418Y-143904597D01*
X49399712Y-143891290D01*
X49407280Y-143878664D01*
X49416048Y-143866841D01*
X49425934Y-143855934D01*
X49436841Y-143846048D01*
X49448664Y-143837280D01*
X49461290Y-143829712D01*
X49474597Y-143823418D01*
X49488457Y-143818459D01*
X49502736Y-143814882D01*
X49517297Y-143812722D01*
X49532000Y-143812000D01*
X51182000Y-143812000D01*
X51196703Y-143812722D01*
X51196703Y-143812722D01*
G37*
D26*
X50357000Y-144112000D03*
D13*
G36*
X51196703Y-142542722D02*
G01*
X51211264Y-142544882D01*
X51225543Y-142548459D01*
X51239403Y-142553418D01*
X51252710Y-142559712D01*
X51265336Y-142567280D01*
X51277159Y-142576048D01*
X51288066Y-142585934D01*
X51297952Y-142596841D01*
X51306720Y-142608664D01*
X51314288Y-142621290D01*
X51320582Y-142634597D01*
X51325541Y-142648457D01*
X51329118Y-142662736D01*
X51331278Y-142677297D01*
X51332000Y-142692000D01*
X51332000Y-142992000D01*
X51331278Y-143006703D01*
X51329118Y-143021264D01*
X51325541Y-143035543D01*
X51320582Y-143049403D01*
X51314288Y-143062710D01*
X51306720Y-143075336D01*
X51297952Y-143087159D01*
X51288066Y-143098066D01*
X51277159Y-143107952D01*
X51265336Y-143116720D01*
X51252710Y-143124288D01*
X51239403Y-143130582D01*
X51225543Y-143135541D01*
X51211264Y-143139118D01*
X51196703Y-143141278D01*
X51182000Y-143142000D01*
X49532000Y-143142000D01*
X49517297Y-143141278D01*
X49502736Y-143139118D01*
X49488457Y-143135541D01*
X49474597Y-143130582D01*
X49461290Y-143124288D01*
X49448664Y-143116720D01*
X49436841Y-143107952D01*
X49425934Y-143098066D01*
X49416048Y-143087159D01*
X49407280Y-143075336D01*
X49399712Y-143062710D01*
X49393418Y-143049403D01*
X49388459Y-143035543D01*
X49384882Y-143021264D01*
X49382722Y-143006703D01*
X49382000Y-142992000D01*
X49382000Y-142692000D01*
X49382722Y-142677297D01*
X49384882Y-142662736D01*
X49388459Y-142648457D01*
X49393418Y-142634597D01*
X49399712Y-142621290D01*
X49407280Y-142608664D01*
X49416048Y-142596841D01*
X49425934Y-142585934D01*
X49436841Y-142576048D01*
X49448664Y-142567280D01*
X49461290Y-142559712D01*
X49474597Y-142553418D01*
X49488457Y-142548459D01*
X49502736Y-142544882D01*
X49517297Y-142542722D01*
X49532000Y-142542000D01*
X51182000Y-142542000D01*
X51196703Y-142542722D01*
X51196703Y-142542722D01*
G37*
D26*
X50357000Y-142842000D03*
D13*
G36*
X51196703Y-141272722D02*
G01*
X51211264Y-141274882D01*
X51225543Y-141278459D01*
X51239403Y-141283418D01*
X51252710Y-141289712D01*
X51265336Y-141297280D01*
X51277159Y-141306048D01*
X51288066Y-141315934D01*
X51297952Y-141326841D01*
X51306720Y-141338664D01*
X51314288Y-141351290D01*
X51320582Y-141364597D01*
X51325541Y-141378457D01*
X51329118Y-141392736D01*
X51331278Y-141407297D01*
X51332000Y-141422000D01*
X51332000Y-141722000D01*
X51331278Y-141736703D01*
X51329118Y-141751264D01*
X51325541Y-141765543D01*
X51320582Y-141779403D01*
X51314288Y-141792710D01*
X51306720Y-141805336D01*
X51297952Y-141817159D01*
X51288066Y-141828066D01*
X51277159Y-141837952D01*
X51265336Y-141846720D01*
X51252710Y-141854288D01*
X51239403Y-141860582D01*
X51225543Y-141865541D01*
X51211264Y-141869118D01*
X51196703Y-141871278D01*
X51182000Y-141872000D01*
X49532000Y-141872000D01*
X49517297Y-141871278D01*
X49502736Y-141869118D01*
X49488457Y-141865541D01*
X49474597Y-141860582D01*
X49461290Y-141854288D01*
X49448664Y-141846720D01*
X49436841Y-141837952D01*
X49425934Y-141828066D01*
X49416048Y-141817159D01*
X49407280Y-141805336D01*
X49399712Y-141792710D01*
X49393418Y-141779403D01*
X49388459Y-141765543D01*
X49384882Y-141751264D01*
X49382722Y-141736703D01*
X49382000Y-141722000D01*
X49382000Y-141422000D01*
X49382722Y-141407297D01*
X49384882Y-141392736D01*
X49388459Y-141378457D01*
X49393418Y-141364597D01*
X49399712Y-141351290D01*
X49407280Y-141338664D01*
X49416048Y-141326841D01*
X49425934Y-141315934D01*
X49436841Y-141306048D01*
X49448664Y-141297280D01*
X49461290Y-141289712D01*
X49474597Y-141283418D01*
X49488457Y-141278459D01*
X49502736Y-141274882D01*
X49517297Y-141272722D01*
X49532000Y-141272000D01*
X51182000Y-141272000D01*
X51196703Y-141272722D01*
X51196703Y-141272722D01*
G37*
D26*
X50357000Y-141572000D03*
D13*
G36*
X56021504Y-150168204D02*
G01*
X56045773Y-150171804D01*
X56069571Y-150177765D01*
X56092671Y-150186030D01*
X56114849Y-150196520D01*
X56135893Y-150209133D01*
X56155598Y-150223747D01*
X56173777Y-150240223D01*
X56190253Y-150258402D01*
X56204867Y-150278107D01*
X56217480Y-150299151D01*
X56227970Y-150321329D01*
X56236235Y-150344429D01*
X56242196Y-150368227D01*
X56245796Y-150392496D01*
X56247000Y-150417000D01*
X56247000Y-151342000D01*
X56245796Y-151366504D01*
X56242196Y-151390773D01*
X56236235Y-151414571D01*
X56227970Y-151437671D01*
X56217480Y-151459849D01*
X56204867Y-151480893D01*
X56190253Y-151500598D01*
X56173777Y-151518777D01*
X56155598Y-151535253D01*
X56135893Y-151549867D01*
X56114849Y-151562480D01*
X56092671Y-151572970D01*
X56069571Y-151581235D01*
X56045773Y-151587196D01*
X56021504Y-151590796D01*
X55997000Y-151592000D01*
X54747000Y-151592000D01*
X54722496Y-151590796D01*
X54698227Y-151587196D01*
X54674429Y-151581235D01*
X54651329Y-151572970D01*
X54629151Y-151562480D01*
X54608107Y-151549867D01*
X54588402Y-151535253D01*
X54570223Y-151518777D01*
X54553747Y-151500598D01*
X54539133Y-151480893D01*
X54526520Y-151459849D01*
X54516030Y-151437671D01*
X54507765Y-151414571D01*
X54501804Y-151390773D01*
X54498204Y-151366504D01*
X54497000Y-151342000D01*
X54497000Y-150417000D01*
X54498204Y-150392496D01*
X54501804Y-150368227D01*
X54507765Y-150344429D01*
X54516030Y-150321329D01*
X54526520Y-150299151D01*
X54539133Y-150278107D01*
X54553747Y-150258402D01*
X54570223Y-150240223D01*
X54588402Y-150223747D01*
X54608107Y-150209133D01*
X54629151Y-150196520D01*
X54651329Y-150186030D01*
X54674429Y-150177765D01*
X54698227Y-150171804D01*
X54722496Y-150168204D01*
X54747000Y-150167000D01*
X55997000Y-150167000D01*
X56021504Y-150168204D01*
X56021504Y-150168204D01*
G37*
D18*
X55372000Y-150879500D03*
D13*
G36*
X56021504Y-153143204D02*
G01*
X56045773Y-153146804D01*
X56069571Y-153152765D01*
X56092671Y-153161030D01*
X56114849Y-153171520D01*
X56135893Y-153184133D01*
X56155598Y-153198747D01*
X56173777Y-153215223D01*
X56190253Y-153233402D01*
X56204867Y-153253107D01*
X56217480Y-153274151D01*
X56227970Y-153296329D01*
X56236235Y-153319429D01*
X56242196Y-153343227D01*
X56245796Y-153367496D01*
X56247000Y-153392000D01*
X56247000Y-154317000D01*
X56245796Y-154341504D01*
X56242196Y-154365773D01*
X56236235Y-154389571D01*
X56227970Y-154412671D01*
X56217480Y-154434849D01*
X56204867Y-154455893D01*
X56190253Y-154475598D01*
X56173777Y-154493777D01*
X56155598Y-154510253D01*
X56135893Y-154524867D01*
X56114849Y-154537480D01*
X56092671Y-154547970D01*
X56069571Y-154556235D01*
X56045773Y-154562196D01*
X56021504Y-154565796D01*
X55997000Y-154567000D01*
X54747000Y-154567000D01*
X54722496Y-154565796D01*
X54698227Y-154562196D01*
X54674429Y-154556235D01*
X54651329Y-154547970D01*
X54629151Y-154537480D01*
X54608107Y-154524867D01*
X54588402Y-154510253D01*
X54570223Y-154493777D01*
X54553747Y-154475598D01*
X54539133Y-154455893D01*
X54526520Y-154434849D01*
X54516030Y-154412671D01*
X54507765Y-154389571D01*
X54501804Y-154365773D01*
X54498204Y-154341504D01*
X54497000Y-154317000D01*
X54497000Y-153392000D01*
X54498204Y-153367496D01*
X54501804Y-153343227D01*
X54507765Y-153319429D01*
X54516030Y-153296329D01*
X54526520Y-153274151D01*
X54539133Y-153253107D01*
X54553747Y-153233402D01*
X54570223Y-153215223D01*
X54588402Y-153198747D01*
X54608107Y-153184133D01*
X54629151Y-153171520D01*
X54651329Y-153161030D01*
X54674429Y-153152765D01*
X54698227Y-153146804D01*
X54722496Y-153143204D01*
X54747000Y-153142000D01*
X55997000Y-153142000D01*
X56021504Y-153143204D01*
X56021504Y-153143204D01*
G37*
D18*
X55372000Y-153854500D03*
D13*
G36*
X52211504Y-153143204D02*
G01*
X52235773Y-153146804D01*
X52259571Y-153152765D01*
X52282671Y-153161030D01*
X52304849Y-153171520D01*
X52325893Y-153184133D01*
X52345598Y-153198747D01*
X52363777Y-153215223D01*
X52380253Y-153233402D01*
X52394867Y-153253107D01*
X52407480Y-153274151D01*
X52417970Y-153296329D01*
X52426235Y-153319429D01*
X52432196Y-153343227D01*
X52435796Y-153367496D01*
X52437000Y-153392000D01*
X52437000Y-154317000D01*
X52435796Y-154341504D01*
X52432196Y-154365773D01*
X52426235Y-154389571D01*
X52417970Y-154412671D01*
X52407480Y-154434849D01*
X52394867Y-154455893D01*
X52380253Y-154475598D01*
X52363777Y-154493777D01*
X52345598Y-154510253D01*
X52325893Y-154524867D01*
X52304849Y-154537480D01*
X52282671Y-154547970D01*
X52259571Y-154556235D01*
X52235773Y-154562196D01*
X52211504Y-154565796D01*
X52187000Y-154567000D01*
X50937000Y-154567000D01*
X50912496Y-154565796D01*
X50888227Y-154562196D01*
X50864429Y-154556235D01*
X50841329Y-154547970D01*
X50819151Y-154537480D01*
X50798107Y-154524867D01*
X50778402Y-154510253D01*
X50760223Y-154493777D01*
X50743747Y-154475598D01*
X50729133Y-154455893D01*
X50716520Y-154434849D01*
X50706030Y-154412671D01*
X50697765Y-154389571D01*
X50691804Y-154365773D01*
X50688204Y-154341504D01*
X50687000Y-154317000D01*
X50687000Y-153392000D01*
X50688204Y-153367496D01*
X50691804Y-153343227D01*
X50697765Y-153319429D01*
X50706030Y-153296329D01*
X50716520Y-153274151D01*
X50729133Y-153253107D01*
X50743747Y-153233402D01*
X50760223Y-153215223D01*
X50778402Y-153198747D01*
X50798107Y-153184133D01*
X50819151Y-153171520D01*
X50841329Y-153161030D01*
X50864429Y-153152765D01*
X50888227Y-153146804D01*
X50912496Y-153143204D01*
X50937000Y-153142000D01*
X52187000Y-153142000D01*
X52211504Y-153143204D01*
X52211504Y-153143204D01*
G37*
D18*
X51562000Y-153854500D03*
D13*
G36*
X52211504Y-150168204D02*
G01*
X52235773Y-150171804D01*
X52259571Y-150177765D01*
X52282671Y-150186030D01*
X52304849Y-150196520D01*
X52325893Y-150209133D01*
X52345598Y-150223747D01*
X52363777Y-150240223D01*
X52380253Y-150258402D01*
X52394867Y-150278107D01*
X52407480Y-150299151D01*
X52417970Y-150321329D01*
X52426235Y-150344429D01*
X52432196Y-150368227D01*
X52435796Y-150392496D01*
X52437000Y-150417000D01*
X52437000Y-151342000D01*
X52435796Y-151366504D01*
X52432196Y-151390773D01*
X52426235Y-151414571D01*
X52417970Y-151437671D01*
X52407480Y-151459849D01*
X52394867Y-151480893D01*
X52380253Y-151500598D01*
X52363777Y-151518777D01*
X52345598Y-151535253D01*
X52325893Y-151549867D01*
X52304849Y-151562480D01*
X52282671Y-151572970D01*
X52259571Y-151581235D01*
X52235773Y-151587196D01*
X52211504Y-151590796D01*
X52187000Y-151592000D01*
X50937000Y-151592000D01*
X50912496Y-151590796D01*
X50888227Y-151587196D01*
X50864429Y-151581235D01*
X50841329Y-151572970D01*
X50819151Y-151562480D01*
X50798107Y-151549867D01*
X50778402Y-151535253D01*
X50760223Y-151518777D01*
X50743747Y-151500598D01*
X50729133Y-151480893D01*
X50716520Y-151459849D01*
X50706030Y-151437671D01*
X50697765Y-151414571D01*
X50691804Y-151390773D01*
X50688204Y-151366504D01*
X50687000Y-151342000D01*
X50687000Y-150417000D01*
X50688204Y-150392496D01*
X50691804Y-150368227D01*
X50697765Y-150344429D01*
X50706030Y-150321329D01*
X50716520Y-150299151D01*
X50729133Y-150278107D01*
X50743747Y-150258402D01*
X50760223Y-150240223D01*
X50778402Y-150223747D01*
X50798107Y-150209133D01*
X50819151Y-150196520D01*
X50841329Y-150186030D01*
X50864429Y-150177765D01*
X50888227Y-150171804D01*
X50912496Y-150168204D01*
X50937000Y-150167000D01*
X52187000Y-150167000D01*
X52211504Y-150168204D01*
X52211504Y-150168204D01*
G37*
D18*
X51562000Y-150879500D03*
D13*
G36*
X61157779Y-143003144D02*
G01*
X61180834Y-143006563D01*
X61203443Y-143012227D01*
X61225387Y-143020079D01*
X61246457Y-143030044D01*
X61266448Y-143042026D01*
X61285168Y-143055910D01*
X61302438Y-143071562D01*
X61318090Y-143088832D01*
X61331974Y-143107552D01*
X61343956Y-143127543D01*
X61353921Y-143148613D01*
X61361773Y-143170557D01*
X61367437Y-143193166D01*
X61370856Y-143216221D01*
X61372000Y-143239500D01*
X61372000Y-143714500D01*
X61370856Y-143737779D01*
X61367437Y-143760834D01*
X61361773Y-143783443D01*
X61353921Y-143805387D01*
X61343956Y-143826457D01*
X61331974Y-143846448D01*
X61318090Y-143865168D01*
X61302438Y-143882438D01*
X61285168Y-143898090D01*
X61266448Y-143911974D01*
X61246457Y-143923956D01*
X61225387Y-143933921D01*
X61203443Y-143941773D01*
X61180834Y-143947437D01*
X61157779Y-143950856D01*
X61134500Y-143952000D01*
X60559500Y-143952000D01*
X60536221Y-143950856D01*
X60513166Y-143947437D01*
X60490557Y-143941773D01*
X60468613Y-143933921D01*
X60447543Y-143923956D01*
X60427552Y-143911974D01*
X60408832Y-143898090D01*
X60391562Y-143882438D01*
X60375910Y-143865168D01*
X60362026Y-143846448D01*
X60350044Y-143826457D01*
X60340079Y-143805387D01*
X60332227Y-143783443D01*
X60326563Y-143760834D01*
X60323144Y-143737779D01*
X60322000Y-143714500D01*
X60322000Y-143239500D01*
X60323144Y-143216221D01*
X60326563Y-143193166D01*
X60332227Y-143170557D01*
X60340079Y-143148613D01*
X60350044Y-143127543D01*
X60362026Y-143107552D01*
X60375910Y-143088832D01*
X60391562Y-143071562D01*
X60408832Y-143055910D01*
X60427552Y-143042026D01*
X60447543Y-143030044D01*
X60468613Y-143020079D01*
X60490557Y-143012227D01*
X60513166Y-143006563D01*
X60536221Y-143003144D01*
X60559500Y-143002000D01*
X61134500Y-143002000D01*
X61157779Y-143003144D01*
X61157779Y-143003144D01*
G37*
D17*
X60847000Y-143477000D03*
D13*
G36*
X62907779Y-143003144D02*
G01*
X62930834Y-143006563D01*
X62953443Y-143012227D01*
X62975387Y-143020079D01*
X62996457Y-143030044D01*
X63016448Y-143042026D01*
X63035168Y-143055910D01*
X63052438Y-143071562D01*
X63068090Y-143088832D01*
X63081974Y-143107552D01*
X63093956Y-143127543D01*
X63103921Y-143148613D01*
X63111773Y-143170557D01*
X63117437Y-143193166D01*
X63120856Y-143216221D01*
X63122000Y-143239500D01*
X63122000Y-143714500D01*
X63120856Y-143737779D01*
X63117437Y-143760834D01*
X63111773Y-143783443D01*
X63103921Y-143805387D01*
X63093956Y-143826457D01*
X63081974Y-143846448D01*
X63068090Y-143865168D01*
X63052438Y-143882438D01*
X63035168Y-143898090D01*
X63016448Y-143911974D01*
X62996457Y-143923956D01*
X62975387Y-143933921D01*
X62953443Y-143941773D01*
X62930834Y-143947437D01*
X62907779Y-143950856D01*
X62884500Y-143952000D01*
X62309500Y-143952000D01*
X62286221Y-143950856D01*
X62263166Y-143947437D01*
X62240557Y-143941773D01*
X62218613Y-143933921D01*
X62197543Y-143923956D01*
X62177552Y-143911974D01*
X62158832Y-143898090D01*
X62141562Y-143882438D01*
X62125910Y-143865168D01*
X62112026Y-143846448D01*
X62100044Y-143826457D01*
X62090079Y-143805387D01*
X62082227Y-143783443D01*
X62076563Y-143760834D01*
X62073144Y-143737779D01*
X62072000Y-143714500D01*
X62072000Y-143239500D01*
X62073144Y-143216221D01*
X62076563Y-143193166D01*
X62082227Y-143170557D01*
X62090079Y-143148613D01*
X62100044Y-143127543D01*
X62112026Y-143107552D01*
X62125910Y-143088832D01*
X62141562Y-143071562D01*
X62158832Y-143055910D01*
X62177552Y-143042026D01*
X62197543Y-143030044D01*
X62218613Y-143020079D01*
X62240557Y-143012227D01*
X62263166Y-143006563D01*
X62286221Y-143003144D01*
X62309500Y-143002000D01*
X62884500Y-143002000D01*
X62907779Y-143003144D01*
X62907779Y-143003144D01*
G37*
D17*
X62597000Y-143477000D03*
D13*
G36*
X51831504Y-135041204D02*
G01*
X51855773Y-135044804D01*
X51879571Y-135050765D01*
X51902671Y-135059030D01*
X51924849Y-135069520D01*
X51945893Y-135082133D01*
X51965598Y-135096747D01*
X51983777Y-135113223D01*
X52000253Y-135131402D01*
X52014867Y-135151107D01*
X52027480Y-135172151D01*
X52037970Y-135194329D01*
X52046235Y-135217429D01*
X52052196Y-135241227D01*
X52055796Y-135265496D01*
X52057000Y-135290000D01*
X52057000Y-137440000D01*
X52055796Y-137464504D01*
X52052196Y-137488773D01*
X52046235Y-137512571D01*
X52037970Y-137535671D01*
X52027480Y-137557849D01*
X52014867Y-137578893D01*
X52000253Y-137598598D01*
X51983777Y-137616777D01*
X51965598Y-137633253D01*
X51945893Y-137647867D01*
X51924849Y-137660480D01*
X51902671Y-137670970D01*
X51879571Y-137679235D01*
X51855773Y-137685196D01*
X51831504Y-137688796D01*
X51807000Y-137690000D01*
X50882000Y-137690000D01*
X50857496Y-137688796D01*
X50833227Y-137685196D01*
X50809429Y-137679235D01*
X50786329Y-137670970D01*
X50764151Y-137660480D01*
X50743107Y-137647867D01*
X50723402Y-137633253D01*
X50705223Y-137616777D01*
X50688747Y-137598598D01*
X50674133Y-137578893D01*
X50661520Y-137557849D01*
X50651030Y-137535671D01*
X50642765Y-137512571D01*
X50636804Y-137488773D01*
X50633204Y-137464504D01*
X50632000Y-137440000D01*
X50632000Y-135290000D01*
X50633204Y-135265496D01*
X50636804Y-135241227D01*
X50642765Y-135217429D01*
X50651030Y-135194329D01*
X50661520Y-135172151D01*
X50674133Y-135151107D01*
X50688747Y-135131402D01*
X50705223Y-135113223D01*
X50723402Y-135096747D01*
X50743107Y-135082133D01*
X50764151Y-135069520D01*
X50786329Y-135059030D01*
X50809429Y-135050765D01*
X50833227Y-135044804D01*
X50857496Y-135041204D01*
X50882000Y-135040000D01*
X51807000Y-135040000D01*
X51831504Y-135041204D01*
X51831504Y-135041204D01*
G37*
D18*
X51344500Y-136365000D03*
D13*
G36*
X54806504Y-135041204D02*
G01*
X54830773Y-135044804D01*
X54854571Y-135050765D01*
X54877671Y-135059030D01*
X54899849Y-135069520D01*
X54920893Y-135082133D01*
X54940598Y-135096747D01*
X54958777Y-135113223D01*
X54975253Y-135131402D01*
X54989867Y-135151107D01*
X55002480Y-135172151D01*
X55012970Y-135194329D01*
X55021235Y-135217429D01*
X55027196Y-135241227D01*
X55030796Y-135265496D01*
X55032000Y-135290000D01*
X55032000Y-137440000D01*
X55030796Y-137464504D01*
X55027196Y-137488773D01*
X55021235Y-137512571D01*
X55012970Y-137535671D01*
X55002480Y-137557849D01*
X54989867Y-137578893D01*
X54975253Y-137598598D01*
X54958777Y-137616777D01*
X54940598Y-137633253D01*
X54920893Y-137647867D01*
X54899849Y-137660480D01*
X54877671Y-137670970D01*
X54854571Y-137679235D01*
X54830773Y-137685196D01*
X54806504Y-137688796D01*
X54782000Y-137690000D01*
X53857000Y-137690000D01*
X53832496Y-137688796D01*
X53808227Y-137685196D01*
X53784429Y-137679235D01*
X53761329Y-137670970D01*
X53739151Y-137660480D01*
X53718107Y-137647867D01*
X53698402Y-137633253D01*
X53680223Y-137616777D01*
X53663747Y-137598598D01*
X53649133Y-137578893D01*
X53636520Y-137557849D01*
X53626030Y-137535671D01*
X53617765Y-137512571D01*
X53611804Y-137488773D01*
X53608204Y-137464504D01*
X53607000Y-137440000D01*
X53607000Y-135290000D01*
X53608204Y-135265496D01*
X53611804Y-135241227D01*
X53617765Y-135217429D01*
X53626030Y-135194329D01*
X53636520Y-135172151D01*
X53649133Y-135151107D01*
X53663747Y-135131402D01*
X53680223Y-135113223D01*
X53698402Y-135096747D01*
X53718107Y-135082133D01*
X53739151Y-135069520D01*
X53761329Y-135059030D01*
X53784429Y-135050765D01*
X53808227Y-135044804D01*
X53832496Y-135041204D01*
X53857000Y-135040000D01*
X54782000Y-135040000D01*
X54806504Y-135041204D01*
X54806504Y-135041204D01*
G37*
D18*
X54319500Y-136365000D03*
D27*
X89632000Y-148557000D03*
X79532000Y-148557000D03*
D23*
X62972000Y-158717000D03*
X60472000Y-158717000D03*
D13*
G36*
X49744691Y-146813053D02*
G01*
X49765926Y-146816203D01*
X49786750Y-146821419D01*
X49806962Y-146828651D01*
X49826368Y-146837830D01*
X49844781Y-146848866D01*
X49862024Y-146861654D01*
X49877930Y-146876070D01*
X49892346Y-146891976D01*
X49905134Y-146909219D01*
X49916170Y-146927632D01*
X49925349Y-146947038D01*
X49932581Y-146967250D01*
X49937797Y-146988074D01*
X49940947Y-147009309D01*
X49942000Y-147030750D01*
X49942000Y-147543250D01*
X49940947Y-147564691D01*
X49937797Y-147585926D01*
X49932581Y-147606750D01*
X49925349Y-147626962D01*
X49916170Y-147646368D01*
X49905134Y-147664781D01*
X49892346Y-147682024D01*
X49877930Y-147697930D01*
X49862024Y-147712346D01*
X49844781Y-147725134D01*
X49826368Y-147736170D01*
X49806962Y-147745349D01*
X49786750Y-147752581D01*
X49765926Y-147757797D01*
X49744691Y-147760947D01*
X49723250Y-147762000D01*
X49285750Y-147762000D01*
X49264309Y-147760947D01*
X49243074Y-147757797D01*
X49222250Y-147752581D01*
X49202038Y-147745349D01*
X49182632Y-147736170D01*
X49164219Y-147725134D01*
X49146976Y-147712346D01*
X49131070Y-147697930D01*
X49116654Y-147682024D01*
X49103866Y-147664781D01*
X49092830Y-147646368D01*
X49083651Y-147626962D01*
X49076419Y-147606750D01*
X49071203Y-147585926D01*
X49068053Y-147564691D01*
X49067000Y-147543250D01*
X49067000Y-147030750D01*
X49068053Y-147009309D01*
X49071203Y-146988074D01*
X49076419Y-146967250D01*
X49083651Y-146947038D01*
X49092830Y-146927632D01*
X49103866Y-146909219D01*
X49116654Y-146891976D01*
X49131070Y-146876070D01*
X49146976Y-146861654D01*
X49164219Y-146848866D01*
X49182632Y-146837830D01*
X49202038Y-146828651D01*
X49222250Y-146821419D01*
X49243074Y-146816203D01*
X49264309Y-146813053D01*
X49285750Y-146812000D01*
X49723250Y-146812000D01*
X49744691Y-146813053D01*
X49744691Y-146813053D01*
G37*
D28*
X49504500Y-147287000D03*
D13*
G36*
X51319691Y-146813053D02*
G01*
X51340926Y-146816203D01*
X51361750Y-146821419D01*
X51381962Y-146828651D01*
X51401368Y-146837830D01*
X51419781Y-146848866D01*
X51437024Y-146861654D01*
X51452930Y-146876070D01*
X51467346Y-146891976D01*
X51480134Y-146909219D01*
X51491170Y-146927632D01*
X51500349Y-146947038D01*
X51507581Y-146967250D01*
X51512797Y-146988074D01*
X51515947Y-147009309D01*
X51517000Y-147030750D01*
X51517000Y-147543250D01*
X51515947Y-147564691D01*
X51512797Y-147585926D01*
X51507581Y-147606750D01*
X51500349Y-147626962D01*
X51491170Y-147646368D01*
X51480134Y-147664781D01*
X51467346Y-147682024D01*
X51452930Y-147697930D01*
X51437024Y-147712346D01*
X51419781Y-147725134D01*
X51401368Y-147736170D01*
X51381962Y-147745349D01*
X51361750Y-147752581D01*
X51340926Y-147757797D01*
X51319691Y-147760947D01*
X51298250Y-147762000D01*
X50860750Y-147762000D01*
X50839309Y-147760947D01*
X50818074Y-147757797D01*
X50797250Y-147752581D01*
X50777038Y-147745349D01*
X50757632Y-147736170D01*
X50739219Y-147725134D01*
X50721976Y-147712346D01*
X50706070Y-147697930D01*
X50691654Y-147682024D01*
X50678866Y-147664781D01*
X50667830Y-147646368D01*
X50658651Y-147626962D01*
X50651419Y-147606750D01*
X50646203Y-147585926D01*
X50643053Y-147564691D01*
X50642000Y-147543250D01*
X50642000Y-147030750D01*
X50643053Y-147009309D01*
X50646203Y-146988074D01*
X50651419Y-146967250D01*
X50658651Y-146947038D01*
X50667830Y-146927632D01*
X50678866Y-146909219D01*
X50691654Y-146891976D01*
X50706070Y-146876070D01*
X50721976Y-146861654D01*
X50739219Y-146848866D01*
X50757632Y-146837830D01*
X50777038Y-146828651D01*
X50797250Y-146821419D01*
X50818074Y-146816203D01*
X50839309Y-146813053D01*
X50860750Y-146812000D01*
X51298250Y-146812000D01*
X51319691Y-146813053D01*
X51319691Y-146813053D01*
G37*
D28*
X51079500Y-147287000D03*
M02*
