M48
; DRILL file {KiCad 5.1.4} date Thu 29 Aug 2019 06:54:11 PM CEST
; FORMAT={-:-/ absolute / inch / decimal}
; #@! TF.CreationDate,2019-08-29T18:54:11+02:00
; #@! TF.GenerationSoftware,Kicad,Pcbnew,5.1.4
FMAT,2
INCH
T1C0.0118
T2C0.0177
T3C0.0197
T4C0.0315
T5C0.0394
T6C0.0400
T7C0.1024
T8C0.1260
%
G90
G05
T1
X1.4567Y-5.5906
X1.4567Y-5.8268
X1.6142Y-6.3189
X1.6142Y-6.437
X1.6142Y-6.5551
X1.6929Y-5.1772
X1.6929Y-5.2559
X1.6929Y-5.75
X1.7224Y-5.8858
X1.7287Y-4.8887
X1.752Y-6.063
X1.8307Y-5.3937
X1.8469Y-4.8887
X1.8504Y-6.063
X1.89Y-5.5037
X1.9291Y-5.1772
X1.9291Y-5.2559
X1.9488Y-6.2205
X1.96Y-5.8087
X2.01Y-5.7237
X2.1224Y-4.8887
X2.1969Y-5.2598
X2.2244Y-5.2953
X2.2406Y-4.8887
X2.2559Y-5.1969
X2.3882Y-6.365
X2.4213Y-6.0807
X2.4374Y-6.7323
X2.4409Y-5.9449
X2.5Y-5.8858
X2.526Y-6.365
X2.5949Y-6.7323
X2.6638Y-6.4044
X2.7036Y-5.1249
X2.7559Y-6.7323
X2.9098Y-6.7323
X2.9492Y-5.0855
X2.9528Y-5.3543
X2.9846Y-6.5157
X3.1067Y-5.0855
X3.1102Y-5.3543
X3.1102Y-6.3583
X3.2642Y-5.0855
X3.3429Y-5.7548
X3.3429Y-5.9123
X3.3429Y-6.0698
X3.7904Y-6.1111
X3.84Y-6.0637
X3.855Y-5.8537
X3.8925Y-5.8231
X3.905Y-4.7487
X3.9212Y-5.714
X3.9225Y-6.0762
X3.93Y-5.8287
X3.9338Y-5.8625
X4.0Y-4.7487
X4.045Y-5.0887
X4.055Y-5.5537
X4.055Y-5.7037
X4.055Y-5.8037
X4.105Y-4.7537
X4.15Y-5.0887
X4.18Y-5.7237
X4.195Y-6.5087
X4.205Y-5.5037
X4.205Y-5.9537
X4.255Y-5.7287
X4.255Y-5.9537
X4.2825Y-5.6487
X4.305Y-5.9562
X4.33Y-6.5087
X4.355Y-6.0787
X4.405Y-5.7037
X4.405Y-5.9537
X4.43Y-6.0787
X4.475Y-6.0937
X4.485Y-6.1337
X4.505Y-6.1737
X4.555Y-6.1737
X4.5634Y-5.3611
X4.5634Y-5.4398
X4.5634Y-5.5186
X4.605Y-6.1787
X4.63Y-6.5137
X4.7Y-5.1037
X4.78Y-5.2987
X4.78Y-5.3487
X4.78Y-5.3987
X4.78Y-5.4487
X4.78Y-5.4987
X4.78Y-5.5487
X4.78Y-5.5987
X4.78Y-5.6487
X4.795Y-5.1187
X4.7966Y-5.1653
X4.82Y-5.0537
X4.83Y-5.6987
X4.8465Y-6.6811
X4.865Y-5.4137
X4.8678Y-4.9487
X4.895Y-5.6487
X4.905Y-5.4237
X4.935Y-5.5937
X4.9382Y-5.441
X4.975Y-5.4587
X4.975Y-5.5487
X5.0Y-4.6537
X5.02Y-6.5737
X5.02Y-6.6337
X5.025Y-6.4737
X5.025Y-6.5237
X5.05Y-6.1237
X5.065Y-6.4487
X5.105Y-5.7737
X5.105Y-5.8887
X5.12Y-6.4537
X5.13Y-6.0287
X5.155Y-6.4287
X5.315Y-6.6037
X5.32Y-5.1637
X5.32Y-5.2987
X5.33Y-6.6437
X5.485Y-5.6787
X5.49Y-5.9837
X5.555Y-5.0787
X5.555Y-5.2087
X5.6Y-6.6837
X5.735Y-6.6837
X5.775Y-5.0237
X5.845Y-4.6687
X5.855Y-5.0437
X5.87Y-6.6837
X5.902Y-5.6367
X5.902Y-5.7942
X5.902Y-5.991
X5.902Y-6.1485
X5.915Y-5.0887
X5.935Y-4.7012
X5.97Y-4.7537
X6.055Y-4.6637
X6.055Y-4.7362
X6.075Y-4.7012
X6.24Y-5.1037
X6.275Y-5.1362
X6.31Y-5.1637
X6.345Y-5.1837
X6.45Y-6.1337
X6.45Y-6.3187
X6.45Y-6.5187
T2
X1.5354Y-5.9203
X1.6929Y-5.4626
X1.811Y-5.3563
X1.811Y-5.5906
X1.8504Y-5.8465
T3
X2.0214Y-5.3687
X2.105Y-5.6487
X2.18Y-6.0487
X2.255Y-5.7487
X2.255Y-5.9237
X2.8207Y-5.693
X2.8207Y-6.0532
X4.78Y-6.0737
X4.78Y-6.1237
X4.78Y-6.1737
X4.78Y-6.2237
X4.78Y-6.2737
X4.81Y-5.7587
X4.8293Y-5.793
X4.85Y-5.8287
X4.865Y-5.8687
X4.8725Y-5.9162
X5.255Y-6.6912
T4
X2.4803Y-5.2362
X2.4803Y-5.4331
X2.1063Y-6.2205
X2.1063Y-6.3189
T5
X5.205Y-4.8487
X5.205Y-4.9487
X5.305Y-4.8487
X5.305Y-4.9487
X5.405Y-4.8487
X5.405Y-4.9487
X5.505Y-4.8487
X5.505Y-4.9487
X5.605Y-4.8487
X5.605Y-4.9487
X5.705Y-4.8487
X5.705Y-4.9487
X5.805Y-4.8487
X5.805Y-4.9487
X5.905Y-4.8487
X5.905Y-4.9487
X6.005Y-4.8487
X6.005Y-4.9487
X6.105Y-4.8487
X6.105Y-4.9487
X3.855Y-4.8487
X3.855Y-4.9487
X3.955Y-4.8487
X3.955Y-4.9487
X4.055Y-4.8487
X4.055Y-4.9487
X4.155Y-4.8487
X4.155Y-4.9487
X4.255Y-4.8487
X4.255Y-4.9487
X4.355Y-4.8487
X4.355Y-4.9487
X4.455Y-4.8487
X4.455Y-4.9487
X4.555Y-4.8487
X4.555Y-4.9487
X4.655Y-4.8487
X4.655Y-4.9487
X4.755Y-4.8487
X4.755Y-4.9487
X2.505Y-4.8487
X2.505Y-4.9487
X2.605Y-4.8487
X2.605Y-4.9487
X2.705Y-4.8487
X2.705Y-4.9487
X2.805Y-4.8487
X2.805Y-4.9487
X2.905Y-4.8487
X2.905Y-4.9487
X3.005Y-4.8487
X3.005Y-4.9487
X3.105Y-4.8487
X3.105Y-4.9487
X3.205Y-4.8487
X3.205Y-4.9487
X3.305Y-4.8487
X3.305Y-4.9487
X3.405Y-4.8487
X3.405Y-4.9487
T6
X5.255Y-5.6037
X5.255Y-5.7037
X5.255Y-5.8037
X5.255Y-5.9037
X5.255Y-6.0037
X5.255Y-6.1037
X5.255Y-6.2037
X5.255Y-6.3037
X6.155Y-5.6037
X6.155Y-5.7037
X6.155Y-5.8037
X6.155Y-5.9037
X6.155Y-6.0037
X6.155Y-6.1037
X6.155Y-6.2037
X6.155Y-6.3037
T7
X1.9349Y-4.7613
T8
X6.4173Y-4.7343
X6.4173Y-6.7126
X1.5453Y-6.7126
X1.5453Y-4.7343
T4
G00X1.7893Y-4.6924
M15
G01X1.7893Y-4.7515
M16
G05
G00X1.805Y-4.9857
M15
G01X1.805Y-5.033
M16
G05
G00X1.9389Y-4.9857
M15
G01X1.9389Y-5.033
M16
G05
G00X2.1436Y-4.9857
M15
G01X2.1436Y-5.033
M16
G05
G00X2.179Y-4.6924
M15
G01X2.179Y-4.7515
M16
G05
T0
M30
