M48
; DRILL file {KiCad 5.1.4} date Thu 29 Aug 2019 06:55:27 PM CEST
; FORMAT={-:-/ absolute / inch / decimal}
; #@! TF.CreationDate,2019-08-29T18:55:27+02:00
; #@! TF.GenerationSoftware,Kicad,Pcbnew,5.1.4
FMAT,2
INCH
T1C0.0118
T2C0.0354
T3C0.0394
T4C0.0754
T5C0.2087
%
G90
G05
T1
X2.0177Y-2.687
X2.2362Y-3.3386
X2.2402Y-3.5157
X2.3524Y-3.189
X2.3701Y-3.5157
X2.374Y-3.3465
X2.4055Y-3.5157
X2.5787Y-3.3071
X2.7047Y-3.6161
X2.7067Y-3.5236
X2.7717Y-3.2717
X2.7717Y-3.5157
X2.8311Y-3.1564
X3.1102Y-2.5
X3.1299Y-3.1594
X3.2382Y-3.189
X3.5236Y-2.5787
X3.563Y-2.6772
X3.563Y-3.2776
X3.5748Y-3.1457
X3.6102Y-3.1772
X3.6417Y-3.2087
X3.6614Y-3.8425
X3.6614Y-3.8858
X3.6614Y-3.9213
X3.6614Y-3.9567
X3.6614Y-3.9921
X3.6614Y-4.0276
X3.6614Y-4.063
X3.6614Y-4.0984
X3.6693Y-3.7795
X3.6732Y-3.2402
X3.7047Y-3.2717
X3.7362Y-3.3031
X3.7835Y-3.7795
X3.7858Y-3.7272
X3.7874Y-3.5098
X3.7874Y-3.6476
X3.8976Y-3.6122
X3.9075Y-2.4882
X3.9862Y-3.6122
X4.0846Y-3.6122
X4.1929Y-3.6122
X4.3012Y-3.6122
X4.3996Y-3.2087
X4.4094Y-3.6122
X4.5079Y-3.6122
X4.6063Y-3.6122
X4.626Y-3.1693
X4.7441Y-3.3957
X4.7638Y-3.1102
X4.8583Y-3.6772
X4.878Y-3.6457
X4.8937Y-3.6102
X4.9213Y-3.3169
X4.9291Y-3.8071
X5.0Y-2.7559
X5.1378Y-3.7795
X5.1417Y-3.8425
X5.185Y-3.8858
X5.2087Y-3.3937
X5.2126Y-3.9331
X5.2165Y-2.937
X5.248Y-2.7677
X5.3071Y-3.3346
X5.3543Y-3.4941
X5.4528Y-3.4941
X5.5118Y-3.937
X5.5512Y-3.4941
X5.6496Y-3.1496
X5.6496Y-3.4941
X5.6496Y-3.9272
X5.6657Y-3.3926
X5.7579Y-3.9272
X5.8563Y-3.9272
X5.8626Y-3.3926
X5.9252Y-3.0
X5.9252Y-3.2283
X5.9547Y-3.8583
X5.96Y-3.3926
X6.0079Y-3.2283
X6.063Y-3.3957
X6.2366Y-3.7076
X6.2366Y-3.8847
X6.2366Y-4.052
T2
X4.0122Y-2.6627
X4.0122Y-2.7627
X4.0122Y-3.0957
X4.0122Y-3.1957
T3
X2.5051Y-3.6792
X2.5051Y-3.7792
X2.6051Y-3.6792
X2.6051Y-3.7792
X2.7051Y-3.6792
X2.7051Y-3.7792
X2.8051Y-3.6792
X2.8051Y-3.7792
X2.9051Y-3.6792
X2.9051Y-3.7792
X3.0051Y-3.6792
X3.0051Y-3.7792
X3.1051Y-3.6792
X3.1051Y-3.7792
X3.2051Y-3.6792
X3.2051Y-3.7792
X3.3051Y-3.6792
X3.3051Y-3.7792
X3.4051Y-3.6792
X3.4051Y-3.7792
X3.8543Y-3.6788
X3.8543Y-3.7788
X3.9543Y-3.6788
X3.9543Y-3.7788
X4.0543Y-3.6788
X4.0543Y-3.7788
X4.1543Y-3.6788
X4.1543Y-3.7788
X4.2543Y-3.6788
X4.2543Y-3.7788
X4.3543Y-3.6788
X4.3543Y-3.7788
X4.4543Y-3.6788
X4.4543Y-3.7788
X4.5543Y-3.6788
X4.5543Y-3.7788
X4.6543Y-3.6788
X4.6543Y-3.7788
X4.7543Y-3.6788
X4.7543Y-3.7788
X5.2047Y-3.6796
X5.2047Y-3.7796
X5.3047Y-3.6796
X5.3047Y-3.7796
X5.4047Y-3.6796
X5.4047Y-3.7796
X5.5047Y-3.6796
X5.5047Y-3.7796
X5.6047Y-3.6796
X5.6047Y-3.7796
X5.7047Y-3.6796
X5.7047Y-3.7796
X5.8047Y-3.6796
X5.8047Y-3.7796
X5.9047Y-3.6796
X5.9047Y-3.7796
X6.0047Y-3.6796
X6.0047Y-3.7796
X6.1047Y-3.6796
X6.1047Y-3.7796
T4
X5.402Y-2.9383
X5.402Y-3.1213
X5.4098Y-2.7591
X5.4689Y-2.6233
X5.4689Y-3.2532
X5.6264Y-2.5839
X5.6264Y-3.3024
X5.7839Y-2.6233
X5.7839Y-3.2532
X5.8429Y-2.7591
X5.8508Y-2.9383
X5.8508Y-3.1213
X2.0949Y-2.93
X2.0949Y-3.1131
X2.1028Y-2.7509
X2.1618Y-2.615
X2.1618Y-3.245
X2.3193Y-2.5757
X2.3193Y-3.2942
X2.4768Y-2.615
X2.4768Y-3.245
X2.5358Y-2.7509
X2.5437Y-2.93
X2.5437Y-3.1131
X4.4571Y-2.93
X4.4571Y-3.1131
X4.465Y-2.7509
X4.524Y-2.615
X4.524Y-3.245
X4.6815Y-2.5757
X4.6815Y-3.2942
X4.839Y-2.615
X4.839Y-3.245
X4.898Y-2.7509
X4.9059Y-2.93
X4.9059Y-3.1131
X3.0398Y-2.93
X3.0398Y-3.1131
X3.0476Y-2.7509
X3.1067Y-2.615
X3.1067Y-3.245
X3.2642Y-2.5757
X3.2642Y-3.2942
X3.4217Y-2.615
X3.4217Y-3.245
X3.4807Y-2.7509
X3.4886Y-2.93
X3.4886Y-3.1131
T5
X5.6264Y-2.9284
X2.3193Y-2.9202
X4.6815Y-2.9202
X3.2642Y-2.9202
T0
M30
