G04 #@! TF.GenerationSoftware,KiCad,Pcbnew,5.1.4*
G04 #@! TF.CreationDate,2019-08-29T18:55:29+02:00*
G04 #@! TF.ProjectId,NixieClock,4e697869-6543-46c6-9f63-6b2e6b696361,rev?*
G04 #@! TF.SameCoordinates,Original*
G04 #@! TF.FileFunction,Soldermask,Top*
G04 #@! TF.FilePolarity,Negative*
%FSLAX46Y46*%
G04 Gerber Fmt 4.6, Leading zero omitted, Abs format (unit mm)*
G04 Created by KiCad (PCBNEW 5.1.4) date 2019-08-29 18:55:29*
%MOMM*%
%LPD*%
G04 APERTURE LIST*
%ADD10C,0.100000*%
G04 APERTURE END LIST*
D10*
G36*
X132310442Y-95107518D02*
G01*
X132376627Y-95114037D01*
X132546466Y-95165557D01*
X132702991Y-95249222D01*
X132738729Y-95278552D01*
X132840186Y-95361814D01*
X132923448Y-95463271D01*
X132952778Y-95499009D01*
X133036443Y-95655534D01*
X133087963Y-95825373D01*
X133105359Y-96002000D01*
X133087963Y-96178627D01*
X133036443Y-96348466D01*
X132952778Y-96504991D01*
X132923448Y-96540729D01*
X132840186Y-96642186D01*
X132738729Y-96725448D01*
X132702991Y-96754778D01*
X132702989Y-96754779D01*
X132565177Y-96828442D01*
X132546466Y-96838443D01*
X132376627Y-96889963D01*
X132310442Y-96896482D01*
X132244260Y-96903000D01*
X132155740Y-96903000D01*
X132089558Y-96896482D01*
X132023373Y-96889963D01*
X131853534Y-96838443D01*
X131834824Y-96828442D01*
X131697011Y-96754779D01*
X131697009Y-96754778D01*
X131661271Y-96725448D01*
X131559814Y-96642186D01*
X131476552Y-96540729D01*
X131447222Y-96504991D01*
X131363557Y-96348466D01*
X131312037Y-96178627D01*
X131294641Y-96002000D01*
X131312037Y-95825373D01*
X131363557Y-95655534D01*
X131447222Y-95499009D01*
X131476552Y-95463271D01*
X131559814Y-95361814D01*
X131661271Y-95278552D01*
X131697009Y-95249222D01*
X131853534Y-95165557D01*
X132023373Y-95114037D01*
X132089557Y-95107519D01*
X132155740Y-95101000D01*
X132244260Y-95101000D01*
X132310442Y-95107518D01*
X132310442Y-95107518D01*
G37*
G36*
X134850442Y-95107518D02*
G01*
X134916627Y-95114037D01*
X135086466Y-95165557D01*
X135242991Y-95249222D01*
X135278729Y-95278552D01*
X135380186Y-95361814D01*
X135463448Y-95463271D01*
X135492778Y-95499009D01*
X135576443Y-95655534D01*
X135627963Y-95825373D01*
X135645359Y-96002000D01*
X135627963Y-96178627D01*
X135576443Y-96348466D01*
X135492778Y-96504991D01*
X135463448Y-96540729D01*
X135380186Y-96642186D01*
X135278729Y-96725448D01*
X135242991Y-96754778D01*
X135242989Y-96754779D01*
X135105177Y-96828442D01*
X135086466Y-96838443D01*
X134916627Y-96889963D01*
X134850442Y-96896482D01*
X134784260Y-96903000D01*
X134695740Y-96903000D01*
X134629558Y-96896482D01*
X134563373Y-96889963D01*
X134393534Y-96838443D01*
X134374824Y-96828442D01*
X134237011Y-96754779D01*
X134237009Y-96754778D01*
X134201271Y-96725448D01*
X134099814Y-96642186D01*
X134016552Y-96540729D01*
X133987222Y-96504991D01*
X133903557Y-96348466D01*
X133852037Y-96178627D01*
X133834641Y-96002000D01*
X133852037Y-95825373D01*
X133903557Y-95655534D01*
X133987222Y-95499009D01*
X134016552Y-95463271D01*
X134099814Y-95361814D01*
X134201271Y-95278552D01*
X134237009Y-95249222D01*
X134393534Y-95165557D01*
X134563373Y-95114037D01*
X134629557Y-95107519D01*
X134695740Y-95101000D01*
X134784260Y-95101000D01*
X134850442Y-95107518D01*
X134850442Y-95107518D01*
G37*
G36*
X137390442Y-95107518D02*
G01*
X137456627Y-95114037D01*
X137626466Y-95165557D01*
X137782991Y-95249222D01*
X137818729Y-95278552D01*
X137920186Y-95361814D01*
X138003448Y-95463271D01*
X138032778Y-95499009D01*
X138116443Y-95655534D01*
X138167963Y-95825373D01*
X138185359Y-96002000D01*
X138167963Y-96178627D01*
X138116443Y-96348466D01*
X138032778Y-96504991D01*
X138003448Y-96540729D01*
X137920186Y-96642186D01*
X137818729Y-96725448D01*
X137782991Y-96754778D01*
X137782989Y-96754779D01*
X137645177Y-96828442D01*
X137626466Y-96838443D01*
X137456627Y-96889963D01*
X137390442Y-96896482D01*
X137324260Y-96903000D01*
X137235740Y-96903000D01*
X137169558Y-96896482D01*
X137103373Y-96889963D01*
X136933534Y-96838443D01*
X136914824Y-96828442D01*
X136777011Y-96754779D01*
X136777009Y-96754778D01*
X136741271Y-96725448D01*
X136639814Y-96642186D01*
X136556552Y-96540729D01*
X136527222Y-96504991D01*
X136443557Y-96348466D01*
X136392037Y-96178627D01*
X136374641Y-96002000D01*
X136392037Y-95825373D01*
X136443557Y-95655534D01*
X136527222Y-95499009D01*
X136556552Y-95463271D01*
X136639814Y-95361814D01*
X136741271Y-95278552D01*
X136777009Y-95249222D01*
X136933534Y-95165557D01*
X137103373Y-95114037D01*
X137169557Y-95107519D01*
X137235740Y-95101000D01*
X137324260Y-95101000D01*
X137390442Y-95107518D01*
X137390442Y-95107518D01*
G37*
G36*
X139930442Y-95107518D02*
G01*
X139996627Y-95114037D01*
X140166466Y-95165557D01*
X140322991Y-95249222D01*
X140358729Y-95278552D01*
X140460186Y-95361814D01*
X140543448Y-95463271D01*
X140572778Y-95499009D01*
X140656443Y-95655534D01*
X140707963Y-95825373D01*
X140725359Y-96002000D01*
X140707963Y-96178627D01*
X140656443Y-96348466D01*
X140572778Y-96504991D01*
X140543448Y-96540729D01*
X140460186Y-96642186D01*
X140358729Y-96725448D01*
X140322991Y-96754778D01*
X140322989Y-96754779D01*
X140185177Y-96828442D01*
X140166466Y-96838443D01*
X139996627Y-96889963D01*
X139930442Y-96896482D01*
X139864260Y-96903000D01*
X139775740Y-96903000D01*
X139709558Y-96896482D01*
X139643373Y-96889963D01*
X139473534Y-96838443D01*
X139454824Y-96828442D01*
X139317011Y-96754779D01*
X139317009Y-96754778D01*
X139281271Y-96725448D01*
X139179814Y-96642186D01*
X139096552Y-96540729D01*
X139067222Y-96504991D01*
X138983557Y-96348466D01*
X138932037Y-96178627D01*
X138914641Y-96002000D01*
X138932037Y-95825373D01*
X138983557Y-95655534D01*
X139067222Y-95499009D01*
X139096552Y-95463271D01*
X139179814Y-95361814D01*
X139281271Y-95278552D01*
X139317009Y-95249222D01*
X139473534Y-95165557D01*
X139643373Y-95114037D01*
X139709557Y-95107519D01*
X139775740Y-95101000D01*
X139864260Y-95101000D01*
X139930442Y-95107518D01*
X139930442Y-95107518D01*
G37*
G36*
X142470442Y-95107518D02*
G01*
X142536627Y-95114037D01*
X142706466Y-95165557D01*
X142862991Y-95249222D01*
X142898729Y-95278552D01*
X143000186Y-95361814D01*
X143083448Y-95463271D01*
X143112778Y-95499009D01*
X143196443Y-95655534D01*
X143247963Y-95825373D01*
X143265359Y-96002000D01*
X143247963Y-96178627D01*
X143196443Y-96348466D01*
X143112778Y-96504991D01*
X143083448Y-96540729D01*
X143000186Y-96642186D01*
X142898729Y-96725448D01*
X142862991Y-96754778D01*
X142862989Y-96754779D01*
X142725177Y-96828442D01*
X142706466Y-96838443D01*
X142536627Y-96889963D01*
X142470442Y-96896482D01*
X142404260Y-96903000D01*
X142315740Y-96903000D01*
X142249558Y-96896482D01*
X142183373Y-96889963D01*
X142013534Y-96838443D01*
X141994824Y-96828442D01*
X141857011Y-96754779D01*
X141857009Y-96754778D01*
X141821271Y-96725448D01*
X141719814Y-96642186D01*
X141636552Y-96540729D01*
X141607222Y-96504991D01*
X141523557Y-96348466D01*
X141472037Y-96178627D01*
X141454641Y-96002000D01*
X141472037Y-95825373D01*
X141523557Y-95655534D01*
X141607222Y-95499009D01*
X141636552Y-95463271D01*
X141719814Y-95361814D01*
X141821271Y-95278552D01*
X141857009Y-95249222D01*
X142013534Y-95165557D01*
X142183373Y-95114037D01*
X142249557Y-95107519D01*
X142315740Y-95101000D01*
X142404260Y-95101000D01*
X142470442Y-95107518D01*
X142470442Y-95107518D01*
G37*
G36*
X145010442Y-95107518D02*
G01*
X145076627Y-95114037D01*
X145246466Y-95165557D01*
X145402991Y-95249222D01*
X145438729Y-95278552D01*
X145540186Y-95361814D01*
X145623448Y-95463271D01*
X145652778Y-95499009D01*
X145736443Y-95655534D01*
X145787963Y-95825373D01*
X145805359Y-96002000D01*
X145787963Y-96178627D01*
X145736443Y-96348466D01*
X145652778Y-96504991D01*
X145623448Y-96540729D01*
X145540186Y-96642186D01*
X145438729Y-96725448D01*
X145402991Y-96754778D01*
X145402989Y-96754779D01*
X145265177Y-96828442D01*
X145246466Y-96838443D01*
X145076627Y-96889963D01*
X145010442Y-96896482D01*
X144944260Y-96903000D01*
X144855740Y-96903000D01*
X144789558Y-96896482D01*
X144723373Y-96889963D01*
X144553534Y-96838443D01*
X144534824Y-96828442D01*
X144397011Y-96754779D01*
X144397009Y-96754778D01*
X144361271Y-96725448D01*
X144259814Y-96642186D01*
X144176552Y-96540729D01*
X144147222Y-96504991D01*
X144063557Y-96348466D01*
X144012037Y-96178627D01*
X143994641Y-96002000D01*
X144012037Y-95825373D01*
X144063557Y-95655534D01*
X144147222Y-95499009D01*
X144176552Y-95463271D01*
X144259814Y-95361814D01*
X144361271Y-95278552D01*
X144397009Y-95249222D01*
X144553534Y-95165557D01*
X144723373Y-95114037D01*
X144789557Y-95107519D01*
X144855740Y-95101000D01*
X144944260Y-95101000D01*
X145010442Y-95107518D01*
X145010442Y-95107518D01*
G37*
G36*
X147550442Y-95107518D02*
G01*
X147616627Y-95114037D01*
X147786466Y-95165557D01*
X147942991Y-95249222D01*
X147978729Y-95278552D01*
X148080186Y-95361814D01*
X148163448Y-95463271D01*
X148192778Y-95499009D01*
X148276443Y-95655534D01*
X148327963Y-95825373D01*
X148345359Y-96002000D01*
X148327963Y-96178627D01*
X148276443Y-96348466D01*
X148192778Y-96504991D01*
X148163448Y-96540729D01*
X148080186Y-96642186D01*
X147978729Y-96725448D01*
X147942991Y-96754778D01*
X147942989Y-96754779D01*
X147805177Y-96828442D01*
X147786466Y-96838443D01*
X147616627Y-96889963D01*
X147550442Y-96896482D01*
X147484260Y-96903000D01*
X147395740Y-96903000D01*
X147329558Y-96896482D01*
X147263373Y-96889963D01*
X147093534Y-96838443D01*
X147074824Y-96828442D01*
X146937011Y-96754779D01*
X146937009Y-96754778D01*
X146901271Y-96725448D01*
X146799814Y-96642186D01*
X146716552Y-96540729D01*
X146687222Y-96504991D01*
X146603557Y-96348466D01*
X146552037Y-96178627D01*
X146534641Y-96002000D01*
X146552037Y-95825373D01*
X146603557Y-95655534D01*
X146687222Y-95499009D01*
X146716552Y-95463271D01*
X146799814Y-95361814D01*
X146901271Y-95278552D01*
X146937009Y-95249222D01*
X147093534Y-95165557D01*
X147263373Y-95114037D01*
X147329557Y-95107519D01*
X147395740Y-95101000D01*
X147484260Y-95101000D01*
X147550442Y-95107518D01*
X147550442Y-95107518D01*
G37*
G36*
X150090442Y-95107518D02*
G01*
X150156627Y-95114037D01*
X150326466Y-95165557D01*
X150482991Y-95249222D01*
X150518729Y-95278552D01*
X150620186Y-95361814D01*
X150703448Y-95463271D01*
X150732778Y-95499009D01*
X150816443Y-95655534D01*
X150867963Y-95825373D01*
X150885359Y-96002000D01*
X150867963Y-96178627D01*
X150816443Y-96348466D01*
X150732778Y-96504991D01*
X150703448Y-96540729D01*
X150620186Y-96642186D01*
X150518729Y-96725448D01*
X150482991Y-96754778D01*
X150482989Y-96754779D01*
X150345177Y-96828442D01*
X150326466Y-96838443D01*
X150156627Y-96889963D01*
X150090442Y-96896482D01*
X150024260Y-96903000D01*
X149935740Y-96903000D01*
X149869558Y-96896482D01*
X149803373Y-96889963D01*
X149633534Y-96838443D01*
X149614824Y-96828442D01*
X149477011Y-96754779D01*
X149477009Y-96754778D01*
X149441271Y-96725448D01*
X149339814Y-96642186D01*
X149256552Y-96540729D01*
X149227222Y-96504991D01*
X149143557Y-96348466D01*
X149092037Y-96178627D01*
X149074641Y-96002000D01*
X149092037Y-95825373D01*
X149143557Y-95655534D01*
X149227222Y-95499009D01*
X149256552Y-95463271D01*
X149339814Y-95361814D01*
X149441271Y-95278552D01*
X149477009Y-95249222D01*
X149633534Y-95165557D01*
X149803373Y-95114037D01*
X149869557Y-95107519D01*
X149935740Y-95101000D01*
X150024260Y-95101000D01*
X150090442Y-95107518D01*
X150090442Y-95107518D01*
G37*
G36*
X155170442Y-95107518D02*
G01*
X155236627Y-95114037D01*
X155406466Y-95165557D01*
X155562991Y-95249222D01*
X155598729Y-95278552D01*
X155700186Y-95361814D01*
X155783448Y-95463271D01*
X155812778Y-95499009D01*
X155896443Y-95655534D01*
X155947963Y-95825373D01*
X155965359Y-96002000D01*
X155947963Y-96178627D01*
X155896443Y-96348466D01*
X155812778Y-96504991D01*
X155783448Y-96540729D01*
X155700186Y-96642186D01*
X155598729Y-96725448D01*
X155562991Y-96754778D01*
X155562989Y-96754779D01*
X155425177Y-96828442D01*
X155406466Y-96838443D01*
X155236627Y-96889963D01*
X155170442Y-96896482D01*
X155104260Y-96903000D01*
X155015740Y-96903000D01*
X154949558Y-96896482D01*
X154883373Y-96889963D01*
X154713534Y-96838443D01*
X154694824Y-96828442D01*
X154557011Y-96754779D01*
X154557009Y-96754778D01*
X154521271Y-96725448D01*
X154419814Y-96642186D01*
X154336552Y-96540729D01*
X154307222Y-96504991D01*
X154223557Y-96348466D01*
X154172037Y-96178627D01*
X154154641Y-96002000D01*
X154172037Y-95825373D01*
X154223557Y-95655534D01*
X154307222Y-95499009D01*
X154336552Y-95463271D01*
X154419814Y-95361814D01*
X154521271Y-95278552D01*
X154557009Y-95249222D01*
X154713534Y-95165557D01*
X154883373Y-95114037D01*
X154949557Y-95107519D01*
X155015740Y-95101000D01*
X155104260Y-95101000D01*
X155170442Y-95107518D01*
X155170442Y-95107518D01*
G37*
G36*
X152630442Y-95107518D02*
G01*
X152696627Y-95114037D01*
X152866466Y-95165557D01*
X153022991Y-95249222D01*
X153058729Y-95278552D01*
X153160186Y-95361814D01*
X153243448Y-95463271D01*
X153272778Y-95499009D01*
X153356443Y-95655534D01*
X153407963Y-95825373D01*
X153425359Y-96002000D01*
X153407963Y-96178627D01*
X153356443Y-96348466D01*
X153272778Y-96504991D01*
X153243448Y-96540729D01*
X153160186Y-96642186D01*
X153058729Y-96725448D01*
X153022991Y-96754778D01*
X153022989Y-96754779D01*
X152885177Y-96828442D01*
X152866466Y-96838443D01*
X152696627Y-96889963D01*
X152630442Y-96896482D01*
X152564260Y-96903000D01*
X152475740Y-96903000D01*
X152409558Y-96896482D01*
X152343373Y-96889963D01*
X152173534Y-96838443D01*
X152154824Y-96828442D01*
X152017011Y-96754779D01*
X152017009Y-96754778D01*
X151981271Y-96725448D01*
X151879814Y-96642186D01*
X151796552Y-96540729D01*
X151767222Y-96504991D01*
X151683557Y-96348466D01*
X151632037Y-96178627D01*
X151614641Y-96002000D01*
X151632037Y-95825373D01*
X151683557Y-95655534D01*
X151767222Y-95499009D01*
X151796552Y-95463271D01*
X151879814Y-95361814D01*
X151981271Y-95278552D01*
X152017009Y-95249222D01*
X152173534Y-95165557D01*
X152343373Y-95114037D01*
X152409557Y-95107519D01*
X152475740Y-95101000D01*
X152564260Y-95101000D01*
X152630442Y-95107518D01*
X152630442Y-95107518D01*
G37*
G36*
X68820443Y-95097519D02*
G01*
X68886627Y-95104037D01*
X69056466Y-95155557D01*
X69056468Y-95155558D01*
X69134728Y-95197389D01*
X69212991Y-95239222D01*
X69248729Y-95268552D01*
X69350186Y-95351814D01*
X69433448Y-95453271D01*
X69462778Y-95489009D01*
X69546443Y-95645534D01*
X69597963Y-95815373D01*
X69615359Y-95992000D01*
X69597963Y-96168627D01*
X69546443Y-96338466D01*
X69462778Y-96494991D01*
X69454571Y-96504991D01*
X69350186Y-96632186D01*
X69248729Y-96715448D01*
X69212991Y-96744778D01*
X69134729Y-96786610D01*
X69075177Y-96818442D01*
X69056466Y-96828443D01*
X68886627Y-96879963D01*
X68820443Y-96886481D01*
X68754260Y-96893000D01*
X68665740Y-96893000D01*
X68599557Y-96886481D01*
X68533373Y-96879963D01*
X68363534Y-96828443D01*
X68344824Y-96818442D01*
X68285271Y-96786610D01*
X68207009Y-96744778D01*
X68171271Y-96715448D01*
X68069814Y-96632186D01*
X67965429Y-96504991D01*
X67957222Y-96494991D01*
X67873557Y-96338466D01*
X67822037Y-96168627D01*
X67804641Y-95992000D01*
X67822037Y-95815373D01*
X67873557Y-95645534D01*
X67957222Y-95489009D01*
X67986552Y-95453271D01*
X68069814Y-95351814D01*
X68171271Y-95268552D01*
X68207009Y-95239222D01*
X68285272Y-95197389D01*
X68363532Y-95155558D01*
X68363534Y-95155557D01*
X68533373Y-95104037D01*
X68599557Y-95097519D01*
X68665740Y-95091000D01*
X68754260Y-95091000D01*
X68820443Y-95097519D01*
X68820443Y-95097519D01*
G37*
G36*
X63740443Y-95097519D02*
G01*
X63806627Y-95104037D01*
X63976466Y-95155557D01*
X63976468Y-95155558D01*
X64054728Y-95197389D01*
X64132991Y-95239222D01*
X64168729Y-95268552D01*
X64270186Y-95351814D01*
X64353448Y-95453271D01*
X64382778Y-95489009D01*
X64466443Y-95645534D01*
X64517963Y-95815373D01*
X64535359Y-95992000D01*
X64517963Y-96168627D01*
X64466443Y-96338466D01*
X64382778Y-96494991D01*
X64374571Y-96504991D01*
X64270186Y-96632186D01*
X64168729Y-96715448D01*
X64132991Y-96744778D01*
X64054729Y-96786610D01*
X63995177Y-96818442D01*
X63976466Y-96828443D01*
X63806627Y-96879963D01*
X63740443Y-96886481D01*
X63674260Y-96893000D01*
X63585740Y-96893000D01*
X63519557Y-96886481D01*
X63453373Y-96879963D01*
X63283534Y-96828443D01*
X63264824Y-96818442D01*
X63205271Y-96786610D01*
X63127009Y-96744778D01*
X63091271Y-96715448D01*
X62989814Y-96632186D01*
X62885429Y-96504991D01*
X62877222Y-96494991D01*
X62793557Y-96338466D01*
X62742037Y-96168627D01*
X62724641Y-95992000D01*
X62742037Y-95815373D01*
X62793557Y-95645534D01*
X62877222Y-95489009D01*
X62906552Y-95453271D01*
X62989814Y-95351814D01*
X63091271Y-95268552D01*
X63127009Y-95239222D01*
X63205272Y-95197389D01*
X63283532Y-95155558D01*
X63283534Y-95155557D01*
X63453373Y-95104037D01*
X63519557Y-95097519D01*
X63585740Y-95091000D01*
X63674260Y-95091000D01*
X63740443Y-95097519D01*
X63740443Y-95097519D01*
G37*
G36*
X66280443Y-95097519D02*
G01*
X66346627Y-95104037D01*
X66516466Y-95155557D01*
X66516468Y-95155558D01*
X66594728Y-95197389D01*
X66672991Y-95239222D01*
X66708729Y-95268552D01*
X66810186Y-95351814D01*
X66893448Y-95453271D01*
X66922778Y-95489009D01*
X67006443Y-95645534D01*
X67057963Y-95815373D01*
X67075359Y-95992000D01*
X67057963Y-96168627D01*
X67006443Y-96338466D01*
X66922778Y-96494991D01*
X66914571Y-96504991D01*
X66810186Y-96632186D01*
X66708729Y-96715448D01*
X66672991Y-96744778D01*
X66594729Y-96786610D01*
X66535177Y-96818442D01*
X66516466Y-96828443D01*
X66346627Y-96879963D01*
X66280443Y-96886481D01*
X66214260Y-96893000D01*
X66125740Y-96893000D01*
X66059557Y-96886481D01*
X65993373Y-96879963D01*
X65823534Y-96828443D01*
X65804824Y-96818442D01*
X65745271Y-96786610D01*
X65667009Y-96744778D01*
X65631271Y-96715448D01*
X65529814Y-96632186D01*
X65425429Y-96504991D01*
X65417222Y-96494991D01*
X65333557Y-96338466D01*
X65282037Y-96168627D01*
X65264641Y-95992000D01*
X65282037Y-95815373D01*
X65333557Y-95645534D01*
X65417222Y-95489009D01*
X65446552Y-95453271D01*
X65529814Y-95351814D01*
X65631271Y-95268552D01*
X65667009Y-95239222D01*
X65745272Y-95197389D01*
X65823532Y-95155558D01*
X65823534Y-95155557D01*
X65993373Y-95104037D01*
X66059557Y-95097519D01*
X66125740Y-95091000D01*
X66214260Y-95091000D01*
X66280443Y-95097519D01*
X66280443Y-95097519D01*
G37*
G36*
X71360443Y-95097519D02*
G01*
X71426627Y-95104037D01*
X71596466Y-95155557D01*
X71596468Y-95155558D01*
X71674728Y-95197389D01*
X71752991Y-95239222D01*
X71788729Y-95268552D01*
X71890186Y-95351814D01*
X71973448Y-95453271D01*
X72002778Y-95489009D01*
X72086443Y-95645534D01*
X72137963Y-95815373D01*
X72155359Y-95992000D01*
X72137963Y-96168627D01*
X72086443Y-96338466D01*
X72002778Y-96494991D01*
X71994571Y-96504991D01*
X71890186Y-96632186D01*
X71788729Y-96715448D01*
X71752991Y-96744778D01*
X71674729Y-96786610D01*
X71615177Y-96818442D01*
X71596466Y-96828443D01*
X71426627Y-96879963D01*
X71360443Y-96886481D01*
X71294260Y-96893000D01*
X71205740Y-96893000D01*
X71139557Y-96886481D01*
X71073373Y-96879963D01*
X70903534Y-96828443D01*
X70884824Y-96818442D01*
X70825271Y-96786610D01*
X70747009Y-96744778D01*
X70711271Y-96715448D01*
X70609814Y-96632186D01*
X70505429Y-96504991D01*
X70497222Y-96494991D01*
X70413557Y-96338466D01*
X70362037Y-96168627D01*
X70344641Y-95992000D01*
X70362037Y-95815373D01*
X70413557Y-95645534D01*
X70497222Y-95489009D01*
X70526552Y-95453271D01*
X70609814Y-95351814D01*
X70711271Y-95268552D01*
X70747009Y-95239222D01*
X70825272Y-95197389D01*
X70903532Y-95155558D01*
X70903534Y-95155557D01*
X71073373Y-95104037D01*
X71139557Y-95097519D01*
X71205740Y-95091000D01*
X71294260Y-95091000D01*
X71360443Y-95097519D01*
X71360443Y-95097519D01*
G37*
G36*
X73900443Y-95097519D02*
G01*
X73966627Y-95104037D01*
X74136466Y-95155557D01*
X74136468Y-95155558D01*
X74214728Y-95197389D01*
X74292991Y-95239222D01*
X74328729Y-95268552D01*
X74430186Y-95351814D01*
X74513448Y-95453271D01*
X74542778Y-95489009D01*
X74626443Y-95645534D01*
X74677963Y-95815373D01*
X74695359Y-95992000D01*
X74677963Y-96168627D01*
X74626443Y-96338466D01*
X74542778Y-96494991D01*
X74534571Y-96504991D01*
X74430186Y-96632186D01*
X74328729Y-96715448D01*
X74292991Y-96744778D01*
X74214729Y-96786610D01*
X74155177Y-96818442D01*
X74136466Y-96828443D01*
X73966627Y-96879963D01*
X73900443Y-96886481D01*
X73834260Y-96893000D01*
X73745740Y-96893000D01*
X73679557Y-96886481D01*
X73613373Y-96879963D01*
X73443534Y-96828443D01*
X73424824Y-96818442D01*
X73365271Y-96786610D01*
X73287009Y-96744778D01*
X73251271Y-96715448D01*
X73149814Y-96632186D01*
X73045429Y-96504991D01*
X73037222Y-96494991D01*
X72953557Y-96338466D01*
X72902037Y-96168627D01*
X72884641Y-95992000D01*
X72902037Y-95815373D01*
X72953557Y-95645534D01*
X73037222Y-95489009D01*
X73066552Y-95453271D01*
X73149814Y-95351814D01*
X73251271Y-95268552D01*
X73287009Y-95239222D01*
X73365272Y-95197389D01*
X73443532Y-95155558D01*
X73443534Y-95155557D01*
X73613373Y-95104037D01*
X73679557Y-95097519D01*
X73745740Y-95091000D01*
X73834260Y-95091000D01*
X73900443Y-95097519D01*
X73900443Y-95097519D01*
G37*
G36*
X81520443Y-95097519D02*
G01*
X81586627Y-95104037D01*
X81756466Y-95155557D01*
X81756468Y-95155558D01*
X81834728Y-95197389D01*
X81912991Y-95239222D01*
X81948729Y-95268552D01*
X82050186Y-95351814D01*
X82133448Y-95453271D01*
X82162778Y-95489009D01*
X82246443Y-95645534D01*
X82297963Y-95815373D01*
X82315359Y-95992000D01*
X82297963Y-96168627D01*
X82246443Y-96338466D01*
X82162778Y-96494991D01*
X82154571Y-96504991D01*
X82050186Y-96632186D01*
X81948729Y-96715448D01*
X81912991Y-96744778D01*
X81834729Y-96786610D01*
X81775177Y-96818442D01*
X81756466Y-96828443D01*
X81586627Y-96879963D01*
X81520443Y-96886481D01*
X81454260Y-96893000D01*
X81365740Y-96893000D01*
X81299557Y-96886481D01*
X81233373Y-96879963D01*
X81063534Y-96828443D01*
X81044824Y-96818442D01*
X80985271Y-96786610D01*
X80907009Y-96744778D01*
X80871271Y-96715448D01*
X80769814Y-96632186D01*
X80665429Y-96504991D01*
X80657222Y-96494991D01*
X80573557Y-96338466D01*
X80522037Y-96168627D01*
X80504641Y-95992000D01*
X80522037Y-95815373D01*
X80573557Y-95645534D01*
X80657222Y-95489009D01*
X80686552Y-95453271D01*
X80769814Y-95351814D01*
X80871271Y-95268552D01*
X80907009Y-95239222D01*
X80985272Y-95197389D01*
X81063532Y-95155558D01*
X81063534Y-95155557D01*
X81233373Y-95104037D01*
X81299557Y-95097519D01*
X81365740Y-95091000D01*
X81454260Y-95091000D01*
X81520443Y-95097519D01*
X81520443Y-95097519D01*
G37*
G36*
X84060443Y-95097519D02*
G01*
X84126627Y-95104037D01*
X84296466Y-95155557D01*
X84296468Y-95155558D01*
X84374728Y-95197389D01*
X84452991Y-95239222D01*
X84488729Y-95268552D01*
X84590186Y-95351814D01*
X84673448Y-95453271D01*
X84702778Y-95489009D01*
X84786443Y-95645534D01*
X84837963Y-95815373D01*
X84855359Y-95992000D01*
X84837963Y-96168627D01*
X84786443Y-96338466D01*
X84702778Y-96494991D01*
X84694571Y-96504991D01*
X84590186Y-96632186D01*
X84488729Y-96715448D01*
X84452991Y-96744778D01*
X84374729Y-96786610D01*
X84315177Y-96818442D01*
X84296466Y-96828443D01*
X84126627Y-96879963D01*
X84060443Y-96886481D01*
X83994260Y-96893000D01*
X83905740Y-96893000D01*
X83839557Y-96886481D01*
X83773373Y-96879963D01*
X83603534Y-96828443D01*
X83584824Y-96818442D01*
X83525271Y-96786610D01*
X83447009Y-96744778D01*
X83411271Y-96715448D01*
X83309814Y-96632186D01*
X83205429Y-96504991D01*
X83197222Y-96494991D01*
X83113557Y-96338466D01*
X83062037Y-96168627D01*
X83044641Y-95992000D01*
X83062037Y-95815373D01*
X83113557Y-95645534D01*
X83197222Y-95489009D01*
X83226552Y-95453271D01*
X83309814Y-95351814D01*
X83411271Y-95268552D01*
X83447009Y-95239222D01*
X83525272Y-95197389D01*
X83603532Y-95155558D01*
X83603534Y-95155557D01*
X83773373Y-95104037D01*
X83839557Y-95097519D01*
X83905740Y-95091000D01*
X83994260Y-95091000D01*
X84060443Y-95097519D01*
X84060443Y-95097519D01*
G37*
G36*
X86600443Y-95097519D02*
G01*
X86666627Y-95104037D01*
X86836466Y-95155557D01*
X86836468Y-95155558D01*
X86914728Y-95197389D01*
X86992991Y-95239222D01*
X87028729Y-95268552D01*
X87130186Y-95351814D01*
X87213448Y-95453271D01*
X87242778Y-95489009D01*
X87326443Y-95645534D01*
X87377963Y-95815373D01*
X87395359Y-95992000D01*
X87377963Y-96168627D01*
X87326443Y-96338466D01*
X87242778Y-96494991D01*
X87234571Y-96504991D01*
X87130186Y-96632186D01*
X87028729Y-96715448D01*
X86992991Y-96744778D01*
X86914729Y-96786610D01*
X86855177Y-96818442D01*
X86836466Y-96828443D01*
X86666627Y-96879963D01*
X86600443Y-96886481D01*
X86534260Y-96893000D01*
X86445740Y-96893000D01*
X86379557Y-96886481D01*
X86313373Y-96879963D01*
X86143534Y-96828443D01*
X86124824Y-96818442D01*
X86065271Y-96786610D01*
X85987009Y-96744778D01*
X85951271Y-96715448D01*
X85849814Y-96632186D01*
X85745429Y-96504991D01*
X85737222Y-96494991D01*
X85653557Y-96338466D01*
X85602037Y-96168627D01*
X85584641Y-95992000D01*
X85602037Y-95815373D01*
X85653557Y-95645534D01*
X85737222Y-95489009D01*
X85766552Y-95453271D01*
X85849814Y-95351814D01*
X85951271Y-95268552D01*
X85987009Y-95239222D01*
X86065272Y-95197389D01*
X86143532Y-95155558D01*
X86143534Y-95155557D01*
X86313373Y-95104037D01*
X86379557Y-95097519D01*
X86445740Y-95091000D01*
X86534260Y-95091000D01*
X86600443Y-95097519D01*
X86600443Y-95097519D01*
G37*
G36*
X78980443Y-95097519D02*
G01*
X79046627Y-95104037D01*
X79216466Y-95155557D01*
X79216468Y-95155558D01*
X79294728Y-95197389D01*
X79372991Y-95239222D01*
X79408729Y-95268552D01*
X79510186Y-95351814D01*
X79593448Y-95453271D01*
X79622778Y-95489009D01*
X79706443Y-95645534D01*
X79757963Y-95815373D01*
X79775359Y-95992000D01*
X79757963Y-96168627D01*
X79706443Y-96338466D01*
X79622778Y-96494991D01*
X79614571Y-96504991D01*
X79510186Y-96632186D01*
X79408729Y-96715448D01*
X79372991Y-96744778D01*
X79294729Y-96786610D01*
X79235177Y-96818442D01*
X79216466Y-96828443D01*
X79046627Y-96879963D01*
X78980443Y-96886481D01*
X78914260Y-96893000D01*
X78825740Y-96893000D01*
X78759557Y-96886481D01*
X78693373Y-96879963D01*
X78523534Y-96828443D01*
X78504824Y-96818442D01*
X78445271Y-96786610D01*
X78367009Y-96744778D01*
X78331271Y-96715448D01*
X78229814Y-96632186D01*
X78125429Y-96504991D01*
X78117222Y-96494991D01*
X78033557Y-96338466D01*
X77982037Y-96168627D01*
X77964641Y-95992000D01*
X77982037Y-95815373D01*
X78033557Y-95645534D01*
X78117222Y-95489009D01*
X78146552Y-95453271D01*
X78229814Y-95351814D01*
X78331271Y-95268552D01*
X78367009Y-95239222D01*
X78445272Y-95197389D01*
X78523532Y-95155558D01*
X78523534Y-95155557D01*
X78693373Y-95104037D01*
X78759557Y-95097519D01*
X78825740Y-95091000D01*
X78914260Y-95091000D01*
X78980443Y-95097519D01*
X78980443Y-95097519D01*
G37*
G36*
X76440443Y-95097519D02*
G01*
X76506627Y-95104037D01*
X76676466Y-95155557D01*
X76676468Y-95155558D01*
X76754728Y-95197389D01*
X76832991Y-95239222D01*
X76868729Y-95268552D01*
X76970186Y-95351814D01*
X77053448Y-95453271D01*
X77082778Y-95489009D01*
X77166443Y-95645534D01*
X77217963Y-95815373D01*
X77235359Y-95992000D01*
X77217963Y-96168627D01*
X77166443Y-96338466D01*
X77082778Y-96494991D01*
X77074571Y-96504991D01*
X76970186Y-96632186D01*
X76868729Y-96715448D01*
X76832991Y-96744778D01*
X76754729Y-96786610D01*
X76695177Y-96818442D01*
X76676466Y-96828443D01*
X76506627Y-96879963D01*
X76440443Y-96886481D01*
X76374260Y-96893000D01*
X76285740Y-96893000D01*
X76219557Y-96886481D01*
X76153373Y-96879963D01*
X75983534Y-96828443D01*
X75964824Y-96818442D01*
X75905271Y-96786610D01*
X75827009Y-96744778D01*
X75791271Y-96715448D01*
X75689814Y-96632186D01*
X75585429Y-96504991D01*
X75577222Y-96494991D01*
X75493557Y-96338466D01*
X75442037Y-96168627D01*
X75424641Y-95992000D01*
X75442037Y-95815373D01*
X75493557Y-95645534D01*
X75577222Y-95489009D01*
X75606552Y-95453271D01*
X75689814Y-95351814D01*
X75791271Y-95268552D01*
X75827009Y-95239222D01*
X75905272Y-95197389D01*
X75983532Y-95155558D01*
X75983534Y-95155557D01*
X76153373Y-95104037D01*
X76219557Y-95097519D01*
X76285740Y-95091000D01*
X76374260Y-95091000D01*
X76440443Y-95097519D01*
X76440443Y-95097519D01*
G37*
G36*
X105630442Y-95087518D02*
G01*
X105696627Y-95094037D01*
X105866466Y-95145557D01*
X105866468Y-95145558D01*
X105903883Y-95165557D01*
X106022991Y-95229222D01*
X106047361Y-95249222D01*
X106160186Y-95341814D01*
X106243448Y-95443271D01*
X106272778Y-95479009D01*
X106356443Y-95635534D01*
X106407963Y-95805373D01*
X106425359Y-95982000D01*
X106407963Y-96158627D01*
X106356443Y-96328466D01*
X106272778Y-96484991D01*
X106264571Y-96494991D01*
X106160186Y-96622186D01*
X106058729Y-96705448D01*
X106022991Y-96734778D01*
X105866466Y-96818443D01*
X105696627Y-96869963D01*
X105630442Y-96876482D01*
X105564260Y-96883000D01*
X105475740Y-96883000D01*
X105409557Y-96876481D01*
X105343373Y-96869963D01*
X105173534Y-96818443D01*
X105017009Y-96734778D01*
X104981271Y-96705448D01*
X104879814Y-96622186D01*
X104775429Y-96494991D01*
X104767222Y-96484991D01*
X104683557Y-96328466D01*
X104632037Y-96158627D01*
X104614641Y-95982000D01*
X104632037Y-95805373D01*
X104683557Y-95635534D01*
X104767222Y-95479009D01*
X104796552Y-95443271D01*
X104879814Y-95341814D01*
X104992639Y-95249222D01*
X105017009Y-95229222D01*
X105136117Y-95165557D01*
X105173532Y-95145558D01*
X105173534Y-95145557D01*
X105343373Y-95094037D01*
X105409558Y-95087518D01*
X105475740Y-95081000D01*
X105564260Y-95081000D01*
X105630442Y-95087518D01*
X105630442Y-95087518D01*
G37*
G36*
X98010442Y-95087518D02*
G01*
X98076627Y-95094037D01*
X98246466Y-95145557D01*
X98246468Y-95145558D01*
X98283883Y-95165557D01*
X98402991Y-95229222D01*
X98427361Y-95249222D01*
X98540186Y-95341814D01*
X98623448Y-95443271D01*
X98652778Y-95479009D01*
X98736443Y-95635534D01*
X98787963Y-95805373D01*
X98805359Y-95982000D01*
X98787963Y-96158627D01*
X98736443Y-96328466D01*
X98652778Y-96484991D01*
X98644571Y-96494991D01*
X98540186Y-96622186D01*
X98438729Y-96705448D01*
X98402991Y-96734778D01*
X98246466Y-96818443D01*
X98076627Y-96869963D01*
X98010442Y-96876482D01*
X97944260Y-96883000D01*
X97855740Y-96883000D01*
X97789557Y-96876481D01*
X97723373Y-96869963D01*
X97553534Y-96818443D01*
X97397009Y-96734778D01*
X97361271Y-96705448D01*
X97259814Y-96622186D01*
X97155429Y-96494991D01*
X97147222Y-96484991D01*
X97063557Y-96328466D01*
X97012037Y-96158627D01*
X96994641Y-95982000D01*
X97012037Y-95805373D01*
X97063557Y-95635534D01*
X97147222Y-95479009D01*
X97176552Y-95443271D01*
X97259814Y-95341814D01*
X97372639Y-95249222D01*
X97397009Y-95229222D01*
X97516117Y-95165557D01*
X97553532Y-95145558D01*
X97553534Y-95145557D01*
X97723373Y-95094037D01*
X97789558Y-95087518D01*
X97855740Y-95081000D01*
X97944260Y-95081000D01*
X98010442Y-95087518D01*
X98010442Y-95087518D01*
G37*
G36*
X100550442Y-95087518D02*
G01*
X100616627Y-95094037D01*
X100786466Y-95145557D01*
X100786468Y-95145558D01*
X100823883Y-95165557D01*
X100942991Y-95229222D01*
X100967361Y-95249222D01*
X101080186Y-95341814D01*
X101163448Y-95443271D01*
X101192778Y-95479009D01*
X101276443Y-95635534D01*
X101327963Y-95805373D01*
X101345359Y-95982000D01*
X101327963Y-96158627D01*
X101276443Y-96328466D01*
X101192778Y-96484991D01*
X101184571Y-96494991D01*
X101080186Y-96622186D01*
X100978729Y-96705448D01*
X100942991Y-96734778D01*
X100786466Y-96818443D01*
X100616627Y-96869963D01*
X100550442Y-96876482D01*
X100484260Y-96883000D01*
X100395740Y-96883000D01*
X100329557Y-96876481D01*
X100263373Y-96869963D01*
X100093534Y-96818443D01*
X99937009Y-96734778D01*
X99901271Y-96705448D01*
X99799814Y-96622186D01*
X99695429Y-96494991D01*
X99687222Y-96484991D01*
X99603557Y-96328466D01*
X99552037Y-96158627D01*
X99534641Y-95982000D01*
X99552037Y-95805373D01*
X99603557Y-95635534D01*
X99687222Y-95479009D01*
X99716552Y-95443271D01*
X99799814Y-95341814D01*
X99912639Y-95249222D01*
X99937009Y-95229222D01*
X100056117Y-95165557D01*
X100093532Y-95145558D01*
X100093534Y-95145557D01*
X100263373Y-95094037D01*
X100329558Y-95087518D01*
X100395740Y-95081000D01*
X100484260Y-95081000D01*
X100550442Y-95087518D01*
X100550442Y-95087518D01*
G37*
G36*
X103090442Y-95087518D02*
G01*
X103156627Y-95094037D01*
X103326466Y-95145557D01*
X103326468Y-95145558D01*
X103363883Y-95165557D01*
X103482991Y-95229222D01*
X103507361Y-95249222D01*
X103620186Y-95341814D01*
X103703448Y-95443271D01*
X103732778Y-95479009D01*
X103816443Y-95635534D01*
X103867963Y-95805373D01*
X103885359Y-95982000D01*
X103867963Y-96158627D01*
X103816443Y-96328466D01*
X103732778Y-96484991D01*
X103724571Y-96494991D01*
X103620186Y-96622186D01*
X103518729Y-96705448D01*
X103482991Y-96734778D01*
X103326466Y-96818443D01*
X103156627Y-96869963D01*
X103090442Y-96876482D01*
X103024260Y-96883000D01*
X102935740Y-96883000D01*
X102869557Y-96876481D01*
X102803373Y-96869963D01*
X102633534Y-96818443D01*
X102477009Y-96734778D01*
X102441271Y-96705448D01*
X102339814Y-96622186D01*
X102235429Y-96494991D01*
X102227222Y-96484991D01*
X102143557Y-96328466D01*
X102092037Y-96158627D01*
X102074641Y-95982000D01*
X102092037Y-95805373D01*
X102143557Y-95635534D01*
X102227222Y-95479009D01*
X102256552Y-95443271D01*
X102339814Y-95341814D01*
X102452639Y-95249222D01*
X102477009Y-95229222D01*
X102596117Y-95165557D01*
X102633532Y-95145558D01*
X102633534Y-95145557D01*
X102803373Y-95094037D01*
X102869558Y-95087518D01*
X102935740Y-95081000D01*
X103024260Y-95081000D01*
X103090442Y-95087518D01*
X103090442Y-95087518D01*
G37*
G36*
X108170442Y-95087518D02*
G01*
X108236627Y-95094037D01*
X108406466Y-95145557D01*
X108406468Y-95145558D01*
X108443883Y-95165557D01*
X108562991Y-95229222D01*
X108587361Y-95249222D01*
X108700186Y-95341814D01*
X108783448Y-95443271D01*
X108812778Y-95479009D01*
X108896443Y-95635534D01*
X108947963Y-95805373D01*
X108965359Y-95982000D01*
X108947963Y-96158627D01*
X108896443Y-96328466D01*
X108812778Y-96484991D01*
X108804571Y-96494991D01*
X108700186Y-96622186D01*
X108598729Y-96705448D01*
X108562991Y-96734778D01*
X108406466Y-96818443D01*
X108236627Y-96869963D01*
X108170442Y-96876482D01*
X108104260Y-96883000D01*
X108015740Y-96883000D01*
X107949557Y-96876481D01*
X107883373Y-96869963D01*
X107713534Y-96818443D01*
X107557009Y-96734778D01*
X107521271Y-96705448D01*
X107419814Y-96622186D01*
X107315429Y-96494991D01*
X107307222Y-96484991D01*
X107223557Y-96328466D01*
X107172037Y-96158627D01*
X107154641Y-95982000D01*
X107172037Y-95805373D01*
X107223557Y-95635534D01*
X107307222Y-95479009D01*
X107336552Y-95443271D01*
X107419814Y-95341814D01*
X107532639Y-95249222D01*
X107557009Y-95229222D01*
X107676117Y-95165557D01*
X107713532Y-95145558D01*
X107713534Y-95145557D01*
X107883373Y-95094037D01*
X107949558Y-95087518D01*
X108015740Y-95081000D01*
X108104260Y-95081000D01*
X108170442Y-95087518D01*
X108170442Y-95087518D01*
G37*
G36*
X120870442Y-95087518D02*
G01*
X120936627Y-95094037D01*
X121106466Y-95145557D01*
X121106468Y-95145558D01*
X121143883Y-95165557D01*
X121262991Y-95229222D01*
X121287361Y-95249222D01*
X121400186Y-95341814D01*
X121483448Y-95443271D01*
X121512778Y-95479009D01*
X121596443Y-95635534D01*
X121647963Y-95805373D01*
X121665359Y-95982000D01*
X121647963Y-96158627D01*
X121596443Y-96328466D01*
X121512778Y-96484991D01*
X121504571Y-96494991D01*
X121400186Y-96622186D01*
X121298729Y-96705448D01*
X121262991Y-96734778D01*
X121106466Y-96818443D01*
X120936627Y-96869963D01*
X120870442Y-96876482D01*
X120804260Y-96883000D01*
X120715740Y-96883000D01*
X120649557Y-96876481D01*
X120583373Y-96869963D01*
X120413534Y-96818443D01*
X120257009Y-96734778D01*
X120221271Y-96705448D01*
X120119814Y-96622186D01*
X120015429Y-96494991D01*
X120007222Y-96484991D01*
X119923557Y-96328466D01*
X119872037Y-96158627D01*
X119854641Y-95982000D01*
X119872037Y-95805373D01*
X119923557Y-95635534D01*
X120007222Y-95479009D01*
X120036552Y-95443271D01*
X120119814Y-95341814D01*
X120232639Y-95249222D01*
X120257009Y-95229222D01*
X120376117Y-95165557D01*
X120413532Y-95145558D01*
X120413534Y-95145557D01*
X120583373Y-95094037D01*
X120649558Y-95087518D01*
X120715740Y-95081000D01*
X120804260Y-95081000D01*
X120870442Y-95087518D01*
X120870442Y-95087518D01*
G37*
G36*
X115790442Y-95087518D02*
G01*
X115856627Y-95094037D01*
X116026466Y-95145557D01*
X116026468Y-95145558D01*
X116063883Y-95165557D01*
X116182991Y-95229222D01*
X116207361Y-95249222D01*
X116320186Y-95341814D01*
X116403448Y-95443271D01*
X116432778Y-95479009D01*
X116516443Y-95635534D01*
X116567963Y-95805373D01*
X116585359Y-95982000D01*
X116567963Y-96158627D01*
X116516443Y-96328466D01*
X116432778Y-96484991D01*
X116424571Y-96494991D01*
X116320186Y-96622186D01*
X116218729Y-96705448D01*
X116182991Y-96734778D01*
X116026466Y-96818443D01*
X115856627Y-96869963D01*
X115790442Y-96876482D01*
X115724260Y-96883000D01*
X115635740Y-96883000D01*
X115569557Y-96876481D01*
X115503373Y-96869963D01*
X115333534Y-96818443D01*
X115177009Y-96734778D01*
X115141271Y-96705448D01*
X115039814Y-96622186D01*
X114935429Y-96494991D01*
X114927222Y-96484991D01*
X114843557Y-96328466D01*
X114792037Y-96158627D01*
X114774641Y-95982000D01*
X114792037Y-95805373D01*
X114843557Y-95635534D01*
X114927222Y-95479009D01*
X114956552Y-95443271D01*
X115039814Y-95341814D01*
X115152639Y-95249222D01*
X115177009Y-95229222D01*
X115296117Y-95165557D01*
X115333532Y-95145558D01*
X115333534Y-95145557D01*
X115503373Y-95094037D01*
X115569558Y-95087518D01*
X115635740Y-95081000D01*
X115724260Y-95081000D01*
X115790442Y-95087518D01*
X115790442Y-95087518D01*
G37*
G36*
X118330442Y-95087518D02*
G01*
X118396627Y-95094037D01*
X118566466Y-95145557D01*
X118566468Y-95145558D01*
X118603883Y-95165557D01*
X118722991Y-95229222D01*
X118747361Y-95249222D01*
X118860186Y-95341814D01*
X118943448Y-95443271D01*
X118972778Y-95479009D01*
X119056443Y-95635534D01*
X119107963Y-95805373D01*
X119125359Y-95982000D01*
X119107963Y-96158627D01*
X119056443Y-96328466D01*
X118972778Y-96484991D01*
X118964571Y-96494991D01*
X118860186Y-96622186D01*
X118758729Y-96705448D01*
X118722991Y-96734778D01*
X118566466Y-96818443D01*
X118396627Y-96869963D01*
X118330442Y-96876482D01*
X118264260Y-96883000D01*
X118175740Y-96883000D01*
X118109557Y-96876481D01*
X118043373Y-96869963D01*
X117873534Y-96818443D01*
X117717009Y-96734778D01*
X117681271Y-96705448D01*
X117579814Y-96622186D01*
X117475429Y-96494991D01*
X117467222Y-96484991D01*
X117383557Y-96328466D01*
X117332037Y-96158627D01*
X117314641Y-95982000D01*
X117332037Y-95805373D01*
X117383557Y-95635534D01*
X117467222Y-95479009D01*
X117496552Y-95443271D01*
X117579814Y-95341814D01*
X117692639Y-95249222D01*
X117717009Y-95229222D01*
X117836117Y-95165557D01*
X117873532Y-95145558D01*
X117873534Y-95145557D01*
X118043373Y-95094037D01*
X118109558Y-95087518D01*
X118175740Y-95081000D01*
X118264260Y-95081000D01*
X118330442Y-95087518D01*
X118330442Y-95087518D01*
G37*
G36*
X113250442Y-95087518D02*
G01*
X113316627Y-95094037D01*
X113486466Y-95145557D01*
X113486468Y-95145558D01*
X113523883Y-95165557D01*
X113642991Y-95229222D01*
X113667361Y-95249222D01*
X113780186Y-95341814D01*
X113863448Y-95443271D01*
X113892778Y-95479009D01*
X113976443Y-95635534D01*
X114027963Y-95805373D01*
X114045359Y-95982000D01*
X114027963Y-96158627D01*
X113976443Y-96328466D01*
X113892778Y-96484991D01*
X113884571Y-96494991D01*
X113780186Y-96622186D01*
X113678729Y-96705448D01*
X113642991Y-96734778D01*
X113486466Y-96818443D01*
X113316627Y-96869963D01*
X113250442Y-96876482D01*
X113184260Y-96883000D01*
X113095740Y-96883000D01*
X113029557Y-96876481D01*
X112963373Y-96869963D01*
X112793534Y-96818443D01*
X112637009Y-96734778D01*
X112601271Y-96705448D01*
X112499814Y-96622186D01*
X112395429Y-96494991D01*
X112387222Y-96484991D01*
X112303557Y-96328466D01*
X112252037Y-96158627D01*
X112234641Y-95982000D01*
X112252037Y-95805373D01*
X112303557Y-95635534D01*
X112387222Y-95479009D01*
X112416552Y-95443271D01*
X112499814Y-95341814D01*
X112612639Y-95249222D01*
X112637009Y-95229222D01*
X112756117Y-95165557D01*
X112793532Y-95145558D01*
X112793534Y-95145557D01*
X112963373Y-95094037D01*
X113029558Y-95087518D01*
X113095740Y-95081000D01*
X113184260Y-95081000D01*
X113250442Y-95087518D01*
X113250442Y-95087518D01*
G37*
G36*
X110710442Y-95087518D02*
G01*
X110776627Y-95094037D01*
X110946466Y-95145557D01*
X110946468Y-95145558D01*
X110983883Y-95165557D01*
X111102991Y-95229222D01*
X111127361Y-95249222D01*
X111240186Y-95341814D01*
X111323448Y-95443271D01*
X111352778Y-95479009D01*
X111436443Y-95635534D01*
X111487963Y-95805373D01*
X111505359Y-95982000D01*
X111487963Y-96158627D01*
X111436443Y-96328466D01*
X111352778Y-96484991D01*
X111344571Y-96494991D01*
X111240186Y-96622186D01*
X111138729Y-96705448D01*
X111102991Y-96734778D01*
X110946466Y-96818443D01*
X110776627Y-96869963D01*
X110710442Y-96876482D01*
X110644260Y-96883000D01*
X110555740Y-96883000D01*
X110489557Y-96876481D01*
X110423373Y-96869963D01*
X110253534Y-96818443D01*
X110097009Y-96734778D01*
X110061271Y-96705448D01*
X109959814Y-96622186D01*
X109855429Y-96494991D01*
X109847222Y-96484991D01*
X109763557Y-96328466D01*
X109712037Y-96158627D01*
X109694641Y-95982000D01*
X109712037Y-95805373D01*
X109763557Y-95635534D01*
X109847222Y-95479009D01*
X109876552Y-95443271D01*
X109959814Y-95341814D01*
X110072639Y-95249222D01*
X110097009Y-95229222D01*
X110216117Y-95165557D01*
X110253532Y-95145558D01*
X110253534Y-95145557D01*
X110423373Y-95094037D01*
X110489558Y-95087518D01*
X110555740Y-95081000D01*
X110644260Y-95081000D01*
X110710442Y-95087518D01*
X110710442Y-95087518D01*
G37*
G36*
X150090442Y-92567518D02*
G01*
X150156627Y-92574037D01*
X150326466Y-92625557D01*
X150482991Y-92709222D01*
X150518729Y-92738552D01*
X150620186Y-92821814D01*
X150703448Y-92923271D01*
X150732778Y-92959009D01*
X150816443Y-93115534D01*
X150867963Y-93285373D01*
X150885359Y-93462000D01*
X150867963Y-93638627D01*
X150816443Y-93808466D01*
X150732778Y-93964991D01*
X150703448Y-94000729D01*
X150620186Y-94102186D01*
X150518729Y-94185448D01*
X150482991Y-94214778D01*
X150482989Y-94214779D01*
X150345177Y-94288442D01*
X150326466Y-94298443D01*
X150156627Y-94349963D01*
X150090442Y-94356482D01*
X150024260Y-94363000D01*
X149935740Y-94363000D01*
X149869558Y-94356482D01*
X149803373Y-94349963D01*
X149633534Y-94298443D01*
X149614824Y-94288442D01*
X149477011Y-94214779D01*
X149477009Y-94214778D01*
X149441271Y-94185448D01*
X149339814Y-94102186D01*
X149256552Y-94000729D01*
X149227222Y-93964991D01*
X149143557Y-93808466D01*
X149092037Y-93638627D01*
X149074641Y-93462000D01*
X149092037Y-93285373D01*
X149143557Y-93115534D01*
X149227222Y-92959009D01*
X149256552Y-92923271D01*
X149339814Y-92821814D01*
X149441271Y-92738552D01*
X149477009Y-92709222D01*
X149633534Y-92625557D01*
X149803373Y-92574037D01*
X149869558Y-92567518D01*
X149935740Y-92561000D01*
X150024260Y-92561000D01*
X150090442Y-92567518D01*
X150090442Y-92567518D01*
G37*
G36*
X155961000Y-94363000D02*
G01*
X154159000Y-94363000D01*
X154159000Y-92561000D01*
X155961000Y-92561000D01*
X155961000Y-94363000D01*
X155961000Y-94363000D01*
G37*
G36*
X132310442Y-92567518D02*
G01*
X132376627Y-92574037D01*
X132546466Y-92625557D01*
X132702991Y-92709222D01*
X132738729Y-92738552D01*
X132840186Y-92821814D01*
X132923448Y-92923271D01*
X132952778Y-92959009D01*
X133036443Y-93115534D01*
X133087963Y-93285373D01*
X133105359Y-93462000D01*
X133087963Y-93638627D01*
X133036443Y-93808466D01*
X132952778Y-93964991D01*
X132923448Y-94000729D01*
X132840186Y-94102186D01*
X132738729Y-94185448D01*
X132702991Y-94214778D01*
X132702989Y-94214779D01*
X132565177Y-94288442D01*
X132546466Y-94298443D01*
X132376627Y-94349963D01*
X132310442Y-94356482D01*
X132244260Y-94363000D01*
X132155740Y-94363000D01*
X132089558Y-94356482D01*
X132023373Y-94349963D01*
X131853534Y-94298443D01*
X131834824Y-94288442D01*
X131697011Y-94214779D01*
X131697009Y-94214778D01*
X131661271Y-94185448D01*
X131559814Y-94102186D01*
X131476552Y-94000729D01*
X131447222Y-93964991D01*
X131363557Y-93808466D01*
X131312037Y-93638627D01*
X131294641Y-93462000D01*
X131312037Y-93285373D01*
X131363557Y-93115534D01*
X131447222Y-92959009D01*
X131476552Y-92923271D01*
X131559814Y-92821814D01*
X131661271Y-92738552D01*
X131697009Y-92709222D01*
X131853534Y-92625557D01*
X132023373Y-92574037D01*
X132089558Y-92567518D01*
X132155740Y-92561000D01*
X132244260Y-92561000D01*
X132310442Y-92567518D01*
X132310442Y-92567518D01*
G37*
G36*
X134850442Y-92567518D02*
G01*
X134916627Y-92574037D01*
X135086466Y-92625557D01*
X135242991Y-92709222D01*
X135278729Y-92738552D01*
X135380186Y-92821814D01*
X135463448Y-92923271D01*
X135492778Y-92959009D01*
X135576443Y-93115534D01*
X135627963Y-93285373D01*
X135645359Y-93462000D01*
X135627963Y-93638627D01*
X135576443Y-93808466D01*
X135492778Y-93964991D01*
X135463448Y-94000729D01*
X135380186Y-94102186D01*
X135278729Y-94185448D01*
X135242991Y-94214778D01*
X135242989Y-94214779D01*
X135105177Y-94288442D01*
X135086466Y-94298443D01*
X134916627Y-94349963D01*
X134850442Y-94356482D01*
X134784260Y-94363000D01*
X134695740Y-94363000D01*
X134629558Y-94356482D01*
X134563373Y-94349963D01*
X134393534Y-94298443D01*
X134374824Y-94288442D01*
X134237011Y-94214779D01*
X134237009Y-94214778D01*
X134201271Y-94185448D01*
X134099814Y-94102186D01*
X134016552Y-94000729D01*
X133987222Y-93964991D01*
X133903557Y-93808466D01*
X133852037Y-93638627D01*
X133834641Y-93462000D01*
X133852037Y-93285373D01*
X133903557Y-93115534D01*
X133987222Y-92959009D01*
X134016552Y-92923271D01*
X134099814Y-92821814D01*
X134201271Y-92738552D01*
X134237009Y-92709222D01*
X134393534Y-92625557D01*
X134563373Y-92574037D01*
X134629558Y-92567518D01*
X134695740Y-92561000D01*
X134784260Y-92561000D01*
X134850442Y-92567518D01*
X134850442Y-92567518D01*
G37*
G36*
X137390442Y-92567518D02*
G01*
X137456627Y-92574037D01*
X137626466Y-92625557D01*
X137782991Y-92709222D01*
X137818729Y-92738552D01*
X137920186Y-92821814D01*
X138003448Y-92923271D01*
X138032778Y-92959009D01*
X138116443Y-93115534D01*
X138167963Y-93285373D01*
X138185359Y-93462000D01*
X138167963Y-93638627D01*
X138116443Y-93808466D01*
X138032778Y-93964991D01*
X138003448Y-94000729D01*
X137920186Y-94102186D01*
X137818729Y-94185448D01*
X137782991Y-94214778D01*
X137782989Y-94214779D01*
X137645177Y-94288442D01*
X137626466Y-94298443D01*
X137456627Y-94349963D01*
X137390442Y-94356482D01*
X137324260Y-94363000D01*
X137235740Y-94363000D01*
X137169558Y-94356482D01*
X137103373Y-94349963D01*
X136933534Y-94298443D01*
X136914824Y-94288442D01*
X136777011Y-94214779D01*
X136777009Y-94214778D01*
X136741271Y-94185448D01*
X136639814Y-94102186D01*
X136556552Y-94000729D01*
X136527222Y-93964991D01*
X136443557Y-93808466D01*
X136392037Y-93638627D01*
X136374641Y-93462000D01*
X136392037Y-93285373D01*
X136443557Y-93115534D01*
X136527222Y-92959009D01*
X136556552Y-92923271D01*
X136639814Y-92821814D01*
X136741271Y-92738552D01*
X136777009Y-92709222D01*
X136933534Y-92625557D01*
X137103373Y-92574037D01*
X137169558Y-92567518D01*
X137235740Y-92561000D01*
X137324260Y-92561000D01*
X137390442Y-92567518D01*
X137390442Y-92567518D01*
G37*
G36*
X142470442Y-92567518D02*
G01*
X142536627Y-92574037D01*
X142706466Y-92625557D01*
X142862991Y-92709222D01*
X142898729Y-92738552D01*
X143000186Y-92821814D01*
X143083448Y-92923271D01*
X143112778Y-92959009D01*
X143196443Y-93115534D01*
X143247963Y-93285373D01*
X143265359Y-93462000D01*
X143247963Y-93638627D01*
X143196443Y-93808466D01*
X143112778Y-93964991D01*
X143083448Y-94000729D01*
X143000186Y-94102186D01*
X142898729Y-94185448D01*
X142862991Y-94214778D01*
X142862989Y-94214779D01*
X142725177Y-94288442D01*
X142706466Y-94298443D01*
X142536627Y-94349963D01*
X142470442Y-94356482D01*
X142404260Y-94363000D01*
X142315740Y-94363000D01*
X142249558Y-94356482D01*
X142183373Y-94349963D01*
X142013534Y-94298443D01*
X141994824Y-94288442D01*
X141857011Y-94214779D01*
X141857009Y-94214778D01*
X141821271Y-94185448D01*
X141719814Y-94102186D01*
X141636552Y-94000729D01*
X141607222Y-93964991D01*
X141523557Y-93808466D01*
X141472037Y-93638627D01*
X141454641Y-93462000D01*
X141472037Y-93285373D01*
X141523557Y-93115534D01*
X141607222Y-92959009D01*
X141636552Y-92923271D01*
X141719814Y-92821814D01*
X141821271Y-92738552D01*
X141857009Y-92709222D01*
X142013534Y-92625557D01*
X142183373Y-92574037D01*
X142249558Y-92567518D01*
X142315740Y-92561000D01*
X142404260Y-92561000D01*
X142470442Y-92567518D01*
X142470442Y-92567518D01*
G37*
G36*
X147550442Y-92567518D02*
G01*
X147616627Y-92574037D01*
X147786466Y-92625557D01*
X147942991Y-92709222D01*
X147978729Y-92738552D01*
X148080186Y-92821814D01*
X148163448Y-92923271D01*
X148192778Y-92959009D01*
X148276443Y-93115534D01*
X148327963Y-93285373D01*
X148345359Y-93462000D01*
X148327963Y-93638627D01*
X148276443Y-93808466D01*
X148192778Y-93964991D01*
X148163448Y-94000729D01*
X148080186Y-94102186D01*
X147978729Y-94185448D01*
X147942991Y-94214778D01*
X147942989Y-94214779D01*
X147805177Y-94288442D01*
X147786466Y-94298443D01*
X147616627Y-94349963D01*
X147550442Y-94356482D01*
X147484260Y-94363000D01*
X147395740Y-94363000D01*
X147329558Y-94356482D01*
X147263373Y-94349963D01*
X147093534Y-94298443D01*
X147074824Y-94288442D01*
X146937011Y-94214779D01*
X146937009Y-94214778D01*
X146901271Y-94185448D01*
X146799814Y-94102186D01*
X146716552Y-94000729D01*
X146687222Y-93964991D01*
X146603557Y-93808466D01*
X146552037Y-93638627D01*
X146534641Y-93462000D01*
X146552037Y-93285373D01*
X146603557Y-93115534D01*
X146687222Y-92959009D01*
X146716552Y-92923271D01*
X146799814Y-92821814D01*
X146901271Y-92738552D01*
X146937009Y-92709222D01*
X147093534Y-92625557D01*
X147263373Y-92574037D01*
X147329558Y-92567518D01*
X147395740Y-92561000D01*
X147484260Y-92561000D01*
X147550442Y-92567518D01*
X147550442Y-92567518D01*
G37*
G36*
X145010442Y-92567518D02*
G01*
X145076627Y-92574037D01*
X145246466Y-92625557D01*
X145402991Y-92709222D01*
X145438729Y-92738552D01*
X145540186Y-92821814D01*
X145623448Y-92923271D01*
X145652778Y-92959009D01*
X145736443Y-93115534D01*
X145787963Y-93285373D01*
X145805359Y-93462000D01*
X145787963Y-93638627D01*
X145736443Y-93808466D01*
X145652778Y-93964991D01*
X145623448Y-94000729D01*
X145540186Y-94102186D01*
X145438729Y-94185448D01*
X145402991Y-94214778D01*
X145402989Y-94214779D01*
X145265177Y-94288442D01*
X145246466Y-94298443D01*
X145076627Y-94349963D01*
X145010442Y-94356482D01*
X144944260Y-94363000D01*
X144855740Y-94363000D01*
X144789558Y-94356482D01*
X144723373Y-94349963D01*
X144553534Y-94298443D01*
X144534824Y-94288442D01*
X144397011Y-94214779D01*
X144397009Y-94214778D01*
X144361271Y-94185448D01*
X144259814Y-94102186D01*
X144176552Y-94000729D01*
X144147222Y-93964991D01*
X144063557Y-93808466D01*
X144012037Y-93638627D01*
X143994641Y-93462000D01*
X144012037Y-93285373D01*
X144063557Y-93115534D01*
X144147222Y-92959009D01*
X144176552Y-92923271D01*
X144259814Y-92821814D01*
X144361271Y-92738552D01*
X144397009Y-92709222D01*
X144553534Y-92625557D01*
X144723373Y-92574037D01*
X144789558Y-92567518D01*
X144855740Y-92561000D01*
X144944260Y-92561000D01*
X145010442Y-92567518D01*
X145010442Y-92567518D01*
G37*
G36*
X152630442Y-92567518D02*
G01*
X152696627Y-92574037D01*
X152866466Y-92625557D01*
X153022991Y-92709222D01*
X153058729Y-92738552D01*
X153160186Y-92821814D01*
X153243448Y-92923271D01*
X153272778Y-92959009D01*
X153356443Y-93115534D01*
X153407963Y-93285373D01*
X153425359Y-93462000D01*
X153407963Y-93638627D01*
X153356443Y-93808466D01*
X153272778Y-93964991D01*
X153243448Y-94000729D01*
X153160186Y-94102186D01*
X153058729Y-94185448D01*
X153022991Y-94214778D01*
X153022989Y-94214779D01*
X152885177Y-94288442D01*
X152866466Y-94298443D01*
X152696627Y-94349963D01*
X152630442Y-94356482D01*
X152564260Y-94363000D01*
X152475740Y-94363000D01*
X152409558Y-94356482D01*
X152343373Y-94349963D01*
X152173534Y-94298443D01*
X152154824Y-94288442D01*
X152017011Y-94214779D01*
X152017009Y-94214778D01*
X151981271Y-94185448D01*
X151879814Y-94102186D01*
X151796552Y-94000729D01*
X151767222Y-93964991D01*
X151683557Y-93808466D01*
X151632037Y-93638627D01*
X151614641Y-93462000D01*
X151632037Y-93285373D01*
X151683557Y-93115534D01*
X151767222Y-92959009D01*
X151796552Y-92923271D01*
X151879814Y-92821814D01*
X151981271Y-92738552D01*
X152017009Y-92709222D01*
X152173534Y-92625557D01*
X152343373Y-92574037D01*
X152409558Y-92567518D01*
X152475740Y-92561000D01*
X152564260Y-92561000D01*
X152630442Y-92567518D01*
X152630442Y-92567518D01*
G37*
G36*
X139930442Y-92567518D02*
G01*
X139996627Y-92574037D01*
X140166466Y-92625557D01*
X140322991Y-92709222D01*
X140358729Y-92738552D01*
X140460186Y-92821814D01*
X140543448Y-92923271D01*
X140572778Y-92959009D01*
X140656443Y-93115534D01*
X140707963Y-93285373D01*
X140725359Y-93462000D01*
X140707963Y-93638627D01*
X140656443Y-93808466D01*
X140572778Y-93964991D01*
X140543448Y-94000729D01*
X140460186Y-94102186D01*
X140358729Y-94185448D01*
X140322991Y-94214778D01*
X140322989Y-94214779D01*
X140185177Y-94288442D01*
X140166466Y-94298443D01*
X139996627Y-94349963D01*
X139930442Y-94356482D01*
X139864260Y-94363000D01*
X139775740Y-94363000D01*
X139709558Y-94356482D01*
X139643373Y-94349963D01*
X139473534Y-94298443D01*
X139454824Y-94288442D01*
X139317011Y-94214779D01*
X139317009Y-94214778D01*
X139281271Y-94185448D01*
X139179814Y-94102186D01*
X139096552Y-94000729D01*
X139067222Y-93964991D01*
X138983557Y-93808466D01*
X138932037Y-93638627D01*
X138914641Y-93462000D01*
X138932037Y-93285373D01*
X138983557Y-93115534D01*
X139067222Y-92959009D01*
X139096552Y-92923271D01*
X139179814Y-92821814D01*
X139281271Y-92738552D01*
X139317009Y-92709222D01*
X139473534Y-92625557D01*
X139643373Y-92574037D01*
X139709558Y-92567518D01*
X139775740Y-92561000D01*
X139864260Y-92561000D01*
X139930442Y-92567518D01*
X139930442Y-92567518D01*
G37*
G36*
X66280442Y-92557518D02*
G01*
X66346627Y-92564037D01*
X66516466Y-92615557D01*
X66516468Y-92615558D01*
X66594728Y-92657389D01*
X66672991Y-92699222D01*
X66708729Y-92728552D01*
X66810186Y-92811814D01*
X66893448Y-92913271D01*
X66922778Y-92949009D01*
X67006443Y-93105534D01*
X67057963Y-93275373D01*
X67075359Y-93452000D01*
X67057963Y-93628627D01*
X67006443Y-93798466D01*
X66922778Y-93954991D01*
X66914571Y-93964991D01*
X66810186Y-94092186D01*
X66708729Y-94175448D01*
X66672991Y-94204778D01*
X66594728Y-94246611D01*
X66535177Y-94278442D01*
X66516466Y-94288443D01*
X66346627Y-94339963D01*
X66280443Y-94346481D01*
X66214260Y-94353000D01*
X66125740Y-94353000D01*
X66059557Y-94346481D01*
X65993373Y-94339963D01*
X65823534Y-94288443D01*
X65804824Y-94278442D01*
X65745272Y-94246611D01*
X65667009Y-94204778D01*
X65631271Y-94175448D01*
X65529814Y-94092186D01*
X65425429Y-93964991D01*
X65417222Y-93954991D01*
X65333557Y-93798466D01*
X65282037Y-93628627D01*
X65264641Y-93452000D01*
X65282037Y-93275373D01*
X65333557Y-93105534D01*
X65417222Y-92949009D01*
X65446552Y-92913271D01*
X65529814Y-92811814D01*
X65631271Y-92728552D01*
X65667009Y-92699222D01*
X65745272Y-92657389D01*
X65823532Y-92615558D01*
X65823534Y-92615557D01*
X65993373Y-92564037D01*
X66059558Y-92557518D01*
X66125740Y-92551000D01*
X66214260Y-92551000D01*
X66280442Y-92557518D01*
X66280442Y-92557518D01*
G37*
G36*
X63740442Y-92557518D02*
G01*
X63806627Y-92564037D01*
X63976466Y-92615557D01*
X63976468Y-92615558D01*
X64054728Y-92657389D01*
X64132991Y-92699222D01*
X64168729Y-92728552D01*
X64270186Y-92811814D01*
X64353448Y-92913271D01*
X64382778Y-92949009D01*
X64466443Y-93105534D01*
X64517963Y-93275373D01*
X64535359Y-93452000D01*
X64517963Y-93628627D01*
X64466443Y-93798466D01*
X64382778Y-93954991D01*
X64374571Y-93964991D01*
X64270186Y-94092186D01*
X64168729Y-94175448D01*
X64132991Y-94204778D01*
X64054728Y-94246611D01*
X63995177Y-94278442D01*
X63976466Y-94288443D01*
X63806627Y-94339963D01*
X63740443Y-94346481D01*
X63674260Y-94353000D01*
X63585740Y-94353000D01*
X63519557Y-94346481D01*
X63453373Y-94339963D01*
X63283534Y-94288443D01*
X63264824Y-94278442D01*
X63205272Y-94246611D01*
X63127009Y-94204778D01*
X63091271Y-94175448D01*
X62989814Y-94092186D01*
X62885429Y-93964991D01*
X62877222Y-93954991D01*
X62793557Y-93798466D01*
X62742037Y-93628627D01*
X62724641Y-93452000D01*
X62742037Y-93275373D01*
X62793557Y-93105534D01*
X62877222Y-92949009D01*
X62906552Y-92913271D01*
X62989814Y-92811814D01*
X63091271Y-92728552D01*
X63127009Y-92699222D01*
X63205272Y-92657389D01*
X63283532Y-92615558D01*
X63283534Y-92615557D01*
X63453373Y-92564037D01*
X63519558Y-92557518D01*
X63585740Y-92551000D01*
X63674260Y-92551000D01*
X63740442Y-92557518D01*
X63740442Y-92557518D01*
G37*
G36*
X68820442Y-92557518D02*
G01*
X68886627Y-92564037D01*
X69056466Y-92615557D01*
X69056468Y-92615558D01*
X69134728Y-92657389D01*
X69212991Y-92699222D01*
X69248729Y-92728552D01*
X69350186Y-92811814D01*
X69433448Y-92913271D01*
X69462778Y-92949009D01*
X69546443Y-93105534D01*
X69597963Y-93275373D01*
X69615359Y-93452000D01*
X69597963Y-93628627D01*
X69546443Y-93798466D01*
X69462778Y-93954991D01*
X69454571Y-93964991D01*
X69350186Y-94092186D01*
X69248729Y-94175448D01*
X69212991Y-94204778D01*
X69134728Y-94246611D01*
X69075177Y-94278442D01*
X69056466Y-94288443D01*
X68886627Y-94339963D01*
X68820443Y-94346481D01*
X68754260Y-94353000D01*
X68665740Y-94353000D01*
X68599557Y-94346481D01*
X68533373Y-94339963D01*
X68363534Y-94288443D01*
X68344824Y-94278442D01*
X68285272Y-94246611D01*
X68207009Y-94204778D01*
X68171271Y-94175448D01*
X68069814Y-94092186D01*
X67965429Y-93964991D01*
X67957222Y-93954991D01*
X67873557Y-93798466D01*
X67822037Y-93628627D01*
X67804641Y-93452000D01*
X67822037Y-93275373D01*
X67873557Y-93105534D01*
X67957222Y-92949009D01*
X67986552Y-92913271D01*
X68069814Y-92811814D01*
X68171271Y-92728552D01*
X68207009Y-92699222D01*
X68285272Y-92657389D01*
X68363532Y-92615558D01*
X68363534Y-92615557D01*
X68533373Y-92564037D01*
X68599558Y-92557518D01*
X68665740Y-92551000D01*
X68754260Y-92551000D01*
X68820442Y-92557518D01*
X68820442Y-92557518D01*
G37*
G36*
X71360442Y-92557518D02*
G01*
X71426627Y-92564037D01*
X71596466Y-92615557D01*
X71596468Y-92615558D01*
X71674728Y-92657389D01*
X71752991Y-92699222D01*
X71788729Y-92728552D01*
X71890186Y-92811814D01*
X71973448Y-92913271D01*
X72002778Y-92949009D01*
X72086443Y-93105534D01*
X72137963Y-93275373D01*
X72155359Y-93452000D01*
X72137963Y-93628627D01*
X72086443Y-93798466D01*
X72002778Y-93954991D01*
X71994571Y-93964991D01*
X71890186Y-94092186D01*
X71788729Y-94175448D01*
X71752991Y-94204778D01*
X71674728Y-94246611D01*
X71615177Y-94278442D01*
X71596466Y-94288443D01*
X71426627Y-94339963D01*
X71360443Y-94346481D01*
X71294260Y-94353000D01*
X71205740Y-94353000D01*
X71139557Y-94346481D01*
X71073373Y-94339963D01*
X70903534Y-94288443D01*
X70884824Y-94278442D01*
X70825272Y-94246611D01*
X70747009Y-94204778D01*
X70711271Y-94175448D01*
X70609814Y-94092186D01*
X70505429Y-93964991D01*
X70497222Y-93954991D01*
X70413557Y-93798466D01*
X70362037Y-93628627D01*
X70344641Y-93452000D01*
X70362037Y-93275373D01*
X70413557Y-93105534D01*
X70497222Y-92949009D01*
X70526552Y-92913271D01*
X70609814Y-92811814D01*
X70711271Y-92728552D01*
X70747009Y-92699222D01*
X70825272Y-92657389D01*
X70903532Y-92615558D01*
X70903534Y-92615557D01*
X71073373Y-92564037D01*
X71139558Y-92557518D01*
X71205740Y-92551000D01*
X71294260Y-92551000D01*
X71360442Y-92557518D01*
X71360442Y-92557518D01*
G37*
G36*
X73900442Y-92557518D02*
G01*
X73966627Y-92564037D01*
X74136466Y-92615557D01*
X74136468Y-92615558D01*
X74214728Y-92657389D01*
X74292991Y-92699222D01*
X74328729Y-92728552D01*
X74430186Y-92811814D01*
X74513448Y-92913271D01*
X74542778Y-92949009D01*
X74626443Y-93105534D01*
X74677963Y-93275373D01*
X74695359Y-93452000D01*
X74677963Y-93628627D01*
X74626443Y-93798466D01*
X74542778Y-93954991D01*
X74534571Y-93964991D01*
X74430186Y-94092186D01*
X74328729Y-94175448D01*
X74292991Y-94204778D01*
X74214728Y-94246611D01*
X74155177Y-94278442D01*
X74136466Y-94288443D01*
X73966627Y-94339963D01*
X73900443Y-94346481D01*
X73834260Y-94353000D01*
X73745740Y-94353000D01*
X73679557Y-94346481D01*
X73613373Y-94339963D01*
X73443534Y-94288443D01*
X73424824Y-94278442D01*
X73365272Y-94246611D01*
X73287009Y-94204778D01*
X73251271Y-94175448D01*
X73149814Y-94092186D01*
X73045429Y-93964991D01*
X73037222Y-93954991D01*
X72953557Y-93798466D01*
X72902037Y-93628627D01*
X72884641Y-93452000D01*
X72902037Y-93275373D01*
X72953557Y-93105534D01*
X73037222Y-92949009D01*
X73066552Y-92913271D01*
X73149814Y-92811814D01*
X73251271Y-92728552D01*
X73287009Y-92699222D01*
X73365272Y-92657389D01*
X73443532Y-92615558D01*
X73443534Y-92615557D01*
X73613373Y-92564037D01*
X73679558Y-92557518D01*
X73745740Y-92551000D01*
X73834260Y-92551000D01*
X73900442Y-92557518D01*
X73900442Y-92557518D01*
G37*
G36*
X78980442Y-92557518D02*
G01*
X79046627Y-92564037D01*
X79216466Y-92615557D01*
X79216468Y-92615558D01*
X79294728Y-92657389D01*
X79372991Y-92699222D01*
X79408729Y-92728552D01*
X79510186Y-92811814D01*
X79593448Y-92913271D01*
X79622778Y-92949009D01*
X79706443Y-93105534D01*
X79757963Y-93275373D01*
X79775359Y-93452000D01*
X79757963Y-93628627D01*
X79706443Y-93798466D01*
X79622778Y-93954991D01*
X79614571Y-93964991D01*
X79510186Y-94092186D01*
X79408729Y-94175448D01*
X79372991Y-94204778D01*
X79294728Y-94246611D01*
X79235177Y-94278442D01*
X79216466Y-94288443D01*
X79046627Y-94339963D01*
X78980443Y-94346481D01*
X78914260Y-94353000D01*
X78825740Y-94353000D01*
X78759557Y-94346481D01*
X78693373Y-94339963D01*
X78523534Y-94288443D01*
X78504824Y-94278442D01*
X78445272Y-94246611D01*
X78367009Y-94204778D01*
X78331271Y-94175448D01*
X78229814Y-94092186D01*
X78125429Y-93964991D01*
X78117222Y-93954991D01*
X78033557Y-93798466D01*
X77982037Y-93628627D01*
X77964641Y-93452000D01*
X77982037Y-93275373D01*
X78033557Y-93105534D01*
X78117222Y-92949009D01*
X78146552Y-92913271D01*
X78229814Y-92811814D01*
X78331271Y-92728552D01*
X78367009Y-92699222D01*
X78445272Y-92657389D01*
X78523532Y-92615558D01*
X78523534Y-92615557D01*
X78693373Y-92564037D01*
X78759558Y-92557518D01*
X78825740Y-92551000D01*
X78914260Y-92551000D01*
X78980442Y-92557518D01*
X78980442Y-92557518D01*
G37*
G36*
X81520442Y-92557518D02*
G01*
X81586627Y-92564037D01*
X81756466Y-92615557D01*
X81756468Y-92615558D01*
X81834728Y-92657389D01*
X81912991Y-92699222D01*
X81948729Y-92728552D01*
X82050186Y-92811814D01*
X82133448Y-92913271D01*
X82162778Y-92949009D01*
X82246443Y-93105534D01*
X82297963Y-93275373D01*
X82315359Y-93452000D01*
X82297963Y-93628627D01*
X82246443Y-93798466D01*
X82162778Y-93954991D01*
X82154571Y-93964991D01*
X82050186Y-94092186D01*
X81948729Y-94175448D01*
X81912991Y-94204778D01*
X81834728Y-94246611D01*
X81775177Y-94278442D01*
X81756466Y-94288443D01*
X81586627Y-94339963D01*
X81520443Y-94346481D01*
X81454260Y-94353000D01*
X81365740Y-94353000D01*
X81299557Y-94346481D01*
X81233373Y-94339963D01*
X81063534Y-94288443D01*
X81044824Y-94278442D01*
X80985272Y-94246611D01*
X80907009Y-94204778D01*
X80871271Y-94175448D01*
X80769814Y-94092186D01*
X80665429Y-93964991D01*
X80657222Y-93954991D01*
X80573557Y-93798466D01*
X80522037Y-93628627D01*
X80504641Y-93452000D01*
X80522037Y-93275373D01*
X80573557Y-93105534D01*
X80657222Y-92949009D01*
X80686552Y-92913271D01*
X80769814Y-92811814D01*
X80871271Y-92728552D01*
X80907009Y-92699222D01*
X80985272Y-92657389D01*
X81063532Y-92615558D01*
X81063534Y-92615557D01*
X81233373Y-92564037D01*
X81299558Y-92557518D01*
X81365740Y-92551000D01*
X81454260Y-92551000D01*
X81520442Y-92557518D01*
X81520442Y-92557518D01*
G37*
G36*
X87391000Y-94353000D02*
G01*
X85589000Y-94353000D01*
X85589000Y-92551000D01*
X87391000Y-92551000D01*
X87391000Y-94353000D01*
X87391000Y-94353000D01*
G37*
G36*
X84060442Y-92557518D02*
G01*
X84126627Y-92564037D01*
X84296466Y-92615557D01*
X84296468Y-92615558D01*
X84374728Y-92657389D01*
X84452991Y-92699222D01*
X84488729Y-92728552D01*
X84590186Y-92811814D01*
X84673448Y-92913271D01*
X84702778Y-92949009D01*
X84786443Y-93105534D01*
X84837963Y-93275373D01*
X84855359Y-93452000D01*
X84837963Y-93628627D01*
X84786443Y-93798466D01*
X84702778Y-93954991D01*
X84694571Y-93964991D01*
X84590186Y-94092186D01*
X84488729Y-94175448D01*
X84452991Y-94204778D01*
X84374728Y-94246611D01*
X84315177Y-94278442D01*
X84296466Y-94288443D01*
X84126627Y-94339963D01*
X84060443Y-94346481D01*
X83994260Y-94353000D01*
X83905740Y-94353000D01*
X83839557Y-94346481D01*
X83773373Y-94339963D01*
X83603534Y-94288443D01*
X83584824Y-94278442D01*
X83525272Y-94246611D01*
X83447009Y-94204778D01*
X83411271Y-94175448D01*
X83309814Y-94092186D01*
X83205429Y-93964991D01*
X83197222Y-93954991D01*
X83113557Y-93798466D01*
X83062037Y-93628627D01*
X83044641Y-93452000D01*
X83062037Y-93275373D01*
X83113557Y-93105534D01*
X83197222Y-92949009D01*
X83226552Y-92913271D01*
X83309814Y-92811814D01*
X83411271Y-92728552D01*
X83447009Y-92699222D01*
X83525272Y-92657389D01*
X83603532Y-92615558D01*
X83603534Y-92615557D01*
X83773373Y-92564037D01*
X83839558Y-92557518D01*
X83905740Y-92551000D01*
X83994260Y-92551000D01*
X84060442Y-92557518D01*
X84060442Y-92557518D01*
G37*
G36*
X76440442Y-92557518D02*
G01*
X76506627Y-92564037D01*
X76676466Y-92615557D01*
X76676468Y-92615558D01*
X76754728Y-92657389D01*
X76832991Y-92699222D01*
X76868729Y-92728552D01*
X76970186Y-92811814D01*
X77053448Y-92913271D01*
X77082778Y-92949009D01*
X77166443Y-93105534D01*
X77217963Y-93275373D01*
X77235359Y-93452000D01*
X77217963Y-93628627D01*
X77166443Y-93798466D01*
X77082778Y-93954991D01*
X77074571Y-93964991D01*
X76970186Y-94092186D01*
X76868729Y-94175448D01*
X76832991Y-94204778D01*
X76754728Y-94246611D01*
X76695177Y-94278442D01*
X76676466Y-94288443D01*
X76506627Y-94339963D01*
X76440443Y-94346481D01*
X76374260Y-94353000D01*
X76285740Y-94353000D01*
X76219557Y-94346481D01*
X76153373Y-94339963D01*
X75983534Y-94288443D01*
X75964824Y-94278442D01*
X75905272Y-94246611D01*
X75827009Y-94204778D01*
X75791271Y-94175448D01*
X75689814Y-94092186D01*
X75585429Y-93964991D01*
X75577222Y-93954991D01*
X75493557Y-93798466D01*
X75442037Y-93628627D01*
X75424641Y-93452000D01*
X75442037Y-93275373D01*
X75493557Y-93105534D01*
X75577222Y-92949009D01*
X75606552Y-92913271D01*
X75689814Y-92811814D01*
X75791271Y-92728552D01*
X75827009Y-92699222D01*
X75905272Y-92657389D01*
X75983532Y-92615558D01*
X75983534Y-92615557D01*
X76153373Y-92564037D01*
X76219558Y-92557518D01*
X76285740Y-92551000D01*
X76374260Y-92551000D01*
X76440442Y-92557518D01*
X76440442Y-92557518D01*
G37*
G36*
X118330442Y-92547518D02*
G01*
X118396627Y-92554037D01*
X118566466Y-92605557D01*
X118566468Y-92605558D01*
X118603883Y-92625557D01*
X118722991Y-92689222D01*
X118747361Y-92709222D01*
X118860186Y-92801814D01*
X118943448Y-92903271D01*
X118972778Y-92939009D01*
X119056443Y-93095534D01*
X119107963Y-93265373D01*
X119125359Y-93442000D01*
X119107963Y-93618627D01*
X119056443Y-93788466D01*
X118972778Y-93944991D01*
X118964571Y-93954991D01*
X118860186Y-94082186D01*
X118758729Y-94165448D01*
X118722991Y-94194778D01*
X118566466Y-94278443D01*
X118396627Y-94329963D01*
X118330443Y-94336481D01*
X118264260Y-94343000D01*
X118175740Y-94343000D01*
X118109558Y-94336482D01*
X118043373Y-94329963D01*
X117873534Y-94278443D01*
X117717009Y-94194778D01*
X117681271Y-94165448D01*
X117579814Y-94082186D01*
X117475429Y-93954991D01*
X117467222Y-93944991D01*
X117383557Y-93788466D01*
X117332037Y-93618627D01*
X117314641Y-93442000D01*
X117332037Y-93265373D01*
X117383557Y-93095534D01*
X117467222Y-92939009D01*
X117496552Y-92903271D01*
X117579814Y-92801814D01*
X117692639Y-92709222D01*
X117717009Y-92689222D01*
X117836117Y-92625557D01*
X117873532Y-92605558D01*
X117873534Y-92605557D01*
X118043373Y-92554037D01*
X118109558Y-92547518D01*
X118175740Y-92541000D01*
X118264260Y-92541000D01*
X118330442Y-92547518D01*
X118330442Y-92547518D01*
G37*
G36*
X105630442Y-92547518D02*
G01*
X105696627Y-92554037D01*
X105866466Y-92605557D01*
X105866468Y-92605558D01*
X105903883Y-92625557D01*
X106022991Y-92689222D01*
X106047361Y-92709222D01*
X106160186Y-92801814D01*
X106243448Y-92903271D01*
X106272778Y-92939009D01*
X106356443Y-93095534D01*
X106407963Y-93265373D01*
X106425359Y-93442000D01*
X106407963Y-93618627D01*
X106356443Y-93788466D01*
X106272778Y-93944991D01*
X106264571Y-93954991D01*
X106160186Y-94082186D01*
X106058729Y-94165448D01*
X106022991Y-94194778D01*
X105866466Y-94278443D01*
X105696627Y-94329963D01*
X105630442Y-94336482D01*
X105564260Y-94343000D01*
X105475740Y-94343000D01*
X105409558Y-94336482D01*
X105343373Y-94329963D01*
X105173534Y-94278443D01*
X105017009Y-94194778D01*
X104981271Y-94165448D01*
X104879814Y-94082186D01*
X104775429Y-93954991D01*
X104767222Y-93944991D01*
X104683557Y-93788466D01*
X104632037Y-93618627D01*
X104614641Y-93442000D01*
X104632037Y-93265373D01*
X104683557Y-93095534D01*
X104767222Y-92939009D01*
X104796552Y-92903271D01*
X104879814Y-92801814D01*
X104992639Y-92709222D01*
X105017009Y-92689222D01*
X105136117Y-92625557D01*
X105173532Y-92605558D01*
X105173534Y-92605557D01*
X105343373Y-92554037D01*
X105409558Y-92547518D01*
X105475740Y-92541000D01*
X105564260Y-92541000D01*
X105630442Y-92547518D01*
X105630442Y-92547518D01*
G37*
G36*
X110710442Y-92547518D02*
G01*
X110776627Y-92554037D01*
X110946466Y-92605557D01*
X110946468Y-92605558D01*
X110983883Y-92625557D01*
X111102991Y-92689222D01*
X111127361Y-92709222D01*
X111240186Y-92801814D01*
X111323448Y-92903271D01*
X111352778Y-92939009D01*
X111436443Y-93095534D01*
X111487963Y-93265373D01*
X111505359Y-93442000D01*
X111487963Y-93618627D01*
X111436443Y-93788466D01*
X111352778Y-93944991D01*
X111344571Y-93954991D01*
X111240186Y-94082186D01*
X111138729Y-94165448D01*
X111102991Y-94194778D01*
X110946466Y-94278443D01*
X110776627Y-94329963D01*
X110710442Y-94336482D01*
X110644260Y-94343000D01*
X110555740Y-94343000D01*
X110489558Y-94336482D01*
X110423373Y-94329963D01*
X110253534Y-94278443D01*
X110097009Y-94194778D01*
X110061271Y-94165448D01*
X109959814Y-94082186D01*
X109855429Y-93954991D01*
X109847222Y-93944991D01*
X109763557Y-93788466D01*
X109712037Y-93618627D01*
X109694641Y-93442000D01*
X109712037Y-93265373D01*
X109763557Y-93095534D01*
X109847222Y-92939009D01*
X109876552Y-92903271D01*
X109959814Y-92801814D01*
X110072639Y-92709222D01*
X110097009Y-92689222D01*
X110216117Y-92625557D01*
X110253532Y-92605558D01*
X110253534Y-92605557D01*
X110423373Y-92554037D01*
X110489558Y-92547518D01*
X110555740Y-92541000D01*
X110644260Y-92541000D01*
X110710442Y-92547518D01*
X110710442Y-92547518D01*
G37*
G36*
X103090442Y-92547518D02*
G01*
X103156627Y-92554037D01*
X103326466Y-92605557D01*
X103326468Y-92605558D01*
X103363883Y-92625557D01*
X103482991Y-92689222D01*
X103507361Y-92709222D01*
X103620186Y-92801814D01*
X103703448Y-92903271D01*
X103732778Y-92939009D01*
X103816443Y-93095534D01*
X103867963Y-93265373D01*
X103885359Y-93442000D01*
X103867963Y-93618627D01*
X103816443Y-93788466D01*
X103732778Y-93944991D01*
X103724571Y-93954991D01*
X103620186Y-94082186D01*
X103518729Y-94165448D01*
X103482991Y-94194778D01*
X103326466Y-94278443D01*
X103156627Y-94329963D01*
X103090442Y-94336482D01*
X103024260Y-94343000D01*
X102935740Y-94343000D01*
X102869558Y-94336482D01*
X102803373Y-94329963D01*
X102633534Y-94278443D01*
X102477009Y-94194778D01*
X102441271Y-94165448D01*
X102339814Y-94082186D01*
X102235429Y-93954991D01*
X102227222Y-93944991D01*
X102143557Y-93788466D01*
X102092037Y-93618627D01*
X102074641Y-93442000D01*
X102092037Y-93265373D01*
X102143557Y-93095534D01*
X102227222Y-92939009D01*
X102256552Y-92903271D01*
X102339814Y-92801814D01*
X102452639Y-92709222D01*
X102477009Y-92689222D01*
X102596117Y-92625557D01*
X102633532Y-92605558D01*
X102633534Y-92605557D01*
X102803373Y-92554037D01*
X102869558Y-92547518D01*
X102935740Y-92541000D01*
X103024260Y-92541000D01*
X103090442Y-92547518D01*
X103090442Y-92547518D01*
G37*
G36*
X113250442Y-92547518D02*
G01*
X113316627Y-92554037D01*
X113486466Y-92605557D01*
X113486468Y-92605558D01*
X113523883Y-92625557D01*
X113642991Y-92689222D01*
X113667361Y-92709222D01*
X113780186Y-92801814D01*
X113863448Y-92903271D01*
X113892778Y-92939009D01*
X113976443Y-93095534D01*
X114027963Y-93265373D01*
X114045359Y-93442000D01*
X114027963Y-93618627D01*
X113976443Y-93788466D01*
X113892778Y-93944991D01*
X113884571Y-93954991D01*
X113780186Y-94082186D01*
X113678729Y-94165448D01*
X113642991Y-94194778D01*
X113486466Y-94278443D01*
X113316627Y-94329963D01*
X113250442Y-94336482D01*
X113184260Y-94343000D01*
X113095740Y-94343000D01*
X113029558Y-94336482D01*
X112963373Y-94329963D01*
X112793534Y-94278443D01*
X112637009Y-94194778D01*
X112601271Y-94165448D01*
X112499814Y-94082186D01*
X112395429Y-93954991D01*
X112387222Y-93944991D01*
X112303557Y-93788466D01*
X112252037Y-93618627D01*
X112234641Y-93442000D01*
X112252037Y-93265373D01*
X112303557Y-93095534D01*
X112387222Y-92939009D01*
X112416552Y-92903271D01*
X112499814Y-92801814D01*
X112612639Y-92709222D01*
X112637009Y-92689222D01*
X112756117Y-92625557D01*
X112793532Y-92605558D01*
X112793534Y-92605557D01*
X112963373Y-92554037D01*
X113029558Y-92547518D01*
X113095740Y-92541000D01*
X113184260Y-92541000D01*
X113250442Y-92547518D01*
X113250442Y-92547518D01*
G37*
G36*
X115790442Y-92547518D02*
G01*
X115856627Y-92554037D01*
X116026466Y-92605557D01*
X116026468Y-92605558D01*
X116063883Y-92625557D01*
X116182991Y-92689222D01*
X116207361Y-92709222D01*
X116320186Y-92801814D01*
X116403448Y-92903271D01*
X116432778Y-92939009D01*
X116516443Y-93095534D01*
X116567963Y-93265373D01*
X116585359Y-93442000D01*
X116567963Y-93618627D01*
X116516443Y-93788466D01*
X116432778Y-93944991D01*
X116424571Y-93954991D01*
X116320186Y-94082186D01*
X116218729Y-94165448D01*
X116182991Y-94194778D01*
X116026466Y-94278443D01*
X115856627Y-94329963D01*
X115790442Y-94336482D01*
X115724260Y-94343000D01*
X115635740Y-94343000D01*
X115569558Y-94336482D01*
X115503373Y-94329963D01*
X115333534Y-94278443D01*
X115177009Y-94194778D01*
X115141271Y-94165448D01*
X115039814Y-94082186D01*
X114935429Y-93954991D01*
X114927222Y-93944991D01*
X114843557Y-93788466D01*
X114792037Y-93618627D01*
X114774641Y-93442000D01*
X114792037Y-93265373D01*
X114843557Y-93095534D01*
X114927222Y-92939009D01*
X114956552Y-92903271D01*
X115039814Y-92801814D01*
X115152639Y-92709222D01*
X115177009Y-92689222D01*
X115296117Y-92625557D01*
X115333532Y-92605558D01*
X115333534Y-92605557D01*
X115503373Y-92554037D01*
X115569558Y-92547518D01*
X115635740Y-92541000D01*
X115724260Y-92541000D01*
X115790442Y-92547518D01*
X115790442Y-92547518D01*
G37*
G36*
X100550442Y-92547518D02*
G01*
X100616627Y-92554037D01*
X100786466Y-92605557D01*
X100786468Y-92605558D01*
X100823883Y-92625557D01*
X100942991Y-92689222D01*
X100967361Y-92709222D01*
X101080186Y-92801814D01*
X101163448Y-92903271D01*
X101192778Y-92939009D01*
X101276443Y-93095534D01*
X101327963Y-93265373D01*
X101345359Y-93442000D01*
X101327963Y-93618627D01*
X101276443Y-93788466D01*
X101192778Y-93944991D01*
X101184571Y-93954991D01*
X101080186Y-94082186D01*
X100978729Y-94165448D01*
X100942991Y-94194778D01*
X100786466Y-94278443D01*
X100616627Y-94329963D01*
X100550442Y-94336482D01*
X100484260Y-94343000D01*
X100395740Y-94343000D01*
X100329558Y-94336482D01*
X100263373Y-94329963D01*
X100093534Y-94278443D01*
X99937009Y-94194778D01*
X99901271Y-94165448D01*
X99799814Y-94082186D01*
X99695429Y-93954991D01*
X99687222Y-93944991D01*
X99603557Y-93788466D01*
X99552037Y-93618627D01*
X99534641Y-93442000D01*
X99552037Y-93265373D01*
X99603557Y-93095534D01*
X99687222Y-92939009D01*
X99716552Y-92903271D01*
X99799814Y-92801814D01*
X99912639Y-92709222D01*
X99937009Y-92689222D01*
X100056117Y-92625557D01*
X100093532Y-92605558D01*
X100093534Y-92605557D01*
X100263373Y-92554037D01*
X100329558Y-92547518D01*
X100395740Y-92541000D01*
X100484260Y-92541000D01*
X100550442Y-92547518D01*
X100550442Y-92547518D01*
G37*
G36*
X121661000Y-94343000D02*
G01*
X119859000Y-94343000D01*
X119859000Y-92541000D01*
X121661000Y-92541000D01*
X121661000Y-94343000D01*
X121661000Y-94343000D01*
G37*
G36*
X108170442Y-92547518D02*
G01*
X108236627Y-92554037D01*
X108406466Y-92605557D01*
X108406468Y-92605558D01*
X108443883Y-92625557D01*
X108562991Y-92689222D01*
X108587361Y-92709222D01*
X108700186Y-92801814D01*
X108783448Y-92903271D01*
X108812778Y-92939009D01*
X108896443Y-93095534D01*
X108947963Y-93265373D01*
X108965359Y-93442000D01*
X108947963Y-93618627D01*
X108896443Y-93788466D01*
X108812778Y-93944991D01*
X108804571Y-93954991D01*
X108700186Y-94082186D01*
X108598729Y-94165448D01*
X108562991Y-94194778D01*
X108406466Y-94278443D01*
X108236627Y-94329963D01*
X108170442Y-94336482D01*
X108104260Y-94343000D01*
X108015740Y-94343000D01*
X107949558Y-94336482D01*
X107883373Y-94329963D01*
X107713534Y-94278443D01*
X107557009Y-94194778D01*
X107521271Y-94165448D01*
X107419814Y-94082186D01*
X107315429Y-93954991D01*
X107307222Y-93944991D01*
X107223557Y-93788466D01*
X107172037Y-93618627D01*
X107154641Y-93442000D01*
X107172037Y-93265373D01*
X107223557Y-93095534D01*
X107307222Y-92939009D01*
X107336552Y-92903271D01*
X107419814Y-92801814D01*
X107532639Y-92709222D01*
X107557009Y-92689222D01*
X107676117Y-92625557D01*
X107713532Y-92605558D01*
X107713534Y-92605557D01*
X107883373Y-92554037D01*
X107949558Y-92547518D01*
X108015740Y-92541000D01*
X108104260Y-92541000D01*
X108170442Y-92547518D01*
X108170442Y-92547518D01*
G37*
G36*
X98010442Y-92547518D02*
G01*
X98076627Y-92554037D01*
X98246466Y-92605557D01*
X98246468Y-92605558D01*
X98283883Y-92625557D01*
X98402991Y-92689222D01*
X98427361Y-92709222D01*
X98540186Y-92801814D01*
X98623448Y-92903271D01*
X98652778Y-92939009D01*
X98736443Y-93095534D01*
X98787963Y-93265373D01*
X98805359Y-93442000D01*
X98787963Y-93618627D01*
X98736443Y-93788466D01*
X98652778Y-93944991D01*
X98644571Y-93954991D01*
X98540186Y-94082186D01*
X98438729Y-94165448D01*
X98402991Y-94194778D01*
X98246466Y-94278443D01*
X98076627Y-94329963D01*
X98010442Y-94336482D01*
X97944260Y-94343000D01*
X97855740Y-94343000D01*
X97789558Y-94336482D01*
X97723373Y-94329963D01*
X97553534Y-94278443D01*
X97397009Y-94194778D01*
X97361271Y-94165448D01*
X97259814Y-94082186D01*
X97155429Y-93954991D01*
X97147222Y-93944991D01*
X97063557Y-93788466D01*
X97012037Y-93618627D01*
X96994641Y-93442000D01*
X97012037Y-93265373D01*
X97063557Y-93095534D01*
X97147222Y-92939009D01*
X97176552Y-92903271D01*
X97259814Y-92801814D01*
X97372639Y-92709222D01*
X97397009Y-92689222D01*
X97516117Y-92625557D01*
X97553532Y-92605558D01*
X97553534Y-92605557D01*
X97723373Y-92554037D01*
X97789558Y-92547518D01*
X97855740Y-92541000D01*
X97944260Y-92541000D01*
X98010442Y-92547518D01*
X98010442Y-92547518D01*
G37*
G36*
X87685562Y-89728181D02*
G01*
X87720481Y-89738774D01*
X87752663Y-89755976D01*
X87780873Y-89779127D01*
X87804024Y-89807337D01*
X87821226Y-89839519D01*
X87831819Y-89874438D01*
X87836000Y-89916895D01*
X87836000Y-91058105D01*
X87831819Y-91100562D01*
X87821226Y-91135481D01*
X87804024Y-91167663D01*
X87780873Y-91195873D01*
X87752663Y-91219024D01*
X87720481Y-91236226D01*
X87685562Y-91246819D01*
X87643105Y-91251000D01*
X86176895Y-91251000D01*
X86134438Y-91246819D01*
X86099519Y-91236226D01*
X86067337Y-91219024D01*
X86039127Y-91195873D01*
X86015976Y-91167663D01*
X85998774Y-91135481D01*
X85988181Y-91100562D01*
X85984000Y-91058105D01*
X85984000Y-89916895D01*
X85988181Y-89874438D01*
X85998774Y-89839519D01*
X86015976Y-89807337D01*
X86039127Y-89779127D01*
X86067337Y-89755976D01*
X86099519Y-89738774D01*
X86134438Y-89728181D01*
X86176895Y-89724000D01*
X87643105Y-89724000D01*
X87685562Y-89728181D01*
X87685562Y-89728181D01*
G37*
G36*
X63685562Y-89728181D02*
G01*
X63720481Y-89738774D01*
X63752663Y-89755976D01*
X63780873Y-89779127D01*
X63804024Y-89807337D01*
X63821226Y-89839519D01*
X63831819Y-89874438D01*
X63836000Y-89916895D01*
X63836000Y-91058105D01*
X63831819Y-91100562D01*
X63821226Y-91135481D01*
X63804024Y-91167663D01*
X63780873Y-91195873D01*
X63752663Y-91219024D01*
X63720481Y-91236226D01*
X63685562Y-91246819D01*
X63643105Y-91251000D01*
X62176895Y-91251000D01*
X62134438Y-91246819D01*
X62099519Y-91236226D01*
X62067337Y-91219024D01*
X62039127Y-91195873D01*
X62015976Y-91167663D01*
X61998774Y-91135481D01*
X61988181Y-91100562D01*
X61984000Y-91058105D01*
X61984000Y-89916895D01*
X61988181Y-89874438D01*
X61998774Y-89839519D01*
X62015976Y-89807337D01*
X62039127Y-89779127D01*
X62067337Y-89755976D01*
X62099519Y-89738774D01*
X62134438Y-89728181D01*
X62176895Y-89724000D01*
X63643105Y-89724000D01*
X63685562Y-89728181D01*
X63685562Y-89728181D01*
G37*
G36*
X147685562Y-89728181D02*
G01*
X147720481Y-89738774D01*
X147752663Y-89755976D01*
X147780873Y-89779127D01*
X147804024Y-89807337D01*
X147821226Y-89839519D01*
X147831819Y-89874438D01*
X147836000Y-89916895D01*
X147836000Y-91058105D01*
X147831819Y-91100562D01*
X147821226Y-91135481D01*
X147804024Y-91167663D01*
X147780873Y-91195873D01*
X147752663Y-91219024D01*
X147720481Y-91236226D01*
X147685562Y-91246819D01*
X147643105Y-91251000D01*
X146176895Y-91251000D01*
X146134438Y-91246819D01*
X146099519Y-91236226D01*
X146067337Y-91219024D01*
X146039127Y-91195873D01*
X146015976Y-91167663D01*
X145998774Y-91135481D01*
X145988181Y-91100562D01*
X145984000Y-91058105D01*
X145984000Y-89916895D01*
X145988181Y-89874438D01*
X145998774Y-89839519D01*
X146015976Y-89807337D01*
X146039127Y-89779127D01*
X146067337Y-89755976D01*
X146099519Y-89738774D01*
X146134438Y-89728181D01*
X146176895Y-89724000D01*
X147643105Y-89724000D01*
X147685562Y-89728181D01*
X147685562Y-89728181D01*
G37*
G36*
X123685562Y-89728181D02*
G01*
X123720481Y-89738774D01*
X123752663Y-89755976D01*
X123780873Y-89779127D01*
X123804024Y-89807337D01*
X123821226Y-89839519D01*
X123831819Y-89874438D01*
X123836000Y-89916895D01*
X123836000Y-91058105D01*
X123831819Y-91100562D01*
X123821226Y-91135481D01*
X123804024Y-91167663D01*
X123780873Y-91195873D01*
X123752663Y-91219024D01*
X123720481Y-91236226D01*
X123685562Y-91246819D01*
X123643105Y-91251000D01*
X122176895Y-91251000D01*
X122134438Y-91246819D01*
X122099519Y-91236226D01*
X122067337Y-91219024D01*
X122039127Y-91195873D01*
X122015976Y-91167663D01*
X121998774Y-91135481D01*
X121988181Y-91100562D01*
X121984000Y-91058105D01*
X121984000Y-89916895D01*
X121988181Y-89874438D01*
X121998774Y-89839519D01*
X122015976Y-89807337D01*
X122039127Y-89779127D01*
X122067337Y-89755976D01*
X122099519Y-89738774D01*
X122134438Y-89728181D01*
X122176895Y-89724000D01*
X123643105Y-89724000D01*
X123685562Y-89728181D01*
X123685562Y-89728181D01*
G37*
G36*
X123685562Y-86753181D02*
G01*
X123720481Y-86763774D01*
X123752663Y-86780976D01*
X123780873Y-86804127D01*
X123804024Y-86832337D01*
X123821226Y-86864519D01*
X123831819Y-86899438D01*
X123836000Y-86941895D01*
X123836000Y-88083105D01*
X123831819Y-88125562D01*
X123821226Y-88160481D01*
X123804024Y-88192663D01*
X123780873Y-88220873D01*
X123752663Y-88244024D01*
X123720481Y-88261226D01*
X123685562Y-88271819D01*
X123643105Y-88276000D01*
X122176895Y-88276000D01*
X122134438Y-88271819D01*
X122099519Y-88261226D01*
X122067337Y-88244024D01*
X122039127Y-88220873D01*
X122015976Y-88192663D01*
X121998774Y-88160481D01*
X121988181Y-88125562D01*
X121984000Y-88083105D01*
X121984000Y-86941895D01*
X121988181Y-86899438D01*
X121998774Y-86864519D01*
X122015976Y-86832337D01*
X122039127Y-86804127D01*
X122067337Y-86780976D01*
X122099519Y-86763774D01*
X122134438Y-86753181D01*
X122176895Y-86749000D01*
X123643105Y-86749000D01*
X123685562Y-86753181D01*
X123685562Y-86753181D01*
G37*
G36*
X147685562Y-86753181D02*
G01*
X147720481Y-86763774D01*
X147752663Y-86780976D01*
X147780873Y-86804127D01*
X147804024Y-86832337D01*
X147821226Y-86864519D01*
X147831819Y-86899438D01*
X147836000Y-86941895D01*
X147836000Y-88083105D01*
X147831819Y-88125562D01*
X147821226Y-88160481D01*
X147804024Y-88192663D01*
X147780873Y-88220873D01*
X147752663Y-88244024D01*
X147720481Y-88261226D01*
X147685562Y-88271819D01*
X147643105Y-88276000D01*
X146176895Y-88276000D01*
X146134438Y-88271819D01*
X146099519Y-88261226D01*
X146067337Y-88244024D01*
X146039127Y-88220873D01*
X146015976Y-88192663D01*
X145998774Y-88160481D01*
X145988181Y-88125562D01*
X145984000Y-88083105D01*
X145984000Y-86941895D01*
X145988181Y-86899438D01*
X145998774Y-86864519D01*
X146015976Y-86832337D01*
X146039127Y-86804127D01*
X146067337Y-86780976D01*
X146099519Y-86763774D01*
X146134438Y-86753181D01*
X146176895Y-86749000D01*
X147643105Y-86749000D01*
X147685562Y-86753181D01*
X147685562Y-86753181D01*
G37*
G36*
X63685562Y-86753181D02*
G01*
X63720481Y-86763774D01*
X63752663Y-86780976D01*
X63780873Y-86804127D01*
X63804024Y-86832337D01*
X63821226Y-86864519D01*
X63831819Y-86899438D01*
X63836000Y-86941895D01*
X63836000Y-88083105D01*
X63831819Y-88125562D01*
X63821226Y-88160481D01*
X63804024Y-88192663D01*
X63780873Y-88220873D01*
X63752663Y-88244024D01*
X63720481Y-88261226D01*
X63685562Y-88271819D01*
X63643105Y-88276000D01*
X62176895Y-88276000D01*
X62134438Y-88271819D01*
X62099519Y-88261226D01*
X62067337Y-88244024D01*
X62039127Y-88220873D01*
X62015976Y-88192663D01*
X61998774Y-88160481D01*
X61988181Y-88125562D01*
X61984000Y-88083105D01*
X61984000Y-86941895D01*
X61988181Y-86899438D01*
X61998774Y-86864519D01*
X62015976Y-86832337D01*
X62039127Y-86804127D01*
X62067337Y-86780976D01*
X62099519Y-86763774D01*
X62134438Y-86753181D01*
X62176895Y-86749000D01*
X63643105Y-86749000D01*
X63685562Y-86753181D01*
X63685562Y-86753181D01*
G37*
G36*
X87685562Y-86753181D02*
G01*
X87720481Y-86763774D01*
X87752663Y-86780976D01*
X87780873Y-86804127D01*
X87804024Y-86832337D01*
X87821226Y-86864519D01*
X87831819Y-86899438D01*
X87836000Y-86941895D01*
X87836000Y-88083105D01*
X87831819Y-88125562D01*
X87821226Y-88160481D01*
X87804024Y-88192663D01*
X87780873Y-88220873D01*
X87752663Y-88244024D01*
X87720481Y-88261226D01*
X87685562Y-88271819D01*
X87643105Y-88276000D01*
X86176895Y-88276000D01*
X86134438Y-88271819D01*
X86099519Y-88261226D01*
X86067337Y-88244024D01*
X86039127Y-88220873D01*
X86015976Y-88192663D01*
X85998774Y-88160481D01*
X85988181Y-88125562D01*
X85984000Y-88083105D01*
X85984000Y-86941895D01*
X85988181Y-86899438D01*
X85998774Y-86864519D01*
X86015976Y-86832337D01*
X86039127Y-86804127D01*
X86067337Y-86780976D01*
X86099519Y-86763774D01*
X86134438Y-86753181D01*
X86176895Y-86749000D01*
X87643105Y-86749000D01*
X87685562Y-86753181D01*
X87685562Y-86753181D01*
G37*
G36*
X143289487Y-82630996D02*
G01*
X143526253Y-82729068D01*
X143526255Y-82729069D01*
X143739339Y-82871447D01*
X143920553Y-83052661D01*
X144051245Y-83248255D01*
X144062932Y-83265747D01*
X144161004Y-83502513D01*
X144211000Y-83753861D01*
X144211000Y-84010139D01*
X144161004Y-84261487D01*
X144149917Y-84288253D01*
X144062931Y-84498255D01*
X143920553Y-84711339D01*
X143739339Y-84892553D01*
X143526255Y-85034931D01*
X143526254Y-85034932D01*
X143526253Y-85034932D01*
X143289487Y-85133004D01*
X143038139Y-85183000D01*
X142781861Y-85183000D01*
X142530513Y-85133004D01*
X142293747Y-85034932D01*
X142293746Y-85034932D01*
X142293745Y-85034931D01*
X142080661Y-84892553D01*
X141899447Y-84711339D01*
X141757069Y-84498255D01*
X141670083Y-84288253D01*
X141658996Y-84261487D01*
X141609000Y-84010139D01*
X141609000Y-83753861D01*
X141658996Y-83502513D01*
X141757068Y-83265747D01*
X141768756Y-83248255D01*
X141899447Y-83052661D01*
X142080661Y-82871447D01*
X142293745Y-82729069D01*
X142293747Y-82729068D01*
X142530513Y-82630996D01*
X142781861Y-82581000D01*
X143038139Y-82581000D01*
X143289487Y-82630996D01*
X143289487Y-82630996D01*
G37*
G36*
X119289487Y-82420996D02*
G01*
X119526253Y-82519068D01*
X119526255Y-82519069D01*
X119739339Y-82661447D01*
X119920553Y-82842661D01*
X120051245Y-83038255D01*
X120062932Y-83055747D01*
X120161004Y-83292513D01*
X120211000Y-83543861D01*
X120211000Y-83800139D01*
X120161004Y-84051487D01*
X120074019Y-84261487D01*
X120062931Y-84288255D01*
X119920553Y-84501339D01*
X119739339Y-84682553D01*
X119526255Y-84824931D01*
X119526254Y-84824932D01*
X119526253Y-84824932D01*
X119289487Y-84923004D01*
X119038139Y-84973000D01*
X118781861Y-84973000D01*
X118530513Y-84923004D01*
X118293747Y-84824932D01*
X118293746Y-84824932D01*
X118293745Y-84824931D01*
X118080661Y-84682553D01*
X117899447Y-84501339D01*
X117757069Y-84288255D01*
X117745981Y-84261487D01*
X117658996Y-84051487D01*
X117609000Y-83800139D01*
X117609000Y-83543861D01*
X117658996Y-83292513D01*
X117757068Y-83055747D01*
X117768756Y-83038255D01*
X117899447Y-82842661D01*
X118080661Y-82661447D01*
X118293745Y-82519069D01*
X118293747Y-82519068D01*
X118530513Y-82420996D01*
X118781861Y-82371000D01*
X119038139Y-82371000D01*
X119289487Y-82420996D01*
X119289487Y-82420996D01*
G37*
G36*
X59289487Y-82420996D02*
G01*
X59526253Y-82519068D01*
X59526255Y-82519069D01*
X59739339Y-82661447D01*
X59920553Y-82842661D01*
X60051245Y-83038255D01*
X60062932Y-83055747D01*
X60161004Y-83292513D01*
X60211000Y-83543861D01*
X60211000Y-83800139D01*
X60161004Y-84051487D01*
X60074019Y-84261487D01*
X60062931Y-84288255D01*
X59920553Y-84501339D01*
X59739339Y-84682553D01*
X59526255Y-84824931D01*
X59526254Y-84824932D01*
X59526253Y-84824932D01*
X59289487Y-84923004D01*
X59038139Y-84973000D01*
X58781861Y-84973000D01*
X58530513Y-84923004D01*
X58293747Y-84824932D01*
X58293746Y-84824932D01*
X58293745Y-84824931D01*
X58080661Y-84682553D01*
X57899447Y-84501339D01*
X57757069Y-84288255D01*
X57745981Y-84261487D01*
X57658996Y-84051487D01*
X57609000Y-83800139D01*
X57609000Y-83543861D01*
X57658996Y-83292513D01*
X57757068Y-83055747D01*
X57768756Y-83038255D01*
X57899447Y-82842661D01*
X58080661Y-82661447D01*
X58293745Y-82519069D01*
X58293747Y-82519068D01*
X58530513Y-82420996D01*
X58781861Y-82371000D01*
X59038139Y-82371000D01*
X59289487Y-82420996D01*
X59289487Y-82420996D01*
G37*
G36*
X83289487Y-82420996D02*
G01*
X83526253Y-82519068D01*
X83526255Y-82519069D01*
X83739339Y-82661447D01*
X83920553Y-82842661D01*
X84051245Y-83038255D01*
X84062932Y-83055747D01*
X84161004Y-83292513D01*
X84211000Y-83543861D01*
X84211000Y-83800139D01*
X84161004Y-84051487D01*
X84074019Y-84261487D01*
X84062931Y-84288255D01*
X83920553Y-84501339D01*
X83739339Y-84682553D01*
X83526255Y-84824931D01*
X83526254Y-84824932D01*
X83526253Y-84824932D01*
X83289487Y-84923004D01*
X83038139Y-84973000D01*
X82781861Y-84973000D01*
X82530513Y-84923004D01*
X82293747Y-84824932D01*
X82293746Y-84824932D01*
X82293745Y-84824931D01*
X82080661Y-84682553D01*
X81899447Y-84501339D01*
X81757069Y-84288255D01*
X81745981Y-84261487D01*
X81658996Y-84051487D01*
X81609000Y-83800139D01*
X81609000Y-83543861D01*
X81658996Y-83292513D01*
X81757068Y-83055747D01*
X81768756Y-83038255D01*
X81899447Y-82842661D01*
X82080661Y-82661447D01*
X82293745Y-82519069D01*
X82293747Y-82519068D01*
X82530513Y-82420996D01*
X82781861Y-82371000D01*
X83038139Y-82371000D01*
X83289487Y-82420996D01*
X83289487Y-82420996D01*
G37*
G36*
X147289487Y-81380996D02*
G01*
X147526253Y-81479068D01*
X147526255Y-81479069D01*
X147696258Y-81592661D01*
X147739339Y-81621447D01*
X147920553Y-81802661D01*
X148062932Y-82015747D01*
X148161004Y-82252513D01*
X148211000Y-82503861D01*
X148211000Y-82760139D01*
X148161004Y-83011487D01*
X148062932Y-83248253D01*
X148062931Y-83248255D01*
X147920553Y-83461339D01*
X147739339Y-83642553D01*
X147526255Y-83784931D01*
X147526254Y-83784932D01*
X147526253Y-83784932D01*
X147289487Y-83883004D01*
X147038139Y-83933000D01*
X146781861Y-83933000D01*
X146530513Y-83883004D01*
X146293747Y-83784932D01*
X146293746Y-83784932D01*
X146293745Y-83784931D01*
X146080661Y-83642553D01*
X145899447Y-83461339D01*
X145757069Y-83248255D01*
X145757068Y-83248253D01*
X145658996Y-83011487D01*
X145609000Y-82760139D01*
X145609000Y-82503861D01*
X145658996Y-82252513D01*
X145757068Y-82015747D01*
X145899447Y-81802661D01*
X146080661Y-81621447D01*
X146123742Y-81592661D01*
X146293745Y-81479069D01*
X146293747Y-81479068D01*
X146530513Y-81380996D01*
X146781861Y-81331000D01*
X147038139Y-81331000D01*
X147289487Y-81380996D01*
X147289487Y-81380996D01*
G37*
G36*
X139289487Y-81380996D02*
G01*
X139526253Y-81479068D01*
X139526255Y-81479069D01*
X139696258Y-81592661D01*
X139739339Y-81621447D01*
X139920553Y-81802661D01*
X140062932Y-82015747D01*
X140161004Y-82252513D01*
X140211000Y-82503861D01*
X140211000Y-82760139D01*
X140161004Y-83011487D01*
X140062932Y-83248253D01*
X140062931Y-83248255D01*
X139920553Y-83461339D01*
X139739339Y-83642553D01*
X139526255Y-83784931D01*
X139526254Y-83784932D01*
X139526253Y-83784932D01*
X139289487Y-83883004D01*
X139038139Y-83933000D01*
X138781861Y-83933000D01*
X138530513Y-83883004D01*
X138293747Y-83784932D01*
X138293746Y-83784932D01*
X138293745Y-83784931D01*
X138080661Y-83642553D01*
X137899447Y-83461339D01*
X137757069Y-83248255D01*
X137757068Y-83248253D01*
X137658996Y-83011487D01*
X137609000Y-82760139D01*
X137609000Y-82503861D01*
X137658996Y-82252513D01*
X137757068Y-82015747D01*
X137899447Y-81802661D01*
X138080661Y-81621447D01*
X138123742Y-81592661D01*
X138293745Y-81479069D01*
X138293747Y-81479068D01*
X138530513Y-81380996D01*
X138781861Y-81331000D01*
X139038139Y-81331000D01*
X139289487Y-81380996D01*
X139289487Y-81380996D01*
G37*
G36*
X63289487Y-81170996D02*
G01*
X63526253Y-81269068D01*
X63526255Y-81269069D01*
X63618941Y-81331000D01*
X63739339Y-81411447D01*
X63920553Y-81592661D01*
X64062932Y-81805747D01*
X64161004Y-82042513D01*
X64211000Y-82293861D01*
X64211000Y-82550139D01*
X64161004Y-82801487D01*
X64074019Y-83011487D01*
X64062931Y-83038255D01*
X63920553Y-83251339D01*
X63739339Y-83432553D01*
X63526255Y-83574931D01*
X63526254Y-83574932D01*
X63526253Y-83574932D01*
X63289487Y-83673004D01*
X63038139Y-83723000D01*
X62781861Y-83723000D01*
X62530513Y-83673004D01*
X62293747Y-83574932D01*
X62293746Y-83574932D01*
X62293745Y-83574931D01*
X62080661Y-83432553D01*
X61899447Y-83251339D01*
X61757069Y-83038255D01*
X61745981Y-83011487D01*
X61658996Y-82801487D01*
X61609000Y-82550139D01*
X61609000Y-82293861D01*
X61658996Y-82042513D01*
X61757068Y-81805747D01*
X61899447Y-81592661D01*
X62080661Y-81411447D01*
X62201059Y-81331000D01*
X62293745Y-81269069D01*
X62293747Y-81269068D01*
X62530513Y-81170996D01*
X62781861Y-81121000D01*
X63038139Y-81121000D01*
X63289487Y-81170996D01*
X63289487Y-81170996D01*
G37*
G36*
X79289487Y-81170996D02*
G01*
X79526253Y-81269068D01*
X79526255Y-81269069D01*
X79618941Y-81331000D01*
X79739339Y-81411447D01*
X79920553Y-81592661D01*
X80062932Y-81805747D01*
X80161004Y-82042513D01*
X80211000Y-82293861D01*
X80211000Y-82550139D01*
X80161004Y-82801487D01*
X80074019Y-83011487D01*
X80062931Y-83038255D01*
X79920553Y-83251339D01*
X79739339Y-83432553D01*
X79526255Y-83574931D01*
X79526254Y-83574932D01*
X79526253Y-83574932D01*
X79289487Y-83673004D01*
X79038139Y-83723000D01*
X78781861Y-83723000D01*
X78530513Y-83673004D01*
X78293747Y-83574932D01*
X78293746Y-83574932D01*
X78293745Y-83574931D01*
X78080661Y-83432553D01*
X77899447Y-83251339D01*
X77757069Y-83038255D01*
X77745981Y-83011487D01*
X77658996Y-82801487D01*
X77609000Y-82550139D01*
X77609000Y-82293861D01*
X77658996Y-82042513D01*
X77757068Y-81805747D01*
X77899447Y-81592661D01*
X78080661Y-81411447D01*
X78201059Y-81331000D01*
X78293745Y-81269069D01*
X78293747Y-81269068D01*
X78530513Y-81170996D01*
X78781861Y-81121000D01*
X79038139Y-81121000D01*
X79289487Y-81170996D01*
X79289487Y-81170996D01*
G37*
G36*
X87289487Y-81170996D02*
G01*
X87526253Y-81269068D01*
X87526255Y-81269069D01*
X87618941Y-81331000D01*
X87739339Y-81411447D01*
X87920553Y-81592661D01*
X88062932Y-81805747D01*
X88161004Y-82042513D01*
X88211000Y-82293861D01*
X88211000Y-82550139D01*
X88161004Y-82801487D01*
X88074019Y-83011487D01*
X88062931Y-83038255D01*
X87920553Y-83251339D01*
X87739339Y-83432553D01*
X87526255Y-83574931D01*
X87526254Y-83574932D01*
X87526253Y-83574932D01*
X87289487Y-83673004D01*
X87038139Y-83723000D01*
X86781861Y-83723000D01*
X86530513Y-83673004D01*
X86293747Y-83574932D01*
X86293746Y-83574932D01*
X86293745Y-83574931D01*
X86080661Y-83432553D01*
X85899447Y-83251339D01*
X85757069Y-83038255D01*
X85745981Y-83011487D01*
X85658996Y-82801487D01*
X85609000Y-82550139D01*
X85609000Y-82293861D01*
X85658996Y-82042513D01*
X85757068Y-81805747D01*
X85899447Y-81592661D01*
X86080661Y-81411447D01*
X86201059Y-81331000D01*
X86293745Y-81269069D01*
X86293747Y-81269068D01*
X86530513Y-81170996D01*
X86781861Y-81121000D01*
X87038139Y-81121000D01*
X87289487Y-81170996D01*
X87289487Y-81170996D01*
G37*
G36*
X123289487Y-81170996D02*
G01*
X123526253Y-81269068D01*
X123526255Y-81269069D01*
X123618941Y-81331000D01*
X123739339Y-81411447D01*
X123920553Y-81592661D01*
X124062932Y-81805747D01*
X124161004Y-82042513D01*
X124211000Y-82293861D01*
X124211000Y-82550139D01*
X124161004Y-82801487D01*
X124074019Y-83011487D01*
X124062931Y-83038255D01*
X123920553Y-83251339D01*
X123739339Y-83432553D01*
X123526255Y-83574931D01*
X123526254Y-83574932D01*
X123526253Y-83574932D01*
X123289487Y-83673004D01*
X123038139Y-83723000D01*
X122781861Y-83723000D01*
X122530513Y-83673004D01*
X122293747Y-83574932D01*
X122293746Y-83574932D01*
X122293745Y-83574931D01*
X122080661Y-83432553D01*
X121899447Y-83251339D01*
X121757069Y-83038255D01*
X121745981Y-83011487D01*
X121658996Y-82801487D01*
X121609000Y-82550139D01*
X121609000Y-82293861D01*
X121658996Y-82042513D01*
X121757068Y-81805747D01*
X121899447Y-81592661D01*
X122080661Y-81411447D01*
X122201059Y-81331000D01*
X122293745Y-81269069D01*
X122293747Y-81269068D01*
X122530513Y-81170996D01*
X122781861Y-81121000D01*
X123038139Y-81121000D01*
X123289487Y-81170996D01*
X123289487Y-81170996D01*
G37*
G36*
X55289487Y-81170996D02*
G01*
X55526253Y-81269068D01*
X55526255Y-81269069D01*
X55618941Y-81331000D01*
X55739339Y-81411447D01*
X55920553Y-81592661D01*
X56062932Y-81805747D01*
X56161004Y-82042513D01*
X56211000Y-82293861D01*
X56211000Y-82550139D01*
X56161004Y-82801487D01*
X56074019Y-83011487D01*
X56062931Y-83038255D01*
X55920553Y-83251339D01*
X55739339Y-83432553D01*
X55526255Y-83574931D01*
X55526254Y-83574932D01*
X55526253Y-83574932D01*
X55289487Y-83673004D01*
X55038139Y-83723000D01*
X54781861Y-83723000D01*
X54530513Y-83673004D01*
X54293747Y-83574932D01*
X54293746Y-83574932D01*
X54293745Y-83574931D01*
X54080661Y-83432553D01*
X53899447Y-83251339D01*
X53757069Y-83038255D01*
X53745981Y-83011487D01*
X53658996Y-82801487D01*
X53609000Y-82550139D01*
X53609000Y-82293861D01*
X53658996Y-82042513D01*
X53757068Y-81805747D01*
X53899447Y-81592661D01*
X54080661Y-81411447D01*
X54201059Y-81331000D01*
X54293745Y-81269069D01*
X54293747Y-81269068D01*
X54530513Y-81170996D01*
X54781861Y-81121000D01*
X55038139Y-81121000D01*
X55289487Y-81170996D01*
X55289487Y-81170996D01*
G37*
G36*
X115289487Y-81170996D02*
G01*
X115526253Y-81269068D01*
X115526255Y-81269069D01*
X115618941Y-81331000D01*
X115739339Y-81411447D01*
X115920553Y-81592661D01*
X116062932Y-81805747D01*
X116161004Y-82042513D01*
X116211000Y-82293861D01*
X116211000Y-82550139D01*
X116161004Y-82801487D01*
X116074019Y-83011487D01*
X116062931Y-83038255D01*
X115920553Y-83251339D01*
X115739339Y-83432553D01*
X115526255Y-83574931D01*
X115526254Y-83574932D01*
X115526253Y-83574932D01*
X115289487Y-83673004D01*
X115038139Y-83723000D01*
X114781861Y-83723000D01*
X114530513Y-83673004D01*
X114293747Y-83574932D01*
X114293746Y-83574932D01*
X114293745Y-83574931D01*
X114080661Y-83432553D01*
X113899447Y-83251339D01*
X113757069Y-83038255D01*
X113745981Y-83011487D01*
X113658996Y-82801487D01*
X113609000Y-82550139D01*
X113609000Y-82293861D01*
X113658996Y-82042513D01*
X113757068Y-81805747D01*
X113899447Y-81592661D01*
X114080661Y-81411447D01*
X114201059Y-81331000D01*
X114293745Y-81269069D01*
X114293747Y-81269068D01*
X114530513Y-81170996D01*
X114781861Y-81121000D01*
X115038139Y-81121000D01*
X115289487Y-81170996D01*
X115289487Y-81170996D01*
G37*
G36*
X102861000Y-82123000D02*
G01*
X100959000Y-82123000D01*
X100959000Y-80221000D01*
X102861000Y-80221000D01*
X102861000Y-82123000D01*
X102861000Y-82123000D01*
G37*
G36*
X148989487Y-78030996D02*
G01*
X149226253Y-78129068D01*
X149226255Y-78129069D01*
X149396258Y-78242661D01*
X149439339Y-78271447D01*
X149620553Y-78452661D01*
X149762932Y-78665747D01*
X149861004Y-78902513D01*
X149911000Y-79153861D01*
X149911000Y-79410139D01*
X149861004Y-79661487D01*
X149849917Y-79688253D01*
X149762931Y-79898255D01*
X149620553Y-80111339D01*
X149439339Y-80292553D01*
X149226255Y-80434931D01*
X149226254Y-80434932D01*
X149226253Y-80434932D01*
X148989487Y-80533004D01*
X148738139Y-80583000D01*
X148481861Y-80583000D01*
X148230513Y-80533004D01*
X147993747Y-80434932D01*
X147993746Y-80434932D01*
X147993745Y-80434931D01*
X147780661Y-80292553D01*
X147599447Y-80111339D01*
X147457069Y-79898255D01*
X147370083Y-79688253D01*
X147358996Y-79661487D01*
X147309000Y-79410139D01*
X147309000Y-79153861D01*
X147358996Y-78902513D01*
X147457068Y-78665747D01*
X147599447Y-78452661D01*
X147780661Y-78271447D01*
X147823742Y-78242661D01*
X147993745Y-78129069D01*
X147993747Y-78129068D01*
X148230513Y-78030996D01*
X148481861Y-77981000D01*
X148738139Y-77981000D01*
X148989487Y-78030996D01*
X148989487Y-78030996D01*
G37*
G36*
X137589487Y-78030996D02*
G01*
X137826253Y-78129068D01*
X137826255Y-78129069D01*
X137996258Y-78242661D01*
X138039339Y-78271447D01*
X138220553Y-78452661D01*
X138362932Y-78665747D01*
X138461004Y-78902513D01*
X138511000Y-79153861D01*
X138511000Y-79410139D01*
X138461004Y-79661487D01*
X138449917Y-79688253D01*
X138362931Y-79898255D01*
X138220553Y-80111339D01*
X138039339Y-80292553D01*
X137826255Y-80434931D01*
X137826254Y-80434932D01*
X137826253Y-80434932D01*
X137589487Y-80533004D01*
X137338139Y-80583000D01*
X137081861Y-80583000D01*
X136830513Y-80533004D01*
X136593747Y-80434932D01*
X136593746Y-80434932D01*
X136593745Y-80434931D01*
X136380661Y-80292553D01*
X136199447Y-80111339D01*
X136057069Y-79898255D01*
X135970083Y-79688253D01*
X135958996Y-79661487D01*
X135909000Y-79410139D01*
X135909000Y-79153861D01*
X135958996Y-78902513D01*
X136057068Y-78665747D01*
X136199447Y-78452661D01*
X136380661Y-78271447D01*
X136423742Y-78242661D01*
X136593745Y-78129069D01*
X136593747Y-78129068D01*
X136830513Y-78030996D01*
X137081861Y-77981000D01*
X137338139Y-77981000D01*
X137589487Y-78030996D01*
X137589487Y-78030996D01*
G37*
G36*
X64989487Y-77820996D02*
G01*
X65226253Y-77919068D01*
X65226255Y-77919069D01*
X65318941Y-77981000D01*
X65439339Y-78061447D01*
X65620553Y-78242661D01*
X65762932Y-78455747D01*
X65861004Y-78692513D01*
X65911000Y-78943861D01*
X65911000Y-79200139D01*
X65861004Y-79451487D01*
X65821667Y-79546454D01*
X65762931Y-79688255D01*
X65620553Y-79901339D01*
X65439339Y-80082553D01*
X65226255Y-80224931D01*
X65226254Y-80224932D01*
X65226253Y-80224932D01*
X64989487Y-80323004D01*
X64738139Y-80373000D01*
X64481861Y-80373000D01*
X64230513Y-80323004D01*
X63993747Y-80224932D01*
X63993746Y-80224932D01*
X63993745Y-80224931D01*
X63780661Y-80082553D01*
X63599447Y-79901339D01*
X63457069Y-79688255D01*
X63398333Y-79546454D01*
X63358996Y-79451487D01*
X63309000Y-79200139D01*
X63309000Y-78943861D01*
X63358996Y-78692513D01*
X63457068Y-78455747D01*
X63599447Y-78242661D01*
X63780661Y-78061447D01*
X63901059Y-77981000D01*
X63993745Y-77919069D01*
X63993747Y-77919068D01*
X64230513Y-77820996D01*
X64481861Y-77771000D01*
X64738139Y-77771000D01*
X64989487Y-77820996D01*
X64989487Y-77820996D01*
G37*
G36*
X113589487Y-77820996D02*
G01*
X113826253Y-77919068D01*
X113826255Y-77919069D01*
X113918941Y-77981000D01*
X114039339Y-78061447D01*
X114220553Y-78242661D01*
X114362932Y-78455747D01*
X114461004Y-78692513D01*
X114511000Y-78943861D01*
X114511000Y-79200139D01*
X114461004Y-79451487D01*
X114421667Y-79546454D01*
X114362931Y-79688255D01*
X114220553Y-79901339D01*
X114039339Y-80082553D01*
X113826255Y-80224931D01*
X113826254Y-80224932D01*
X113826253Y-80224932D01*
X113589487Y-80323004D01*
X113338139Y-80373000D01*
X113081861Y-80373000D01*
X112830513Y-80323004D01*
X112593747Y-80224932D01*
X112593746Y-80224932D01*
X112593745Y-80224931D01*
X112380661Y-80082553D01*
X112199447Y-79901339D01*
X112057069Y-79688255D01*
X111998333Y-79546454D01*
X111958996Y-79451487D01*
X111909000Y-79200139D01*
X111909000Y-78943861D01*
X111958996Y-78692513D01*
X112057068Y-78455747D01*
X112199447Y-78242661D01*
X112380661Y-78061447D01*
X112501059Y-77981000D01*
X112593745Y-77919069D01*
X112593747Y-77919068D01*
X112830513Y-77820996D01*
X113081861Y-77771000D01*
X113338139Y-77771000D01*
X113589487Y-77820996D01*
X113589487Y-77820996D01*
G37*
G36*
X88989487Y-77820996D02*
G01*
X89226253Y-77919068D01*
X89226255Y-77919069D01*
X89318941Y-77981000D01*
X89439339Y-78061447D01*
X89620553Y-78242661D01*
X89762932Y-78455747D01*
X89861004Y-78692513D01*
X89911000Y-78943861D01*
X89911000Y-79200139D01*
X89861004Y-79451487D01*
X89821667Y-79546454D01*
X89762931Y-79688255D01*
X89620553Y-79901339D01*
X89439339Y-80082553D01*
X89226255Y-80224931D01*
X89226254Y-80224932D01*
X89226253Y-80224932D01*
X88989487Y-80323004D01*
X88738139Y-80373000D01*
X88481861Y-80373000D01*
X88230513Y-80323004D01*
X87993747Y-80224932D01*
X87993746Y-80224932D01*
X87993745Y-80224931D01*
X87780661Y-80082553D01*
X87599447Y-79901339D01*
X87457069Y-79688255D01*
X87398333Y-79546454D01*
X87358996Y-79451487D01*
X87309000Y-79200139D01*
X87309000Y-78943861D01*
X87358996Y-78692513D01*
X87457068Y-78455747D01*
X87599447Y-78242661D01*
X87780661Y-78061447D01*
X87901059Y-77981000D01*
X87993745Y-77919069D01*
X87993747Y-77919068D01*
X88230513Y-77820996D01*
X88481861Y-77771000D01*
X88738139Y-77771000D01*
X88989487Y-77820996D01*
X88989487Y-77820996D01*
G37*
G36*
X124989487Y-77820996D02*
G01*
X125226253Y-77919068D01*
X125226255Y-77919069D01*
X125318941Y-77981000D01*
X125439339Y-78061447D01*
X125620553Y-78242661D01*
X125762932Y-78455747D01*
X125861004Y-78692513D01*
X125911000Y-78943861D01*
X125911000Y-79200139D01*
X125861004Y-79451487D01*
X125821667Y-79546454D01*
X125762931Y-79688255D01*
X125620553Y-79901339D01*
X125439339Y-80082553D01*
X125226255Y-80224931D01*
X125226254Y-80224932D01*
X125226253Y-80224932D01*
X124989487Y-80323004D01*
X124738139Y-80373000D01*
X124481861Y-80373000D01*
X124230513Y-80323004D01*
X123993747Y-80224932D01*
X123993746Y-80224932D01*
X123993745Y-80224931D01*
X123780661Y-80082553D01*
X123599447Y-79901339D01*
X123457069Y-79688255D01*
X123398333Y-79546454D01*
X123358996Y-79451487D01*
X123309000Y-79200139D01*
X123309000Y-78943861D01*
X123358996Y-78692513D01*
X123457068Y-78455747D01*
X123599447Y-78242661D01*
X123780661Y-78061447D01*
X123901059Y-77981000D01*
X123993745Y-77919069D01*
X123993747Y-77919068D01*
X124230513Y-77820996D01*
X124481861Y-77771000D01*
X124738139Y-77771000D01*
X124989487Y-77820996D01*
X124989487Y-77820996D01*
G37*
G36*
X53589487Y-77820996D02*
G01*
X53826253Y-77919068D01*
X53826255Y-77919069D01*
X53918941Y-77981000D01*
X54039339Y-78061447D01*
X54220553Y-78242661D01*
X54362932Y-78455747D01*
X54461004Y-78692513D01*
X54511000Y-78943861D01*
X54511000Y-79200139D01*
X54461004Y-79451487D01*
X54421667Y-79546454D01*
X54362931Y-79688255D01*
X54220553Y-79901339D01*
X54039339Y-80082553D01*
X53826255Y-80224931D01*
X53826254Y-80224932D01*
X53826253Y-80224932D01*
X53589487Y-80323004D01*
X53338139Y-80373000D01*
X53081861Y-80373000D01*
X52830513Y-80323004D01*
X52593747Y-80224932D01*
X52593746Y-80224932D01*
X52593745Y-80224931D01*
X52380661Y-80082553D01*
X52199447Y-79901339D01*
X52057069Y-79688255D01*
X51998333Y-79546454D01*
X51958996Y-79451487D01*
X51909000Y-79200139D01*
X51909000Y-78943861D01*
X51958996Y-78692513D01*
X52057068Y-78455747D01*
X52199447Y-78242661D01*
X52380661Y-78061447D01*
X52501059Y-77981000D01*
X52593745Y-77919069D01*
X52593747Y-77919068D01*
X52830513Y-77820996D01*
X53081861Y-77771000D01*
X53338139Y-77771000D01*
X53589487Y-77820996D01*
X53589487Y-77820996D01*
G37*
G36*
X77589487Y-77820996D02*
G01*
X77826253Y-77919068D01*
X77826255Y-77919069D01*
X77918941Y-77981000D01*
X78039339Y-78061447D01*
X78220553Y-78242661D01*
X78362932Y-78455747D01*
X78461004Y-78692513D01*
X78511000Y-78943861D01*
X78511000Y-79200139D01*
X78461004Y-79451487D01*
X78421667Y-79546454D01*
X78362931Y-79688255D01*
X78220553Y-79901339D01*
X78039339Y-80082553D01*
X77826255Y-80224931D01*
X77826254Y-80224932D01*
X77826253Y-80224932D01*
X77589487Y-80323004D01*
X77338139Y-80373000D01*
X77081861Y-80373000D01*
X76830513Y-80323004D01*
X76593747Y-80224932D01*
X76593746Y-80224932D01*
X76593745Y-80224931D01*
X76380661Y-80082553D01*
X76199447Y-79901339D01*
X76057069Y-79688255D01*
X75998333Y-79546454D01*
X75958996Y-79451487D01*
X75909000Y-79200139D01*
X75909000Y-78943861D01*
X75958996Y-78692513D01*
X76057068Y-78455747D01*
X76199447Y-78242661D01*
X76380661Y-78061447D01*
X76501059Y-77981000D01*
X76593745Y-77919069D01*
X76593747Y-77919068D01*
X76830513Y-77820996D01*
X77081861Y-77771000D01*
X77338139Y-77771000D01*
X77589487Y-77820996D01*
X77589487Y-77820996D01*
G37*
G36*
X102187395Y-77717546D02*
G01*
X102360466Y-77789234D01*
X102437818Y-77840919D01*
X102516227Y-77893310D01*
X102648690Y-78025773D01*
X102672526Y-78061447D01*
X102752766Y-78181534D01*
X102824454Y-78354605D01*
X102861000Y-78538333D01*
X102861000Y-78725667D01*
X102824454Y-78909395D01*
X102752766Y-79082466D01*
X102752765Y-79082467D01*
X102648690Y-79238227D01*
X102516227Y-79370690D01*
X102457190Y-79410137D01*
X102360466Y-79474766D01*
X102187395Y-79546454D01*
X102003667Y-79583000D01*
X101816333Y-79583000D01*
X101632605Y-79546454D01*
X101459534Y-79474766D01*
X101362810Y-79410137D01*
X101303773Y-79370690D01*
X101171310Y-79238227D01*
X101067235Y-79082467D01*
X101067234Y-79082466D01*
X100995546Y-78909395D01*
X100959000Y-78725667D01*
X100959000Y-78538333D01*
X100995546Y-78354605D01*
X101067234Y-78181534D01*
X101147474Y-78061447D01*
X101171310Y-78025773D01*
X101303773Y-77893310D01*
X101382182Y-77840919D01*
X101459534Y-77789234D01*
X101632605Y-77717546D01*
X101816333Y-77681000D01*
X102003667Y-77681000D01*
X102187395Y-77717546D01*
X102187395Y-77717546D01*
G37*
G36*
X143697852Y-71784797D02*
G01*
X144189402Y-71988404D01*
X144189403Y-71988405D01*
X144631787Y-72283996D01*
X145008004Y-72660213D01*
X145163278Y-72892597D01*
X145303596Y-73102598D01*
X145507203Y-73594148D01*
X145611000Y-74115973D01*
X145611000Y-74648027D01*
X145507203Y-75169852D01*
X145303596Y-75661402D01*
X145262437Y-75723000D01*
X145008004Y-76103787D01*
X144631787Y-76480004D01*
X144503689Y-76565596D01*
X144189402Y-76775596D01*
X143697852Y-76979203D01*
X143176027Y-77083000D01*
X142643973Y-77083000D01*
X142122148Y-76979203D01*
X141630598Y-76775596D01*
X141316311Y-76565596D01*
X141188213Y-76480004D01*
X140811996Y-76103787D01*
X140557563Y-75723000D01*
X140516404Y-75661402D01*
X140312797Y-75169852D01*
X140209000Y-74648027D01*
X140209000Y-74115973D01*
X140312797Y-73594148D01*
X140516404Y-73102598D01*
X140656722Y-72892597D01*
X140811996Y-72660213D01*
X141188213Y-72283996D01*
X141630597Y-71988405D01*
X141630598Y-71988404D01*
X142122148Y-71784797D01*
X142643973Y-71681000D01*
X143176027Y-71681000D01*
X143697852Y-71784797D01*
X143697852Y-71784797D01*
G37*
G36*
X83697852Y-71574797D02*
G01*
X84189402Y-71778404D01*
X84198971Y-71784798D01*
X84631787Y-72073996D01*
X85008004Y-72450213D01*
X85148321Y-72660213D01*
X85303596Y-72892598D01*
X85507203Y-73384148D01*
X85611000Y-73905973D01*
X85611000Y-74438027D01*
X85507203Y-74959852D01*
X85303596Y-75451402D01*
X85303595Y-75451403D01*
X85008004Y-75893787D01*
X84631787Y-76270004D01*
X84336195Y-76467512D01*
X84189402Y-76565596D01*
X83697852Y-76769203D01*
X83176027Y-76873000D01*
X82643973Y-76873000D01*
X82122148Y-76769203D01*
X81630598Y-76565596D01*
X81483805Y-76467512D01*
X81188213Y-76270004D01*
X80811996Y-75893787D01*
X80516405Y-75451403D01*
X80516404Y-75451402D01*
X80312797Y-74959852D01*
X80209000Y-74438027D01*
X80209000Y-73905973D01*
X80312797Y-73384148D01*
X80516404Y-72892598D01*
X80671679Y-72660213D01*
X80811996Y-72450213D01*
X81188213Y-72073996D01*
X81621029Y-71784798D01*
X81630598Y-71778404D01*
X82122148Y-71574797D01*
X82643973Y-71471000D01*
X83176027Y-71471000D01*
X83697852Y-71574797D01*
X83697852Y-71574797D01*
G37*
G36*
X119697852Y-71574797D02*
G01*
X120189402Y-71778404D01*
X120198971Y-71784798D01*
X120631787Y-72073996D01*
X121008004Y-72450213D01*
X121148321Y-72660213D01*
X121303596Y-72892598D01*
X121507203Y-73384148D01*
X121611000Y-73905973D01*
X121611000Y-74438027D01*
X121507203Y-74959852D01*
X121303596Y-75451402D01*
X121303595Y-75451403D01*
X121008004Y-75893787D01*
X120631787Y-76270004D01*
X120336195Y-76467512D01*
X120189402Y-76565596D01*
X119697852Y-76769203D01*
X119176027Y-76873000D01*
X118643973Y-76873000D01*
X118122148Y-76769203D01*
X117630598Y-76565596D01*
X117483805Y-76467512D01*
X117188213Y-76270004D01*
X116811996Y-75893787D01*
X116516405Y-75451403D01*
X116516404Y-75451402D01*
X116312797Y-74959852D01*
X116209000Y-74438027D01*
X116209000Y-73905973D01*
X116312797Y-73384148D01*
X116516404Y-72892598D01*
X116671679Y-72660213D01*
X116811996Y-72450213D01*
X117188213Y-72073996D01*
X117621029Y-71784798D01*
X117630598Y-71778404D01*
X118122148Y-71574797D01*
X118643973Y-71471000D01*
X119176027Y-71471000D01*
X119697852Y-71574797D01*
X119697852Y-71574797D01*
G37*
G36*
X59697852Y-71574797D02*
G01*
X60189402Y-71778404D01*
X60198971Y-71784798D01*
X60631787Y-72073996D01*
X61008004Y-72450213D01*
X61148321Y-72660213D01*
X61303596Y-72892598D01*
X61507203Y-73384148D01*
X61611000Y-73905973D01*
X61611000Y-74438027D01*
X61507203Y-74959852D01*
X61303596Y-75451402D01*
X61303595Y-75451403D01*
X61008004Y-75893787D01*
X60631787Y-76270004D01*
X60336195Y-76467512D01*
X60189402Y-76565596D01*
X59697852Y-76769203D01*
X59176027Y-76873000D01*
X58643973Y-76873000D01*
X58122148Y-76769203D01*
X57630598Y-76565596D01*
X57483805Y-76467512D01*
X57188213Y-76270004D01*
X56811996Y-75893787D01*
X56516405Y-75451403D01*
X56516404Y-75451402D01*
X56312797Y-74959852D01*
X56209000Y-74438027D01*
X56209000Y-73905973D01*
X56312797Y-73384148D01*
X56516404Y-72892598D01*
X56671679Y-72660213D01*
X56811996Y-72450213D01*
X57188213Y-72073996D01*
X57621029Y-71784798D01*
X57630598Y-71778404D01*
X58122148Y-71574797D01*
X58643973Y-71471000D01*
X59176027Y-71471000D01*
X59697852Y-71574797D01*
X59697852Y-71574797D01*
G37*
G36*
X148989487Y-73380996D02*
G01*
X149226253Y-73479068D01*
X149226255Y-73479069D01*
X149396258Y-73592661D01*
X149439339Y-73621447D01*
X149620553Y-73802661D01*
X149762932Y-74015747D01*
X149861004Y-74252513D01*
X149911000Y-74503861D01*
X149911000Y-74760139D01*
X149861004Y-75011487D01*
X149849917Y-75038253D01*
X149762931Y-75248255D01*
X149620553Y-75461339D01*
X149439339Y-75642553D01*
X149226255Y-75784931D01*
X149226254Y-75784932D01*
X149226253Y-75784932D01*
X148989487Y-75883004D01*
X148738139Y-75933000D01*
X148481861Y-75933000D01*
X148230513Y-75883004D01*
X147993747Y-75784932D01*
X147993746Y-75784932D01*
X147993745Y-75784931D01*
X147780661Y-75642553D01*
X147599447Y-75461339D01*
X147457069Y-75248255D01*
X147370083Y-75038253D01*
X147358996Y-75011487D01*
X147309000Y-74760139D01*
X147309000Y-74503861D01*
X147358996Y-74252513D01*
X147457068Y-74015747D01*
X147599447Y-73802661D01*
X147780661Y-73621447D01*
X147823742Y-73592661D01*
X147993745Y-73479069D01*
X147993747Y-73479068D01*
X148230513Y-73380996D01*
X148481861Y-73331000D01*
X148738139Y-73331000D01*
X148989487Y-73380996D01*
X148989487Y-73380996D01*
G37*
G36*
X137589487Y-73380996D02*
G01*
X137826253Y-73479068D01*
X137826255Y-73479069D01*
X137996258Y-73592661D01*
X138039339Y-73621447D01*
X138220553Y-73802661D01*
X138362932Y-74015747D01*
X138461004Y-74252513D01*
X138511000Y-74503861D01*
X138511000Y-74760139D01*
X138461004Y-75011487D01*
X138449917Y-75038253D01*
X138362931Y-75248255D01*
X138220553Y-75461339D01*
X138039339Y-75642553D01*
X137826255Y-75784931D01*
X137826254Y-75784932D01*
X137826253Y-75784932D01*
X137589487Y-75883004D01*
X137338139Y-75933000D01*
X137081861Y-75933000D01*
X136830513Y-75883004D01*
X136593747Y-75784932D01*
X136593746Y-75784932D01*
X136593745Y-75784931D01*
X136380661Y-75642553D01*
X136199447Y-75461339D01*
X136057069Y-75248255D01*
X135970083Y-75038253D01*
X135958996Y-75011487D01*
X135909000Y-74760139D01*
X135909000Y-74503861D01*
X135958996Y-74252513D01*
X136057068Y-74015747D01*
X136199447Y-73802661D01*
X136380661Y-73621447D01*
X136423742Y-73592661D01*
X136593745Y-73479069D01*
X136593747Y-73479068D01*
X136830513Y-73380996D01*
X137081861Y-73331000D01*
X137338139Y-73331000D01*
X137589487Y-73380996D01*
X137589487Y-73380996D01*
G37*
G36*
X53589487Y-73170996D02*
G01*
X53826253Y-73269068D01*
X53826255Y-73269069D01*
X53918941Y-73331000D01*
X54039339Y-73411447D01*
X54220553Y-73592661D01*
X54362932Y-73805747D01*
X54461004Y-74042513D01*
X54511000Y-74293861D01*
X54511000Y-74550139D01*
X54461004Y-74801487D01*
X54395407Y-74959852D01*
X54362931Y-75038255D01*
X54220553Y-75251339D01*
X54039339Y-75432553D01*
X53826255Y-75574931D01*
X53826254Y-75574932D01*
X53826253Y-75574932D01*
X53589487Y-75673004D01*
X53338139Y-75723000D01*
X53081861Y-75723000D01*
X52830513Y-75673004D01*
X52593747Y-75574932D01*
X52593746Y-75574932D01*
X52593745Y-75574931D01*
X52380661Y-75432553D01*
X52199447Y-75251339D01*
X52057069Y-75038255D01*
X52024593Y-74959852D01*
X51958996Y-74801487D01*
X51909000Y-74550139D01*
X51909000Y-74293861D01*
X51958996Y-74042513D01*
X52057068Y-73805747D01*
X52199447Y-73592661D01*
X52380661Y-73411447D01*
X52501059Y-73331000D01*
X52593745Y-73269069D01*
X52593747Y-73269068D01*
X52830513Y-73170996D01*
X53081861Y-73121000D01*
X53338139Y-73121000D01*
X53589487Y-73170996D01*
X53589487Y-73170996D01*
G37*
G36*
X77589487Y-73170996D02*
G01*
X77826253Y-73269068D01*
X77826255Y-73269069D01*
X77918941Y-73331000D01*
X78039339Y-73411447D01*
X78220553Y-73592661D01*
X78362932Y-73805747D01*
X78461004Y-74042513D01*
X78511000Y-74293861D01*
X78511000Y-74550139D01*
X78461004Y-74801487D01*
X78395407Y-74959852D01*
X78362931Y-75038255D01*
X78220553Y-75251339D01*
X78039339Y-75432553D01*
X77826255Y-75574931D01*
X77826254Y-75574932D01*
X77826253Y-75574932D01*
X77589487Y-75673004D01*
X77338139Y-75723000D01*
X77081861Y-75723000D01*
X76830513Y-75673004D01*
X76593747Y-75574932D01*
X76593746Y-75574932D01*
X76593745Y-75574931D01*
X76380661Y-75432553D01*
X76199447Y-75251339D01*
X76057069Y-75038255D01*
X76024593Y-74959852D01*
X75958996Y-74801487D01*
X75909000Y-74550139D01*
X75909000Y-74293861D01*
X75958996Y-74042513D01*
X76057068Y-73805747D01*
X76199447Y-73592661D01*
X76380661Y-73411447D01*
X76501059Y-73331000D01*
X76593745Y-73269069D01*
X76593747Y-73269068D01*
X76830513Y-73170996D01*
X77081861Y-73121000D01*
X77338139Y-73121000D01*
X77589487Y-73170996D01*
X77589487Y-73170996D01*
G37*
G36*
X88989487Y-73170996D02*
G01*
X89226253Y-73269068D01*
X89226255Y-73269069D01*
X89318941Y-73331000D01*
X89439339Y-73411447D01*
X89620553Y-73592661D01*
X89762932Y-73805747D01*
X89861004Y-74042513D01*
X89911000Y-74293861D01*
X89911000Y-74550139D01*
X89861004Y-74801487D01*
X89795407Y-74959852D01*
X89762931Y-75038255D01*
X89620553Y-75251339D01*
X89439339Y-75432553D01*
X89226255Y-75574931D01*
X89226254Y-75574932D01*
X89226253Y-75574932D01*
X88989487Y-75673004D01*
X88738139Y-75723000D01*
X88481861Y-75723000D01*
X88230513Y-75673004D01*
X87993747Y-75574932D01*
X87993746Y-75574932D01*
X87993745Y-75574931D01*
X87780661Y-75432553D01*
X87599447Y-75251339D01*
X87457069Y-75038255D01*
X87424593Y-74959852D01*
X87358996Y-74801487D01*
X87309000Y-74550139D01*
X87309000Y-74293861D01*
X87358996Y-74042513D01*
X87457068Y-73805747D01*
X87599447Y-73592661D01*
X87780661Y-73411447D01*
X87901059Y-73331000D01*
X87993745Y-73269069D01*
X87993747Y-73269068D01*
X88230513Y-73170996D01*
X88481861Y-73121000D01*
X88738139Y-73121000D01*
X88989487Y-73170996D01*
X88989487Y-73170996D01*
G37*
G36*
X64989487Y-73170996D02*
G01*
X65226253Y-73269068D01*
X65226255Y-73269069D01*
X65318941Y-73331000D01*
X65439339Y-73411447D01*
X65620553Y-73592661D01*
X65762932Y-73805747D01*
X65861004Y-74042513D01*
X65911000Y-74293861D01*
X65911000Y-74550139D01*
X65861004Y-74801487D01*
X65795407Y-74959852D01*
X65762931Y-75038255D01*
X65620553Y-75251339D01*
X65439339Y-75432553D01*
X65226255Y-75574931D01*
X65226254Y-75574932D01*
X65226253Y-75574932D01*
X64989487Y-75673004D01*
X64738139Y-75723000D01*
X64481861Y-75723000D01*
X64230513Y-75673004D01*
X63993747Y-75574932D01*
X63993746Y-75574932D01*
X63993745Y-75574931D01*
X63780661Y-75432553D01*
X63599447Y-75251339D01*
X63457069Y-75038255D01*
X63424593Y-74959852D01*
X63358996Y-74801487D01*
X63309000Y-74550139D01*
X63309000Y-74293861D01*
X63358996Y-74042513D01*
X63457068Y-73805747D01*
X63599447Y-73592661D01*
X63780661Y-73411447D01*
X63901059Y-73331000D01*
X63993745Y-73269069D01*
X63993747Y-73269068D01*
X64230513Y-73170996D01*
X64481861Y-73121000D01*
X64738139Y-73121000D01*
X64989487Y-73170996D01*
X64989487Y-73170996D01*
G37*
G36*
X113589487Y-73170996D02*
G01*
X113826253Y-73269068D01*
X113826255Y-73269069D01*
X113918941Y-73331000D01*
X114039339Y-73411447D01*
X114220553Y-73592661D01*
X114362932Y-73805747D01*
X114461004Y-74042513D01*
X114511000Y-74293861D01*
X114511000Y-74550139D01*
X114461004Y-74801487D01*
X114395407Y-74959852D01*
X114362931Y-75038255D01*
X114220553Y-75251339D01*
X114039339Y-75432553D01*
X113826255Y-75574931D01*
X113826254Y-75574932D01*
X113826253Y-75574932D01*
X113589487Y-75673004D01*
X113338139Y-75723000D01*
X113081861Y-75723000D01*
X112830513Y-75673004D01*
X112593747Y-75574932D01*
X112593746Y-75574932D01*
X112593745Y-75574931D01*
X112380661Y-75432553D01*
X112199447Y-75251339D01*
X112057069Y-75038255D01*
X112024593Y-74959852D01*
X111958996Y-74801487D01*
X111909000Y-74550139D01*
X111909000Y-74293861D01*
X111958996Y-74042513D01*
X112057068Y-73805747D01*
X112199447Y-73592661D01*
X112380661Y-73411447D01*
X112501059Y-73331000D01*
X112593745Y-73269069D01*
X112593747Y-73269068D01*
X112830513Y-73170996D01*
X113081861Y-73121000D01*
X113338139Y-73121000D01*
X113589487Y-73170996D01*
X113589487Y-73170996D01*
G37*
G36*
X124989487Y-73170996D02*
G01*
X125226253Y-73269068D01*
X125226255Y-73269069D01*
X125318941Y-73331000D01*
X125439339Y-73411447D01*
X125620553Y-73592661D01*
X125762932Y-73805747D01*
X125861004Y-74042513D01*
X125911000Y-74293861D01*
X125911000Y-74550139D01*
X125861004Y-74801487D01*
X125795407Y-74959852D01*
X125762931Y-75038255D01*
X125620553Y-75251339D01*
X125439339Y-75432553D01*
X125226255Y-75574931D01*
X125226254Y-75574932D01*
X125226253Y-75574932D01*
X124989487Y-75673004D01*
X124738139Y-75723000D01*
X124481861Y-75723000D01*
X124230513Y-75673004D01*
X123993747Y-75574932D01*
X123993746Y-75574932D01*
X123993745Y-75574931D01*
X123780661Y-75432553D01*
X123599447Y-75251339D01*
X123457069Y-75038255D01*
X123424593Y-74959852D01*
X123358996Y-74801487D01*
X123309000Y-74550139D01*
X123309000Y-74293861D01*
X123358996Y-74042513D01*
X123457068Y-73805747D01*
X123599447Y-73592661D01*
X123780661Y-73411447D01*
X123901059Y-73331000D01*
X123993745Y-73269069D01*
X123993747Y-73269068D01*
X124230513Y-73170996D01*
X124481861Y-73121000D01*
X124738139Y-73121000D01*
X124989487Y-73170996D01*
X124989487Y-73170996D01*
G37*
G36*
X148789487Y-68830996D02*
G01*
X149026253Y-68929068D01*
X149026255Y-68929069D01*
X149196258Y-69042661D01*
X149239339Y-69071447D01*
X149420553Y-69252661D01*
X149562932Y-69465747D01*
X149661004Y-69702513D01*
X149711000Y-69953861D01*
X149711000Y-70210139D01*
X149661004Y-70461487D01*
X149649917Y-70488253D01*
X149562931Y-70698255D01*
X149420553Y-70911339D01*
X149239339Y-71092553D01*
X149026255Y-71234931D01*
X149026254Y-71234932D01*
X149026253Y-71234932D01*
X148789487Y-71333004D01*
X148538139Y-71383000D01*
X148281861Y-71383000D01*
X148030513Y-71333004D01*
X147793747Y-71234932D01*
X147793746Y-71234932D01*
X147793745Y-71234931D01*
X147580661Y-71092553D01*
X147399447Y-70911339D01*
X147257069Y-70698255D01*
X147170083Y-70488253D01*
X147158996Y-70461487D01*
X147109000Y-70210139D01*
X147109000Y-69953861D01*
X147158996Y-69702513D01*
X147257068Y-69465747D01*
X147399447Y-69252661D01*
X147580661Y-69071447D01*
X147623742Y-69042661D01*
X147793745Y-68929069D01*
X147793747Y-68929068D01*
X148030513Y-68830996D01*
X148281861Y-68781000D01*
X148538139Y-68781000D01*
X148789487Y-68830996D01*
X148789487Y-68830996D01*
G37*
G36*
X137789487Y-68830996D02*
G01*
X138026253Y-68929068D01*
X138026255Y-68929069D01*
X138196258Y-69042661D01*
X138239339Y-69071447D01*
X138420553Y-69252661D01*
X138562932Y-69465747D01*
X138661004Y-69702513D01*
X138711000Y-69953861D01*
X138711000Y-70210139D01*
X138661004Y-70461487D01*
X138649917Y-70488253D01*
X138562931Y-70698255D01*
X138420553Y-70911339D01*
X138239339Y-71092553D01*
X138026255Y-71234931D01*
X138026254Y-71234932D01*
X138026253Y-71234932D01*
X137789487Y-71333004D01*
X137538139Y-71383000D01*
X137281861Y-71383000D01*
X137030513Y-71333004D01*
X136793747Y-71234932D01*
X136793746Y-71234932D01*
X136793745Y-71234931D01*
X136580661Y-71092553D01*
X136399447Y-70911339D01*
X136257069Y-70698255D01*
X136170083Y-70488253D01*
X136158996Y-70461487D01*
X136109000Y-70210139D01*
X136109000Y-69953861D01*
X136158996Y-69702513D01*
X136257068Y-69465747D01*
X136399447Y-69252661D01*
X136580661Y-69071447D01*
X136623742Y-69042661D01*
X136793745Y-68929069D01*
X136793747Y-68929068D01*
X137030513Y-68830996D01*
X137281861Y-68781000D01*
X137538139Y-68781000D01*
X137789487Y-68830996D01*
X137789487Y-68830996D01*
G37*
G36*
X53789487Y-68620996D02*
G01*
X54026253Y-68719068D01*
X54026255Y-68719069D01*
X54118941Y-68781000D01*
X54239339Y-68861447D01*
X54420553Y-69042661D01*
X54562932Y-69255747D01*
X54661004Y-69492513D01*
X54711000Y-69743861D01*
X54711000Y-70000139D01*
X54661004Y-70251487D01*
X54574019Y-70461487D01*
X54562931Y-70488255D01*
X54420553Y-70701339D01*
X54239339Y-70882553D01*
X54026255Y-71024931D01*
X54026254Y-71024932D01*
X54026253Y-71024932D01*
X53789487Y-71123004D01*
X53538139Y-71173000D01*
X53281861Y-71173000D01*
X53030513Y-71123004D01*
X52793747Y-71024932D01*
X52793746Y-71024932D01*
X52793745Y-71024931D01*
X52580661Y-70882553D01*
X52399447Y-70701339D01*
X52257069Y-70488255D01*
X52245981Y-70461487D01*
X52158996Y-70251487D01*
X52109000Y-70000139D01*
X52109000Y-69743861D01*
X52158996Y-69492513D01*
X52257068Y-69255747D01*
X52399447Y-69042661D01*
X52580661Y-68861447D01*
X52701059Y-68781000D01*
X52793745Y-68719069D01*
X52793747Y-68719068D01*
X53030513Y-68620996D01*
X53281861Y-68571000D01*
X53538139Y-68571000D01*
X53789487Y-68620996D01*
X53789487Y-68620996D01*
G37*
G36*
X64789487Y-68620996D02*
G01*
X65026253Y-68719068D01*
X65026255Y-68719069D01*
X65118941Y-68781000D01*
X65239339Y-68861447D01*
X65420553Y-69042661D01*
X65562932Y-69255747D01*
X65661004Y-69492513D01*
X65711000Y-69743861D01*
X65711000Y-70000139D01*
X65661004Y-70251487D01*
X65574019Y-70461487D01*
X65562931Y-70488255D01*
X65420553Y-70701339D01*
X65239339Y-70882553D01*
X65026255Y-71024931D01*
X65026254Y-71024932D01*
X65026253Y-71024932D01*
X64789487Y-71123004D01*
X64538139Y-71173000D01*
X64281861Y-71173000D01*
X64030513Y-71123004D01*
X63793747Y-71024932D01*
X63793746Y-71024932D01*
X63793745Y-71024931D01*
X63580661Y-70882553D01*
X63399447Y-70701339D01*
X63257069Y-70488255D01*
X63245981Y-70461487D01*
X63158996Y-70251487D01*
X63109000Y-70000139D01*
X63109000Y-69743861D01*
X63158996Y-69492513D01*
X63257068Y-69255747D01*
X63399447Y-69042661D01*
X63580661Y-68861447D01*
X63701059Y-68781000D01*
X63793745Y-68719069D01*
X63793747Y-68719068D01*
X64030513Y-68620996D01*
X64281861Y-68571000D01*
X64538139Y-68571000D01*
X64789487Y-68620996D01*
X64789487Y-68620996D01*
G37*
G36*
X77789487Y-68620996D02*
G01*
X78026253Y-68719068D01*
X78026255Y-68719069D01*
X78118941Y-68781000D01*
X78239339Y-68861447D01*
X78420553Y-69042661D01*
X78562932Y-69255747D01*
X78661004Y-69492513D01*
X78711000Y-69743861D01*
X78711000Y-70000139D01*
X78661004Y-70251487D01*
X78574019Y-70461487D01*
X78562931Y-70488255D01*
X78420553Y-70701339D01*
X78239339Y-70882553D01*
X78026255Y-71024931D01*
X78026254Y-71024932D01*
X78026253Y-71024932D01*
X77789487Y-71123004D01*
X77538139Y-71173000D01*
X77281861Y-71173000D01*
X77030513Y-71123004D01*
X76793747Y-71024932D01*
X76793746Y-71024932D01*
X76793745Y-71024931D01*
X76580661Y-70882553D01*
X76399447Y-70701339D01*
X76257069Y-70488255D01*
X76245981Y-70461487D01*
X76158996Y-70251487D01*
X76109000Y-70000139D01*
X76109000Y-69743861D01*
X76158996Y-69492513D01*
X76257068Y-69255747D01*
X76399447Y-69042661D01*
X76580661Y-68861447D01*
X76701059Y-68781000D01*
X76793745Y-68719069D01*
X76793747Y-68719068D01*
X77030513Y-68620996D01*
X77281861Y-68571000D01*
X77538139Y-68571000D01*
X77789487Y-68620996D01*
X77789487Y-68620996D01*
G37*
G36*
X88789487Y-68620996D02*
G01*
X89026253Y-68719068D01*
X89026255Y-68719069D01*
X89118941Y-68781000D01*
X89239339Y-68861447D01*
X89420553Y-69042661D01*
X89562932Y-69255747D01*
X89661004Y-69492513D01*
X89711000Y-69743861D01*
X89711000Y-70000139D01*
X89661004Y-70251487D01*
X89574019Y-70461487D01*
X89562931Y-70488255D01*
X89420553Y-70701339D01*
X89239339Y-70882553D01*
X89026255Y-71024931D01*
X89026254Y-71024932D01*
X89026253Y-71024932D01*
X88789487Y-71123004D01*
X88538139Y-71173000D01*
X88281861Y-71173000D01*
X88030513Y-71123004D01*
X87793747Y-71024932D01*
X87793746Y-71024932D01*
X87793745Y-71024931D01*
X87580661Y-70882553D01*
X87399447Y-70701339D01*
X87257069Y-70488255D01*
X87245981Y-70461487D01*
X87158996Y-70251487D01*
X87109000Y-70000139D01*
X87109000Y-69743861D01*
X87158996Y-69492513D01*
X87257068Y-69255747D01*
X87399447Y-69042661D01*
X87580661Y-68861447D01*
X87701059Y-68781000D01*
X87793745Y-68719069D01*
X87793747Y-68719068D01*
X88030513Y-68620996D01*
X88281861Y-68571000D01*
X88538139Y-68571000D01*
X88789487Y-68620996D01*
X88789487Y-68620996D01*
G37*
G36*
X113789487Y-68620996D02*
G01*
X114026253Y-68719068D01*
X114026255Y-68719069D01*
X114118941Y-68781000D01*
X114239339Y-68861447D01*
X114420553Y-69042661D01*
X114562932Y-69255747D01*
X114661004Y-69492513D01*
X114711000Y-69743861D01*
X114711000Y-70000139D01*
X114661004Y-70251487D01*
X114574019Y-70461487D01*
X114562931Y-70488255D01*
X114420553Y-70701339D01*
X114239339Y-70882553D01*
X114026255Y-71024931D01*
X114026254Y-71024932D01*
X114026253Y-71024932D01*
X113789487Y-71123004D01*
X113538139Y-71173000D01*
X113281861Y-71173000D01*
X113030513Y-71123004D01*
X112793747Y-71024932D01*
X112793746Y-71024932D01*
X112793745Y-71024931D01*
X112580661Y-70882553D01*
X112399447Y-70701339D01*
X112257069Y-70488255D01*
X112245981Y-70461487D01*
X112158996Y-70251487D01*
X112109000Y-70000139D01*
X112109000Y-69743861D01*
X112158996Y-69492513D01*
X112257068Y-69255747D01*
X112399447Y-69042661D01*
X112580661Y-68861447D01*
X112701059Y-68781000D01*
X112793745Y-68719069D01*
X112793747Y-68719068D01*
X113030513Y-68620996D01*
X113281861Y-68571000D01*
X113538139Y-68571000D01*
X113789487Y-68620996D01*
X113789487Y-68620996D01*
G37*
G36*
X124789487Y-68620996D02*
G01*
X125026253Y-68719068D01*
X125026255Y-68719069D01*
X125118941Y-68781000D01*
X125239339Y-68861447D01*
X125420553Y-69042661D01*
X125562932Y-69255747D01*
X125661004Y-69492513D01*
X125711000Y-69743861D01*
X125711000Y-70000139D01*
X125661004Y-70251487D01*
X125574019Y-70461487D01*
X125562931Y-70488255D01*
X125420553Y-70701339D01*
X125239339Y-70882553D01*
X125026255Y-71024931D01*
X125026254Y-71024932D01*
X125026253Y-71024932D01*
X124789487Y-71123004D01*
X124538139Y-71173000D01*
X124281861Y-71173000D01*
X124030513Y-71123004D01*
X123793747Y-71024932D01*
X123793746Y-71024932D01*
X123793745Y-71024931D01*
X123580661Y-70882553D01*
X123399447Y-70701339D01*
X123257069Y-70488255D01*
X123245981Y-70461487D01*
X123158996Y-70251487D01*
X123109000Y-70000139D01*
X123109000Y-69743861D01*
X123158996Y-69492513D01*
X123257068Y-69255747D01*
X123399447Y-69042661D01*
X123580661Y-68861447D01*
X123701059Y-68781000D01*
X123793745Y-68719069D01*
X123793747Y-68719068D01*
X124030513Y-68620996D01*
X124281861Y-68571000D01*
X124538139Y-68571000D01*
X124789487Y-68620996D01*
X124789487Y-68620996D01*
G37*
G36*
X102861000Y-71123000D02*
G01*
X100959000Y-71123000D01*
X100959000Y-69221000D01*
X102861000Y-69221000D01*
X102861000Y-71123000D01*
X102861000Y-71123000D01*
G37*
G36*
X102187395Y-66717546D02*
G01*
X102360466Y-66789234D01*
X102360467Y-66789235D01*
X102516227Y-66893310D01*
X102648690Y-67025773D01*
X102648691Y-67025775D01*
X102752766Y-67181534D01*
X102824454Y-67354605D01*
X102861000Y-67538333D01*
X102861000Y-67725667D01*
X102824454Y-67909395D01*
X102752766Y-68082466D01*
X102752765Y-68082467D01*
X102648690Y-68238227D01*
X102516227Y-68370690D01*
X102437818Y-68423081D01*
X102360466Y-68474766D01*
X102187395Y-68546454D01*
X102003667Y-68583000D01*
X101816333Y-68583000D01*
X101632605Y-68546454D01*
X101459534Y-68474766D01*
X101382182Y-68423081D01*
X101303773Y-68370690D01*
X101171310Y-68238227D01*
X101067235Y-68082467D01*
X101067234Y-68082466D01*
X100995546Y-67909395D01*
X100959000Y-67725667D01*
X100959000Y-67538333D01*
X100995546Y-67354605D01*
X101067234Y-67181534D01*
X101171309Y-67025775D01*
X101171310Y-67025773D01*
X101303773Y-66893310D01*
X101459533Y-66789235D01*
X101459534Y-66789234D01*
X101632605Y-66717546D01*
X101816333Y-66681000D01*
X102003667Y-66681000D01*
X102187395Y-66717546D01*
X102187395Y-66717546D01*
G37*
G36*
X147289487Y-65380996D02*
G01*
X147526253Y-65479068D01*
X147526255Y-65479069D01*
X147739339Y-65621447D01*
X147920553Y-65802661D01*
X148060087Y-66011488D01*
X148062932Y-66015747D01*
X148161004Y-66252513D01*
X148211000Y-66503861D01*
X148211000Y-66760139D01*
X148161004Y-67011487D01*
X148149917Y-67038253D01*
X148062931Y-67248255D01*
X147920553Y-67461339D01*
X147739339Y-67642553D01*
X147526255Y-67784931D01*
X147526254Y-67784932D01*
X147526253Y-67784932D01*
X147289487Y-67883004D01*
X147038139Y-67933000D01*
X146781861Y-67933000D01*
X146530513Y-67883004D01*
X146293747Y-67784932D01*
X146293746Y-67784932D01*
X146293745Y-67784931D01*
X146080661Y-67642553D01*
X145899447Y-67461339D01*
X145757069Y-67248255D01*
X145670083Y-67038253D01*
X145658996Y-67011487D01*
X145609000Y-66760139D01*
X145609000Y-66503861D01*
X145658996Y-66252513D01*
X145757068Y-66015747D01*
X145759914Y-66011488D01*
X145899447Y-65802661D01*
X146080661Y-65621447D01*
X146293745Y-65479069D01*
X146293747Y-65479068D01*
X146530513Y-65380996D01*
X146781861Y-65331000D01*
X147038139Y-65331000D01*
X147289487Y-65380996D01*
X147289487Y-65380996D01*
G37*
G36*
X139289487Y-65380996D02*
G01*
X139526253Y-65479068D01*
X139526255Y-65479069D01*
X139739339Y-65621447D01*
X139920553Y-65802661D01*
X140060087Y-66011488D01*
X140062932Y-66015747D01*
X140161004Y-66252513D01*
X140211000Y-66503861D01*
X140211000Y-66760139D01*
X140161004Y-67011487D01*
X140149917Y-67038253D01*
X140062931Y-67248255D01*
X139920553Y-67461339D01*
X139739339Y-67642553D01*
X139526255Y-67784931D01*
X139526254Y-67784932D01*
X139526253Y-67784932D01*
X139289487Y-67883004D01*
X139038139Y-67933000D01*
X138781861Y-67933000D01*
X138530513Y-67883004D01*
X138293747Y-67784932D01*
X138293746Y-67784932D01*
X138293745Y-67784931D01*
X138080661Y-67642553D01*
X137899447Y-67461339D01*
X137757069Y-67248255D01*
X137670083Y-67038253D01*
X137658996Y-67011487D01*
X137609000Y-66760139D01*
X137609000Y-66503861D01*
X137658996Y-66252513D01*
X137757068Y-66015747D01*
X137759914Y-66011488D01*
X137899447Y-65802661D01*
X138080661Y-65621447D01*
X138293745Y-65479069D01*
X138293747Y-65479068D01*
X138530513Y-65380996D01*
X138781861Y-65331000D01*
X139038139Y-65331000D01*
X139289487Y-65380996D01*
X139289487Y-65380996D01*
G37*
G36*
X87289487Y-65170996D02*
G01*
X87526253Y-65269068D01*
X87526255Y-65269069D01*
X87739339Y-65411447D01*
X87920553Y-65592661D01*
X88060087Y-65801488D01*
X88062932Y-65805747D01*
X88161004Y-66042513D01*
X88211000Y-66293861D01*
X88211000Y-66550139D01*
X88161004Y-66801487D01*
X88062932Y-67038253D01*
X88062931Y-67038255D01*
X87920553Y-67251339D01*
X87739339Y-67432553D01*
X87526255Y-67574931D01*
X87526254Y-67574932D01*
X87526253Y-67574932D01*
X87289487Y-67673004D01*
X87038139Y-67723000D01*
X86781861Y-67723000D01*
X86530513Y-67673004D01*
X86293747Y-67574932D01*
X86293746Y-67574932D01*
X86293745Y-67574931D01*
X86080661Y-67432553D01*
X85899447Y-67251339D01*
X85757069Y-67038255D01*
X85757068Y-67038253D01*
X85658996Y-66801487D01*
X85609000Y-66550139D01*
X85609000Y-66293861D01*
X85658996Y-66042513D01*
X85757068Y-65805747D01*
X85759914Y-65801488D01*
X85899447Y-65592661D01*
X86080661Y-65411447D01*
X86293745Y-65269069D01*
X86293747Y-65269068D01*
X86530513Y-65170996D01*
X86781861Y-65121000D01*
X87038139Y-65121000D01*
X87289487Y-65170996D01*
X87289487Y-65170996D01*
G37*
G36*
X79289487Y-65170996D02*
G01*
X79526253Y-65269068D01*
X79526255Y-65269069D01*
X79739339Y-65411447D01*
X79920553Y-65592661D01*
X80060087Y-65801488D01*
X80062932Y-65805747D01*
X80161004Y-66042513D01*
X80211000Y-66293861D01*
X80211000Y-66550139D01*
X80161004Y-66801487D01*
X80062932Y-67038253D01*
X80062931Y-67038255D01*
X79920553Y-67251339D01*
X79739339Y-67432553D01*
X79526255Y-67574931D01*
X79526254Y-67574932D01*
X79526253Y-67574932D01*
X79289487Y-67673004D01*
X79038139Y-67723000D01*
X78781861Y-67723000D01*
X78530513Y-67673004D01*
X78293747Y-67574932D01*
X78293746Y-67574932D01*
X78293745Y-67574931D01*
X78080661Y-67432553D01*
X77899447Y-67251339D01*
X77757069Y-67038255D01*
X77757068Y-67038253D01*
X77658996Y-66801487D01*
X77609000Y-66550139D01*
X77609000Y-66293861D01*
X77658996Y-66042513D01*
X77757068Y-65805747D01*
X77759914Y-65801488D01*
X77899447Y-65592661D01*
X78080661Y-65411447D01*
X78293745Y-65269069D01*
X78293747Y-65269068D01*
X78530513Y-65170996D01*
X78781861Y-65121000D01*
X79038139Y-65121000D01*
X79289487Y-65170996D01*
X79289487Y-65170996D01*
G37*
G36*
X55289487Y-65170996D02*
G01*
X55526253Y-65269068D01*
X55526255Y-65269069D01*
X55739339Y-65411447D01*
X55920553Y-65592661D01*
X56060087Y-65801488D01*
X56062932Y-65805747D01*
X56161004Y-66042513D01*
X56211000Y-66293861D01*
X56211000Y-66550139D01*
X56161004Y-66801487D01*
X56062932Y-67038253D01*
X56062931Y-67038255D01*
X55920553Y-67251339D01*
X55739339Y-67432553D01*
X55526255Y-67574931D01*
X55526254Y-67574932D01*
X55526253Y-67574932D01*
X55289487Y-67673004D01*
X55038139Y-67723000D01*
X54781861Y-67723000D01*
X54530513Y-67673004D01*
X54293747Y-67574932D01*
X54293746Y-67574932D01*
X54293745Y-67574931D01*
X54080661Y-67432553D01*
X53899447Y-67251339D01*
X53757069Y-67038255D01*
X53757068Y-67038253D01*
X53658996Y-66801487D01*
X53609000Y-66550139D01*
X53609000Y-66293861D01*
X53658996Y-66042513D01*
X53757068Y-65805747D01*
X53759914Y-65801488D01*
X53899447Y-65592661D01*
X54080661Y-65411447D01*
X54293745Y-65269069D01*
X54293747Y-65269068D01*
X54530513Y-65170996D01*
X54781861Y-65121000D01*
X55038139Y-65121000D01*
X55289487Y-65170996D01*
X55289487Y-65170996D01*
G37*
G36*
X123289487Y-65170996D02*
G01*
X123526253Y-65269068D01*
X123526255Y-65269069D01*
X123739339Y-65411447D01*
X123920553Y-65592661D01*
X124060087Y-65801488D01*
X124062932Y-65805747D01*
X124161004Y-66042513D01*
X124211000Y-66293861D01*
X124211000Y-66550139D01*
X124161004Y-66801487D01*
X124062932Y-67038253D01*
X124062931Y-67038255D01*
X123920553Y-67251339D01*
X123739339Y-67432553D01*
X123526255Y-67574931D01*
X123526254Y-67574932D01*
X123526253Y-67574932D01*
X123289487Y-67673004D01*
X123038139Y-67723000D01*
X122781861Y-67723000D01*
X122530513Y-67673004D01*
X122293747Y-67574932D01*
X122293746Y-67574932D01*
X122293745Y-67574931D01*
X122080661Y-67432553D01*
X121899447Y-67251339D01*
X121757069Y-67038255D01*
X121757068Y-67038253D01*
X121658996Y-66801487D01*
X121609000Y-66550139D01*
X121609000Y-66293861D01*
X121658996Y-66042513D01*
X121757068Y-65805747D01*
X121759914Y-65801488D01*
X121899447Y-65592661D01*
X122080661Y-65411447D01*
X122293745Y-65269069D01*
X122293747Y-65269068D01*
X122530513Y-65170996D01*
X122781861Y-65121000D01*
X123038139Y-65121000D01*
X123289487Y-65170996D01*
X123289487Y-65170996D01*
G37*
G36*
X115289487Y-65170996D02*
G01*
X115526253Y-65269068D01*
X115526255Y-65269069D01*
X115739339Y-65411447D01*
X115920553Y-65592661D01*
X116060087Y-65801488D01*
X116062932Y-65805747D01*
X116161004Y-66042513D01*
X116211000Y-66293861D01*
X116211000Y-66550139D01*
X116161004Y-66801487D01*
X116062932Y-67038253D01*
X116062931Y-67038255D01*
X115920553Y-67251339D01*
X115739339Y-67432553D01*
X115526255Y-67574931D01*
X115526254Y-67574932D01*
X115526253Y-67574932D01*
X115289487Y-67673004D01*
X115038139Y-67723000D01*
X114781861Y-67723000D01*
X114530513Y-67673004D01*
X114293747Y-67574932D01*
X114293746Y-67574932D01*
X114293745Y-67574931D01*
X114080661Y-67432553D01*
X113899447Y-67251339D01*
X113757069Y-67038255D01*
X113757068Y-67038253D01*
X113658996Y-66801487D01*
X113609000Y-66550139D01*
X113609000Y-66293861D01*
X113658996Y-66042513D01*
X113757068Y-65805747D01*
X113759914Y-65801488D01*
X113899447Y-65592661D01*
X114080661Y-65411447D01*
X114293745Y-65269069D01*
X114293747Y-65269068D01*
X114530513Y-65170996D01*
X114781861Y-65121000D01*
X115038139Y-65121000D01*
X115289487Y-65170996D01*
X115289487Y-65170996D01*
G37*
G36*
X63289487Y-65170996D02*
G01*
X63526253Y-65269068D01*
X63526255Y-65269069D01*
X63739339Y-65411447D01*
X63920553Y-65592661D01*
X64060087Y-65801488D01*
X64062932Y-65805747D01*
X64161004Y-66042513D01*
X64211000Y-66293861D01*
X64211000Y-66550139D01*
X64161004Y-66801487D01*
X64062932Y-67038253D01*
X64062931Y-67038255D01*
X63920553Y-67251339D01*
X63739339Y-67432553D01*
X63526255Y-67574931D01*
X63526254Y-67574932D01*
X63526253Y-67574932D01*
X63289487Y-67673004D01*
X63038139Y-67723000D01*
X62781861Y-67723000D01*
X62530513Y-67673004D01*
X62293747Y-67574932D01*
X62293746Y-67574932D01*
X62293745Y-67574931D01*
X62080661Y-67432553D01*
X61899447Y-67251339D01*
X61757069Y-67038255D01*
X61757068Y-67038253D01*
X61658996Y-66801487D01*
X61609000Y-66550139D01*
X61609000Y-66293861D01*
X61658996Y-66042513D01*
X61757068Y-65805747D01*
X61759914Y-65801488D01*
X61899447Y-65592661D01*
X62080661Y-65411447D01*
X62293745Y-65269069D01*
X62293747Y-65269068D01*
X62530513Y-65170996D01*
X62781861Y-65121000D01*
X63038139Y-65121000D01*
X63289487Y-65170996D01*
X63289487Y-65170996D01*
G37*
G36*
X143289487Y-64380996D02*
G01*
X143526253Y-64479068D01*
X143526255Y-64479069D01*
X143696258Y-64592661D01*
X143739339Y-64621447D01*
X143920553Y-64802661D01*
X144062932Y-65015747D01*
X144161004Y-65252513D01*
X144211000Y-65503861D01*
X144211000Y-65760139D01*
X144161004Y-66011487D01*
X144062932Y-66248253D01*
X144062931Y-66248255D01*
X143920553Y-66461339D01*
X143739339Y-66642553D01*
X143526255Y-66784931D01*
X143526254Y-66784932D01*
X143526253Y-66784932D01*
X143289487Y-66883004D01*
X143038139Y-66933000D01*
X142781861Y-66933000D01*
X142530513Y-66883004D01*
X142293747Y-66784932D01*
X142293746Y-66784932D01*
X142293745Y-66784931D01*
X142080661Y-66642553D01*
X141899447Y-66461339D01*
X141757069Y-66248255D01*
X141757068Y-66248253D01*
X141658996Y-66011487D01*
X141609000Y-65760139D01*
X141609000Y-65503861D01*
X141658996Y-65252513D01*
X141757068Y-65015747D01*
X141899447Y-64802661D01*
X142080661Y-64621447D01*
X142123742Y-64592661D01*
X142293745Y-64479069D01*
X142293747Y-64479068D01*
X142530513Y-64380996D01*
X142781861Y-64331000D01*
X143038139Y-64331000D01*
X143289487Y-64380996D01*
X143289487Y-64380996D01*
G37*
G36*
X83289487Y-64170996D02*
G01*
X83526253Y-64269068D01*
X83526255Y-64269069D01*
X83618941Y-64331000D01*
X83739339Y-64411447D01*
X83920553Y-64592661D01*
X84062932Y-64805747D01*
X84161004Y-65042513D01*
X84211000Y-65293861D01*
X84211000Y-65550139D01*
X84161004Y-65801487D01*
X84159240Y-65805745D01*
X84062931Y-66038255D01*
X83920553Y-66251339D01*
X83739339Y-66432553D01*
X83526255Y-66574931D01*
X83526254Y-66574932D01*
X83526253Y-66574932D01*
X83289487Y-66673004D01*
X83038139Y-66723000D01*
X82781861Y-66723000D01*
X82530513Y-66673004D01*
X82293747Y-66574932D01*
X82293746Y-66574932D01*
X82293745Y-66574931D01*
X82080661Y-66432553D01*
X81899447Y-66251339D01*
X81757069Y-66038255D01*
X81660760Y-65805745D01*
X81658996Y-65801487D01*
X81609000Y-65550139D01*
X81609000Y-65293861D01*
X81658996Y-65042513D01*
X81757068Y-64805747D01*
X81899447Y-64592661D01*
X82080661Y-64411447D01*
X82201059Y-64331000D01*
X82293745Y-64269069D01*
X82293747Y-64269068D01*
X82530513Y-64170996D01*
X82781861Y-64121000D01*
X83038139Y-64121000D01*
X83289487Y-64170996D01*
X83289487Y-64170996D01*
G37*
G36*
X119289487Y-64170996D02*
G01*
X119526253Y-64269068D01*
X119526255Y-64269069D01*
X119618941Y-64331000D01*
X119739339Y-64411447D01*
X119920553Y-64592661D01*
X120062932Y-64805747D01*
X120161004Y-65042513D01*
X120211000Y-65293861D01*
X120211000Y-65550139D01*
X120161004Y-65801487D01*
X120159240Y-65805745D01*
X120062931Y-66038255D01*
X119920553Y-66251339D01*
X119739339Y-66432553D01*
X119526255Y-66574931D01*
X119526254Y-66574932D01*
X119526253Y-66574932D01*
X119289487Y-66673004D01*
X119038139Y-66723000D01*
X118781861Y-66723000D01*
X118530513Y-66673004D01*
X118293747Y-66574932D01*
X118293746Y-66574932D01*
X118293745Y-66574931D01*
X118080661Y-66432553D01*
X117899447Y-66251339D01*
X117757069Y-66038255D01*
X117660760Y-65805745D01*
X117658996Y-65801487D01*
X117609000Y-65550139D01*
X117609000Y-65293861D01*
X117658996Y-65042513D01*
X117757068Y-64805747D01*
X117899447Y-64592661D01*
X118080661Y-64411447D01*
X118201059Y-64331000D01*
X118293745Y-64269069D01*
X118293747Y-64269068D01*
X118530513Y-64170996D01*
X118781861Y-64121000D01*
X119038139Y-64121000D01*
X119289487Y-64170996D01*
X119289487Y-64170996D01*
G37*
G36*
X59289487Y-64170996D02*
G01*
X59526253Y-64269068D01*
X59526255Y-64269069D01*
X59618941Y-64331000D01*
X59739339Y-64411447D01*
X59920553Y-64592661D01*
X60062932Y-64805747D01*
X60161004Y-65042513D01*
X60211000Y-65293861D01*
X60211000Y-65550139D01*
X60161004Y-65801487D01*
X60159240Y-65805745D01*
X60062931Y-66038255D01*
X59920553Y-66251339D01*
X59739339Y-66432553D01*
X59526255Y-66574931D01*
X59526254Y-66574932D01*
X59526253Y-66574932D01*
X59289487Y-66673004D01*
X59038139Y-66723000D01*
X58781861Y-66723000D01*
X58530513Y-66673004D01*
X58293747Y-66574932D01*
X58293746Y-66574932D01*
X58293745Y-66574931D01*
X58080661Y-66432553D01*
X57899447Y-66251339D01*
X57757069Y-66038255D01*
X57660760Y-65805745D01*
X57658996Y-65801487D01*
X57609000Y-65550139D01*
X57609000Y-65293861D01*
X57658996Y-65042513D01*
X57757068Y-64805747D01*
X57899447Y-64592661D01*
X58080661Y-64411447D01*
X58201059Y-64331000D01*
X58293745Y-64269069D01*
X58293747Y-64269068D01*
X58530513Y-64170996D01*
X58781861Y-64121000D01*
X59038139Y-64121000D01*
X59289487Y-64170996D01*
X59289487Y-64170996D01*
G37*
G36*
X103199499Y-62650445D02*
G01*
X103236995Y-62661820D01*
X103271554Y-62680292D01*
X103301847Y-62705153D01*
X103326708Y-62735446D01*
X103345180Y-62770005D01*
X103356555Y-62807501D01*
X103361000Y-62852638D01*
X103361000Y-63491362D01*
X103356555Y-63536499D01*
X103345180Y-63573995D01*
X103326708Y-63608554D01*
X103301847Y-63638847D01*
X103271554Y-63663708D01*
X103236995Y-63682180D01*
X103199499Y-63693555D01*
X103154362Y-63698000D01*
X102415638Y-63698000D01*
X102370501Y-63693555D01*
X102333005Y-63682180D01*
X102298446Y-63663708D01*
X102268153Y-63638847D01*
X102243292Y-63608554D01*
X102224820Y-63573995D01*
X102213445Y-63536499D01*
X102209000Y-63491362D01*
X102209000Y-62852638D01*
X102213445Y-62807501D01*
X102224820Y-62770005D01*
X102243292Y-62735446D01*
X102268153Y-62705153D01*
X102298446Y-62680292D01*
X102333005Y-62661820D01*
X102370501Y-62650445D01*
X102415638Y-62646000D01*
X103154362Y-62646000D01*
X103199499Y-62650445D01*
X103199499Y-62650445D01*
G37*
G36*
X101449499Y-62650445D02*
G01*
X101486995Y-62661820D01*
X101521554Y-62680292D01*
X101551847Y-62705153D01*
X101576708Y-62735446D01*
X101595180Y-62770005D01*
X101606555Y-62807501D01*
X101611000Y-62852638D01*
X101611000Y-63491362D01*
X101606555Y-63536499D01*
X101595180Y-63573995D01*
X101576708Y-63608554D01*
X101551847Y-63638847D01*
X101521554Y-63663708D01*
X101486995Y-63682180D01*
X101449499Y-63693555D01*
X101404362Y-63698000D01*
X100665638Y-63698000D01*
X100620501Y-63693555D01*
X100583005Y-63682180D01*
X100548446Y-63663708D01*
X100518153Y-63638847D01*
X100493292Y-63608554D01*
X100474820Y-63573995D01*
X100463445Y-63536499D01*
X100459000Y-63491362D01*
X100459000Y-62852638D01*
X100463445Y-62807501D01*
X100474820Y-62770005D01*
X100493292Y-62735446D01*
X100518153Y-62705153D01*
X100548446Y-62680292D01*
X100583005Y-62661820D01*
X100620501Y-62650445D01*
X100665638Y-62646000D01*
X101404362Y-62646000D01*
X101449499Y-62650445D01*
X101449499Y-62650445D01*
G37*
M02*
