G04 #@! TF.GenerationSoftware,KiCad,Pcbnew,5.1.4*
G04 #@! TF.CreationDate,2019-08-29T18:55:29+02:00*
G04 #@! TF.ProjectId,NixieClock,4e697869-6543-46c6-9f63-6b2e6b696361,rev?*
G04 #@! TF.SameCoordinates,Original*
G04 #@! TF.FileFunction,Copper,L2,Bot*
G04 #@! TF.FilePolarity,Positive*
%FSLAX46Y46*%
G04 Gerber Fmt 4.6, Leading zero omitted, Abs format (unit mm)*
G04 Created by KiCad (PCBNEW 5.1.4) date 2019-08-29 18:55:29*
%MOMM*%
%LPD*%
G04 APERTURE LIST*
%ADD10C,2.500000*%
%ADD11O,1.700000X1.700000*%
%ADD12R,1.700000X1.700000*%
%ADD13C,1.800000*%
%ADD14R,1.800000X1.800000*%
%ADD15C,0.500000*%
%ADD16C,0.500000*%
%ADD17C,0.250000*%
%ADD18C,0.254000*%
G04 APERTURE END LIST*
D10*
X138910000Y-82632000D03*
X146910000Y-82632000D03*
X142910000Y-83882000D03*
X138910000Y-66632000D03*
X146910000Y-66632000D03*
X137210000Y-79282000D03*
X137410000Y-70082000D03*
X148410000Y-70082000D03*
X148610000Y-79282000D03*
X148610000Y-74632000D03*
X137210000Y-74632000D03*
X142910000Y-65632000D03*
D11*
X132200000Y-96002000D03*
X132200000Y-93462000D03*
X134740000Y-96002000D03*
X134740000Y-93462000D03*
X137280000Y-96002000D03*
X137280000Y-93462000D03*
X139820000Y-96002000D03*
X139820000Y-93462000D03*
X142360000Y-96002000D03*
X142360000Y-93462000D03*
X144900000Y-96002000D03*
X144900000Y-93462000D03*
X147440000Y-96002000D03*
X147440000Y-93462000D03*
X149980000Y-96002000D03*
X149980000Y-93462000D03*
X152520000Y-96002000D03*
X152520000Y-93462000D03*
X155060000Y-96002000D03*
D12*
X155060000Y-93462000D03*
D10*
X114910000Y-82422000D03*
X122910000Y-82422000D03*
X118910000Y-83672000D03*
X114910000Y-66422000D03*
X122910000Y-66422000D03*
X113210000Y-79072000D03*
X113410000Y-69872000D03*
X124410000Y-69872000D03*
X124610000Y-79072000D03*
X124610000Y-74422000D03*
X113210000Y-74422000D03*
X118910000Y-65422000D03*
X54910000Y-82422000D03*
X62910000Y-82422000D03*
X58910000Y-83672000D03*
X54910000Y-66422000D03*
X62910000Y-66422000D03*
X53210000Y-79072000D03*
X53410000Y-69872000D03*
X64410000Y-69872000D03*
X64610000Y-79072000D03*
X64610000Y-74422000D03*
X53210000Y-74422000D03*
X58910000Y-65422000D03*
X78910000Y-82422000D03*
X86910000Y-82422000D03*
X82910000Y-83672000D03*
X78910000Y-66422000D03*
X86910000Y-66422000D03*
X77210000Y-79072000D03*
X77410000Y-69872000D03*
X88410000Y-69872000D03*
X88610000Y-79072000D03*
X88610000Y-74422000D03*
X77210000Y-74422000D03*
X82910000Y-65422000D03*
D13*
X101910000Y-78632000D03*
D14*
X101910000Y-81172000D03*
D11*
X97900000Y-95982000D03*
X97900000Y-93442000D03*
X100440000Y-95982000D03*
X100440000Y-93442000D03*
X102980000Y-95982000D03*
X102980000Y-93442000D03*
X105520000Y-95982000D03*
X105520000Y-93442000D03*
X108060000Y-95982000D03*
X108060000Y-93442000D03*
X110600000Y-95982000D03*
X110600000Y-93442000D03*
X113140000Y-95982000D03*
X113140000Y-93442000D03*
X115680000Y-95982000D03*
X115680000Y-93442000D03*
X118220000Y-95982000D03*
X118220000Y-93442000D03*
X120760000Y-95982000D03*
D12*
X120760000Y-93442000D03*
D13*
X101910000Y-67632000D03*
D14*
X101910000Y-70172000D03*
D11*
X63630000Y-95992000D03*
X63630000Y-93452000D03*
X66170000Y-95992000D03*
X66170000Y-93452000D03*
X68710000Y-95992000D03*
X68710000Y-93452000D03*
X71250000Y-95992000D03*
X71250000Y-93452000D03*
X73790000Y-95992000D03*
X73790000Y-93452000D03*
X76330000Y-95992000D03*
X76330000Y-93452000D03*
X78870000Y-95992000D03*
X78870000Y-93452000D03*
X81410000Y-95992000D03*
X81410000Y-93452000D03*
X83950000Y-95992000D03*
X83950000Y-93452000D03*
X86490000Y-95992000D03*
D12*
X86490000Y-93452000D03*
D15*
X71910000Y-80172000D03*
X68700000Y-91850000D03*
X99250000Y-63200000D03*
X68750000Y-89500000D03*
X96100000Y-96000000D03*
X93200000Y-96000000D03*
X56800000Y-84800000D03*
X93000000Y-104100000D03*
X56900000Y-89300000D03*
X60300000Y-85000000D03*
X93000000Y-103200000D03*
X60200000Y-89300000D03*
X61100000Y-89300000D03*
X93000000Y-102300000D03*
X93000000Y-101400000D03*
X70400000Y-83100000D03*
X70400000Y-89300000D03*
X93000000Y-100500000D03*
X93000000Y-99600000D03*
X93000000Y-98700000D03*
X93000000Y-97600000D03*
X90800000Y-79900000D03*
X91700000Y-80700000D03*
X94900000Y-83900000D03*
X94100000Y-83100000D03*
X93300000Y-82300000D03*
X92500000Y-81500000D03*
X132400000Y-99900000D03*
X125200000Y-96700000D03*
X131700000Y-98700000D03*
X123400000Y-93400000D03*
X123900000Y-92600000D03*
X130600000Y-97600000D03*
X124300000Y-91700000D03*
X130500000Y-96000000D03*
X152600000Y-82000000D03*
X150500000Y-76200000D03*
X150500000Y-82000000D03*
X133300000Y-70300000D03*
X132500000Y-74600000D03*
X134800000Y-84700000D03*
X132300000Y-86200000D03*
X96200000Y-89150000D03*
X96200000Y-92650000D03*
X143910000Y-86172000D03*
X82250000Y-81000000D03*
X148750000Y-99750000D03*
X146250000Y-99750000D03*
X151250000Y-98000000D03*
X158410000Y-98672000D03*
X117500000Y-80500000D03*
X121000000Y-79000000D03*
X140000000Y-100000000D03*
X99000000Y-91750000D03*
X151384000Y-86172000D03*
X65500000Y-84000000D03*
X143500000Y-99750000D03*
X141000000Y-88750000D03*
X143500000Y-88750000D03*
X120500000Y-86250000D03*
X117000000Y-91750000D03*
X111750000Y-81500000D03*
X59750000Y-81000000D03*
X125000000Y-84250000D03*
X101250000Y-91750000D03*
X103750000Y-91750000D03*
X51250000Y-68250000D03*
X143500000Y-80000000D03*
X109250000Y-91750000D03*
X154000000Y-86250000D03*
X106500000Y-91750000D03*
X138500000Y-88750000D03*
X90500000Y-83250000D03*
X148910000Y-86172000D03*
X158410000Y-94172000D03*
X136000000Y-88750000D03*
X127000000Y-70000000D03*
X96160000Y-94672000D03*
X90500000Y-68000000D03*
X114500000Y-91750000D03*
X79000000Y-63500000D03*
X158410000Y-102922000D03*
X112000000Y-91750000D03*
X89500000Y-65500000D03*
X79500000Y-80250000D03*
D16*
X71910000Y-66090000D02*
X77200000Y-60800000D01*
X71910000Y-80172000D02*
X71910000Y-66090000D01*
X77200000Y-60800000D02*
X96850000Y-60800000D01*
X68750000Y-89500000D02*
X68700000Y-89550000D01*
X68700000Y-89550000D02*
X68700000Y-91850000D01*
X96850000Y-60800000D02*
X99250000Y-63200000D01*
D17*
X76400000Y-85800000D02*
X56100000Y-85800000D01*
X97900000Y-95982000D02*
X96118000Y-95982000D01*
X92200000Y-87700000D02*
X78300000Y-87700000D01*
X93200000Y-96000000D02*
X93200000Y-88700000D01*
X93200000Y-88700000D02*
X92200000Y-87700000D01*
X78300000Y-87700000D02*
X76400000Y-85800000D01*
X54910000Y-84610000D02*
X54910000Y-82422000D01*
X96118000Y-95982000D02*
X96100000Y-96000000D01*
X56100000Y-85800000D02*
X54910000Y-84610000D01*
X120100000Y-98400000D02*
X96600000Y-98400000D01*
X92700000Y-87000000D02*
X78800000Y-87000000D01*
X94300000Y-96100000D02*
X94300000Y-88600000D01*
X96600000Y-98400000D02*
X94300000Y-96100000D01*
X76700000Y-84900000D02*
X68600000Y-84900000D01*
X78800000Y-87000000D02*
X76700000Y-84900000D01*
X120760000Y-95982000D02*
X120760000Y-97740000D01*
X120760000Y-97740000D02*
X120100000Y-98400000D01*
X94300000Y-88600000D02*
X92700000Y-87000000D01*
X68600000Y-84900000D02*
X64610000Y-80910000D01*
X64610000Y-80910000D02*
X64610000Y-79072000D01*
X63600000Y-104100000D02*
X59500000Y-100000000D01*
X64610000Y-74790000D02*
X64610000Y-74422000D01*
X59500000Y-90600000D02*
X58200000Y-89300000D01*
X58200000Y-89300000D02*
X56900000Y-89300000D01*
X59500000Y-100000000D02*
X59500000Y-90600000D01*
X56800000Y-82600000D02*
X64610000Y-74790000D01*
X56800000Y-84800000D02*
X56800000Y-82600000D01*
X93000000Y-104100000D02*
X63600000Y-104100000D01*
X67000000Y-75800000D02*
X67000000Y-72462000D01*
X66100000Y-76700000D02*
X67000000Y-75800000D01*
X67000000Y-72462000D02*
X64410000Y-69872000D01*
X60700000Y-84600000D02*
X60700000Y-79800000D01*
X63700000Y-103200000D02*
X93000000Y-103200000D01*
X60700000Y-79800000D02*
X63800000Y-76700000D01*
X63800000Y-76700000D02*
X66100000Y-76700000D01*
X60200000Y-89300000D02*
X60200000Y-99700000D01*
X60200000Y-99700000D02*
X63700000Y-103200000D01*
X60300000Y-85000000D02*
X60700000Y-84600000D01*
X61100000Y-89300000D02*
X61100000Y-99500000D01*
X63900000Y-102300000D02*
X93000000Y-102300000D01*
X61100000Y-99500000D02*
X63900000Y-102300000D01*
X60932000Y-63400000D02*
X58910000Y-65422000D01*
X70400000Y-83100000D02*
X70400000Y-66900000D01*
X74799964Y-89300000D02*
X70400000Y-89300000D01*
X92200000Y-101400000D02*
X89499980Y-98699980D01*
X89049990Y-91200000D02*
X76699964Y-91200000D01*
X89499980Y-91649990D02*
X89049990Y-91200000D01*
X89499980Y-98699980D02*
X89499980Y-91649990D01*
X66900000Y-63400000D02*
X60932000Y-63400000D01*
X93000000Y-101400000D02*
X92200000Y-101400000D01*
X76699964Y-91200000D02*
X74799964Y-89300000D01*
X70400000Y-66900000D02*
X66900000Y-63400000D01*
X77000000Y-90500000D02*
X74950026Y-88450026D01*
X74950026Y-88450026D02*
X54350026Y-88450026D01*
X49300000Y-68600000D02*
X51478000Y-66422000D01*
X49300000Y-83400000D02*
X49300000Y-68600000D01*
X54350026Y-88450026D02*
X49300000Y-83400000D01*
X92400000Y-100500000D02*
X90149990Y-98249990D01*
X93000000Y-100500000D02*
X92400000Y-100500000D01*
X51478000Y-66422000D02*
X54910000Y-66422000D01*
X89600000Y-90500000D02*
X77000000Y-90500000D01*
X90149990Y-91049990D02*
X89600000Y-90500000D01*
X90149990Y-98249990D02*
X90149990Y-91049990D01*
X90800000Y-97800000D02*
X90800000Y-90400000D01*
X90800000Y-90400000D02*
X90200020Y-89800020D01*
X50000000Y-70900000D02*
X51028000Y-69872000D01*
X54800016Y-87800016D02*
X50000000Y-83000000D01*
X90200020Y-89800020D02*
X77300020Y-89800020D01*
X77300020Y-89800020D02*
X75300016Y-87800016D01*
X92600000Y-99600000D02*
X90800000Y-97800000D01*
X75300016Y-87800016D02*
X54800016Y-87800016D01*
X51028000Y-69872000D02*
X53410000Y-69872000D01*
X93000000Y-99600000D02*
X92600000Y-99600000D01*
X50000000Y-83000000D02*
X50000000Y-70900000D01*
X50700000Y-75200000D02*
X51478000Y-74422000D01*
X50700000Y-82719252D02*
X50700000Y-75200000D01*
X77650010Y-89150010D02*
X75650010Y-87150010D01*
X91600000Y-97500000D02*
X91600000Y-90100000D01*
X55400000Y-87150008D02*
X55130756Y-87150008D01*
X75650010Y-87150010D02*
X55400002Y-87150010D01*
X51478000Y-74422000D02*
X53210000Y-74422000D01*
X55130756Y-87150008D02*
X50700000Y-82719252D01*
X92800000Y-98700000D02*
X91600000Y-97500000D01*
X90650010Y-89150010D02*
X77650010Y-89150010D01*
X91600000Y-90100000D02*
X90650010Y-89150010D01*
X93000000Y-98700000D02*
X92800000Y-98700000D01*
X55400002Y-87150010D02*
X55400000Y-87150008D01*
X78000000Y-88500000D02*
X76000000Y-86500000D01*
X91600000Y-88500000D02*
X78000000Y-88500000D01*
X92400000Y-97100000D02*
X92400000Y-89300000D01*
X52100000Y-83200000D02*
X52100000Y-80182000D01*
X52100000Y-80182000D02*
X53210000Y-79072000D01*
X92900000Y-97600000D02*
X92400000Y-97100000D01*
X93000000Y-97600000D02*
X92900000Y-97600000D01*
X55400000Y-86500000D02*
X52100000Y-83200000D01*
X92400000Y-89300000D02*
X91600000Y-88500000D01*
X76000000Y-86500000D02*
X55400000Y-86500000D01*
X81100000Y-86300000D02*
X78910000Y-84110000D01*
X94580748Y-86300000D02*
X81100000Y-86300000D01*
X97900000Y-89619252D02*
X94580748Y-86300000D01*
X78910000Y-84110000D02*
X78910000Y-82422000D01*
X97900000Y-93442000D02*
X97900000Y-89619252D01*
X103600000Y-86300000D02*
X96372000Y-79072000D01*
X96372000Y-79072000D02*
X88610000Y-79072000D01*
X115200000Y-86300000D02*
X103600000Y-86300000D01*
X120760000Y-91860000D02*
X115200000Y-86300000D01*
X120760000Y-93442000D02*
X120760000Y-91860000D01*
X118220000Y-90239252D02*
X118220000Y-93442000D01*
X114930756Y-86950008D02*
X118220000Y-90239252D01*
X96200000Y-79900000D02*
X103250008Y-86950008D01*
X103250008Y-86950008D02*
X114930756Y-86950008D01*
X90800000Y-79900000D02*
X96200000Y-79900000D01*
X91700000Y-80700000D02*
X96000000Y-80700000D01*
X114500000Y-87600018D02*
X115680000Y-88780018D01*
X115680000Y-88780018D02*
X115680000Y-93442000D01*
X102900018Y-87600018D02*
X114500000Y-87600018D01*
X96000000Y-80700000D02*
X102900018Y-87600018D01*
X81050000Y-80250000D02*
X79872000Y-79072000D01*
X94800000Y-85600000D02*
X82000000Y-85600000D01*
X81050000Y-84650000D02*
X81050000Y-80250000D01*
X79872000Y-79072000D02*
X77210000Y-79072000D01*
X100440000Y-93442000D02*
X100440000Y-91240000D01*
X82000000Y-85600000D02*
X81050000Y-84650000D01*
X100440000Y-91240000D02*
X94800000Y-85600000D01*
X84750000Y-83450000D02*
X84750000Y-81850000D01*
X95380748Y-84850000D02*
X86150000Y-84850000D01*
X102980000Y-92449252D02*
X95380748Y-84850000D01*
X102980000Y-93442000D02*
X102980000Y-92449252D01*
X77322000Y-74422000D02*
X77210000Y-74422000D01*
X86150000Y-84850000D02*
X84750000Y-83450000D01*
X84750000Y-81850000D02*
X77322000Y-74422000D01*
X105520000Y-92170000D02*
X103750000Y-90400000D01*
X95350000Y-83900000D02*
X94900000Y-83900000D01*
X103750000Y-90400000D02*
X101850000Y-90400000D01*
X105520000Y-93442000D02*
X105520000Y-92170000D01*
X101850000Y-90400000D02*
X95350000Y-83900000D01*
X108060000Y-93442000D02*
X108060000Y-90860000D01*
X95561496Y-83100000D02*
X94100000Y-83100000D01*
X108060000Y-90860000D02*
X106800000Y-89600000D01*
X102061496Y-89600000D02*
X95561496Y-83100000D01*
X108060000Y-93442000D02*
X107958000Y-93442000D01*
X107958000Y-93442000D02*
X107900000Y-93500000D01*
X106800000Y-89600000D02*
X102061496Y-89600000D01*
X110600000Y-90500036D02*
X110600000Y-93442000D01*
X93300000Y-82300000D02*
X95680748Y-82300000D01*
X109000000Y-88900036D02*
X110600000Y-90500036D01*
X102280784Y-88900036D02*
X109000000Y-88900036D01*
X95680748Y-82300000D02*
X102280784Y-88900036D01*
X111999998Y-88250026D02*
X113140000Y-89390028D01*
X102550026Y-88250026D02*
X111999998Y-88250026D01*
X95800000Y-81500000D02*
X102550026Y-88250026D01*
X113140000Y-89390028D02*
X113140000Y-93442000D01*
X92500000Y-81500000D02*
X95800000Y-81500000D01*
X131500000Y-105000000D02*
X126000000Y-99500000D01*
X126000000Y-99500000D02*
X126000000Y-80462000D01*
X126000000Y-80462000D02*
X124610000Y-79072000D01*
X155060000Y-96940000D02*
X147000000Y-105000000D01*
X147000000Y-105000000D02*
X131500000Y-105000000D01*
X155060000Y-96002000D02*
X155060000Y-96940000D01*
X126700000Y-76512000D02*
X124610000Y-74422000D01*
X126700000Y-99200000D02*
X126700000Y-76512000D01*
X152520000Y-98480000D02*
X146700000Y-104300000D01*
X152520000Y-96002000D02*
X152520000Y-98480000D01*
X146700000Y-104300000D02*
X131800000Y-104300000D01*
X131800000Y-104300000D02*
X126700000Y-99200000D01*
X146400000Y-103600000D02*
X132100000Y-103600000D01*
X127400000Y-98900000D02*
X127400000Y-72862000D01*
X127400000Y-72862000D02*
X124410000Y-69872000D01*
X149980000Y-100020000D02*
X146400000Y-103600000D01*
X132100000Y-103600000D02*
X127400000Y-98900000D01*
X149980000Y-96002000D02*
X149980000Y-100020000D01*
X128100000Y-98680748D02*
X128100000Y-68800000D01*
X147440000Y-101640748D02*
X146130758Y-102949990D01*
X147440000Y-96019000D02*
X147320000Y-96139000D01*
X147440000Y-96002000D02*
X147440000Y-96019000D01*
X147440000Y-96002000D02*
X147440000Y-101640748D01*
X128100000Y-68800000D02*
X125722000Y-66422000D01*
X132369242Y-102949990D02*
X128100000Y-98680748D01*
X125722000Y-66422000D02*
X122910000Y-66422000D01*
X146130758Y-102949990D02*
X132369242Y-102949990D01*
X128900000Y-66100000D02*
X126100000Y-63300000D01*
X144900000Y-101799980D02*
X144400000Y-102299980D01*
X126100000Y-63300000D02*
X121032000Y-63300000D01*
X144900000Y-96002000D02*
X144900000Y-101799980D01*
X128900000Y-98561496D02*
X128900000Y-66100000D01*
X144400000Y-102299980D02*
X132638484Y-102299980D01*
X132638484Y-102299980D02*
X128900000Y-98561496D01*
X121032000Y-63300000D02*
X118910000Y-65422000D01*
X132949970Y-101649970D02*
X129600000Y-98300000D01*
X141300000Y-101649970D02*
X132949970Y-101649970D01*
X126319252Y-62600000D02*
X116500000Y-62600000D01*
X142360000Y-100589970D02*
X141300000Y-101649970D01*
X129600000Y-98300000D02*
X129600000Y-65880748D01*
X114910000Y-64190000D02*
X114910000Y-66422000D01*
X129600000Y-65880748D02*
X126319252Y-62600000D01*
X142360000Y-96002000D02*
X142360000Y-100589970D01*
X116500000Y-62600000D02*
X114910000Y-64190000D01*
X122000000Y-84700000D02*
X120800000Y-83500000D01*
X139820000Y-97180000D02*
X137100000Y-99900000D01*
X123500000Y-84700000D02*
X122000000Y-84700000D01*
X120800000Y-81800000D02*
X115400000Y-76400000D01*
X115400000Y-76400000D02*
X115400000Y-71862000D01*
X137100000Y-99900000D02*
X132400000Y-99900000D01*
X139820000Y-96002000D02*
X139820000Y-97180000D01*
X115400000Y-71862000D02*
X113410000Y-69872000D01*
X125200000Y-96700000D02*
X125200000Y-86400000D01*
X125200000Y-86400000D02*
X123500000Y-84700000D01*
X120800000Y-83500000D02*
X120800000Y-81800000D01*
X136100000Y-98700000D02*
X131700000Y-98700000D01*
X137280000Y-96002000D02*
X137280000Y-97520000D01*
X123400000Y-93400000D02*
X115400000Y-85400000D01*
X115400000Y-85400000D02*
X113600000Y-85400000D01*
X111678000Y-74422000D02*
X113210000Y-74422000D01*
X110700000Y-82500000D02*
X110700000Y-75400000D01*
X137280000Y-97520000D02*
X136100000Y-98700000D01*
X110700000Y-75400000D02*
X111678000Y-74422000D01*
X113600000Y-85400000D02*
X110700000Y-82500000D01*
X112600000Y-79682000D02*
X113210000Y-79072000D01*
X134740000Y-97160000D02*
X134740000Y-96002000D01*
X112600000Y-83400000D02*
X112600000Y-79682000D01*
X113900000Y-84700000D02*
X112600000Y-83400000D01*
X130600000Y-97600000D02*
X134300000Y-97600000D01*
X134300000Y-97600000D02*
X134740000Y-97160000D01*
X116000000Y-84700000D02*
X113900000Y-84700000D01*
X123900000Y-92600000D02*
X116000000Y-84700000D01*
X124300000Y-91700000D02*
X124188000Y-91700000D01*
X130502000Y-96002000D02*
X132200000Y-96002000D01*
X130500000Y-96000000D02*
X130502000Y-96002000D01*
X124188000Y-91700000D02*
X114910000Y-82422000D01*
X155060000Y-82860000D02*
X151482000Y-79282000D01*
X151482000Y-79282000D02*
X148610000Y-79282000D01*
X155060000Y-93462000D02*
X155060000Y-82860000D01*
X152600000Y-82000000D02*
X152600000Y-93382000D01*
X152600000Y-93382000D02*
X152520000Y-93462000D01*
X150500000Y-76200000D02*
X150500000Y-71000000D01*
X149980000Y-92920000D02*
X150500000Y-92400000D01*
X149582000Y-70082000D02*
X148410000Y-70082000D01*
X150500000Y-71000000D02*
X149582000Y-70082000D01*
X150500000Y-92400000D02*
X150500000Y-82000000D01*
X149980000Y-93462000D02*
X149980000Y-92920000D01*
X145000000Y-83700000D02*
X145000000Y-81600000D01*
X147440000Y-86140000D02*
X145000000Y-83700000D01*
X145000000Y-81600000D02*
X146300000Y-80300000D01*
X146300000Y-80300000D02*
X146300000Y-67242000D01*
X147440000Y-93462000D02*
X147440000Y-86140000D01*
X146300000Y-67242000D02*
X146910000Y-66632000D01*
X144900000Y-93462000D02*
X144900000Y-88900000D01*
X139400000Y-75900000D02*
X139400000Y-72900000D01*
X144900000Y-88900000D02*
X140900000Y-84900000D01*
X140900000Y-77400000D02*
X139400000Y-75900000D01*
X142910000Y-69390000D02*
X142910000Y-65632000D01*
X140900000Y-84900000D02*
X140900000Y-77400000D01*
X139400000Y-72900000D02*
X142910000Y-69390000D01*
X134568000Y-66632000D02*
X138910000Y-66632000D01*
X134100000Y-67100000D02*
X134568000Y-66632000D01*
X139800000Y-85300000D02*
X138600000Y-85300000D01*
X142360000Y-93462000D02*
X142360000Y-87860000D01*
X138600000Y-85300000D02*
X134100000Y-80800000D01*
X142360000Y-87860000D02*
X139800000Y-85300000D01*
X134100000Y-80800000D02*
X134100000Y-67100000D01*
X139400000Y-86100000D02*
X138380748Y-86100000D01*
X139820000Y-93462000D02*
X139820000Y-86520000D01*
X139820000Y-86520000D02*
X139400000Y-86100000D01*
X138380748Y-86100000D02*
X133300000Y-81019252D01*
X133300000Y-81019252D02*
X133300000Y-70300000D01*
X132600000Y-74700000D02*
X132500000Y-74600000D01*
X137280000Y-86080000D02*
X132600000Y-81400000D01*
X132600000Y-81400000D02*
X132600000Y-74700000D01*
X137280000Y-93462000D02*
X137280000Y-86080000D01*
X134800000Y-84700000D02*
X134740000Y-84760000D01*
X134740000Y-84760000D02*
X134740000Y-93462000D01*
X132200000Y-86300000D02*
X132200000Y-93462000D01*
X132300000Y-86200000D02*
X132200000Y-86300000D01*
D16*
X96200000Y-89150000D02*
X96200000Y-92650000D01*
D18*
G36*
X165836513Y-57682666D02*
G01*
X165837001Y-57687310D01*
X165837000Y-107504725D01*
X165836335Y-107511513D01*
X165831699Y-107512000D01*
X56507000Y-107512000D01*
X56507000Y-101154581D01*
X56504242Y-101126581D01*
X56504269Y-101122745D01*
X56503369Y-101113574D01*
X56490414Y-100990323D01*
X56478387Y-100931733D01*
X56467178Y-100872971D01*
X56464514Y-100864149D01*
X56427867Y-100745762D01*
X56404692Y-100690632D01*
X56382278Y-100635153D01*
X56377951Y-100627017D01*
X56319007Y-100518002D01*
X56285565Y-100468422D01*
X56252803Y-100418355D01*
X56246978Y-100411214D01*
X56167982Y-100315724D01*
X56125566Y-100273603D01*
X56083684Y-100230834D01*
X56076584Y-100224961D01*
X55980545Y-100146633D01*
X55930703Y-100113518D01*
X55881362Y-100079733D01*
X55873256Y-100075350D01*
X55763832Y-100017168D01*
X55708554Y-99994384D01*
X55653545Y-99970807D01*
X55644741Y-99968082D01*
X55526101Y-99932262D01*
X55467372Y-99920633D01*
X55408905Y-99908206D01*
X55399747Y-99907244D01*
X55399744Y-99907243D01*
X55399741Y-99907243D01*
X55276402Y-99895150D01*
X55244419Y-99892000D01*
X45549581Y-99892000D01*
X45521581Y-99894758D01*
X45517745Y-99894731D01*
X45508574Y-99895631D01*
X45385323Y-99908586D01*
X45326733Y-99920613D01*
X45267971Y-99931822D01*
X45259149Y-99934486D01*
X45140762Y-99971133D01*
X45085632Y-99994308D01*
X45030153Y-100016722D01*
X45022017Y-100021049D01*
X44913002Y-100079993D01*
X44863422Y-100113435D01*
X44813355Y-100146197D01*
X44806214Y-100152022D01*
X44710724Y-100231018D01*
X44668603Y-100273434D01*
X44625834Y-100315316D01*
X44619961Y-100322416D01*
X44541633Y-100418455D01*
X44508518Y-100468297D01*
X44474733Y-100517638D01*
X44470350Y-100525744D01*
X44412168Y-100635168D01*
X44389384Y-100690446D01*
X44365807Y-100745455D01*
X44363082Y-100754259D01*
X44327262Y-100872899D01*
X44315641Y-100931592D01*
X44303206Y-100990095D01*
X44302244Y-100999253D01*
X44302244Y-100999254D01*
X44302243Y-100999259D01*
X44290150Y-101122598D01*
X44290150Y-101122608D01*
X44287001Y-101154581D01*
X44287000Y-107512000D01*
X36354275Y-107512000D01*
X36347487Y-107511335D01*
X36347000Y-107506699D01*
X36347000Y-68600000D01*
X48536324Y-68600000D01*
X48540001Y-68637332D01*
X48540000Y-83362678D01*
X48536324Y-83400000D01*
X48540000Y-83437322D01*
X48540000Y-83437332D01*
X48550997Y-83548985D01*
X48585933Y-83664155D01*
X48594454Y-83692246D01*
X48665026Y-83824276D01*
X48697362Y-83863677D01*
X48759999Y-83940001D01*
X48789003Y-83963804D01*
X53786226Y-88961028D01*
X53810025Y-88990027D01*
X53925750Y-89085000D01*
X54057779Y-89155572D01*
X54201040Y-89199029D01*
X54312693Y-89210026D01*
X54312702Y-89210026D01*
X54350025Y-89213702D01*
X54387348Y-89210026D01*
X56015559Y-89210026D01*
X56015000Y-89212835D01*
X56015000Y-89387165D01*
X56049010Y-89558145D01*
X56115723Y-89719205D01*
X56212576Y-89864155D01*
X56335845Y-89987424D01*
X56480795Y-90084277D01*
X56641855Y-90150990D01*
X56812835Y-90185000D01*
X56987165Y-90185000D01*
X57158145Y-90150990D01*
X57319205Y-90084277D01*
X57355538Y-90060000D01*
X57885199Y-90060000D01*
X58740001Y-90914803D01*
X58740000Y-99962678D01*
X58736324Y-100000000D01*
X58740000Y-100037322D01*
X58740000Y-100037332D01*
X58750997Y-100148985D01*
X58785788Y-100263677D01*
X58794454Y-100292246D01*
X58865026Y-100424276D01*
X58886950Y-100450990D01*
X58959999Y-100540001D01*
X58989003Y-100563804D01*
X63036201Y-104611003D01*
X63059999Y-104640001D01*
X63088997Y-104663799D01*
X63175724Y-104734974D01*
X63307753Y-104805546D01*
X63451014Y-104849003D01*
X63600000Y-104863677D01*
X63637333Y-104860000D01*
X92544462Y-104860000D01*
X92580795Y-104884277D01*
X92741855Y-104950990D01*
X92912835Y-104985000D01*
X93087165Y-104985000D01*
X93258145Y-104950990D01*
X93419205Y-104884277D01*
X93564155Y-104787424D01*
X93687424Y-104664155D01*
X93784277Y-104519205D01*
X93850990Y-104358145D01*
X93885000Y-104187165D01*
X93885000Y-104012835D01*
X93850990Y-103841855D01*
X93784277Y-103680795D01*
X93763700Y-103650000D01*
X93784277Y-103619205D01*
X93850990Y-103458145D01*
X93885000Y-103287165D01*
X93885000Y-103112835D01*
X93850990Y-102941855D01*
X93784277Y-102780795D01*
X93763700Y-102750000D01*
X93784277Y-102719205D01*
X93850990Y-102558145D01*
X93885000Y-102387165D01*
X93885000Y-102212835D01*
X93850990Y-102041855D01*
X93784277Y-101880795D01*
X93763700Y-101850000D01*
X93784277Y-101819205D01*
X93850990Y-101658145D01*
X93885000Y-101487165D01*
X93885000Y-101312835D01*
X93850990Y-101141855D01*
X93784277Y-100980795D01*
X93763700Y-100950000D01*
X93784277Y-100919205D01*
X93850990Y-100758145D01*
X93885000Y-100587165D01*
X93885000Y-100412835D01*
X93850990Y-100241855D01*
X93784277Y-100080795D01*
X93763700Y-100050000D01*
X93784277Y-100019205D01*
X93850990Y-99858145D01*
X93885000Y-99687165D01*
X93885000Y-99512835D01*
X93850990Y-99341855D01*
X93784277Y-99180795D01*
X93763700Y-99150000D01*
X93784277Y-99119205D01*
X93850990Y-98958145D01*
X93885000Y-98787165D01*
X93885000Y-98612835D01*
X93850990Y-98441855D01*
X93784277Y-98280795D01*
X93696882Y-98150000D01*
X93784277Y-98019205D01*
X93850990Y-97858145D01*
X93885000Y-97687165D01*
X93885000Y-97512835D01*
X93850990Y-97341855D01*
X93784277Y-97180795D01*
X93687424Y-97035845D01*
X93564155Y-96912576D01*
X93466689Y-96847451D01*
X93619205Y-96784277D01*
X93764155Y-96687424D01*
X93788329Y-96663250D01*
X93789003Y-96663804D01*
X96036201Y-98911003D01*
X96059999Y-98940001D01*
X96175724Y-99034974D01*
X96307753Y-99105546D01*
X96451014Y-99149003D01*
X96562667Y-99160000D01*
X96562676Y-99160000D01*
X96599999Y-99163676D01*
X96637322Y-99160000D01*
X120062678Y-99160000D01*
X120100000Y-99163676D01*
X120137322Y-99160000D01*
X120137333Y-99160000D01*
X120248986Y-99149003D01*
X120392247Y-99105546D01*
X120524276Y-99034974D01*
X120640001Y-98940001D01*
X120663803Y-98910998D01*
X121271002Y-98303800D01*
X121300001Y-98280001D01*
X121344691Y-98225546D01*
X121394974Y-98164277D01*
X121465546Y-98032247D01*
X121467964Y-98024276D01*
X121509003Y-97888986D01*
X121520000Y-97777333D01*
X121520000Y-97777323D01*
X121523676Y-97740000D01*
X121520000Y-97702677D01*
X121520000Y-97259595D01*
X121589014Y-97222706D01*
X121815134Y-97037134D01*
X122000706Y-96811014D01*
X122138599Y-96553034D01*
X122223513Y-96273111D01*
X122252185Y-95982000D01*
X122223513Y-95690889D01*
X122138599Y-95410966D01*
X122000706Y-95152986D01*
X121815134Y-94926866D01*
X121785313Y-94902393D01*
X121854180Y-94881502D01*
X121964494Y-94822537D01*
X122061185Y-94743185D01*
X122140537Y-94646494D01*
X122199502Y-94536180D01*
X122235812Y-94416482D01*
X122248072Y-94292000D01*
X122248072Y-93322875D01*
X122540485Y-93615288D01*
X122549010Y-93658145D01*
X122615723Y-93819205D01*
X122712576Y-93964155D01*
X122835845Y-94087424D01*
X122980795Y-94184277D01*
X123141855Y-94250990D01*
X123312835Y-94285000D01*
X123487165Y-94285000D01*
X123658145Y-94250990D01*
X123819205Y-94184277D01*
X123964155Y-94087424D01*
X124087424Y-93964155D01*
X124184277Y-93819205D01*
X124250990Y-93658145D01*
X124285000Y-93487165D01*
X124285000Y-93398445D01*
X124319205Y-93384277D01*
X124440000Y-93303564D01*
X124440000Y-96244462D01*
X124415723Y-96280795D01*
X124349010Y-96441855D01*
X124315000Y-96612835D01*
X124315000Y-96787165D01*
X124349010Y-96958145D01*
X124415723Y-97119205D01*
X124512576Y-97264155D01*
X124635845Y-97387424D01*
X124780795Y-97484277D01*
X124941855Y-97550990D01*
X125112835Y-97585000D01*
X125240000Y-97585000D01*
X125240000Y-99462678D01*
X125236324Y-99500000D01*
X125240000Y-99537322D01*
X125240000Y-99537332D01*
X125250997Y-99648985D01*
X125281947Y-99751014D01*
X125294454Y-99792246D01*
X125365026Y-99924276D01*
X125401941Y-99969256D01*
X125459999Y-100040001D01*
X125489003Y-100063804D01*
X130936201Y-105511003D01*
X130959999Y-105540001D01*
X130988997Y-105563799D01*
X131075724Y-105634974D01*
X131207753Y-105705546D01*
X131351014Y-105749003D01*
X131500000Y-105763677D01*
X131537333Y-105760000D01*
X146962678Y-105760000D01*
X147000000Y-105763676D01*
X147037322Y-105760000D01*
X147037333Y-105760000D01*
X147148986Y-105749003D01*
X147292247Y-105705546D01*
X147424276Y-105634974D01*
X147540001Y-105540001D01*
X147563804Y-105510997D01*
X155571003Y-97503799D01*
X155600001Y-97480001D01*
X155694974Y-97364276D01*
X155708334Y-97339281D01*
X155889014Y-97242706D01*
X156115134Y-97057134D01*
X156300706Y-96831014D01*
X156438599Y-96573034D01*
X156523513Y-96293111D01*
X156552185Y-96002000D01*
X156523513Y-95710889D01*
X156438599Y-95430966D01*
X156300706Y-95172986D01*
X156115134Y-94946866D01*
X156085313Y-94922393D01*
X156154180Y-94901502D01*
X156264494Y-94842537D01*
X156361185Y-94763185D01*
X156440537Y-94666494D01*
X156499502Y-94556180D01*
X156535812Y-94436482D01*
X156548072Y-94312000D01*
X156548072Y-92612000D01*
X156535812Y-92487518D01*
X156499502Y-92367820D01*
X156440537Y-92257506D01*
X156361185Y-92160815D01*
X156264494Y-92081463D01*
X156154180Y-92022498D01*
X156034482Y-91986188D01*
X155910000Y-91973928D01*
X155820000Y-91973928D01*
X155820000Y-82897322D01*
X155823676Y-82859999D01*
X155820000Y-82822676D01*
X155820000Y-82822667D01*
X155809003Y-82711014D01*
X155765546Y-82567753D01*
X155749286Y-82537333D01*
X155694974Y-82435723D01*
X155623799Y-82348997D01*
X155600001Y-82319999D01*
X155571003Y-82296201D01*
X152045804Y-78771003D01*
X152022001Y-78741999D01*
X151906276Y-78647026D01*
X151774247Y-78576454D01*
X151630986Y-78532997D01*
X151519333Y-78522000D01*
X151519322Y-78522000D01*
X151482000Y-78518324D01*
X151444678Y-78522000D01*
X150335507Y-78522000D01*
X150280466Y-78389118D01*
X150074175Y-78080382D01*
X149811618Y-77817825D01*
X149502882Y-77611534D01*
X149159834Y-77469439D01*
X148795656Y-77397000D01*
X148424344Y-77397000D01*
X148060166Y-77469439D01*
X147717118Y-77611534D01*
X147408382Y-77817825D01*
X147145825Y-78080382D01*
X147060000Y-78208828D01*
X147060000Y-75705172D01*
X147145825Y-75833618D01*
X147408382Y-76096175D01*
X147717118Y-76302466D01*
X148060166Y-76444561D01*
X148424344Y-76517000D01*
X148795656Y-76517000D01*
X149159834Y-76444561D01*
X149502882Y-76302466D01*
X149615000Y-76227551D01*
X149615000Y-76287165D01*
X149649010Y-76458145D01*
X149715723Y-76619205D01*
X149812576Y-76764155D01*
X149935845Y-76887424D01*
X150080795Y-76984277D01*
X150241855Y-77050990D01*
X150412835Y-77085000D01*
X150587165Y-77085000D01*
X150758145Y-77050990D01*
X150919205Y-76984277D01*
X151064155Y-76887424D01*
X151187424Y-76764155D01*
X151284277Y-76619205D01*
X151350990Y-76458145D01*
X151385000Y-76287165D01*
X151385000Y-76112835D01*
X151350990Y-75941855D01*
X151284277Y-75780795D01*
X151260000Y-75744462D01*
X151260000Y-71037322D01*
X151263676Y-70999999D01*
X151260000Y-70962676D01*
X151260000Y-70962667D01*
X151249003Y-70851014D01*
X151205546Y-70707753D01*
X151159710Y-70622001D01*
X151134974Y-70575723D01*
X151063799Y-70488997D01*
X151040001Y-70459999D01*
X151011003Y-70436201D01*
X150251263Y-69676462D01*
X150222561Y-69532166D01*
X150080466Y-69189118D01*
X149874175Y-68880382D01*
X149611618Y-68617825D01*
X149302882Y-68411534D01*
X148959834Y-68269439D01*
X148595656Y-68197000D01*
X148224344Y-68197000D01*
X147860166Y-68269439D01*
X147839498Y-68278000D01*
X148111618Y-68096175D01*
X148374175Y-67833618D01*
X148580466Y-67524882D01*
X148722561Y-67181834D01*
X148795000Y-66817656D01*
X148795000Y-66446344D01*
X148722561Y-66082166D01*
X148580466Y-65739118D01*
X148374175Y-65430382D01*
X148111618Y-65167825D01*
X147802882Y-64961534D01*
X147459834Y-64819439D01*
X147095656Y-64747000D01*
X146724344Y-64747000D01*
X146360166Y-64819439D01*
X146017118Y-64961534D01*
X145708382Y-65167825D01*
X145445825Y-65430382D01*
X145239534Y-65739118D01*
X145097439Y-66082166D01*
X145025000Y-66446344D01*
X145025000Y-66817656D01*
X145097439Y-67181834D01*
X145239534Y-67524882D01*
X145445825Y-67833618D01*
X145540001Y-67927794D01*
X145540001Y-72405230D01*
X145461626Y-72287934D01*
X145004066Y-71830374D01*
X144466031Y-71470871D01*
X143868199Y-71223240D01*
X143233544Y-71097000D01*
X142586456Y-71097000D01*
X142201162Y-71173639D01*
X143421004Y-69953798D01*
X143450001Y-69930001D01*
X143544974Y-69814276D01*
X143615546Y-69682247D01*
X143659003Y-69538986D01*
X143670000Y-69427333D01*
X143670000Y-69427332D01*
X143673677Y-69390000D01*
X143670000Y-69352667D01*
X143670000Y-67357507D01*
X143802882Y-67302466D01*
X144111618Y-67096175D01*
X144374175Y-66833618D01*
X144580466Y-66524882D01*
X144722561Y-66181834D01*
X144795000Y-65817656D01*
X144795000Y-65446344D01*
X144722561Y-65082166D01*
X144580466Y-64739118D01*
X144374175Y-64430382D01*
X144111618Y-64167825D01*
X143802882Y-63961534D01*
X143459834Y-63819439D01*
X143095656Y-63747000D01*
X142724344Y-63747000D01*
X142360166Y-63819439D01*
X142017118Y-63961534D01*
X141708382Y-64167825D01*
X141445825Y-64430382D01*
X141239534Y-64739118D01*
X141097439Y-65082166D01*
X141025000Y-65446344D01*
X141025000Y-65817656D01*
X141097439Y-66181834D01*
X141239534Y-66524882D01*
X141445825Y-66833618D01*
X141708382Y-67096175D01*
X142017118Y-67302466D01*
X142150001Y-67357508D01*
X142150000Y-69075198D01*
X138888998Y-72336201D01*
X138860000Y-72359999D01*
X138836202Y-72388997D01*
X138836201Y-72388998D01*
X138765026Y-72475724D01*
X138694454Y-72607754D01*
X138689018Y-72625676D01*
X138650998Y-72751014D01*
X138640067Y-72862000D01*
X138636324Y-72900000D01*
X138640001Y-72937332D01*
X138640001Y-73396208D01*
X138411618Y-73167825D01*
X138102882Y-72961534D01*
X137759834Y-72819439D01*
X137395656Y-72747000D01*
X137024344Y-72747000D01*
X136660166Y-72819439D01*
X136317118Y-72961534D01*
X136008382Y-73167825D01*
X135745825Y-73430382D01*
X135539534Y-73739118D01*
X135397439Y-74082166D01*
X135325000Y-74446344D01*
X135325000Y-74817656D01*
X135397439Y-75181834D01*
X135539534Y-75524882D01*
X135745825Y-75833618D01*
X136008382Y-76096175D01*
X136317118Y-76302466D01*
X136660166Y-76444561D01*
X137024344Y-76517000D01*
X137395656Y-76517000D01*
X137759834Y-76444561D01*
X138102882Y-76302466D01*
X138411618Y-76096175D01*
X138639441Y-75868352D01*
X138636324Y-75900000D01*
X138640000Y-75937322D01*
X138640000Y-75937332D01*
X138650997Y-76048985D01*
X138684672Y-76159999D01*
X138694454Y-76192246D01*
X138765026Y-76324276D01*
X138796817Y-76363013D01*
X138859999Y-76440001D01*
X138889003Y-76463804D01*
X140140001Y-77714803D01*
X140140000Y-81196207D01*
X140111618Y-81167825D01*
X139802882Y-80961534D01*
X139459834Y-80819439D01*
X139095656Y-80747000D01*
X138724344Y-80747000D01*
X138360166Y-80819439D01*
X138207056Y-80882859D01*
X138411618Y-80746175D01*
X138674175Y-80483618D01*
X138880466Y-80174882D01*
X139022561Y-79831834D01*
X139095000Y-79467656D01*
X139095000Y-79096344D01*
X139022561Y-78732166D01*
X138880466Y-78389118D01*
X138674175Y-78080382D01*
X138411618Y-77817825D01*
X138102882Y-77611534D01*
X137759834Y-77469439D01*
X137395656Y-77397000D01*
X137024344Y-77397000D01*
X136660166Y-77469439D01*
X136317118Y-77611534D01*
X136008382Y-77817825D01*
X135745825Y-78080382D01*
X135539534Y-78389118D01*
X135397439Y-78732166D01*
X135325000Y-79096344D01*
X135325000Y-79467656D01*
X135397439Y-79831834D01*
X135539534Y-80174882D01*
X135745825Y-80483618D01*
X136008382Y-80746175D01*
X136317118Y-80952466D01*
X136660166Y-81094561D01*
X137024344Y-81167000D01*
X137395656Y-81167000D01*
X137759834Y-81094561D01*
X137912944Y-81031141D01*
X137708382Y-81167825D01*
X137445825Y-81430382D01*
X137239534Y-81739118D01*
X137097439Y-82082166D01*
X137025000Y-82446344D01*
X137025000Y-82650198D01*
X134860000Y-80485199D01*
X134860000Y-67414801D01*
X134882801Y-67392000D01*
X137184493Y-67392000D01*
X137239534Y-67524882D01*
X137445825Y-67833618D01*
X137708382Y-68096175D01*
X137980502Y-68278000D01*
X137959834Y-68269439D01*
X137595656Y-68197000D01*
X137224344Y-68197000D01*
X136860166Y-68269439D01*
X136517118Y-68411534D01*
X136208382Y-68617825D01*
X135945825Y-68880382D01*
X135739534Y-69189118D01*
X135597439Y-69532166D01*
X135525000Y-69896344D01*
X135525000Y-70267656D01*
X135597439Y-70631834D01*
X135739534Y-70974882D01*
X135945825Y-71283618D01*
X136208382Y-71546175D01*
X136517118Y-71752466D01*
X136860166Y-71894561D01*
X137224344Y-71967000D01*
X137595656Y-71967000D01*
X137959834Y-71894561D01*
X138302882Y-71752466D01*
X138611618Y-71546175D01*
X138874175Y-71283618D01*
X139080466Y-70974882D01*
X139222561Y-70631834D01*
X139295000Y-70267656D01*
X139295000Y-69896344D01*
X139222561Y-69532166D01*
X139080466Y-69189118D01*
X138874175Y-68880382D01*
X138611618Y-68617825D01*
X138339498Y-68436000D01*
X138360166Y-68444561D01*
X138724344Y-68517000D01*
X139095656Y-68517000D01*
X139459834Y-68444561D01*
X139802882Y-68302466D01*
X140111618Y-68096175D01*
X140374175Y-67833618D01*
X140580466Y-67524882D01*
X140722561Y-67181834D01*
X140795000Y-66817656D01*
X140795000Y-66446344D01*
X140722561Y-66082166D01*
X140580466Y-65739118D01*
X140374175Y-65430382D01*
X140111618Y-65167825D01*
X139802882Y-64961534D01*
X139459834Y-64819439D01*
X139095656Y-64747000D01*
X138724344Y-64747000D01*
X138360166Y-64819439D01*
X138017118Y-64961534D01*
X137708382Y-65167825D01*
X137445825Y-65430382D01*
X137239534Y-65739118D01*
X137184493Y-65872000D01*
X134605323Y-65872000D01*
X134568000Y-65868324D01*
X134530677Y-65872000D01*
X134530667Y-65872000D01*
X134419014Y-65882997D01*
X134308535Y-65916510D01*
X134275753Y-65926454D01*
X134143723Y-65997026D01*
X134103870Y-66029733D01*
X134027999Y-66091999D01*
X134004196Y-66121003D01*
X133588998Y-66536201D01*
X133560000Y-66559999D01*
X133536202Y-66588997D01*
X133536201Y-66588998D01*
X133465026Y-66675724D01*
X133394454Y-66807754D01*
X133386609Y-66833618D01*
X133350998Y-66951014D01*
X133340630Y-67056277D01*
X133336324Y-67100000D01*
X133340001Y-67137332D01*
X133340001Y-69415000D01*
X133212835Y-69415000D01*
X133041855Y-69449010D01*
X132880795Y-69515723D01*
X132735845Y-69612576D01*
X132612576Y-69735845D01*
X132515723Y-69880795D01*
X132449010Y-70041855D01*
X132415000Y-70212835D01*
X132415000Y-70387165D01*
X132449010Y-70558145D01*
X132515723Y-70719205D01*
X132540001Y-70755539D01*
X132540001Y-73715000D01*
X132412835Y-73715000D01*
X132241855Y-73749010D01*
X132080795Y-73815723D01*
X131935845Y-73912576D01*
X131812576Y-74035845D01*
X131715723Y-74180795D01*
X131649010Y-74341855D01*
X131615000Y-74512835D01*
X131615000Y-74687165D01*
X131649010Y-74858145D01*
X131715723Y-75019205D01*
X131812576Y-75164155D01*
X131840001Y-75191580D01*
X131840000Y-81362677D01*
X131836324Y-81400000D01*
X131840000Y-81437322D01*
X131840000Y-81437332D01*
X131850997Y-81548985D01*
X131881947Y-81651014D01*
X131894454Y-81692246D01*
X131965026Y-81824276D01*
X131992868Y-81858201D01*
X132059999Y-81940001D01*
X132089003Y-81963804D01*
X134186810Y-84061611D01*
X134112576Y-84135845D01*
X134015723Y-84280795D01*
X133949010Y-84441855D01*
X133915000Y-84612835D01*
X133915000Y-84787165D01*
X133949010Y-84958145D01*
X133980000Y-85032962D01*
X133980001Y-92184405D01*
X133910986Y-92221294D01*
X133684866Y-92406866D01*
X133499294Y-92632986D01*
X133470000Y-92687791D01*
X133440706Y-92632986D01*
X133255134Y-92406866D01*
X133029014Y-92221294D01*
X132960000Y-92184405D01*
X132960000Y-86791579D01*
X132987424Y-86764155D01*
X133084277Y-86619205D01*
X133150990Y-86458145D01*
X133185000Y-86287165D01*
X133185000Y-86112835D01*
X133150990Y-85941855D01*
X133084277Y-85780795D01*
X132987424Y-85635845D01*
X132864155Y-85512576D01*
X132719205Y-85415723D01*
X132558145Y-85349010D01*
X132387165Y-85315000D01*
X132212835Y-85315000D01*
X132041855Y-85349010D01*
X131880795Y-85415723D01*
X131735845Y-85512576D01*
X131612576Y-85635845D01*
X131515723Y-85780795D01*
X131449010Y-85941855D01*
X131415000Y-86112835D01*
X131415000Y-86287165D01*
X131440000Y-86412849D01*
X131440001Y-92184405D01*
X131370986Y-92221294D01*
X131144866Y-92406866D01*
X130959294Y-92632986D01*
X130821401Y-92890966D01*
X130736487Y-93170889D01*
X130707815Y-93462000D01*
X130736487Y-93753111D01*
X130821401Y-94033034D01*
X130959294Y-94291014D01*
X131144866Y-94517134D01*
X131370986Y-94702706D01*
X131425791Y-94732000D01*
X131370986Y-94761294D01*
X131144866Y-94946866D01*
X130959294Y-95172986D01*
X130931912Y-95224214D01*
X130919205Y-95215723D01*
X130758145Y-95149010D01*
X130587165Y-95115000D01*
X130412835Y-95115000D01*
X130360000Y-95125510D01*
X130360000Y-65918070D01*
X130363676Y-65880747D01*
X130360000Y-65843424D01*
X130360000Y-65843415D01*
X130349003Y-65731762D01*
X130305546Y-65588501D01*
X130234974Y-65456472D01*
X130140001Y-65340747D01*
X130111003Y-65316949D01*
X126883056Y-62089003D01*
X126859253Y-62059999D01*
X126743528Y-61965026D01*
X126611499Y-61894454D01*
X126468238Y-61850997D01*
X126356585Y-61840000D01*
X126356574Y-61840000D01*
X126319252Y-61836324D01*
X126281930Y-61840000D01*
X116537333Y-61840000D01*
X116500000Y-61836323D01*
X116462667Y-61840000D01*
X116351014Y-61850997D01*
X116207753Y-61894454D01*
X116075724Y-61965026D01*
X115959999Y-62059999D01*
X115936201Y-62088997D01*
X114399003Y-63626196D01*
X114369999Y-63649999D01*
X114314871Y-63717174D01*
X114275026Y-63765724D01*
X114250824Y-63811003D01*
X114204454Y-63897754D01*
X114160997Y-64041015D01*
X114150000Y-64152668D01*
X114150000Y-64152678D01*
X114146324Y-64190000D01*
X114150000Y-64227323D01*
X114150000Y-64696492D01*
X114017118Y-64751534D01*
X113708382Y-64957825D01*
X113445825Y-65220382D01*
X113239534Y-65529118D01*
X113097439Y-65872166D01*
X113025000Y-66236344D01*
X113025000Y-66607656D01*
X113097439Y-66971834D01*
X113239534Y-67314882D01*
X113445825Y-67623618D01*
X113708382Y-67886175D01*
X113980502Y-68068000D01*
X113959834Y-68059439D01*
X113595656Y-67987000D01*
X113224344Y-67987000D01*
X112860166Y-68059439D01*
X112517118Y-68201534D01*
X112208382Y-68407825D01*
X111945825Y-68670382D01*
X111739534Y-68979118D01*
X111597439Y-69322166D01*
X111525000Y-69686344D01*
X111525000Y-70057656D01*
X111597439Y-70421834D01*
X111739534Y-70764882D01*
X111945825Y-71073618D01*
X112208382Y-71336175D01*
X112517118Y-71542466D01*
X112860166Y-71684561D01*
X113224344Y-71757000D01*
X113595656Y-71757000D01*
X113959834Y-71684561D01*
X114092717Y-71629519D01*
X114640001Y-72176803D01*
X114640001Y-73186208D01*
X114411618Y-72957825D01*
X114102882Y-72751534D01*
X113759834Y-72609439D01*
X113395656Y-72537000D01*
X113024344Y-72537000D01*
X112660166Y-72609439D01*
X112317118Y-72751534D01*
X112008382Y-72957825D01*
X111745825Y-73220382D01*
X111539534Y-73529118D01*
X111472885Y-73690023D01*
X111385753Y-73716454D01*
X111253724Y-73787026D01*
X111137999Y-73881999D01*
X111114201Y-73910997D01*
X110188998Y-74836201D01*
X110160000Y-74859999D01*
X110136202Y-74888997D01*
X110136201Y-74888998D01*
X110065026Y-74975724D01*
X109994454Y-75107754D01*
X109971983Y-75181834D01*
X109950998Y-75251014D01*
X109944696Y-75315000D01*
X109936324Y-75400000D01*
X109940001Y-75437332D01*
X109940000Y-82462677D01*
X109936324Y-82500000D01*
X109940000Y-82537322D01*
X109940000Y-82537332D01*
X109950997Y-82648985D01*
X109972298Y-82719205D01*
X109994454Y-82792246D01*
X110065026Y-82924276D01*
X110104056Y-82971834D01*
X110159999Y-83040001D01*
X110189003Y-83063804D01*
X112665198Y-85540000D01*
X103914802Y-85540000D01*
X101084874Y-82710072D01*
X102810000Y-82710072D01*
X102934482Y-82697812D01*
X103054180Y-82661502D01*
X103164494Y-82602537D01*
X103261185Y-82523185D01*
X103340537Y-82426494D01*
X103399502Y-82316180D01*
X103435812Y-82196482D01*
X103448072Y-82072000D01*
X103448072Y-80272000D01*
X103435812Y-80147518D01*
X103399502Y-80027820D01*
X103340537Y-79917506D01*
X103261185Y-79820815D01*
X103164494Y-79741463D01*
X103054180Y-79682498D01*
X103035873Y-79676944D01*
X103102312Y-79610505D01*
X103270299Y-79359095D01*
X103386011Y-79079743D01*
X103445000Y-78783184D01*
X103445000Y-78480816D01*
X103386011Y-78184257D01*
X103270299Y-77904905D01*
X103102312Y-77653495D01*
X102888505Y-77439688D01*
X102637095Y-77271701D01*
X102357743Y-77155989D01*
X102061184Y-77097000D01*
X101758816Y-77097000D01*
X101462257Y-77155989D01*
X101182905Y-77271701D01*
X100931495Y-77439688D01*
X100717688Y-77653495D01*
X100549701Y-77904905D01*
X100433989Y-78184257D01*
X100375000Y-78480816D01*
X100375000Y-78783184D01*
X100433989Y-79079743D01*
X100549701Y-79359095D01*
X100717688Y-79610505D01*
X100784127Y-79676944D01*
X100765820Y-79682498D01*
X100655506Y-79741463D01*
X100558815Y-79820815D01*
X100479463Y-79917506D01*
X100420498Y-80027820D01*
X100384188Y-80147518D01*
X100371928Y-80272000D01*
X100371928Y-81997127D01*
X96935804Y-78561003D01*
X96912001Y-78531999D01*
X96796276Y-78437026D01*
X96664247Y-78366454D01*
X96520986Y-78322997D01*
X96409333Y-78312000D01*
X96409322Y-78312000D01*
X96372000Y-78308324D01*
X96334678Y-78312000D01*
X90335507Y-78312000D01*
X90280466Y-78179118D01*
X90074175Y-77870382D01*
X89811618Y-77607825D01*
X89502882Y-77401534D01*
X89159834Y-77259439D01*
X88795656Y-77187000D01*
X88424344Y-77187000D01*
X88060166Y-77259439D01*
X87717118Y-77401534D01*
X87408382Y-77607825D01*
X87145825Y-77870382D01*
X86939534Y-78179118D01*
X86797439Y-78522166D01*
X86725000Y-78886344D01*
X86725000Y-79257656D01*
X86797439Y-79621834D01*
X86939534Y-79964882D01*
X87145825Y-80273618D01*
X87408382Y-80536175D01*
X87612944Y-80672859D01*
X87459834Y-80609439D01*
X87095656Y-80537000D01*
X86724344Y-80537000D01*
X86360166Y-80609439D01*
X86017118Y-80751534D01*
X85708382Y-80957825D01*
X85445825Y-81220382D01*
X85342886Y-81374440D01*
X85290001Y-81309999D01*
X85261003Y-81286201D01*
X79000323Y-75025522D01*
X79022561Y-74971834D01*
X79095000Y-74607656D01*
X79095000Y-74236344D01*
X79022561Y-73872166D01*
X79012741Y-73848456D01*
X79625000Y-73848456D01*
X79625000Y-74495544D01*
X79751240Y-75130199D01*
X79998871Y-75728031D01*
X80358374Y-76266066D01*
X80815934Y-76723626D01*
X81353969Y-77083129D01*
X81951801Y-77330760D01*
X82586456Y-77457000D01*
X83233544Y-77457000D01*
X83868199Y-77330760D01*
X84466031Y-77083129D01*
X85004066Y-76723626D01*
X85461626Y-76266066D01*
X85821129Y-75728031D01*
X86068760Y-75130199D01*
X86195000Y-74495544D01*
X86195000Y-74236344D01*
X86725000Y-74236344D01*
X86725000Y-74607656D01*
X86797439Y-74971834D01*
X86939534Y-75314882D01*
X87145825Y-75623618D01*
X87408382Y-75886175D01*
X87717118Y-76092466D01*
X88060166Y-76234561D01*
X88424344Y-76307000D01*
X88795656Y-76307000D01*
X89159834Y-76234561D01*
X89502882Y-76092466D01*
X89811618Y-75886175D01*
X90074175Y-75623618D01*
X90280466Y-75314882D01*
X90422561Y-74971834D01*
X90495000Y-74607656D01*
X90495000Y-74236344D01*
X90422561Y-73872166D01*
X90280466Y-73529118D01*
X90074175Y-73220382D01*
X89811618Y-72957825D01*
X89502882Y-72751534D01*
X89159834Y-72609439D01*
X88795656Y-72537000D01*
X88424344Y-72537000D01*
X88060166Y-72609439D01*
X87717118Y-72751534D01*
X87408382Y-72957825D01*
X87145825Y-73220382D01*
X86939534Y-73529118D01*
X86797439Y-73872166D01*
X86725000Y-74236344D01*
X86195000Y-74236344D01*
X86195000Y-73848456D01*
X86068760Y-73213801D01*
X85821129Y-72615969D01*
X85461626Y-72077934D01*
X85004066Y-71620374D01*
X84466031Y-71260871D01*
X83868199Y-71013240D01*
X83233544Y-70887000D01*
X82586456Y-70887000D01*
X81951801Y-71013240D01*
X81353969Y-71260871D01*
X80815934Y-71620374D01*
X80358374Y-72077934D01*
X79998871Y-72615969D01*
X79751240Y-73213801D01*
X79625000Y-73848456D01*
X79012741Y-73848456D01*
X78880466Y-73529118D01*
X78674175Y-73220382D01*
X78411618Y-72957825D01*
X78102882Y-72751534D01*
X77759834Y-72609439D01*
X77395656Y-72537000D01*
X77024344Y-72537000D01*
X76660166Y-72609439D01*
X76317118Y-72751534D01*
X76008382Y-72957825D01*
X75745825Y-73220382D01*
X75539534Y-73529118D01*
X75397439Y-73872166D01*
X75325000Y-74236344D01*
X75325000Y-74607656D01*
X75397439Y-74971834D01*
X75539534Y-75314882D01*
X75745825Y-75623618D01*
X76008382Y-75886175D01*
X76317118Y-76092466D01*
X76660166Y-76234561D01*
X77024344Y-76307000D01*
X77395656Y-76307000D01*
X77759834Y-76234561D01*
X77971914Y-76146715D01*
X80223123Y-78397924D01*
X80164247Y-78366454D01*
X80020986Y-78322997D01*
X79909333Y-78312000D01*
X79909322Y-78312000D01*
X79872000Y-78308324D01*
X79834678Y-78312000D01*
X78935507Y-78312000D01*
X78880466Y-78179118D01*
X78674175Y-77870382D01*
X78411618Y-77607825D01*
X78102882Y-77401534D01*
X77759834Y-77259439D01*
X77395656Y-77187000D01*
X77024344Y-77187000D01*
X76660166Y-77259439D01*
X76317118Y-77401534D01*
X76008382Y-77607825D01*
X75745825Y-77870382D01*
X75539534Y-78179118D01*
X75397439Y-78522166D01*
X75325000Y-78886344D01*
X75325000Y-79257656D01*
X75397439Y-79621834D01*
X75539534Y-79964882D01*
X75745825Y-80273618D01*
X76008382Y-80536175D01*
X76317118Y-80742466D01*
X76660166Y-80884561D01*
X77024344Y-80957000D01*
X77395656Y-80957000D01*
X77759834Y-80884561D01*
X77912944Y-80821141D01*
X77708382Y-80957825D01*
X77445825Y-81220382D01*
X77239534Y-81529118D01*
X77097439Y-81872166D01*
X77025000Y-82236344D01*
X77025000Y-82607656D01*
X77097439Y-82971834D01*
X77239534Y-83314882D01*
X77445825Y-83623618D01*
X77708382Y-83886175D01*
X78017118Y-84092466D01*
X78150018Y-84147515D01*
X78160997Y-84258985D01*
X78184420Y-84336201D01*
X78204454Y-84402246D01*
X78275026Y-84534276D01*
X78300144Y-84564882D01*
X78369999Y-84650001D01*
X78399003Y-84673804D01*
X79965198Y-86240000D01*
X79114803Y-86240000D01*
X77263804Y-84389002D01*
X77240001Y-84359999D01*
X77124276Y-84265026D01*
X76992247Y-84194454D01*
X76848986Y-84150997D01*
X76737333Y-84140000D01*
X76737322Y-84140000D01*
X76700000Y-84136324D01*
X76662678Y-84140000D01*
X68914802Y-84140000D01*
X65511505Y-80736704D01*
X65811618Y-80536175D01*
X66074175Y-80273618D01*
X66280466Y-79964882D01*
X66422561Y-79621834D01*
X66495000Y-79257656D01*
X66495000Y-78886344D01*
X66422561Y-78522166D01*
X66280466Y-78179118D01*
X66074175Y-77870382D01*
X65811618Y-77607825D01*
X65590382Y-77460000D01*
X66062678Y-77460000D01*
X66100000Y-77463676D01*
X66137322Y-77460000D01*
X66137333Y-77460000D01*
X66248986Y-77449003D01*
X66392247Y-77405546D01*
X66524276Y-77334974D01*
X66640001Y-77240001D01*
X66663803Y-77210998D01*
X67511004Y-76363798D01*
X67540001Y-76340001D01*
X67634974Y-76224276D01*
X67705546Y-76092247D01*
X67749003Y-75948986D01*
X67760000Y-75837333D01*
X67760000Y-75837324D01*
X67763676Y-75800001D01*
X67760000Y-75762678D01*
X67760000Y-72499322D01*
X67763676Y-72461999D01*
X67760000Y-72424676D01*
X67760000Y-72424667D01*
X67749003Y-72313014D01*
X67705546Y-72169753D01*
X67675209Y-72112997D01*
X67634974Y-72037723D01*
X67563799Y-71950997D01*
X67540001Y-71921999D01*
X67511003Y-71898201D01*
X66167519Y-70554717D01*
X66222561Y-70421834D01*
X66295000Y-70057656D01*
X66295000Y-69686344D01*
X66222561Y-69322166D01*
X66080466Y-68979118D01*
X65874175Y-68670382D01*
X65611618Y-68407825D01*
X65302882Y-68201534D01*
X64959834Y-68059439D01*
X64595656Y-67987000D01*
X64224344Y-67987000D01*
X63860166Y-68059439D01*
X63839498Y-68068000D01*
X64111618Y-67886175D01*
X64374175Y-67623618D01*
X64580466Y-67314882D01*
X64722561Y-66971834D01*
X64795000Y-66607656D01*
X64795000Y-66236344D01*
X64722561Y-65872166D01*
X64580466Y-65529118D01*
X64374175Y-65220382D01*
X64111618Y-64957825D01*
X63802882Y-64751534D01*
X63459834Y-64609439D01*
X63095656Y-64537000D01*
X62724344Y-64537000D01*
X62360166Y-64609439D01*
X62017118Y-64751534D01*
X61708382Y-64957825D01*
X61445825Y-65220382D01*
X61239534Y-65529118D01*
X61097439Y-65872166D01*
X61025000Y-66236344D01*
X61025000Y-66607656D01*
X61097439Y-66971834D01*
X61239534Y-67314882D01*
X61445825Y-67623618D01*
X61708382Y-67886175D01*
X62017118Y-68092466D01*
X62360166Y-68234561D01*
X62724344Y-68307000D01*
X63095656Y-68307000D01*
X63459834Y-68234561D01*
X63480502Y-68226000D01*
X63208382Y-68407825D01*
X62945825Y-68670382D01*
X62739534Y-68979118D01*
X62597439Y-69322166D01*
X62525000Y-69686344D01*
X62525000Y-70057656D01*
X62597439Y-70421834D01*
X62739534Y-70764882D01*
X62945825Y-71073618D01*
X63208382Y-71336175D01*
X63517118Y-71542466D01*
X63860166Y-71684561D01*
X64224344Y-71757000D01*
X64595656Y-71757000D01*
X64959834Y-71684561D01*
X65092717Y-71629519D01*
X66240001Y-72776803D01*
X66240001Y-73468557D01*
X66074175Y-73220382D01*
X65811618Y-72957825D01*
X65502882Y-72751534D01*
X65159834Y-72609439D01*
X64795656Y-72537000D01*
X64424344Y-72537000D01*
X64060166Y-72609439D01*
X63717118Y-72751534D01*
X63408382Y-72957825D01*
X63145825Y-73220382D01*
X62939534Y-73529118D01*
X62797439Y-73872166D01*
X62725000Y-74236344D01*
X62725000Y-74607656D01*
X62797439Y-74971834D01*
X62939534Y-75314882D01*
X62967885Y-75357313D01*
X56643618Y-81681581D01*
X56580466Y-81529118D01*
X56374175Y-81220382D01*
X56111618Y-80957825D01*
X55802882Y-80751534D01*
X55459834Y-80609439D01*
X55095656Y-80537000D01*
X54724344Y-80537000D01*
X54360166Y-80609439D01*
X54207056Y-80672859D01*
X54411618Y-80536175D01*
X54674175Y-80273618D01*
X54880466Y-79964882D01*
X55022561Y-79621834D01*
X55095000Y-79257656D01*
X55095000Y-78886344D01*
X55022561Y-78522166D01*
X54880466Y-78179118D01*
X54674175Y-77870382D01*
X54411618Y-77607825D01*
X54102882Y-77401534D01*
X53759834Y-77259439D01*
X53395656Y-77187000D01*
X53024344Y-77187000D01*
X52660166Y-77259439D01*
X52317118Y-77401534D01*
X52008382Y-77607825D01*
X51745825Y-77870382D01*
X51539534Y-78179118D01*
X51460000Y-78371130D01*
X51460000Y-75514801D01*
X51587754Y-75387048D01*
X51745825Y-75623618D01*
X52008382Y-75886175D01*
X52317118Y-76092466D01*
X52660166Y-76234561D01*
X53024344Y-76307000D01*
X53395656Y-76307000D01*
X53759834Y-76234561D01*
X54102882Y-76092466D01*
X54411618Y-75886175D01*
X54674175Y-75623618D01*
X54880466Y-75314882D01*
X55022561Y-74971834D01*
X55095000Y-74607656D01*
X55095000Y-74236344D01*
X55022561Y-73872166D01*
X55012741Y-73848456D01*
X55625000Y-73848456D01*
X55625000Y-74495544D01*
X55751240Y-75130199D01*
X55998871Y-75728031D01*
X56358374Y-76266066D01*
X56815934Y-76723626D01*
X57353969Y-77083129D01*
X57951801Y-77330760D01*
X58586456Y-77457000D01*
X59233544Y-77457000D01*
X59868199Y-77330760D01*
X60466031Y-77083129D01*
X61004066Y-76723626D01*
X61461626Y-76266066D01*
X61821129Y-75728031D01*
X62068760Y-75130199D01*
X62195000Y-74495544D01*
X62195000Y-73848456D01*
X62068760Y-73213801D01*
X61821129Y-72615969D01*
X61461626Y-72077934D01*
X61004066Y-71620374D01*
X60466031Y-71260871D01*
X59868199Y-71013240D01*
X59233544Y-70887000D01*
X58586456Y-70887000D01*
X57951801Y-71013240D01*
X57353969Y-71260871D01*
X56815934Y-71620374D01*
X56358374Y-72077934D01*
X55998871Y-72615969D01*
X55751240Y-73213801D01*
X55625000Y-73848456D01*
X55012741Y-73848456D01*
X54880466Y-73529118D01*
X54674175Y-73220382D01*
X54411618Y-72957825D01*
X54102882Y-72751534D01*
X53759834Y-72609439D01*
X53395656Y-72537000D01*
X53024344Y-72537000D01*
X52660166Y-72609439D01*
X52317118Y-72751534D01*
X52008382Y-72957825D01*
X51745825Y-73220382D01*
X51539534Y-73529118D01*
X51485701Y-73659083D01*
X51477999Y-73658324D01*
X51440676Y-73662000D01*
X51440667Y-73662000D01*
X51329014Y-73672997D01*
X51190546Y-73715000D01*
X51185753Y-73716454D01*
X51053723Y-73787026D01*
X50993654Y-73836324D01*
X50937999Y-73881999D01*
X50914201Y-73910998D01*
X50760000Y-74065198D01*
X50760000Y-71214801D01*
X51342802Y-70632000D01*
X51684493Y-70632000D01*
X51739534Y-70764882D01*
X51945825Y-71073618D01*
X52208382Y-71336175D01*
X52517118Y-71542466D01*
X52860166Y-71684561D01*
X53224344Y-71757000D01*
X53595656Y-71757000D01*
X53959834Y-71684561D01*
X54302882Y-71542466D01*
X54611618Y-71336175D01*
X54874175Y-71073618D01*
X55080466Y-70764882D01*
X55222561Y-70421834D01*
X55295000Y-70057656D01*
X55295000Y-69686344D01*
X55222561Y-69322166D01*
X55080466Y-68979118D01*
X54874175Y-68670382D01*
X54611618Y-68407825D01*
X54339498Y-68226000D01*
X54360166Y-68234561D01*
X54724344Y-68307000D01*
X55095656Y-68307000D01*
X55459834Y-68234561D01*
X55802882Y-68092466D01*
X56111618Y-67886175D01*
X56374175Y-67623618D01*
X56580466Y-67314882D01*
X56722561Y-66971834D01*
X56795000Y-66607656D01*
X56795000Y-66236344D01*
X56722561Y-65872166D01*
X56580466Y-65529118D01*
X56384841Y-65236344D01*
X57025000Y-65236344D01*
X57025000Y-65607656D01*
X57097439Y-65971834D01*
X57239534Y-66314882D01*
X57445825Y-66623618D01*
X57708382Y-66886175D01*
X58017118Y-67092466D01*
X58360166Y-67234561D01*
X58724344Y-67307000D01*
X59095656Y-67307000D01*
X59459834Y-67234561D01*
X59802882Y-67092466D01*
X60111618Y-66886175D01*
X60374175Y-66623618D01*
X60580466Y-66314882D01*
X60722561Y-65971834D01*
X60795000Y-65607656D01*
X60795000Y-65236344D01*
X60722561Y-64872166D01*
X60667519Y-64739283D01*
X61246802Y-64160000D01*
X66585199Y-64160000D01*
X69640001Y-67214804D01*
X69640000Y-82644462D01*
X69615723Y-82680795D01*
X69549010Y-82841855D01*
X69515000Y-83012835D01*
X69515000Y-83187165D01*
X69549010Y-83358145D01*
X69615723Y-83519205D01*
X69712576Y-83664155D01*
X69835845Y-83787424D01*
X69980795Y-83884277D01*
X70141855Y-83950990D01*
X70312835Y-83985000D01*
X70487165Y-83985000D01*
X70658145Y-83950990D01*
X70819205Y-83884277D01*
X70964155Y-83787424D01*
X71087424Y-83664155D01*
X71184277Y-83519205D01*
X71250990Y-83358145D01*
X71285000Y-83187165D01*
X71285000Y-83012835D01*
X71250990Y-82841855D01*
X71184277Y-82680795D01*
X71160000Y-82644462D01*
X71160000Y-80646247D01*
X71170589Y-80666058D01*
X71198301Y-80699825D01*
X71222576Y-80736155D01*
X71253472Y-80767051D01*
X71281183Y-80800817D01*
X71314951Y-80828530D01*
X71345845Y-80859424D01*
X71382171Y-80883696D01*
X71415941Y-80911411D01*
X71454467Y-80932004D01*
X71490795Y-80956277D01*
X71531165Y-80972999D01*
X71569687Y-80993589D01*
X71611487Y-81006269D01*
X71651855Y-81022990D01*
X71694705Y-81031513D01*
X71736510Y-81044195D01*
X71779987Y-81048477D01*
X71822835Y-81057000D01*
X71866523Y-81057000D01*
X71910000Y-81061282D01*
X71953476Y-81057000D01*
X71997165Y-81057000D01*
X72040013Y-81048477D01*
X72083489Y-81044195D01*
X72125292Y-81031514D01*
X72168145Y-81022990D01*
X72208516Y-81006268D01*
X72250312Y-80993589D01*
X72288831Y-80973000D01*
X72329205Y-80956277D01*
X72365537Y-80932001D01*
X72404058Y-80911411D01*
X72437825Y-80883699D01*
X72474155Y-80859424D01*
X72505051Y-80828528D01*
X72538817Y-80800817D01*
X72566530Y-80767049D01*
X72597424Y-80736155D01*
X72621696Y-80699829D01*
X72649411Y-80666059D01*
X72670004Y-80627533D01*
X72694277Y-80591205D01*
X72710999Y-80550835D01*
X72731589Y-80512313D01*
X72744269Y-80470513D01*
X72760990Y-80430145D01*
X72769513Y-80387295D01*
X72782195Y-80345490D01*
X72786477Y-80302013D01*
X72795000Y-80259165D01*
X72795000Y-69686344D01*
X75525000Y-69686344D01*
X75525000Y-70057656D01*
X75597439Y-70421834D01*
X75739534Y-70764882D01*
X75945825Y-71073618D01*
X76208382Y-71336175D01*
X76517118Y-71542466D01*
X76860166Y-71684561D01*
X77224344Y-71757000D01*
X77595656Y-71757000D01*
X77959834Y-71684561D01*
X78302882Y-71542466D01*
X78611618Y-71336175D01*
X78874175Y-71073618D01*
X79080466Y-70764882D01*
X79222561Y-70421834D01*
X79295000Y-70057656D01*
X79295000Y-69686344D01*
X79222561Y-69322166D01*
X79080466Y-68979118D01*
X78874175Y-68670382D01*
X78611618Y-68407825D01*
X78339498Y-68226000D01*
X78360166Y-68234561D01*
X78724344Y-68307000D01*
X79095656Y-68307000D01*
X79459834Y-68234561D01*
X79802882Y-68092466D01*
X80111618Y-67886175D01*
X80374175Y-67623618D01*
X80580466Y-67314882D01*
X80722561Y-66971834D01*
X80795000Y-66607656D01*
X80795000Y-66236344D01*
X80722561Y-65872166D01*
X80580466Y-65529118D01*
X80384841Y-65236344D01*
X81025000Y-65236344D01*
X81025000Y-65607656D01*
X81097439Y-65971834D01*
X81239534Y-66314882D01*
X81445825Y-66623618D01*
X81708382Y-66886175D01*
X82017118Y-67092466D01*
X82360166Y-67234561D01*
X82724344Y-67307000D01*
X83095656Y-67307000D01*
X83459834Y-67234561D01*
X83802882Y-67092466D01*
X84111618Y-66886175D01*
X84374175Y-66623618D01*
X84580466Y-66314882D01*
X84612997Y-66236344D01*
X85025000Y-66236344D01*
X85025000Y-66607656D01*
X85097439Y-66971834D01*
X85239534Y-67314882D01*
X85445825Y-67623618D01*
X85708382Y-67886175D01*
X86017118Y-68092466D01*
X86360166Y-68234561D01*
X86724344Y-68307000D01*
X87095656Y-68307000D01*
X87459834Y-68234561D01*
X87480502Y-68226000D01*
X87208382Y-68407825D01*
X86945825Y-68670382D01*
X86739534Y-68979118D01*
X86597439Y-69322166D01*
X86525000Y-69686344D01*
X86525000Y-70057656D01*
X86597439Y-70421834D01*
X86739534Y-70764882D01*
X86945825Y-71073618D01*
X87208382Y-71336175D01*
X87517118Y-71542466D01*
X87860166Y-71684561D01*
X88224344Y-71757000D01*
X88595656Y-71757000D01*
X88959834Y-71684561D01*
X89302882Y-71542466D01*
X89611618Y-71336175D01*
X89874175Y-71073618D01*
X90080466Y-70764882D01*
X90222561Y-70421834D01*
X90295000Y-70057656D01*
X90295000Y-69686344D01*
X90222561Y-69322166D01*
X90201782Y-69272000D01*
X100371928Y-69272000D01*
X100371928Y-71072000D01*
X100384188Y-71196482D01*
X100420498Y-71316180D01*
X100479463Y-71426494D01*
X100558815Y-71523185D01*
X100655506Y-71602537D01*
X100765820Y-71661502D01*
X100885518Y-71697812D01*
X101010000Y-71710072D01*
X102810000Y-71710072D01*
X102934482Y-71697812D01*
X103054180Y-71661502D01*
X103164494Y-71602537D01*
X103261185Y-71523185D01*
X103340537Y-71426494D01*
X103399502Y-71316180D01*
X103435812Y-71196482D01*
X103448072Y-71072000D01*
X103448072Y-69272000D01*
X103435812Y-69147518D01*
X103399502Y-69027820D01*
X103340537Y-68917506D01*
X103261185Y-68820815D01*
X103164494Y-68741463D01*
X103054180Y-68682498D01*
X103035873Y-68676944D01*
X103102312Y-68610505D01*
X103270299Y-68359095D01*
X103386011Y-68079743D01*
X103445000Y-67783184D01*
X103445000Y-67480816D01*
X103386011Y-67184257D01*
X103270299Y-66904905D01*
X103102312Y-66653495D01*
X102888505Y-66439688D01*
X102637095Y-66271701D01*
X102357743Y-66155989D01*
X102061184Y-66097000D01*
X101758816Y-66097000D01*
X101462257Y-66155989D01*
X101182905Y-66271701D01*
X100931495Y-66439688D01*
X100717688Y-66653495D01*
X100549701Y-66904905D01*
X100433989Y-67184257D01*
X100375000Y-67480816D01*
X100375000Y-67783184D01*
X100433989Y-68079743D01*
X100549701Y-68359095D01*
X100717688Y-68610505D01*
X100784127Y-68676944D01*
X100765820Y-68682498D01*
X100655506Y-68741463D01*
X100558815Y-68820815D01*
X100479463Y-68917506D01*
X100420498Y-69027820D01*
X100384188Y-69147518D01*
X100371928Y-69272000D01*
X90201782Y-69272000D01*
X90080466Y-68979118D01*
X89874175Y-68670382D01*
X89611618Y-68407825D01*
X89302882Y-68201534D01*
X88959834Y-68059439D01*
X88595656Y-67987000D01*
X88224344Y-67987000D01*
X87860166Y-68059439D01*
X87839498Y-68068000D01*
X88111618Y-67886175D01*
X88374175Y-67623618D01*
X88580466Y-67314882D01*
X88722561Y-66971834D01*
X88795000Y-66607656D01*
X88795000Y-66236344D01*
X88722561Y-65872166D01*
X88580466Y-65529118D01*
X88374175Y-65220382D01*
X88111618Y-64957825D01*
X87802882Y-64751534D01*
X87459834Y-64609439D01*
X87095656Y-64537000D01*
X86724344Y-64537000D01*
X86360166Y-64609439D01*
X86017118Y-64751534D01*
X85708382Y-64957825D01*
X85445825Y-65220382D01*
X85239534Y-65529118D01*
X85097439Y-65872166D01*
X85025000Y-66236344D01*
X84612997Y-66236344D01*
X84722561Y-65971834D01*
X84795000Y-65607656D01*
X84795000Y-65236344D01*
X84722561Y-64872166D01*
X84580466Y-64529118D01*
X84374175Y-64220382D01*
X84111618Y-63957825D01*
X83802882Y-63751534D01*
X83459834Y-63609439D01*
X83095656Y-63537000D01*
X82724344Y-63537000D01*
X82360166Y-63609439D01*
X82017118Y-63751534D01*
X81708382Y-63957825D01*
X81445825Y-64220382D01*
X81239534Y-64529118D01*
X81097439Y-64872166D01*
X81025000Y-65236344D01*
X80384841Y-65236344D01*
X80374175Y-65220382D01*
X80111618Y-64957825D01*
X79802882Y-64751534D01*
X79459834Y-64609439D01*
X79095656Y-64537000D01*
X78724344Y-64537000D01*
X78360166Y-64609439D01*
X78017118Y-64751534D01*
X77708382Y-64957825D01*
X77445825Y-65220382D01*
X77239534Y-65529118D01*
X77097439Y-65872166D01*
X77025000Y-66236344D01*
X77025000Y-66607656D01*
X77097439Y-66971834D01*
X77239534Y-67314882D01*
X77445825Y-67623618D01*
X77708382Y-67886175D01*
X77980502Y-68068000D01*
X77959834Y-68059439D01*
X77595656Y-67987000D01*
X77224344Y-67987000D01*
X76860166Y-68059439D01*
X76517118Y-68201534D01*
X76208382Y-68407825D01*
X75945825Y-68670382D01*
X75739534Y-68979118D01*
X75597439Y-69322166D01*
X75525000Y-69686344D01*
X72795000Y-69686344D01*
X72795000Y-66456578D01*
X77566579Y-61685000D01*
X96483422Y-61685000D01*
X98562576Y-63764155D01*
X98685845Y-63887424D01*
X98722170Y-63911696D01*
X98755941Y-63939411D01*
X98794468Y-63960004D01*
X98830795Y-63984277D01*
X98871161Y-64000997D01*
X98909686Y-64021589D01*
X98951489Y-64034270D01*
X98991855Y-64050990D01*
X99034704Y-64059513D01*
X99076510Y-64072195D01*
X99119985Y-64076477D01*
X99162835Y-64085000D01*
X99206531Y-64085000D01*
X99250000Y-64089281D01*
X99293469Y-64085000D01*
X99337165Y-64085000D01*
X99380015Y-64076477D01*
X99423490Y-64072195D01*
X99465295Y-64059513D01*
X99508145Y-64050990D01*
X99548513Y-64034269D01*
X99590313Y-64021589D01*
X99628835Y-64000999D01*
X99669205Y-63984277D01*
X99705533Y-63960004D01*
X99744059Y-63939411D01*
X99777829Y-63911696D01*
X99814155Y-63887424D01*
X99845049Y-63856530D01*
X99878817Y-63828817D01*
X99906530Y-63795049D01*
X99937424Y-63764155D01*
X99961696Y-63727829D01*
X99989411Y-63694059D01*
X100010004Y-63655533D01*
X100034277Y-63619205D01*
X100050999Y-63578835D01*
X100071589Y-63540313D01*
X100084269Y-63498513D01*
X100100990Y-63458145D01*
X100109513Y-63415295D01*
X100122195Y-63373490D01*
X100126477Y-63330015D01*
X100135000Y-63287165D01*
X100135000Y-63243469D01*
X100139281Y-63200000D01*
X100135000Y-63156531D01*
X100135000Y-63112835D01*
X100126477Y-63069985D01*
X100122195Y-63026510D01*
X100109513Y-62984704D01*
X100100990Y-62941855D01*
X100084270Y-62901489D01*
X100071589Y-62859686D01*
X100050997Y-62821161D01*
X100034277Y-62780795D01*
X100010004Y-62744468D01*
X99989411Y-62705941D01*
X99961696Y-62672170D01*
X99937424Y-62635845D01*
X99814155Y-62512576D01*
X97506534Y-60204956D01*
X97478817Y-60171183D01*
X97344059Y-60060589D01*
X97190313Y-59978411D01*
X97023490Y-59927805D01*
X96893477Y-59915000D01*
X96893469Y-59915000D01*
X96850000Y-59910719D01*
X96806531Y-59915000D01*
X77243469Y-59915000D01*
X77200000Y-59910719D01*
X77156531Y-59915000D01*
X77156523Y-59915000D01*
X77026510Y-59927805D01*
X76859687Y-59978411D01*
X76705941Y-60060589D01*
X76604953Y-60143468D01*
X76604951Y-60143470D01*
X76571183Y-60171183D01*
X76543470Y-60204951D01*
X71314952Y-65433470D01*
X71281184Y-65461183D01*
X71253471Y-65494951D01*
X71253468Y-65494954D01*
X71170590Y-65595941D01*
X71088412Y-65749687D01*
X71037805Y-65916510D01*
X71020719Y-66090000D01*
X71025001Y-66133479D01*
X71025001Y-66463572D01*
X71021522Y-66459333D01*
X70963799Y-66388996D01*
X70963795Y-66388992D01*
X70940001Y-66359999D01*
X70911008Y-66336205D01*
X67463804Y-62889003D01*
X67440001Y-62859999D01*
X67324276Y-62765026D01*
X67192247Y-62694454D01*
X67048986Y-62650997D01*
X66937333Y-62640000D01*
X66937322Y-62640000D01*
X66900000Y-62636324D01*
X66862678Y-62640000D01*
X60969323Y-62640000D01*
X60932000Y-62636324D01*
X60894677Y-62640000D01*
X60894667Y-62640000D01*
X60783014Y-62650997D01*
X60639753Y-62694454D01*
X60507724Y-62765026D01*
X60391999Y-62859999D01*
X60368201Y-62888997D01*
X59592717Y-63664481D01*
X59459834Y-63609439D01*
X59095656Y-63537000D01*
X58724344Y-63537000D01*
X58360166Y-63609439D01*
X58017118Y-63751534D01*
X57708382Y-63957825D01*
X57445825Y-64220382D01*
X57239534Y-64529118D01*
X57097439Y-64872166D01*
X57025000Y-65236344D01*
X56384841Y-65236344D01*
X56374175Y-65220382D01*
X56111618Y-64957825D01*
X55802882Y-64751534D01*
X55459834Y-64609439D01*
X55095656Y-64537000D01*
X54724344Y-64537000D01*
X54360166Y-64609439D01*
X54017118Y-64751534D01*
X53708382Y-64957825D01*
X53445825Y-65220382D01*
X53239534Y-65529118D01*
X53184493Y-65662000D01*
X51515322Y-65662000D01*
X51477999Y-65658324D01*
X51440676Y-65662000D01*
X51440667Y-65662000D01*
X51329014Y-65672997D01*
X51193032Y-65714246D01*
X51185753Y-65716454D01*
X51053723Y-65787026D01*
X50970083Y-65855668D01*
X50937999Y-65881999D01*
X50914201Y-65910997D01*
X48788998Y-68036201D01*
X48760000Y-68059999D01*
X48736202Y-68088997D01*
X48736201Y-68088998D01*
X48665026Y-68175724D01*
X48594454Y-68307754D01*
X48564180Y-68407558D01*
X48552956Y-68444561D01*
X48550998Y-68451015D01*
X48536324Y-68600000D01*
X36347000Y-68600000D01*
X36347000Y-57689275D01*
X36347666Y-57682487D01*
X36352301Y-57682000D01*
X165829725Y-57682000D01*
X165836513Y-57682666D01*
X165836513Y-57682666D01*
G37*
X165836513Y-57682666D02*
X165837001Y-57687310D01*
X165837000Y-107504725D01*
X165836335Y-107511513D01*
X165831699Y-107512000D01*
X56507000Y-107512000D01*
X56507000Y-101154581D01*
X56504242Y-101126581D01*
X56504269Y-101122745D01*
X56503369Y-101113574D01*
X56490414Y-100990323D01*
X56478387Y-100931733D01*
X56467178Y-100872971D01*
X56464514Y-100864149D01*
X56427867Y-100745762D01*
X56404692Y-100690632D01*
X56382278Y-100635153D01*
X56377951Y-100627017D01*
X56319007Y-100518002D01*
X56285565Y-100468422D01*
X56252803Y-100418355D01*
X56246978Y-100411214D01*
X56167982Y-100315724D01*
X56125566Y-100273603D01*
X56083684Y-100230834D01*
X56076584Y-100224961D01*
X55980545Y-100146633D01*
X55930703Y-100113518D01*
X55881362Y-100079733D01*
X55873256Y-100075350D01*
X55763832Y-100017168D01*
X55708554Y-99994384D01*
X55653545Y-99970807D01*
X55644741Y-99968082D01*
X55526101Y-99932262D01*
X55467372Y-99920633D01*
X55408905Y-99908206D01*
X55399747Y-99907244D01*
X55399744Y-99907243D01*
X55399741Y-99907243D01*
X55276402Y-99895150D01*
X55244419Y-99892000D01*
X45549581Y-99892000D01*
X45521581Y-99894758D01*
X45517745Y-99894731D01*
X45508574Y-99895631D01*
X45385323Y-99908586D01*
X45326733Y-99920613D01*
X45267971Y-99931822D01*
X45259149Y-99934486D01*
X45140762Y-99971133D01*
X45085632Y-99994308D01*
X45030153Y-100016722D01*
X45022017Y-100021049D01*
X44913002Y-100079993D01*
X44863422Y-100113435D01*
X44813355Y-100146197D01*
X44806214Y-100152022D01*
X44710724Y-100231018D01*
X44668603Y-100273434D01*
X44625834Y-100315316D01*
X44619961Y-100322416D01*
X44541633Y-100418455D01*
X44508518Y-100468297D01*
X44474733Y-100517638D01*
X44470350Y-100525744D01*
X44412168Y-100635168D01*
X44389384Y-100690446D01*
X44365807Y-100745455D01*
X44363082Y-100754259D01*
X44327262Y-100872899D01*
X44315641Y-100931592D01*
X44303206Y-100990095D01*
X44302244Y-100999253D01*
X44302244Y-100999254D01*
X44302243Y-100999259D01*
X44290150Y-101122598D01*
X44290150Y-101122608D01*
X44287001Y-101154581D01*
X44287000Y-107512000D01*
X36354275Y-107512000D01*
X36347487Y-107511335D01*
X36347000Y-107506699D01*
X36347000Y-68600000D01*
X48536324Y-68600000D01*
X48540001Y-68637332D01*
X48540000Y-83362678D01*
X48536324Y-83400000D01*
X48540000Y-83437322D01*
X48540000Y-83437332D01*
X48550997Y-83548985D01*
X48585933Y-83664155D01*
X48594454Y-83692246D01*
X48665026Y-83824276D01*
X48697362Y-83863677D01*
X48759999Y-83940001D01*
X48789003Y-83963804D01*
X53786226Y-88961028D01*
X53810025Y-88990027D01*
X53925750Y-89085000D01*
X54057779Y-89155572D01*
X54201040Y-89199029D01*
X54312693Y-89210026D01*
X54312702Y-89210026D01*
X54350025Y-89213702D01*
X54387348Y-89210026D01*
X56015559Y-89210026D01*
X56015000Y-89212835D01*
X56015000Y-89387165D01*
X56049010Y-89558145D01*
X56115723Y-89719205D01*
X56212576Y-89864155D01*
X56335845Y-89987424D01*
X56480795Y-90084277D01*
X56641855Y-90150990D01*
X56812835Y-90185000D01*
X56987165Y-90185000D01*
X57158145Y-90150990D01*
X57319205Y-90084277D01*
X57355538Y-90060000D01*
X57885199Y-90060000D01*
X58740001Y-90914803D01*
X58740000Y-99962678D01*
X58736324Y-100000000D01*
X58740000Y-100037322D01*
X58740000Y-100037332D01*
X58750997Y-100148985D01*
X58785788Y-100263677D01*
X58794454Y-100292246D01*
X58865026Y-100424276D01*
X58886950Y-100450990D01*
X58959999Y-100540001D01*
X58989003Y-100563804D01*
X63036201Y-104611003D01*
X63059999Y-104640001D01*
X63088997Y-104663799D01*
X63175724Y-104734974D01*
X63307753Y-104805546D01*
X63451014Y-104849003D01*
X63600000Y-104863677D01*
X63637333Y-104860000D01*
X92544462Y-104860000D01*
X92580795Y-104884277D01*
X92741855Y-104950990D01*
X92912835Y-104985000D01*
X93087165Y-104985000D01*
X93258145Y-104950990D01*
X93419205Y-104884277D01*
X93564155Y-104787424D01*
X93687424Y-104664155D01*
X93784277Y-104519205D01*
X93850990Y-104358145D01*
X93885000Y-104187165D01*
X93885000Y-104012835D01*
X93850990Y-103841855D01*
X93784277Y-103680795D01*
X93763700Y-103650000D01*
X93784277Y-103619205D01*
X93850990Y-103458145D01*
X93885000Y-103287165D01*
X93885000Y-103112835D01*
X93850990Y-102941855D01*
X93784277Y-102780795D01*
X93763700Y-102750000D01*
X93784277Y-102719205D01*
X93850990Y-102558145D01*
X93885000Y-102387165D01*
X93885000Y-102212835D01*
X93850990Y-102041855D01*
X93784277Y-101880795D01*
X93763700Y-101850000D01*
X93784277Y-101819205D01*
X93850990Y-101658145D01*
X93885000Y-101487165D01*
X93885000Y-101312835D01*
X93850990Y-101141855D01*
X93784277Y-100980795D01*
X93763700Y-100950000D01*
X93784277Y-100919205D01*
X93850990Y-100758145D01*
X93885000Y-100587165D01*
X93885000Y-100412835D01*
X93850990Y-100241855D01*
X93784277Y-100080795D01*
X93763700Y-100050000D01*
X93784277Y-100019205D01*
X93850990Y-99858145D01*
X93885000Y-99687165D01*
X93885000Y-99512835D01*
X93850990Y-99341855D01*
X93784277Y-99180795D01*
X93763700Y-99150000D01*
X93784277Y-99119205D01*
X93850990Y-98958145D01*
X93885000Y-98787165D01*
X93885000Y-98612835D01*
X93850990Y-98441855D01*
X93784277Y-98280795D01*
X93696882Y-98150000D01*
X93784277Y-98019205D01*
X93850990Y-97858145D01*
X93885000Y-97687165D01*
X93885000Y-97512835D01*
X93850990Y-97341855D01*
X93784277Y-97180795D01*
X93687424Y-97035845D01*
X93564155Y-96912576D01*
X93466689Y-96847451D01*
X93619205Y-96784277D01*
X93764155Y-96687424D01*
X93788329Y-96663250D01*
X93789003Y-96663804D01*
X96036201Y-98911003D01*
X96059999Y-98940001D01*
X96175724Y-99034974D01*
X96307753Y-99105546D01*
X96451014Y-99149003D01*
X96562667Y-99160000D01*
X96562676Y-99160000D01*
X96599999Y-99163676D01*
X96637322Y-99160000D01*
X120062678Y-99160000D01*
X120100000Y-99163676D01*
X120137322Y-99160000D01*
X120137333Y-99160000D01*
X120248986Y-99149003D01*
X120392247Y-99105546D01*
X120524276Y-99034974D01*
X120640001Y-98940001D01*
X120663803Y-98910998D01*
X121271002Y-98303800D01*
X121300001Y-98280001D01*
X121344691Y-98225546D01*
X121394974Y-98164277D01*
X121465546Y-98032247D01*
X121467964Y-98024276D01*
X121509003Y-97888986D01*
X121520000Y-97777333D01*
X121520000Y-97777323D01*
X121523676Y-97740000D01*
X121520000Y-97702677D01*
X121520000Y-97259595D01*
X121589014Y-97222706D01*
X121815134Y-97037134D01*
X122000706Y-96811014D01*
X122138599Y-96553034D01*
X122223513Y-96273111D01*
X122252185Y-95982000D01*
X122223513Y-95690889D01*
X122138599Y-95410966D01*
X122000706Y-95152986D01*
X121815134Y-94926866D01*
X121785313Y-94902393D01*
X121854180Y-94881502D01*
X121964494Y-94822537D01*
X122061185Y-94743185D01*
X122140537Y-94646494D01*
X122199502Y-94536180D01*
X122235812Y-94416482D01*
X122248072Y-94292000D01*
X122248072Y-93322875D01*
X122540485Y-93615288D01*
X122549010Y-93658145D01*
X122615723Y-93819205D01*
X122712576Y-93964155D01*
X122835845Y-94087424D01*
X122980795Y-94184277D01*
X123141855Y-94250990D01*
X123312835Y-94285000D01*
X123487165Y-94285000D01*
X123658145Y-94250990D01*
X123819205Y-94184277D01*
X123964155Y-94087424D01*
X124087424Y-93964155D01*
X124184277Y-93819205D01*
X124250990Y-93658145D01*
X124285000Y-93487165D01*
X124285000Y-93398445D01*
X124319205Y-93384277D01*
X124440000Y-93303564D01*
X124440000Y-96244462D01*
X124415723Y-96280795D01*
X124349010Y-96441855D01*
X124315000Y-96612835D01*
X124315000Y-96787165D01*
X124349010Y-96958145D01*
X124415723Y-97119205D01*
X124512576Y-97264155D01*
X124635845Y-97387424D01*
X124780795Y-97484277D01*
X124941855Y-97550990D01*
X125112835Y-97585000D01*
X125240000Y-97585000D01*
X125240000Y-99462678D01*
X125236324Y-99500000D01*
X125240000Y-99537322D01*
X125240000Y-99537332D01*
X125250997Y-99648985D01*
X125281947Y-99751014D01*
X125294454Y-99792246D01*
X125365026Y-99924276D01*
X125401941Y-99969256D01*
X125459999Y-100040001D01*
X125489003Y-100063804D01*
X130936201Y-105511003D01*
X130959999Y-105540001D01*
X130988997Y-105563799D01*
X131075724Y-105634974D01*
X131207753Y-105705546D01*
X131351014Y-105749003D01*
X131500000Y-105763677D01*
X131537333Y-105760000D01*
X146962678Y-105760000D01*
X147000000Y-105763676D01*
X147037322Y-105760000D01*
X147037333Y-105760000D01*
X147148986Y-105749003D01*
X147292247Y-105705546D01*
X147424276Y-105634974D01*
X147540001Y-105540001D01*
X147563804Y-105510997D01*
X155571003Y-97503799D01*
X155600001Y-97480001D01*
X155694974Y-97364276D01*
X155708334Y-97339281D01*
X155889014Y-97242706D01*
X156115134Y-97057134D01*
X156300706Y-96831014D01*
X156438599Y-96573034D01*
X156523513Y-96293111D01*
X156552185Y-96002000D01*
X156523513Y-95710889D01*
X156438599Y-95430966D01*
X156300706Y-95172986D01*
X156115134Y-94946866D01*
X156085313Y-94922393D01*
X156154180Y-94901502D01*
X156264494Y-94842537D01*
X156361185Y-94763185D01*
X156440537Y-94666494D01*
X156499502Y-94556180D01*
X156535812Y-94436482D01*
X156548072Y-94312000D01*
X156548072Y-92612000D01*
X156535812Y-92487518D01*
X156499502Y-92367820D01*
X156440537Y-92257506D01*
X156361185Y-92160815D01*
X156264494Y-92081463D01*
X156154180Y-92022498D01*
X156034482Y-91986188D01*
X155910000Y-91973928D01*
X155820000Y-91973928D01*
X155820000Y-82897322D01*
X155823676Y-82859999D01*
X155820000Y-82822676D01*
X155820000Y-82822667D01*
X155809003Y-82711014D01*
X155765546Y-82567753D01*
X155749286Y-82537333D01*
X155694974Y-82435723D01*
X155623799Y-82348997D01*
X155600001Y-82319999D01*
X155571003Y-82296201D01*
X152045804Y-78771003D01*
X152022001Y-78741999D01*
X151906276Y-78647026D01*
X151774247Y-78576454D01*
X151630986Y-78532997D01*
X151519333Y-78522000D01*
X151519322Y-78522000D01*
X151482000Y-78518324D01*
X151444678Y-78522000D01*
X150335507Y-78522000D01*
X150280466Y-78389118D01*
X150074175Y-78080382D01*
X149811618Y-77817825D01*
X149502882Y-77611534D01*
X149159834Y-77469439D01*
X148795656Y-77397000D01*
X148424344Y-77397000D01*
X148060166Y-77469439D01*
X147717118Y-77611534D01*
X147408382Y-77817825D01*
X147145825Y-78080382D01*
X147060000Y-78208828D01*
X147060000Y-75705172D01*
X147145825Y-75833618D01*
X147408382Y-76096175D01*
X147717118Y-76302466D01*
X148060166Y-76444561D01*
X148424344Y-76517000D01*
X148795656Y-76517000D01*
X149159834Y-76444561D01*
X149502882Y-76302466D01*
X149615000Y-76227551D01*
X149615000Y-76287165D01*
X149649010Y-76458145D01*
X149715723Y-76619205D01*
X149812576Y-76764155D01*
X149935845Y-76887424D01*
X150080795Y-76984277D01*
X150241855Y-77050990D01*
X150412835Y-77085000D01*
X150587165Y-77085000D01*
X150758145Y-77050990D01*
X150919205Y-76984277D01*
X151064155Y-76887424D01*
X151187424Y-76764155D01*
X151284277Y-76619205D01*
X151350990Y-76458145D01*
X151385000Y-76287165D01*
X151385000Y-76112835D01*
X151350990Y-75941855D01*
X151284277Y-75780795D01*
X151260000Y-75744462D01*
X151260000Y-71037322D01*
X151263676Y-70999999D01*
X151260000Y-70962676D01*
X151260000Y-70962667D01*
X151249003Y-70851014D01*
X151205546Y-70707753D01*
X151159710Y-70622001D01*
X151134974Y-70575723D01*
X151063799Y-70488997D01*
X151040001Y-70459999D01*
X151011003Y-70436201D01*
X150251263Y-69676462D01*
X150222561Y-69532166D01*
X150080466Y-69189118D01*
X149874175Y-68880382D01*
X149611618Y-68617825D01*
X149302882Y-68411534D01*
X148959834Y-68269439D01*
X148595656Y-68197000D01*
X148224344Y-68197000D01*
X147860166Y-68269439D01*
X147839498Y-68278000D01*
X148111618Y-68096175D01*
X148374175Y-67833618D01*
X148580466Y-67524882D01*
X148722561Y-67181834D01*
X148795000Y-66817656D01*
X148795000Y-66446344D01*
X148722561Y-66082166D01*
X148580466Y-65739118D01*
X148374175Y-65430382D01*
X148111618Y-65167825D01*
X147802882Y-64961534D01*
X147459834Y-64819439D01*
X147095656Y-64747000D01*
X146724344Y-64747000D01*
X146360166Y-64819439D01*
X146017118Y-64961534D01*
X145708382Y-65167825D01*
X145445825Y-65430382D01*
X145239534Y-65739118D01*
X145097439Y-66082166D01*
X145025000Y-66446344D01*
X145025000Y-66817656D01*
X145097439Y-67181834D01*
X145239534Y-67524882D01*
X145445825Y-67833618D01*
X145540001Y-67927794D01*
X145540001Y-72405230D01*
X145461626Y-72287934D01*
X145004066Y-71830374D01*
X144466031Y-71470871D01*
X143868199Y-71223240D01*
X143233544Y-71097000D01*
X142586456Y-71097000D01*
X142201162Y-71173639D01*
X143421004Y-69953798D01*
X143450001Y-69930001D01*
X143544974Y-69814276D01*
X143615546Y-69682247D01*
X143659003Y-69538986D01*
X143670000Y-69427333D01*
X143670000Y-69427332D01*
X143673677Y-69390000D01*
X143670000Y-69352667D01*
X143670000Y-67357507D01*
X143802882Y-67302466D01*
X144111618Y-67096175D01*
X144374175Y-66833618D01*
X144580466Y-66524882D01*
X144722561Y-66181834D01*
X144795000Y-65817656D01*
X144795000Y-65446344D01*
X144722561Y-65082166D01*
X144580466Y-64739118D01*
X144374175Y-64430382D01*
X144111618Y-64167825D01*
X143802882Y-63961534D01*
X143459834Y-63819439D01*
X143095656Y-63747000D01*
X142724344Y-63747000D01*
X142360166Y-63819439D01*
X142017118Y-63961534D01*
X141708382Y-64167825D01*
X141445825Y-64430382D01*
X141239534Y-64739118D01*
X141097439Y-65082166D01*
X141025000Y-65446344D01*
X141025000Y-65817656D01*
X141097439Y-66181834D01*
X141239534Y-66524882D01*
X141445825Y-66833618D01*
X141708382Y-67096175D01*
X142017118Y-67302466D01*
X142150001Y-67357508D01*
X142150000Y-69075198D01*
X138888998Y-72336201D01*
X138860000Y-72359999D01*
X138836202Y-72388997D01*
X138836201Y-72388998D01*
X138765026Y-72475724D01*
X138694454Y-72607754D01*
X138689018Y-72625676D01*
X138650998Y-72751014D01*
X138640067Y-72862000D01*
X138636324Y-72900000D01*
X138640001Y-72937332D01*
X138640001Y-73396208D01*
X138411618Y-73167825D01*
X138102882Y-72961534D01*
X137759834Y-72819439D01*
X137395656Y-72747000D01*
X137024344Y-72747000D01*
X136660166Y-72819439D01*
X136317118Y-72961534D01*
X136008382Y-73167825D01*
X135745825Y-73430382D01*
X135539534Y-73739118D01*
X135397439Y-74082166D01*
X135325000Y-74446344D01*
X135325000Y-74817656D01*
X135397439Y-75181834D01*
X135539534Y-75524882D01*
X135745825Y-75833618D01*
X136008382Y-76096175D01*
X136317118Y-76302466D01*
X136660166Y-76444561D01*
X137024344Y-76517000D01*
X137395656Y-76517000D01*
X137759834Y-76444561D01*
X138102882Y-76302466D01*
X138411618Y-76096175D01*
X138639441Y-75868352D01*
X138636324Y-75900000D01*
X138640000Y-75937322D01*
X138640000Y-75937332D01*
X138650997Y-76048985D01*
X138684672Y-76159999D01*
X138694454Y-76192246D01*
X138765026Y-76324276D01*
X138796817Y-76363013D01*
X138859999Y-76440001D01*
X138889003Y-76463804D01*
X140140001Y-77714803D01*
X140140000Y-81196207D01*
X140111618Y-81167825D01*
X139802882Y-80961534D01*
X139459834Y-80819439D01*
X139095656Y-80747000D01*
X138724344Y-80747000D01*
X138360166Y-80819439D01*
X138207056Y-80882859D01*
X138411618Y-80746175D01*
X138674175Y-80483618D01*
X138880466Y-80174882D01*
X139022561Y-79831834D01*
X139095000Y-79467656D01*
X139095000Y-79096344D01*
X139022561Y-78732166D01*
X138880466Y-78389118D01*
X138674175Y-78080382D01*
X138411618Y-77817825D01*
X138102882Y-77611534D01*
X137759834Y-77469439D01*
X137395656Y-77397000D01*
X137024344Y-77397000D01*
X136660166Y-77469439D01*
X136317118Y-77611534D01*
X136008382Y-77817825D01*
X135745825Y-78080382D01*
X135539534Y-78389118D01*
X135397439Y-78732166D01*
X135325000Y-79096344D01*
X135325000Y-79467656D01*
X135397439Y-79831834D01*
X135539534Y-80174882D01*
X135745825Y-80483618D01*
X136008382Y-80746175D01*
X136317118Y-80952466D01*
X136660166Y-81094561D01*
X137024344Y-81167000D01*
X137395656Y-81167000D01*
X137759834Y-81094561D01*
X137912944Y-81031141D01*
X137708382Y-81167825D01*
X137445825Y-81430382D01*
X137239534Y-81739118D01*
X137097439Y-82082166D01*
X137025000Y-82446344D01*
X137025000Y-82650198D01*
X134860000Y-80485199D01*
X134860000Y-67414801D01*
X134882801Y-67392000D01*
X137184493Y-67392000D01*
X137239534Y-67524882D01*
X137445825Y-67833618D01*
X137708382Y-68096175D01*
X137980502Y-68278000D01*
X137959834Y-68269439D01*
X137595656Y-68197000D01*
X137224344Y-68197000D01*
X136860166Y-68269439D01*
X136517118Y-68411534D01*
X136208382Y-68617825D01*
X135945825Y-68880382D01*
X135739534Y-69189118D01*
X135597439Y-69532166D01*
X135525000Y-69896344D01*
X135525000Y-70267656D01*
X135597439Y-70631834D01*
X135739534Y-70974882D01*
X135945825Y-71283618D01*
X136208382Y-71546175D01*
X136517118Y-71752466D01*
X136860166Y-71894561D01*
X137224344Y-71967000D01*
X137595656Y-71967000D01*
X137959834Y-71894561D01*
X138302882Y-71752466D01*
X138611618Y-71546175D01*
X138874175Y-71283618D01*
X139080466Y-70974882D01*
X139222561Y-70631834D01*
X139295000Y-70267656D01*
X139295000Y-69896344D01*
X139222561Y-69532166D01*
X139080466Y-69189118D01*
X138874175Y-68880382D01*
X138611618Y-68617825D01*
X138339498Y-68436000D01*
X138360166Y-68444561D01*
X138724344Y-68517000D01*
X139095656Y-68517000D01*
X139459834Y-68444561D01*
X139802882Y-68302466D01*
X140111618Y-68096175D01*
X140374175Y-67833618D01*
X140580466Y-67524882D01*
X140722561Y-67181834D01*
X140795000Y-66817656D01*
X140795000Y-66446344D01*
X140722561Y-66082166D01*
X140580466Y-65739118D01*
X140374175Y-65430382D01*
X140111618Y-65167825D01*
X139802882Y-64961534D01*
X139459834Y-64819439D01*
X139095656Y-64747000D01*
X138724344Y-64747000D01*
X138360166Y-64819439D01*
X138017118Y-64961534D01*
X137708382Y-65167825D01*
X137445825Y-65430382D01*
X137239534Y-65739118D01*
X137184493Y-65872000D01*
X134605323Y-65872000D01*
X134568000Y-65868324D01*
X134530677Y-65872000D01*
X134530667Y-65872000D01*
X134419014Y-65882997D01*
X134308535Y-65916510D01*
X134275753Y-65926454D01*
X134143723Y-65997026D01*
X134103870Y-66029733D01*
X134027999Y-66091999D01*
X134004196Y-66121003D01*
X133588998Y-66536201D01*
X133560000Y-66559999D01*
X133536202Y-66588997D01*
X133536201Y-66588998D01*
X133465026Y-66675724D01*
X133394454Y-66807754D01*
X133386609Y-66833618D01*
X133350998Y-66951014D01*
X133340630Y-67056277D01*
X133336324Y-67100000D01*
X133340001Y-67137332D01*
X133340001Y-69415000D01*
X133212835Y-69415000D01*
X133041855Y-69449010D01*
X132880795Y-69515723D01*
X132735845Y-69612576D01*
X132612576Y-69735845D01*
X132515723Y-69880795D01*
X132449010Y-70041855D01*
X132415000Y-70212835D01*
X132415000Y-70387165D01*
X132449010Y-70558145D01*
X132515723Y-70719205D01*
X132540001Y-70755539D01*
X132540001Y-73715000D01*
X132412835Y-73715000D01*
X132241855Y-73749010D01*
X132080795Y-73815723D01*
X131935845Y-73912576D01*
X131812576Y-74035845D01*
X131715723Y-74180795D01*
X131649010Y-74341855D01*
X131615000Y-74512835D01*
X131615000Y-74687165D01*
X131649010Y-74858145D01*
X131715723Y-75019205D01*
X131812576Y-75164155D01*
X131840001Y-75191580D01*
X131840000Y-81362677D01*
X131836324Y-81400000D01*
X131840000Y-81437322D01*
X131840000Y-81437332D01*
X131850997Y-81548985D01*
X131881947Y-81651014D01*
X131894454Y-81692246D01*
X131965026Y-81824276D01*
X131992868Y-81858201D01*
X132059999Y-81940001D01*
X132089003Y-81963804D01*
X134186810Y-84061611D01*
X134112576Y-84135845D01*
X134015723Y-84280795D01*
X133949010Y-84441855D01*
X133915000Y-84612835D01*
X133915000Y-84787165D01*
X133949010Y-84958145D01*
X133980000Y-85032962D01*
X133980001Y-92184405D01*
X133910986Y-92221294D01*
X133684866Y-92406866D01*
X133499294Y-92632986D01*
X133470000Y-92687791D01*
X133440706Y-92632986D01*
X133255134Y-92406866D01*
X133029014Y-92221294D01*
X132960000Y-92184405D01*
X132960000Y-86791579D01*
X132987424Y-86764155D01*
X133084277Y-86619205D01*
X133150990Y-86458145D01*
X133185000Y-86287165D01*
X133185000Y-86112835D01*
X133150990Y-85941855D01*
X133084277Y-85780795D01*
X132987424Y-85635845D01*
X132864155Y-85512576D01*
X132719205Y-85415723D01*
X132558145Y-85349010D01*
X132387165Y-85315000D01*
X132212835Y-85315000D01*
X132041855Y-85349010D01*
X131880795Y-85415723D01*
X131735845Y-85512576D01*
X131612576Y-85635845D01*
X131515723Y-85780795D01*
X131449010Y-85941855D01*
X131415000Y-86112835D01*
X131415000Y-86287165D01*
X131440000Y-86412849D01*
X131440001Y-92184405D01*
X131370986Y-92221294D01*
X131144866Y-92406866D01*
X130959294Y-92632986D01*
X130821401Y-92890966D01*
X130736487Y-93170889D01*
X130707815Y-93462000D01*
X130736487Y-93753111D01*
X130821401Y-94033034D01*
X130959294Y-94291014D01*
X131144866Y-94517134D01*
X131370986Y-94702706D01*
X131425791Y-94732000D01*
X131370986Y-94761294D01*
X131144866Y-94946866D01*
X130959294Y-95172986D01*
X130931912Y-95224214D01*
X130919205Y-95215723D01*
X130758145Y-95149010D01*
X130587165Y-95115000D01*
X130412835Y-95115000D01*
X130360000Y-95125510D01*
X130360000Y-65918070D01*
X130363676Y-65880747D01*
X130360000Y-65843424D01*
X130360000Y-65843415D01*
X130349003Y-65731762D01*
X130305546Y-65588501D01*
X130234974Y-65456472D01*
X130140001Y-65340747D01*
X130111003Y-65316949D01*
X126883056Y-62089003D01*
X126859253Y-62059999D01*
X126743528Y-61965026D01*
X126611499Y-61894454D01*
X126468238Y-61850997D01*
X126356585Y-61840000D01*
X126356574Y-61840000D01*
X126319252Y-61836324D01*
X126281930Y-61840000D01*
X116537333Y-61840000D01*
X116500000Y-61836323D01*
X116462667Y-61840000D01*
X116351014Y-61850997D01*
X116207753Y-61894454D01*
X116075724Y-61965026D01*
X115959999Y-62059999D01*
X115936201Y-62088997D01*
X114399003Y-63626196D01*
X114369999Y-63649999D01*
X114314871Y-63717174D01*
X114275026Y-63765724D01*
X114250824Y-63811003D01*
X114204454Y-63897754D01*
X114160997Y-64041015D01*
X114150000Y-64152668D01*
X114150000Y-64152678D01*
X114146324Y-64190000D01*
X114150000Y-64227323D01*
X114150000Y-64696492D01*
X114017118Y-64751534D01*
X113708382Y-64957825D01*
X113445825Y-65220382D01*
X113239534Y-65529118D01*
X113097439Y-65872166D01*
X113025000Y-66236344D01*
X113025000Y-66607656D01*
X113097439Y-66971834D01*
X113239534Y-67314882D01*
X113445825Y-67623618D01*
X113708382Y-67886175D01*
X113980502Y-68068000D01*
X113959834Y-68059439D01*
X113595656Y-67987000D01*
X113224344Y-67987000D01*
X112860166Y-68059439D01*
X112517118Y-68201534D01*
X112208382Y-68407825D01*
X111945825Y-68670382D01*
X111739534Y-68979118D01*
X111597439Y-69322166D01*
X111525000Y-69686344D01*
X111525000Y-70057656D01*
X111597439Y-70421834D01*
X111739534Y-70764882D01*
X111945825Y-71073618D01*
X112208382Y-71336175D01*
X112517118Y-71542466D01*
X112860166Y-71684561D01*
X113224344Y-71757000D01*
X113595656Y-71757000D01*
X113959834Y-71684561D01*
X114092717Y-71629519D01*
X114640001Y-72176803D01*
X114640001Y-73186208D01*
X114411618Y-72957825D01*
X114102882Y-72751534D01*
X113759834Y-72609439D01*
X113395656Y-72537000D01*
X113024344Y-72537000D01*
X112660166Y-72609439D01*
X112317118Y-72751534D01*
X112008382Y-72957825D01*
X111745825Y-73220382D01*
X111539534Y-73529118D01*
X111472885Y-73690023D01*
X111385753Y-73716454D01*
X111253724Y-73787026D01*
X111137999Y-73881999D01*
X111114201Y-73910997D01*
X110188998Y-74836201D01*
X110160000Y-74859999D01*
X110136202Y-74888997D01*
X110136201Y-74888998D01*
X110065026Y-74975724D01*
X109994454Y-75107754D01*
X109971983Y-75181834D01*
X109950998Y-75251014D01*
X109944696Y-75315000D01*
X109936324Y-75400000D01*
X109940001Y-75437332D01*
X109940000Y-82462677D01*
X109936324Y-82500000D01*
X109940000Y-82537322D01*
X109940000Y-82537332D01*
X109950997Y-82648985D01*
X109972298Y-82719205D01*
X109994454Y-82792246D01*
X110065026Y-82924276D01*
X110104056Y-82971834D01*
X110159999Y-83040001D01*
X110189003Y-83063804D01*
X112665198Y-85540000D01*
X103914802Y-85540000D01*
X101084874Y-82710072D01*
X102810000Y-82710072D01*
X102934482Y-82697812D01*
X103054180Y-82661502D01*
X103164494Y-82602537D01*
X103261185Y-82523185D01*
X103340537Y-82426494D01*
X103399502Y-82316180D01*
X103435812Y-82196482D01*
X103448072Y-82072000D01*
X103448072Y-80272000D01*
X103435812Y-80147518D01*
X103399502Y-80027820D01*
X103340537Y-79917506D01*
X103261185Y-79820815D01*
X103164494Y-79741463D01*
X103054180Y-79682498D01*
X103035873Y-79676944D01*
X103102312Y-79610505D01*
X103270299Y-79359095D01*
X103386011Y-79079743D01*
X103445000Y-78783184D01*
X103445000Y-78480816D01*
X103386011Y-78184257D01*
X103270299Y-77904905D01*
X103102312Y-77653495D01*
X102888505Y-77439688D01*
X102637095Y-77271701D01*
X102357743Y-77155989D01*
X102061184Y-77097000D01*
X101758816Y-77097000D01*
X101462257Y-77155989D01*
X101182905Y-77271701D01*
X100931495Y-77439688D01*
X100717688Y-77653495D01*
X100549701Y-77904905D01*
X100433989Y-78184257D01*
X100375000Y-78480816D01*
X100375000Y-78783184D01*
X100433989Y-79079743D01*
X100549701Y-79359095D01*
X100717688Y-79610505D01*
X100784127Y-79676944D01*
X100765820Y-79682498D01*
X100655506Y-79741463D01*
X100558815Y-79820815D01*
X100479463Y-79917506D01*
X100420498Y-80027820D01*
X100384188Y-80147518D01*
X100371928Y-80272000D01*
X100371928Y-81997127D01*
X96935804Y-78561003D01*
X96912001Y-78531999D01*
X96796276Y-78437026D01*
X96664247Y-78366454D01*
X96520986Y-78322997D01*
X96409333Y-78312000D01*
X96409322Y-78312000D01*
X96372000Y-78308324D01*
X96334678Y-78312000D01*
X90335507Y-78312000D01*
X90280466Y-78179118D01*
X90074175Y-77870382D01*
X89811618Y-77607825D01*
X89502882Y-77401534D01*
X89159834Y-77259439D01*
X88795656Y-77187000D01*
X88424344Y-77187000D01*
X88060166Y-77259439D01*
X87717118Y-77401534D01*
X87408382Y-77607825D01*
X87145825Y-77870382D01*
X86939534Y-78179118D01*
X86797439Y-78522166D01*
X86725000Y-78886344D01*
X86725000Y-79257656D01*
X86797439Y-79621834D01*
X86939534Y-79964882D01*
X87145825Y-80273618D01*
X87408382Y-80536175D01*
X87612944Y-80672859D01*
X87459834Y-80609439D01*
X87095656Y-80537000D01*
X86724344Y-80537000D01*
X86360166Y-80609439D01*
X86017118Y-80751534D01*
X85708382Y-80957825D01*
X85445825Y-81220382D01*
X85342886Y-81374440D01*
X85290001Y-81309999D01*
X85261003Y-81286201D01*
X79000323Y-75025522D01*
X79022561Y-74971834D01*
X79095000Y-74607656D01*
X79095000Y-74236344D01*
X79022561Y-73872166D01*
X79012741Y-73848456D01*
X79625000Y-73848456D01*
X79625000Y-74495544D01*
X79751240Y-75130199D01*
X79998871Y-75728031D01*
X80358374Y-76266066D01*
X80815934Y-76723626D01*
X81353969Y-77083129D01*
X81951801Y-77330760D01*
X82586456Y-77457000D01*
X83233544Y-77457000D01*
X83868199Y-77330760D01*
X84466031Y-77083129D01*
X85004066Y-76723626D01*
X85461626Y-76266066D01*
X85821129Y-75728031D01*
X86068760Y-75130199D01*
X86195000Y-74495544D01*
X86195000Y-74236344D01*
X86725000Y-74236344D01*
X86725000Y-74607656D01*
X86797439Y-74971834D01*
X86939534Y-75314882D01*
X87145825Y-75623618D01*
X87408382Y-75886175D01*
X87717118Y-76092466D01*
X88060166Y-76234561D01*
X88424344Y-76307000D01*
X88795656Y-76307000D01*
X89159834Y-76234561D01*
X89502882Y-76092466D01*
X89811618Y-75886175D01*
X90074175Y-75623618D01*
X90280466Y-75314882D01*
X90422561Y-74971834D01*
X90495000Y-74607656D01*
X90495000Y-74236344D01*
X90422561Y-73872166D01*
X90280466Y-73529118D01*
X90074175Y-73220382D01*
X89811618Y-72957825D01*
X89502882Y-72751534D01*
X89159834Y-72609439D01*
X88795656Y-72537000D01*
X88424344Y-72537000D01*
X88060166Y-72609439D01*
X87717118Y-72751534D01*
X87408382Y-72957825D01*
X87145825Y-73220382D01*
X86939534Y-73529118D01*
X86797439Y-73872166D01*
X86725000Y-74236344D01*
X86195000Y-74236344D01*
X86195000Y-73848456D01*
X86068760Y-73213801D01*
X85821129Y-72615969D01*
X85461626Y-72077934D01*
X85004066Y-71620374D01*
X84466031Y-71260871D01*
X83868199Y-71013240D01*
X83233544Y-70887000D01*
X82586456Y-70887000D01*
X81951801Y-71013240D01*
X81353969Y-71260871D01*
X80815934Y-71620374D01*
X80358374Y-72077934D01*
X79998871Y-72615969D01*
X79751240Y-73213801D01*
X79625000Y-73848456D01*
X79012741Y-73848456D01*
X78880466Y-73529118D01*
X78674175Y-73220382D01*
X78411618Y-72957825D01*
X78102882Y-72751534D01*
X77759834Y-72609439D01*
X77395656Y-72537000D01*
X77024344Y-72537000D01*
X76660166Y-72609439D01*
X76317118Y-72751534D01*
X76008382Y-72957825D01*
X75745825Y-73220382D01*
X75539534Y-73529118D01*
X75397439Y-73872166D01*
X75325000Y-74236344D01*
X75325000Y-74607656D01*
X75397439Y-74971834D01*
X75539534Y-75314882D01*
X75745825Y-75623618D01*
X76008382Y-75886175D01*
X76317118Y-76092466D01*
X76660166Y-76234561D01*
X77024344Y-76307000D01*
X77395656Y-76307000D01*
X77759834Y-76234561D01*
X77971914Y-76146715D01*
X80223123Y-78397924D01*
X80164247Y-78366454D01*
X80020986Y-78322997D01*
X79909333Y-78312000D01*
X79909322Y-78312000D01*
X79872000Y-78308324D01*
X79834678Y-78312000D01*
X78935507Y-78312000D01*
X78880466Y-78179118D01*
X78674175Y-77870382D01*
X78411618Y-77607825D01*
X78102882Y-77401534D01*
X77759834Y-77259439D01*
X77395656Y-77187000D01*
X77024344Y-77187000D01*
X76660166Y-77259439D01*
X76317118Y-77401534D01*
X76008382Y-77607825D01*
X75745825Y-77870382D01*
X75539534Y-78179118D01*
X75397439Y-78522166D01*
X75325000Y-78886344D01*
X75325000Y-79257656D01*
X75397439Y-79621834D01*
X75539534Y-79964882D01*
X75745825Y-80273618D01*
X76008382Y-80536175D01*
X76317118Y-80742466D01*
X76660166Y-80884561D01*
X77024344Y-80957000D01*
X77395656Y-80957000D01*
X77759834Y-80884561D01*
X77912944Y-80821141D01*
X77708382Y-80957825D01*
X77445825Y-81220382D01*
X77239534Y-81529118D01*
X77097439Y-81872166D01*
X77025000Y-82236344D01*
X77025000Y-82607656D01*
X77097439Y-82971834D01*
X77239534Y-83314882D01*
X77445825Y-83623618D01*
X77708382Y-83886175D01*
X78017118Y-84092466D01*
X78150018Y-84147515D01*
X78160997Y-84258985D01*
X78184420Y-84336201D01*
X78204454Y-84402246D01*
X78275026Y-84534276D01*
X78300144Y-84564882D01*
X78369999Y-84650001D01*
X78399003Y-84673804D01*
X79965198Y-86240000D01*
X79114803Y-86240000D01*
X77263804Y-84389002D01*
X77240001Y-84359999D01*
X77124276Y-84265026D01*
X76992247Y-84194454D01*
X76848986Y-84150997D01*
X76737333Y-84140000D01*
X76737322Y-84140000D01*
X76700000Y-84136324D01*
X76662678Y-84140000D01*
X68914802Y-84140000D01*
X65511505Y-80736704D01*
X65811618Y-80536175D01*
X66074175Y-80273618D01*
X66280466Y-79964882D01*
X66422561Y-79621834D01*
X66495000Y-79257656D01*
X66495000Y-78886344D01*
X66422561Y-78522166D01*
X66280466Y-78179118D01*
X66074175Y-77870382D01*
X65811618Y-77607825D01*
X65590382Y-77460000D01*
X66062678Y-77460000D01*
X66100000Y-77463676D01*
X66137322Y-77460000D01*
X66137333Y-77460000D01*
X66248986Y-77449003D01*
X66392247Y-77405546D01*
X66524276Y-77334974D01*
X66640001Y-77240001D01*
X66663803Y-77210998D01*
X67511004Y-76363798D01*
X67540001Y-76340001D01*
X67634974Y-76224276D01*
X67705546Y-76092247D01*
X67749003Y-75948986D01*
X67760000Y-75837333D01*
X67760000Y-75837324D01*
X67763676Y-75800001D01*
X67760000Y-75762678D01*
X67760000Y-72499322D01*
X67763676Y-72461999D01*
X67760000Y-72424676D01*
X67760000Y-72424667D01*
X67749003Y-72313014D01*
X67705546Y-72169753D01*
X67675209Y-72112997D01*
X67634974Y-72037723D01*
X67563799Y-71950997D01*
X67540001Y-71921999D01*
X67511003Y-71898201D01*
X66167519Y-70554717D01*
X66222561Y-70421834D01*
X66295000Y-70057656D01*
X66295000Y-69686344D01*
X66222561Y-69322166D01*
X66080466Y-68979118D01*
X65874175Y-68670382D01*
X65611618Y-68407825D01*
X65302882Y-68201534D01*
X64959834Y-68059439D01*
X64595656Y-67987000D01*
X64224344Y-67987000D01*
X63860166Y-68059439D01*
X63839498Y-68068000D01*
X64111618Y-67886175D01*
X64374175Y-67623618D01*
X64580466Y-67314882D01*
X64722561Y-66971834D01*
X64795000Y-66607656D01*
X64795000Y-66236344D01*
X64722561Y-65872166D01*
X64580466Y-65529118D01*
X64374175Y-65220382D01*
X64111618Y-64957825D01*
X63802882Y-64751534D01*
X63459834Y-64609439D01*
X63095656Y-64537000D01*
X62724344Y-64537000D01*
X62360166Y-64609439D01*
X62017118Y-64751534D01*
X61708382Y-64957825D01*
X61445825Y-65220382D01*
X61239534Y-65529118D01*
X61097439Y-65872166D01*
X61025000Y-66236344D01*
X61025000Y-66607656D01*
X61097439Y-66971834D01*
X61239534Y-67314882D01*
X61445825Y-67623618D01*
X61708382Y-67886175D01*
X62017118Y-68092466D01*
X62360166Y-68234561D01*
X62724344Y-68307000D01*
X63095656Y-68307000D01*
X63459834Y-68234561D01*
X63480502Y-68226000D01*
X63208382Y-68407825D01*
X62945825Y-68670382D01*
X62739534Y-68979118D01*
X62597439Y-69322166D01*
X62525000Y-69686344D01*
X62525000Y-70057656D01*
X62597439Y-70421834D01*
X62739534Y-70764882D01*
X62945825Y-71073618D01*
X63208382Y-71336175D01*
X63517118Y-71542466D01*
X63860166Y-71684561D01*
X64224344Y-71757000D01*
X64595656Y-71757000D01*
X64959834Y-71684561D01*
X65092717Y-71629519D01*
X66240001Y-72776803D01*
X66240001Y-73468557D01*
X66074175Y-73220382D01*
X65811618Y-72957825D01*
X65502882Y-72751534D01*
X65159834Y-72609439D01*
X64795656Y-72537000D01*
X64424344Y-72537000D01*
X64060166Y-72609439D01*
X63717118Y-72751534D01*
X63408382Y-72957825D01*
X63145825Y-73220382D01*
X62939534Y-73529118D01*
X62797439Y-73872166D01*
X62725000Y-74236344D01*
X62725000Y-74607656D01*
X62797439Y-74971834D01*
X62939534Y-75314882D01*
X62967885Y-75357313D01*
X56643618Y-81681581D01*
X56580466Y-81529118D01*
X56374175Y-81220382D01*
X56111618Y-80957825D01*
X55802882Y-80751534D01*
X55459834Y-80609439D01*
X55095656Y-80537000D01*
X54724344Y-80537000D01*
X54360166Y-80609439D01*
X54207056Y-80672859D01*
X54411618Y-80536175D01*
X54674175Y-80273618D01*
X54880466Y-79964882D01*
X55022561Y-79621834D01*
X55095000Y-79257656D01*
X55095000Y-78886344D01*
X55022561Y-78522166D01*
X54880466Y-78179118D01*
X54674175Y-77870382D01*
X54411618Y-77607825D01*
X54102882Y-77401534D01*
X53759834Y-77259439D01*
X53395656Y-77187000D01*
X53024344Y-77187000D01*
X52660166Y-77259439D01*
X52317118Y-77401534D01*
X52008382Y-77607825D01*
X51745825Y-77870382D01*
X51539534Y-78179118D01*
X51460000Y-78371130D01*
X51460000Y-75514801D01*
X51587754Y-75387048D01*
X51745825Y-75623618D01*
X52008382Y-75886175D01*
X52317118Y-76092466D01*
X52660166Y-76234561D01*
X53024344Y-76307000D01*
X53395656Y-76307000D01*
X53759834Y-76234561D01*
X54102882Y-76092466D01*
X54411618Y-75886175D01*
X54674175Y-75623618D01*
X54880466Y-75314882D01*
X55022561Y-74971834D01*
X55095000Y-74607656D01*
X55095000Y-74236344D01*
X55022561Y-73872166D01*
X55012741Y-73848456D01*
X55625000Y-73848456D01*
X55625000Y-74495544D01*
X55751240Y-75130199D01*
X55998871Y-75728031D01*
X56358374Y-76266066D01*
X56815934Y-76723626D01*
X57353969Y-77083129D01*
X57951801Y-77330760D01*
X58586456Y-77457000D01*
X59233544Y-77457000D01*
X59868199Y-77330760D01*
X60466031Y-77083129D01*
X61004066Y-76723626D01*
X61461626Y-76266066D01*
X61821129Y-75728031D01*
X62068760Y-75130199D01*
X62195000Y-74495544D01*
X62195000Y-73848456D01*
X62068760Y-73213801D01*
X61821129Y-72615969D01*
X61461626Y-72077934D01*
X61004066Y-71620374D01*
X60466031Y-71260871D01*
X59868199Y-71013240D01*
X59233544Y-70887000D01*
X58586456Y-70887000D01*
X57951801Y-71013240D01*
X57353969Y-71260871D01*
X56815934Y-71620374D01*
X56358374Y-72077934D01*
X55998871Y-72615969D01*
X55751240Y-73213801D01*
X55625000Y-73848456D01*
X55012741Y-73848456D01*
X54880466Y-73529118D01*
X54674175Y-73220382D01*
X54411618Y-72957825D01*
X54102882Y-72751534D01*
X53759834Y-72609439D01*
X53395656Y-72537000D01*
X53024344Y-72537000D01*
X52660166Y-72609439D01*
X52317118Y-72751534D01*
X52008382Y-72957825D01*
X51745825Y-73220382D01*
X51539534Y-73529118D01*
X51485701Y-73659083D01*
X51477999Y-73658324D01*
X51440676Y-73662000D01*
X51440667Y-73662000D01*
X51329014Y-73672997D01*
X51190546Y-73715000D01*
X51185753Y-73716454D01*
X51053723Y-73787026D01*
X50993654Y-73836324D01*
X50937999Y-73881999D01*
X50914201Y-73910998D01*
X50760000Y-74065198D01*
X50760000Y-71214801D01*
X51342802Y-70632000D01*
X51684493Y-70632000D01*
X51739534Y-70764882D01*
X51945825Y-71073618D01*
X52208382Y-71336175D01*
X52517118Y-71542466D01*
X52860166Y-71684561D01*
X53224344Y-71757000D01*
X53595656Y-71757000D01*
X53959834Y-71684561D01*
X54302882Y-71542466D01*
X54611618Y-71336175D01*
X54874175Y-71073618D01*
X55080466Y-70764882D01*
X55222561Y-70421834D01*
X55295000Y-70057656D01*
X55295000Y-69686344D01*
X55222561Y-69322166D01*
X55080466Y-68979118D01*
X54874175Y-68670382D01*
X54611618Y-68407825D01*
X54339498Y-68226000D01*
X54360166Y-68234561D01*
X54724344Y-68307000D01*
X55095656Y-68307000D01*
X55459834Y-68234561D01*
X55802882Y-68092466D01*
X56111618Y-67886175D01*
X56374175Y-67623618D01*
X56580466Y-67314882D01*
X56722561Y-66971834D01*
X56795000Y-66607656D01*
X56795000Y-66236344D01*
X56722561Y-65872166D01*
X56580466Y-65529118D01*
X56384841Y-65236344D01*
X57025000Y-65236344D01*
X57025000Y-65607656D01*
X57097439Y-65971834D01*
X57239534Y-66314882D01*
X57445825Y-66623618D01*
X57708382Y-66886175D01*
X58017118Y-67092466D01*
X58360166Y-67234561D01*
X58724344Y-67307000D01*
X59095656Y-67307000D01*
X59459834Y-67234561D01*
X59802882Y-67092466D01*
X60111618Y-66886175D01*
X60374175Y-66623618D01*
X60580466Y-66314882D01*
X60722561Y-65971834D01*
X60795000Y-65607656D01*
X60795000Y-65236344D01*
X60722561Y-64872166D01*
X60667519Y-64739283D01*
X61246802Y-64160000D01*
X66585199Y-64160000D01*
X69640001Y-67214804D01*
X69640000Y-82644462D01*
X69615723Y-82680795D01*
X69549010Y-82841855D01*
X69515000Y-83012835D01*
X69515000Y-83187165D01*
X69549010Y-83358145D01*
X69615723Y-83519205D01*
X69712576Y-83664155D01*
X69835845Y-83787424D01*
X69980795Y-83884277D01*
X70141855Y-83950990D01*
X70312835Y-83985000D01*
X70487165Y-83985000D01*
X70658145Y-83950990D01*
X70819205Y-83884277D01*
X70964155Y-83787424D01*
X71087424Y-83664155D01*
X71184277Y-83519205D01*
X71250990Y-83358145D01*
X71285000Y-83187165D01*
X71285000Y-83012835D01*
X71250990Y-82841855D01*
X71184277Y-82680795D01*
X71160000Y-82644462D01*
X71160000Y-80646247D01*
X71170589Y-80666058D01*
X71198301Y-80699825D01*
X71222576Y-80736155D01*
X71253472Y-80767051D01*
X71281183Y-80800817D01*
X71314951Y-80828530D01*
X71345845Y-80859424D01*
X71382171Y-80883696D01*
X71415941Y-80911411D01*
X71454467Y-80932004D01*
X71490795Y-80956277D01*
X71531165Y-80972999D01*
X71569687Y-80993589D01*
X71611487Y-81006269D01*
X71651855Y-81022990D01*
X71694705Y-81031513D01*
X71736510Y-81044195D01*
X71779987Y-81048477D01*
X71822835Y-81057000D01*
X71866523Y-81057000D01*
X71910000Y-81061282D01*
X71953476Y-81057000D01*
X71997165Y-81057000D01*
X72040013Y-81048477D01*
X72083489Y-81044195D01*
X72125292Y-81031514D01*
X72168145Y-81022990D01*
X72208516Y-81006268D01*
X72250312Y-80993589D01*
X72288831Y-80973000D01*
X72329205Y-80956277D01*
X72365537Y-80932001D01*
X72404058Y-80911411D01*
X72437825Y-80883699D01*
X72474155Y-80859424D01*
X72505051Y-80828528D01*
X72538817Y-80800817D01*
X72566530Y-80767049D01*
X72597424Y-80736155D01*
X72621696Y-80699829D01*
X72649411Y-80666059D01*
X72670004Y-80627533D01*
X72694277Y-80591205D01*
X72710999Y-80550835D01*
X72731589Y-80512313D01*
X72744269Y-80470513D01*
X72760990Y-80430145D01*
X72769513Y-80387295D01*
X72782195Y-80345490D01*
X72786477Y-80302013D01*
X72795000Y-80259165D01*
X72795000Y-69686344D01*
X75525000Y-69686344D01*
X75525000Y-70057656D01*
X75597439Y-70421834D01*
X75739534Y-70764882D01*
X75945825Y-71073618D01*
X76208382Y-71336175D01*
X76517118Y-71542466D01*
X76860166Y-71684561D01*
X77224344Y-71757000D01*
X77595656Y-71757000D01*
X77959834Y-71684561D01*
X78302882Y-71542466D01*
X78611618Y-71336175D01*
X78874175Y-71073618D01*
X79080466Y-70764882D01*
X79222561Y-70421834D01*
X79295000Y-70057656D01*
X79295000Y-69686344D01*
X79222561Y-69322166D01*
X79080466Y-68979118D01*
X78874175Y-68670382D01*
X78611618Y-68407825D01*
X78339498Y-68226000D01*
X78360166Y-68234561D01*
X78724344Y-68307000D01*
X79095656Y-68307000D01*
X79459834Y-68234561D01*
X79802882Y-68092466D01*
X80111618Y-67886175D01*
X80374175Y-67623618D01*
X80580466Y-67314882D01*
X80722561Y-66971834D01*
X80795000Y-66607656D01*
X80795000Y-66236344D01*
X80722561Y-65872166D01*
X80580466Y-65529118D01*
X80384841Y-65236344D01*
X81025000Y-65236344D01*
X81025000Y-65607656D01*
X81097439Y-65971834D01*
X81239534Y-66314882D01*
X81445825Y-66623618D01*
X81708382Y-66886175D01*
X82017118Y-67092466D01*
X82360166Y-67234561D01*
X82724344Y-67307000D01*
X83095656Y-67307000D01*
X83459834Y-67234561D01*
X83802882Y-67092466D01*
X84111618Y-66886175D01*
X84374175Y-66623618D01*
X84580466Y-66314882D01*
X84612997Y-66236344D01*
X85025000Y-66236344D01*
X85025000Y-66607656D01*
X85097439Y-66971834D01*
X85239534Y-67314882D01*
X85445825Y-67623618D01*
X85708382Y-67886175D01*
X86017118Y-68092466D01*
X86360166Y-68234561D01*
X86724344Y-68307000D01*
X87095656Y-68307000D01*
X87459834Y-68234561D01*
X87480502Y-68226000D01*
X87208382Y-68407825D01*
X86945825Y-68670382D01*
X86739534Y-68979118D01*
X86597439Y-69322166D01*
X86525000Y-69686344D01*
X86525000Y-70057656D01*
X86597439Y-70421834D01*
X86739534Y-70764882D01*
X86945825Y-71073618D01*
X87208382Y-71336175D01*
X87517118Y-71542466D01*
X87860166Y-71684561D01*
X88224344Y-71757000D01*
X88595656Y-71757000D01*
X88959834Y-71684561D01*
X89302882Y-71542466D01*
X89611618Y-71336175D01*
X89874175Y-71073618D01*
X90080466Y-70764882D01*
X90222561Y-70421834D01*
X90295000Y-70057656D01*
X90295000Y-69686344D01*
X90222561Y-69322166D01*
X90201782Y-69272000D01*
X100371928Y-69272000D01*
X100371928Y-71072000D01*
X100384188Y-71196482D01*
X100420498Y-71316180D01*
X100479463Y-71426494D01*
X100558815Y-71523185D01*
X100655506Y-71602537D01*
X100765820Y-71661502D01*
X100885518Y-71697812D01*
X101010000Y-71710072D01*
X102810000Y-71710072D01*
X102934482Y-71697812D01*
X103054180Y-71661502D01*
X103164494Y-71602537D01*
X103261185Y-71523185D01*
X103340537Y-71426494D01*
X103399502Y-71316180D01*
X103435812Y-71196482D01*
X103448072Y-71072000D01*
X103448072Y-69272000D01*
X103435812Y-69147518D01*
X103399502Y-69027820D01*
X103340537Y-68917506D01*
X103261185Y-68820815D01*
X103164494Y-68741463D01*
X103054180Y-68682498D01*
X103035873Y-68676944D01*
X103102312Y-68610505D01*
X103270299Y-68359095D01*
X103386011Y-68079743D01*
X103445000Y-67783184D01*
X103445000Y-67480816D01*
X103386011Y-67184257D01*
X103270299Y-66904905D01*
X103102312Y-66653495D01*
X102888505Y-66439688D01*
X102637095Y-66271701D01*
X102357743Y-66155989D01*
X102061184Y-66097000D01*
X101758816Y-66097000D01*
X101462257Y-66155989D01*
X101182905Y-66271701D01*
X100931495Y-66439688D01*
X100717688Y-66653495D01*
X100549701Y-66904905D01*
X100433989Y-67184257D01*
X100375000Y-67480816D01*
X100375000Y-67783184D01*
X100433989Y-68079743D01*
X100549701Y-68359095D01*
X100717688Y-68610505D01*
X100784127Y-68676944D01*
X100765820Y-68682498D01*
X100655506Y-68741463D01*
X100558815Y-68820815D01*
X100479463Y-68917506D01*
X100420498Y-69027820D01*
X100384188Y-69147518D01*
X100371928Y-69272000D01*
X90201782Y-69272000D01*
X90080466Y-68979118D01*
X89874175Y-68670382D01*
X89611618Y-68407825D01*
X89302882Y-68201534D01*
X88959834Y-68059439D01*
X88595656Y-67987000D01*
X88224344Y-67987000D01*
X87860166Y-68059439D01*
X87839498Y-68068000D01*
X88111618Y-67886175D01*
X88374175Y-67623618D01*
X88580466Y-67314882D01*
X88722561Y-66971834D01*
X88795000Y-66607656D01*
X88795000Y-66236344D01*
X88722561Y-65872166D01*
X88580466Y-65529118D01*
X88374175Y-65220382D01*
X88111618Y-64957825D01*
X87802882Y-64751534D01*
X87459834Y-64609439D01*
X87095656Y-64537000D01*
X86724344Y-64537000D01*
X86360166Y-64609439D01*
X86017118Y-64751534D01*
X85708382Y-64957825D01*
X85445825Y-65220382D01*
X85239534Y-65529118D01*
X85097439Y-65872166D01*
X85025000Y-66236344D01*
X84612997Y-66236344D01*
X84722561Y-65971834D01*
X84795000Y-65607656D01*
X84795000Y-65236344D01*
X84722561Y-64872166D01*
X84580466Y-64529118D01*
X84374175Y-64220382D01*
X84111618Y-63957825D01*
X83802882Y-63751534D01*
X83459834Y-63609439D01*
X83095656Y-63537000D01*
X82724344Y-63537000D01*
X82360166Y-63609439D01*
X82017118Y-63751534D01*
X81708382Y-63957825D01*
X81445825Y-64220382D01*
X81239534Y-64529118D01*
X81097439Y-64872166D01*
X81025000Y-65236344D01*
X80384841Y-65236344D01*
X80374175Y-65220382D01*
X80111618Y-64957825D01*
X79802882Y-64751534D01*
X79459834Y-64609439D01*
X79095656Y-64537000D01*
X78724344Y-64537000D01*
X78360166Y-64609439D01*
X78017118Y-64751534D01*
X77708382Y-64957825D01*
X77445825Y-65220382D01*
X77239534Y-65529118D01*
X77097439Y-65872166D01*
X77025000Y-66236344D01*
X77025000Y-66607656D01*
X77097439Y-66971834D01*
X77239534Y-67314882D01*
X77445825Y-67623618D01*
X77708382Y-67886175D01*
X77980502Y-68068000D01*
X77959834Y-68059439D01*
X77595656Y-67987000D01*
X77224344Y-67987000D01*
X76860166Y-68059439D01*
X76517118Y-68201534D01*
X76208382Y-68407825D01*
X75945825Y-68670382D01*
X75739534Y-68979118D01*
X75597439Y-69322166D01*
X75525000Y-69686344D01*
X72795000Y-69686344D01*
X72795000Y-66456578D01*
X77566579Y-61685000D01*
X96483422Y-61685000D01*
X98562576Y-63764155D01*
X98685845Y-63887424D01*
X98722170Y-63911696D01*
X98755941Y-63939411D01*
X98794468Y-63960004D01*
X98830795Y-63984277D01*
X98871161Y-64000997D01*
X98909686Y-64021589D01*
X98951489Y-64034270D01*
X98991855Y-64050990D01*
X99034704Y-64059513D01*
X99076510Y-64072195D01*
X99119985Y-64076477D01*
X99162835Y-64085000D01*
X99206531Y-64085000D01*
X99250000Y-64089281D01*
X99293469Y-64085000D01*
X99337165Y-64085000D01*
X99380015Y-64076477D01*
X99423490Y-64072195D01*
X99465295Y-64059513D01*
X99508145Y-64050990D01*
X99548513Y-64034269D01*
X99590313Y-64021589D01*
X99628835Y-64000999D01*
X99669205Y-63984277D01*
X99705533Y-63960004D01*
X99744059Y-63939411D01*
X99777829Y-63911696D01*
X99814155Y-63887424D01*
X99845049Y-63856530D01*
X99878817Y-63828817D01*
X99906530Y-63795049D01*
X99937424Y-63764155D01*
X99961696Y-63727829D01*
X99989411Y-63694059D01*
X100010004Y-63655533D01*
X100034277Y-63619205D01*
X100050999Y-63578835D01*
X100071589Y-63540313D01*
X100084269Y-63498513D01*
X100100990Y-63458145D01*
X100109513Y-63415295D01*
X100122195Y-63373490D01*
X100126477Y-63330015D01*
X100135000Y-63287165D01*
X100135000Y-63243469D01*
X100139281Y-63200000D01*
X100135000Y-63156531D01*
X100135000Y-63112835D01*
X100126477Y-63069985D01*
X100122195Y-63026510D01*
X100109513Y-62984704D01*
X100100990Y-62941855D01*
X100084270Y-62901489D01*
X100071589Y-62859686D01*
X100050997Y-62821161D01*
X100034277Y-62780795D01*
X100010004Y-62744468D01*
X99989411Y-62705941D01*
X99961696Y-62672170D01*
X99937424Y-62635845D01*
X99814155Y-62512576D01*
X97506534Y-60204956D01*
X97478817Y-60171183D01*
X97344059Y-60060589D01*
X97190313Y-59978411D01*
X97023490Y-59927805D01*
X96893477Y-59915000D01*
X96893469Y-59915000D01*
X96850000Y-59910719D01*
X96806531Y-59915000D01*
X77243469Y-59915000D01*
X77200000Y-59910719D01*
X77156531Y-59915000D01*
X77156523Y-59915000D01*
X77026510Y-59927805D01*
X76859687Y-59978411D01*
X76705941Y-60060589D01*
X76604953Y-60143468D01*
X76604951Y-60143470D01*
X76571183Y-60171183D01*
X76543470Y-60204951D01*
X71314952Y-65433470D01*
X71281184Y-65461183D01*
X71253471Y-65494951D01*
X71253468Y-65494954D01*
X71170590Y-65595941D01*
X71088412Y-65749687D01*
X71037805Y-65916510D01*
X71020719Y-66090000D01*
X71025001Y-66133479D01*
X71025001Y-66463572D01*
X71021522Y-66459333D01*
X70963799Y-66388996D01*
X70963795Y-66388992D01*
X70940001Y-66359999D01*
X70911008Y-66336205D01*
X67463804Y-62889003D01*
X67440001Y-62859999D01*
X67324276Y-62765026D01*
X67192247Y-62694454D01*
X67048986Y-62650997D01*
X66937333Y-62640000D01*
X66937322Y-62640000D01*
X66900000Y-62636324D01*
X66862678Y-62640000D01*
X60969323Y-62640000D01*
X60932000Y-62636324D01*
X60894677Y-62640000D01*
X60894667Y-62640000D01*
X60783014Y-62650997D01*
X60639753Y-62694454D01*
X60507724Y-62765026D01*
X60391999Y-62859999D01*
X60368201Y-62888997D01*
X59592717Y-63664481D01*
X59459834Y-63609439D01*
X59095656Y-63537000D01*
X58724344Y-63537000D01*
X58360166Y-63609439D01*
X58017118Y-63751534D01*
X57708382Y-63957825D01*
X57445825Y-64220382D01*
X57239534Y-64529118D01*
X57097439Y-64872166D01*
X57025000Y-65236344D01*
X56384841Y-65236344D01*
X56374175Y-65220382D01*
X56111618Y-64957825D01*
X55802882Y-64751534D01*
X55459834Y-64609439D01*
X55095656Y-64537000D01*
X54724344Y-64537000D01*
X54360166Y-64609439D01*
X54017118Y-64751534D01*
X53708382Y-64957825D01*
X53445825Y-65220382D01*
X53239534Y-65529118D01*
X53184493Y-65662000D01*
X51515322Y-65662000D01*
X51477999Y-65658324D01*
X51440676Y-65662000D01*
X51440667Y-65662000D01*
X51329014Y-65672997D01*
X51193032Y-65714246D01*
X51185753Y-65716454D01*
X51053723Y-65787026D01*
X50970083Y-65855668D01*
X50937999Y-65881999D01*
X50914201Y-65910997D01*
X48788998Y-68036201D01*
X48760000Y-68059999D01*
X48736202Y-68088997D01*
X48736201Y-68088998D01*
X48665026Y-68175724D01*
X48594454Y-68307754D01*
X48564180Y-68407558D01*
X48552956Y-68444561D01*
X48550998Y-68451015D01*
X48536324Y-68600000D01*
X36347000Y-68600000D01*
X36347000Y-57689275D01*
X36347666Y-57682487D01*
X36352301Y-57682000D01*
X165829725Y-57682000D01*
X165836513Y-57682666D01*
G36*
X146199294Y-96831014D02*
G01*
X146384866Y-97057134D01*
X146610986Y-97242706D01*
X146680000Y-97279595D01*
X146680001Y-101325945D01*
X145815957Y-102189990D01*
X145553290Y-102189990D01*
X145605546Y-102092227D01*
X145649003Y-101948966D01*
X145660000Y-101837313D01*
X145660000Y-101837305D01*
X145663676Y-101799980D01*
X145660000Y-101762655D01*
X145660000Y-97279595D01*
X145729014Y-97242706D01*
X145955134Y-97057134D01*
X146140706Y-96831014D01*
X146170000Y-96776209D01*
X146199294Y-96831014D01*
X146199294Y-96831014D01*
G37*
X146199294Y-96831014D02*
X146384866Y-97057134D01*
X146610986Y-97242706D01*
X146680000Y-97279595D01*
X146680001Y-101325945D01*
X145815957Y-102189990D01*
X145553290Y-102189990D01*
X145605546Y-102092227D01*
X145649003Y-101948966D01*
X145660000Y-101837313D01*
X145660000Y-101837305D01*
X145663676Y-101799980D01*
X145660000Y-101762655D01*
X145660000Y-97279595D01*
X145729014Y-97242706D01*
X145955134Y-97057134D01*
X146140706Y-96831014D01*
X146170000Y-96776209D01*
X146199294Y-96831014D01*
G36*
X67851320Y-89298995D02*
G01*
X67828038Y-89375744D01*
X67827805Y-89376511D01*
X67815000Y-89506524D01*
X67815000Y-89506531D01*
X67810719Y-89550000D01*
X67815000Y-89593469D01*
X67815001Y-91762830D01*
X67815000Y-91762835D01*
X67815000Y-91937165D01*
X67823525Y-91980023D01*
X67827806Y-92023490D01*
X67840485Y-92065285D01*
X67849010Y-92108145D01*
X67865735Y-92148522D01*
X67878412Y-92190313D01*
X67887706Y-92207702D01*
X67880986Y-92211294D01*
X67654866Y-92396866D01*
X67469294Y-92622986D01*
X67440000Y-92677791D01*
X67410706Y-92622986D01*
X67225134Y-92396866D01*
X66999014Y-92211294D01*
X66741034Y-92073401D01*
X66461111Y-91988487D01*
X66242950Y-91967000D01*
X66097050Y-91967000D01*
X65878889Y-91988487D01*
X65598966Y-92073401D01*
X65340986Y-92211294D01*
X65114866Y-92396866D01*
X64929294Y-92622986D01*
X64900000Y-92677791D01*
X64870706Y-92622986D01*
X64685134Y-92396866D01*
X64459014Y-92211294D01*
X64201034Y-92073401D01*
X63921111Y-91988487D01*
X63702950Y-91967000D01*
X63557050Y-91967000D01*
X63338889Y-91988487D01*
X63058966Y-92073401D01*
X62800986Y-92211294D01*
X62574866Y-92396866D01*
X62389294Y-92622986D01*
X62251401Y-92880966D01*
X62166487Y-93160889D01*
X62137815Y-93452000D01*
X62166487Y-93743111D01*
X62251401Y-94023034D01*
X62389294Y-94281014D01*
X62574866Y-94507134D01*
X62800986Y-94692706D01*
X62855791Y-94722000D01*
X62800986Y-94751294D01*
X62574866Y-94936866D01*
X62389294Y-95162986D01*
X62251401Y-95420966D01*
X62166487Y-95700889D01*
X62137815Y-95992000D01*
X62166487Y-96283111D01*
X62251401Y-96563034D01*
X62389294Y-96821014D01*
X62574866Y-97047134D01*
X62800986Y-97232706D01*
X63058966Y-97370599D01*
X63338889Y-97455513D01*
X63557050Y-97477000D01*
X63702950Y-97477000D01*
X63921111Y-97455513D01*
X64201034Y-97370599D01*
X64459014Y-97232706D01*
X64685134Y-97047134D01*
X64870706Y-96821014D01*
X64900000Y-96766209D01*
X64929294Y-96821014D01*
X65114866Y-97047134D01*
X65340986Y-97232706D01*
X65598966Y-97370599D01*
X65878889Y-97455513D01*
X66097050Y-97477000D01*
X66242950Y-97477000D01*
X66461111Y-97455513D01*
X66741034Y-97370599D01*
X66999014Y-97232706D01*
X67225134Y-97047134D01*
X67410706Y-96821014D01*
X67440000Y-96766209D01*
X67469294Y-96821014D01*
X67654866Y-97047134D01*
X67880986Y-97232706D01*
X68138966Y-97370599D01*
X68418889Y-97455513D01*
X68637050Y-97477000D01*
X68782950Y-97477000D01*
X69001111Y-97455513D01*
X69281034Y-97370599D01*
X69539014Y-97232706D01*
X69765134Y-97047134D01*
X69950706Y-96821014D01*
X69985201Y-96756477D01*
X70054822Y-96873355D01*
X70249731Y-97089588D01*
X70483080Y-97263641D01*
X70745901Y-97388825D01*
X70893110Y-97433476D01*
X71123000Y-97312155D01*
X71123000Y-96119000D01*
X71377000Y-96119000D01*
X71377000Y-97312155D01*
X71606890Y-97433476D01*
X71754099Y-97388825D01*
X72016920Y-97263641D01*
X72250269Y-97089588D01*
X72445178Y-96873355D01*
X72520000Y-96747745D01*
X72594822Y-96873355D01*
X72789731Y-97089588D01*
X73023080Y-97263641D01*
X73285901Y-97388825D01*
X73433110Y-97433476D01*
X73663000Y-97312155D01*
X73663000Y-96119000D01*
X73917000Y-96119000D01*
X73917000Y-97312155D01*
X74146890Y-97433476D01*
X74294099Y-97388825D01*
X74556920Y-97263641D01*
X74790269Y-97089588D01*
X74985178Y-96873355D01*
X75060000Y-96747745D01*
X75134822Y-96873355D01*
X75329731Y-97089588D01*
X75563080Y-97263641D01*
X75825901Y-97388825D01*
X75973110Y-97433476D01*
X76203000Y-97312155D01*
X76203000Y-96119000D01*
X76457000Y-96119000D01*
X76457000Y-97312155D01*
X76686890Y-97433476D01*
X76834099Y-97388825D01*
X77096920Y-97263641D01*
X77330269Y-97089588D01*
X77525178Y-96873355D01*
X77600000Y-96747745D01*
X77674822Y-96873355D01*
X77869731Y-97089588D01*
X78103080Y-97263641D01*
X78365901Y-97388825D01*
X78513110Y-97433476D01*
X78743000Y-97312155D01*
X78743000Y-96119000D01*
X78997000Y-96119000D01*
X78997000Y-97312155D01*
X79226890Y-97433476D01*
X79374099Y-97388825D01*
X79636920Y-97263641D01*
X79870269Y-97089588D01*
X80065178Y-96873355D01*
X80140000Y-96747745D01*
X80214822Y-96873355D01*
X80409731Y-97089588D01*
X80643080Y-97263641D01*
X80905901Y-97388825D01*
X81053110Y-97433476D01*
X81283000Y-97312155D01*
X81283000Y-96119000D01*
X81537000Y-96119000D01*
X81537000Y-97312155D01*
X81766890Y-97433476D01*
X81914099Y-97388825D01*
X82176920Y-97263641D01*
X82410269Y-97089588D01*
X82605178Y-96873355D01*
X82680000Y-96747745D01*
X82754822Y-96873355D01*
X82949731Y-97089588D01*
X83183080Y-97263641D01*
X83445901Y-97388825D01*
X83593110Y-97433476D01*
X83823000Y-97312155D01*
X83823000Y-96119000D01*
X84077000Y-96119000D01*
X84077000Y-97312155D01*
X84306890Y-97433476D01*
X84454099Y-97388825D01*
X84716920Y-97263641D01*
X84950269Y-97089588D01*
X85145178Y-96873355D01*
X85220000Y-96747745D01*
X85294822Y-96873355D01*
X85489731Y-97089588D01*
X85723080Y-97263641D01*
X85985901Y-97388825D01*
X86133110Y-97433476D01*
X86363000Y-97312155D01*
X86363000Y-96119000D01*
X86617000Y-96119000D01*
X86617000Y-97312155D01*
X86846890Y-97433476D01*
X86994099Y-97388825D01*
X87256920Y-97263641D01*
X87490269Y-97089588D01*
X87685178Y-96873355D01*
X87834157Y-96623252D01*
X87931481Y-96348891D01*
X87810814Y-96119000D01*
X86617000Y-96119000D01*
X86363000Y-96119000D01*
X84077000Y-96119000D01*
X83823000Y-96119000D01*
X81537000Y-96119000D01*
X81283000Y-96119000D01*
X78997000Y-96119000D01*
X78743000Y-96119000D01*
X76457000Y-96119000D01*
X76203000Y-96119000D01*
X73917000Y-96119000D01*
X73663000Y-96119000D01*
X71377000Y-96119000D01*
X71123000Y-96119000D01*
X71103000Y-96119000D01*
X71103000Y-95865000D01*
X71123000Y-95865000D01*
X71123000Y-93579000D01*
X71377000Y-93579000D01*
X71377000Y-95865000D01*
X73663000Y-95865000D01*
X73663000Y-93579000D01*
X73917000Y-93579000D01*
X73917000Y-95865000D01*
X76203000Y-95865000D01*
X76203000Y-93579000D01*
X76457000Y-93579000D01*
X76457000Y-95865000D01*
X78743000Y-95865000D01*
X78743000Y-93579000D01*
X78997000Y-93579000D01*
X78997000Y-95865000D01*
X81283000Y-95865000D01*
X81283000Y-93579000D01*
X81537000Y-93579000D01*
X81537000Y-95865000D01*
X83823000Y-95865000D01*
X83823000Y-93579000D01*
X81537000Y-93579000D01*
X81283000Y-93579000D01*
X78997000Y-93579000D01*
X78743000Y-93579000D01*
X76457000Y-93579000D01*
X76203000Y-93579000D01*
X73917000Y-93579000D01*
X73663000Y-93579000D01*
X71377000Y-93579000D01*
X71123000Y-93579000D01*
X71103000Y-93579000D01*
X71103000Y-93325000D01*
X71123000Y-93325000D01*
X71123000Y-92131845D01*
X71377000Y-92131845D01*
X71377000Y-93325000D01*
X73663000Y-93325000D01*
X73663000Y-92131845D01*
X73917000Y-92131845D01*
X73917000Y-93325000D01*
X76203000Y-93325000D01*
X76203000Y-92131845D01*
X76457000Y-92131845D01*
X76457000Y-93325000D01*
X78743000Y-93325000D01*
X78743000Y-92131845D01*
X78997000Y-92131845D01*
X78997000Y-93325000D01*
X81283000Y-93325000D01*
X81283000Y-92131845D01*
X81537000Y-92131845D01*
X81537000Y-93325000D01*
X83823000Y-93325000D01*
X83823000Y-92131845D01*
X84077000Y-92131845D01*
X84077000Y-93325000D01*
X84097000Y-93325000D01*
X84097000Y-93579000D01*
X84077000Y-93579000D01*
X84077000Y-95865000D01*
X86363000Y-95865000D01*
X86363000Y-95845000D01*
X86617000Y-95845000D01*
X86617000Y-95865000D01*
X87810814Y-95865000D01*
X87931481Y-95635109D01*
X87834157Y-95360748D01*
X87685178Y-95110645D01*
X87508374Y-94914498D01*
X87584180Y-94891502D01*
X87694494Y-94832537D01*
X87791185Y-94753185D01*
X87870537Y-94656494D01*
X87929502Y-94546180D01*
X87965812Y-94426482D01*
X87978072Y-94302000D01*
X87978072Y-92602000D01*
X87965812Y-92477518D01*
X87929502Y-92357820D01*
X87870537Y-92247506D01*
X87791185Y-92150815D01*
X87694494Y-92071463D01*
X87584180Y-92012498D01*
X87464482Y-91976188D01*
X87340000Y-91963928D01*
X85640000Y-91963928D01*
X85515518Y-91976188D01*
X85395820Y-92012498D01*
X85285506Y-92071463D01*
X85188815Y-92150815D01*
X85109463Y-92247506D01*
X85050498Y-92357820D01*
X85026034Y-92438466D01*
X84950269Y-92354412D01*
X84716920Y-92180359D01*
X84454099Y-92055175D01*
X84306890Y-92010524D01*
X84077000Y-92131845D01*
X83823000Y-92131845D01*
X83593110Y-92010524D01*
X83445901Y-92055175D01*
X83183080Y-92180359D01*
X82949731Y-92354412D01*
X82754822Y-92570645D01*
X82680000Y-92696255D01*
X82605178Y-92570645D01*
X82410269Y-92354412D01*
X82176920Y-92180359D01*
X81914099Y-92055175D01*
X81766890Y-92010524D01*
X81537000Y-92131845D01*
X81283000Y-92131845D01*
X81053110Y-92010524D01*
X80905901Y-92055175D01*
X80643080Y-92180359D01*
X80409731Y-92354412D01*
X80214822Y-92570645D01*
X80140000Y-92696255D01*
X80065178Y-92570645D01*
X79870269Y-92354412D01*
X79636920Y-92180359D01*
X79374099Y-92055175D01*
X79226890Y-92010524D01*
X78997000Y-92131845D01*
X78743000Y-92131845D01*
X78513110Y-92010524D01*
X78365901Y-92055175D01*
X78103080Y-92180359D01*
X77869731Y-92354412D01*
X77674822Y-92570645D01*
X77600000Y-92696255D01*
X77525178Y-92570645D01*
X77330269Y-92354412D01*
X77096920Y-92180359D01*
X76834099Y-92055175D01*
X76686890Y-92010524D01*
X76457000Y-92131845D01*
X76203000Y-92131845D01*
X75973110Y-92010524D01*
X75825901Y-92055175D01*
X75563080Y-92180359D01*
X75329731Y-92354412D01*
X75134822Y-92570645D01*
X75060000Y-92696255D01*
X74985178Y-92570645D01*
X74790269Y-92354412D01*
X74556920Y-92180359D01*
X74294099Y-92055175D01*
X74146890Y-92010524D01*
X73917000Y-92131845D01*
X73663000Y-92131845D01*
X73433110Y-92010524D01*
X73285901Y-92055175D01*
X73023080Y-92180359D01*
X72789731Y-92354412D01*
X72594822Y-92570645D01*
X72520000Y-92696255D01*
X72445178Y-92570645D01*
X72250269Y-92354412D01*
X72016920Y-92180359D01*
X71754099Y-92055175D01*
X71606890Y-92010524D01*
X71377000Y-92131845D01*
X71123000Y-92131845D01*
X70893110Y-92010524D01*
X70745901Y-92055175D01*
X70483080Y-92180359D01*
X70249731Y-92354412D01*
X70054822Y-92570645D01*
X69985201Y-92687523D01*
X69950706Y-92622986D01*
X69765134Y-92396866D01*
X69539014Y-92211294D01*
X69516739Y-92199388D01*
X69521589Y-92190313D01*
X69534269Y-92148513D01*
X69550990Y-92108145D01*
X69559513Y-92065295D01*
X69572195Y-92023490D01*
X69576477Y-91980013D01*
X69585000Y-91937165D01*
X69585000Y-89796748D01*
X69600990Y-89758145D01*
X69609514Y-89715293D01*
X69611454Y-89708898D01*
X69615723Y-89719205D01*
X69712576Y-89864155D01*
X69835845Y-89987424D01*
X69980795Y-90084277D01*
X70141855Y-90150990D01*
X70312835Y-90185000D01*
X70487165Y-90185000D01*
X70658145Y-90150990D01*
X70819205Y-90084277D01*
X70855538Y-90060000D01*
X74485163Y-90060000D01*
X76136164Y-91711002D01*
X76159963Y-91740001D01*
X76275688Y-91834974D01*
X76407717Y-91905546D01*
X76550978Y-91949003D01*
X76662631Y-91960000D01*
X76662639Y-91960000D01*
X76699964Y-91963676D01*
X76737289Y-91960000D01*
X88735189Y-91960000D01*
X88739981Y-91964792D01*
X88739980Y-98662657D01*
X88736304Y-98699980D01*
X88739980Y-98737302D01*
X88739980Y-98737312D01*
X88750977Y-98848965D01*
X88792476Y-98985771D01*
X88794434Y-98992226D01*
X88865006Y-99124256D01*
X88877927Y-99140000D01*
X88959979Y-99239981D01*
X88988983Y-99263784D01*
X91265198Y-101540000D01*
X64214802Y-101540000D01*
X61860000Y-99185199D01*
X61860000Y-89755538D01*
X61884277Y-89719205D01*
X61950990Y-89558145D01*
X61985000Y-89387165D01*
X61985000Y-89212835D01*
X61984441Y-89210026D01*
X67878308Y-89210026D01*
X67851320Y-89298995D01*
X67851320Y-89298995D01*
G37*
X67851320Y-89298995D02*
X67828038Y-89375744D01*
X67827805Y-89376511D01*
X67815000Y-89506524D01*
X67815000Y-89506531D01*
X67810719Y-89550000D01*
X67815000Y-89593469D01*
X67815001Y-91762830D01*
X67815000Y-91762835D01*
X67815000Y-91937165D01*
X67823525Y-91980023D01*
X67827806Y-92023490D01*
X67840485Y-92065285D01*
X67849010Y-92108145D01*
X67865735Y-92148522D01*
X67878412Y-92190313D01*
X67887706Y-92207702D01*
X67880986Y-92211294D01*
X67654866Y-92396866D01*
X67469294Y-92622986D01*
X67440000Y-92677791D01*
X67410706Y-92622986D01*
X67225134Y-92396866D01*
X66999014Y-92211294D01*
X66741034Y-92073401D01*
X66461111Y-91988487D01*
X66242950Y-91967000D01*
X66097050Y-91967000D01*
X65878889Y-91988487D01*
X65598966Y-92073401D01*
X65340986Y-92211294D01*
X65114866Y-92396866D01*
X64929294Y-92622986D01*
X64900000Y-92677791D01*
X64870706Y-92622986D01*
X64685134Y-92396866D01*
X64459014Y-92211294D01*
X64201034Y-92073401D01*
X63921111Y-91988487D01*
X63702950Y-91967000D01*
X63557050Y-91967000D01*
X63338889Y-91988487D01*
X63058966Y-92073401D01*
X62800986Y-92211294D01*
X62574866Y-92396866D01*
X62389294Y-92622986D01*
X62251401Y-92880966D01*
X62166487Y-93160889D01*
X62137815Y-93452000D01*
X62166487Y-93743111D01*
X62251401Y-94023034D01*
X62389294Y-94281014D01*
X62574866Y-94507134D01*
X62800986Y-94692706D01*
X62855791Y-94722000D01*
X62800986Y-94751294D01*
X62574866Y-94936866D01*
X62389294Y-95162986D01*
X62251401Y-95420966D01*
X62166487Y-95700889D01*
X62137815Y-95992000D01*
X62166487Y-96283111D01*
X62251401Y-96563034D01*
X62389294Y-96821014D01*
X62574866Y-97047134D01*
X62800986Y-97232706D01*
X63058966Y-97370599D01*
X63338889Y-97455513D01*
X63557050Y-97477000D01*
X63702950Y-97477000D01*
X63921111Y-97455513D01*
X64201034Y-97370599D01*
X64459014Y-97232706D01*
X64685134Y-97047134D01*
X64870706Y-96821014D01*
X64900000Y-96766209D01*
X64929294Y-96821014D01*
X65114866Y-97047134D01*
X65340986Y-97232706D01*
X65598966Y-97370599D01*
X65878889Y-97455513D01*
X66097050Y-97477000D01*
X66242950Y-97477000D01*
X66461111Y-97455513D01*
X66741034Y-97370599D01*
X66999014Y-97232706D01*
X67225134Y-97047134D01*
X67410706Y-96821014D01*
X67440000Y-96766209D01*
X67469294Y-96821014D01*
X67654866Y-97047134D01*
X67880986Y-97232706D01*
X68138966Y-97370599D01*
X68418889Y-97455513D01*
X68637050Y-97477000D01*
X68782950Y-97477000D01*
X69001111Y-97455513D01*
X69281034Y-97370599D01*
X69539014Y-97232706D01*
X69765134Y-97047134D01*
X69950706Y-96821014D01*
X69985201Y-96756477D01*
X70054822Y-96873355D01*
X70249731Y-97089588D01*
X70483080Y-97263641D01*
X70745901Y-97388825D01*
X70893110Y-97433476D01*
X71123000Y-97312155D01*
X71123000Y-96119000D01*
X71377000Y-96119000D01*
X71377000Y-97312155D01*
X71606890Y-97433476D01*
X71754099Y-97388825D01*
X72016920Y-97263641D01*
X72250269Y-97089588D01*
X72445178Y-96873355D01*
X72520000Y-96747745D01*
X72594822Y-96873355D01*
X72789731Y-97089588D01*
X73023080Y-97263641D01*
X73285901Y-97388825D01*
X73433110Y-97433476D01*
X73663000Y-97312155D01*
X73663000Y-96119000D01*
X73917000Y-96119000D01*
X73917000Y-97312155D01*
X74146890Y-97433476D01*
X74294099Y-97388825D01*
X74556920Y-97263641D01*
X74790269Y-97089588D01*
X74985178Y-96873355D01*
X75060000Y-96747745D01*
X75134822Y-96873355D01*
X75329731Y-97089588D01*
X75563080Y-97263641D01*
X75825901Y-97388825D01*
X75973110Y-97433476D01*
X76203000Y-97312155D01*
X76203000Y-96119000D01*
X76457000Y-96119000D01*
X76457000Y-97312155D01*
X76686890Y-97433476D01*
X76834099Y-97388825D01*
X77096920Y-97263641D01*
X77330269Y-97089588D01*
X77525178Y-96873355D01*
X77600000Y-96747745D01*
X77674822Y-96873355D01*
X77869731Y-97089588D01*
X78103080Y-97263641D01*
X78365901Y-97388825D01*
X78513110Y-97433476D01*
X78743000Y-97312155D01*
X78743000Y-96119000D01*
X78997000Y-96119000D01*
X78997000Y-97312155D01*
X79226890Y-97433476D01*
X79374099Y-97388825D01*
X79636920Y-97263641D01*
X79870269Y-97089588D01*
X80065178Y-96873355D01*
X80140000Y-96747745D01*
X80214822Y-96873355D01*
X80409731Y-97089588D01*
X80643080Y-97263641D01*
X80905901Y-97388825D01*
X81053110Y-97433476D01*
X81283000Y-97312155D01*
X81283000Y-96119000D01*
X81537000Y-96119000D01*
X81537000Y-97312155D01*
X81766890Y-97433476D01*
X81914099Y-97388825D01*
X82176920Y-97263641D01*
X82410269Y-97089588D01*
X82605178Y-96873355D01*
X82680000Y-96747745D01*
X82754822Y-96873355D01*
X82949731Y-97089588D01*
X83183080Y-97263641D01*
X83445901Y-97388825D01*
X83593110Y-97433476D01*
X83823000Y-97312155D01*
X83823000Y-96119000D01*
X84077000Y-96119000D01*
X84077000Y-97312155D01*
X84306890Y-97433476D01*
X84454099Y-97388825D01*
X84716920Y-97263641D01*
X84950269Y-97089588D01*
X85145178Y-96873355D01*
X85220000Y-96747745D01*
X85294822Y-96873355D01*
X85489731Y-97089588D01*
X85723080Y-97263641D01*
X85985901Y-97388825D01*
X86133110Y-97433476D01*
X86363000Y-97312155D01*
X86363000Y-96119000D01*
X86617000Y-96119000D01*
X86617000Y-97312155D01*
X86846890Y-97433476D01*
X86994099Y-97388825D01*
X87256920Y-97263641D01*
X87490269Y-97089588D01*
X87685178Y-96873355D01*
X87834157Y-96623252D01*
X87931481Y-96348891D01*
X87810814Y-96119000D01*
X86617000Y-96119000D01*
X86363000Y-96119000D01*
X84077000Y-96119000D01*
X83823000Y-96119000D01*
X81537000Y-96119000D01*
X81283000Y-96119000D01*
X78997000Y-96119000D01*
X78743000Y-96119000D01*
X76457000Y-96119000D01*
X76203000Y-96119000D01*
X73917000Y-96119000D01*
X73663000Y-96119000D01*
X71377000Y-96119000D01*
X71123000Y-96119000D01*
X71103000Y-96119000D01*
X71103000Y-95865000D01*
X71123000Y-95865000D01*
X71123000Y-93579000D01*
X71377000Y-93579000D01*
X71377000Y-95865000D01*
X73663000Y-95865000D01*
X73663000Y-93579000D01*
X73917000Y-93579000D01*
X73917000Y-95865000D01*
X76203000Y-95865000D01*
X76203000Y-93579000D01*
X76457000Y-93579000D01*
X76457000Y-95865000D01*
X78743000Y-95865000D01*
X78743000Y-93579000D01*
X78997000Y-93579000D01*
X78997000Y-95865000D01*
X81283000Y-95865000D01*
X81283000Y-93579000D01*
X81537000Y-93579000D01*
X81537000Y-95865000D01*
X83823000Y-95865000D01*
X83823000Y-93579000D01*
X81537000Y-93579000D01*
X81283000Y-93579000D01*
X78997000Y-93579000D01*
X78743000Y-93579000D01*
X76457000Y-93579000D01*
X76203000Y-93579000D01*
X73917000Y-93579000D01*
X73663000Y-93579000D01*
X71377000Y-93579000D01*
X71123000Y-93579000D01*
X71103000Y-93579000D01*
X71103000Y-93325000D01*
X71123000Y-93325000D01*
X71123000Y-92131845D01*
X71377000Y-92131845D01*
X71377000Y-93325000D01*
X73663000Y-93325000D01*
X73663000Y-92131845D01*
X73917000Y-92131845D01*
X73917000Y-93325000D01*
X76203000Y-93325000D01*
X76203000Y-92131845D01*
X76457000Y-92131845D01*
X76457000Y-93325000D01*
X78743000Y-93325000D01*
X78743000Y-92131845D01*
X78997000Y-92131845D01*
X78997000Y-93325000D01*
X81283000Y-93325000D01*
X81283000Y-92131845D01*
X81537000Y-92131845D01*
X81537000Y-93325000D01*
X83823000Y-93325000D01*
X83823000Y-92131845D01*
X84077000Y-92131845D01*
X84077000Y-93325000D01*
X84097000Y-93325000D01*
X84097000Y-93579000D01*
X84077000Y-93579000D01*
X84077000Y-95865000D01*
X86363000Y-95865000D01*
X86363000Y-95845000D01*
X86617000Y-95845000D01*
X86617000Y-95865000D01*
X87810814Y-95865000D01*
X87931481Y-95635109D01*
X87834157Y-95360748D01*
X87685178Y-95110645D01*
X87508374Y-94914498D01*
X87584180Y-94891502D01*
X87694494Y-94832537D01*
X87791185Y-94753185D01*
X87870537Y-94656494D01*
X87929502Y-94546180D01*
X87965812Y-94426482D01*
X87978072Y-94302000D01*
X87978072Y-92602000D01*
X87965812Y-92477518D01*
X87929502Y-92357820D01*
X87870537Y-92247506D01*
X87791185Y-92150815D01*
X87694494Y-92071463D01*
X87584180Y-92012498D01*
X87464482Y-91976188D01*
X87340000Y-91963928D01*
X85640000Y-91963928D01*
X85515518Y-91976188D01*
X85395820Y-92012498D01*
X85285506Y-92071463D01*
X85188815Y-92150815D01*
X85109463Y-92247506D01*
X85050498Y-92357820D01*
X85026034Y-92438466D01*
X84950269Y-92354412D01*
X84716920Y-92180359D01*
X84454099Y-92055175D01*
X84306890Y-92010524D01*
X84077000Y-92131845D01*
X83823000Y-92131845D01*
X83593110Y-92010524D01*
X83445901Y-92055175D01*
X83183080Y-92180359D01*
X82949731Y-92354412D01*
X82754822Y-92570645D01*
X82680000Y-92696255D01*
X82605178Y-92570645D01*
X82410269Y-92354412D01*
X82176920Y-92180359D01*
X81914099Y-92055175D01*
X81766890Y-92010524D01*
X81537000Y-92131845D01*
X81283000Y-92131845D01*
X81053110Y-92010524D01*
X80905901Y-92055175D01*
X80643080Y-92180359D01*
X80409731Y-92354412D01*
X80214822Y-92570645D01*
X80140000Y-92696255D01*
X80065178Y-92570645D01*
X79870269Y-92354412D01*
X79636920Y-92180359D01*
X79374099Y-92055175D01*
X79226890Y-92010524D01*
X78997000Y-92131845D01*
X78743000Y-92131845D01*
X78513110Y-92010524D01*
X78365901Y-92055175D01*
X78103080Y-92180359D01*
X77869731Y-92354412D01*
X77674822Y-92570645D01*
X77600000Y-92696255D01*
X77525178Y-92570645D01*
X77330269Y-92354412D01*
X77096920Y-92180359D01*
X76834099Y-92055175D01*
X76686890Y-92010524D01*
X76457000Y-92131845D01*
X76203000Y-92131845D01*
X75973110Y-92010524D01*
X75825901Y-92055175D01*
X75563080Y-92180359D01*
X75329731Y-92354412D01*
X75134822Y-92570645D01*
X75060000Y-92696255D01*
X74985178Y-92570645D01*
X74790269Y-92354412D01*
X74556920Y-92180359D01*
X74294099Y-92055175D01*
X74146890Y-92010524D01*
X73917000Y-92131845D01*
X73663000Y-92131845D01*
X73433110Y-92010524D01*
X73285901Y-92055175D01*
X73023080Y-92180359D01*
X72789731Y-92354412D01*
X72594822Y-92570645D01*
X72520000Y-92696255D01*
X72445178Y-92570645D01*
X72250269Y-92354412D01*
X72016920Y-92180359D01*
X71754099Y-92055175D01*
X71606890Y-92010524D01*
X71377000Y-92131845D01*
X71123000Y-92131845D01*
X70893110Y-92010524D01*
X70745901Y-92055175D01*
X70483080Y-92180359D01*
X70249731Y-92354412D01*
X70054822Y-92570645D01*
X69985201Y-92687523D01*
X69950706Y-92622986D01*
X69765134Y-92396866D01*
X69539014Y-92211294D01*
X69516739Y-92199388D01*
X69521589Y-92190313D01*
X69534269Y-92148513D01*
X69550990Y-92108145D01*
X69559513Y-92065295D01*
X69572195Y-92023490D01*
X69576477Y-91980013D01*
X69585000Y-91937165D01*
X69585000Y-89796748D01*
X69600990Y-89758145D01*
X69609514Y-89715293D01*
X69611454Y-89708898D01*
X69615723Y-89719205D01*
X69712576Y-89864155D01*
X69835845Y-89987424D01*
X69980795Y-90084277D01*
X70141855Y-90150990D01*
X70312835Y-90185000D01*
X70487165Y-90185000D01*
X70658145Y-90150990D01*
X70819205Y-90084277D01*
X70855538Y-90060000D01*
X74485163Y-90060000D01*
X76136164Y-91711002D01*
X76159963Y-91740001D01*
X76275688Y-91834974D01*
X76407717Y-91905546D01*
X76550978Y-91949003D01*
X76662631Y-91960000D01*
X76662639Y-91960000D01*
X76699964Y-91963676D01*
X76737289Y-91960000D01*
X88735189Y-91960000D01*
X88739981Y-91964792D01*
X88739980Y-98662657D01*
X88736304Y-98699980D01*
X88739980Y-98737302D01*
X88739980Y-98737312D01*
X88750977Y-98848965D01*
X88792476Y-98985771D01*
X88794434Y-98992226D01*
X88865006Y-99124256D01*
X88877927Y-99140000D01*
X88959979Y-99239981D01*
X88988983Y-99263784D01*
X91265198Y-101540000D01*
X64214802Y-101540000D01*
X61860000Y-99185199D01*
X61860000Y-89755538D01*
X61884277Y-89719205D01*
X61950990Y-89558145D01*
X61985000Y-89387165D01*
X61985000Y-89212835D01*
X61984441Y-89210026D01*
X67878308Y-89210026D01*
X67851320Y-89298995D01*
G36*
X143659294Y-96831014D02*
G01*
X143844866Y-97057134D01*
X144070986Y-97242706D01*
X144140000Y-97279595D01*
X144140001Y-101485178D01*
X144085199Y-101539980D01*
X142484792Y-101539980D01*
X142871008Y-101153765D01*
X142900001Y-101129971D01*
X142923795Y-101100978D01*
X142923799Y-101100974D01*
X142991272Y-101018757D01*
X142994974Y-101014246D01*
X143065546Y-100882217D01*
X143109003Y-100738956D01*
X143120000Y-100627303D01*
X143120000Y-100627294D01*
X143123676Y-100589971D01*
X143120000Y-100552648D01*
X143120000Y-97279595D01*
X143189014Y-97242706D01*
X143415134Y-97057134D01*
X143600706Y-96831014D01*
X143630000Y-96776209D01*
X143659294Y-96831014D01*
X143659294Y-96831014D01*
G37*
X143659294Y-96831014D02*
X143844866Y-97057134D01*
X144070986Y-97242706D01*
X144140000Y-97279595D01*
X144140001Y-101485178D01*
X144085199Y-101539980D01*
X142484792Y-101539980D01*
X142871008Y-101153765D01*
X142900001Y-101129971D01*
X142923795Y-101100978D01*
X142923799Y-101100974D01*
X142991272Y-101018757D01*
X142994974Y-101014246D01*
X143065546Y-100882217D01*
X143109003Y-100738956D01*
X143120000Y-100627303D01*
X143120000Y-100627294D01*
X143123676Y-100589971D01*
X143120000Y-100552648D01*
X143120000Y-97279595D01*
X143189014Y-97242706D01*
X143415134Y-97057134D01*
X143600706Y-96831014D01*
X143630000Y-96776209D01*
X143659294Y-96831014D01*
G36*
X141119294Y-96831014D02*
G01*
X141304866Y-97057134D01*
X141530986Y-97242706D01*
X141600000Y-97279595D01*
X141600001Y-100275167D01*
X140985199Y-100889970D01*
X133264772Y-100889970D01*
X133034802Y-100660000D01*
X137062678Y-100660000D01*
X137100000Y-100663676D01*
X137137322Y-100660000D01*
X137137333Y-100660000D01*
X137248986Y-100649003D01*
X137392247Y-100605546D01*
X137524276Y-100534974D01*
X137640001Y-100440001D01*
X137663804Y-100410997D01*
X140331003Y-97743799D01*
X140360001Y-97720001D01*
X140387748Y-97686191D01*
X140454974Y-97604277D01*
X140525546Y-97472247D01*
X140531613Y-97452246D01*
X140569003Y-97328986D01*
X140573527Y-97283055D01*
X140649014Y-97242706D01*
X140875134Y-97057134D01*
X141060706Y-96831014D01*
X141090000Y-96776209D01*
X141119294Y-96831014D01*
X141119294Y-96831014D01*
G37*
X141119294Y-96831014D02*
X141304866Y-97057134D01*
X141530986Y-97242706D01*
X141600000Y-97279595D01*
X141600001Y-100275167D01*
X140985199Y-100889970D01*
X133264772Y-100889970D01*
X133034802Y-100660000D01*
X137062678Y-100660000D01*
X137100000Y-100663676D01*
X137137322Y-100660000D01*
X137137333Y-100660000D01*
X137248986Y-100649003D01*
X137392247Y-100605546D01*
X137524276Y-100534974D01*
X137640001Y-100440001D01*
X137663804Y-100410997D01*
X140331003Y-97743799D01*
X140360001Y-97720001D01*
X140387748Y-97686191D01*
X140454974Y-97604277D01*
X140525546Y-97472247D01*
X140531613Y-97452246D01*
X140569003Y-97328986D01*
X140573527Y-97283055D01*
X140649014Y-97242706D01*
X140875134Y-97057134D01*
X141060706Y-96831014D01*
X141090000Y-96776209D01*
X141119294Y-96831014D01*
G36*
X148739294Y-96831014D02*
G01*
X148924866Y-97057134D01*
X149150986Y-97242706D01*
X149220000Y-97279595D01*
X149220001Y-99705197D01*
X148200000Y-100725198D01*
X148200000Y-97279595D01*
X148269014Y-97242706D01*
X148495134Y-97057134D01*
X148680706Y-96831014D01*
X148710000Y-96776209D01*
X148739294Y-96831014D01*
X148739294Y-96831014D01*
G37*
X148739294Y-96831014D02*
X148924866Y-97057134D01*
X149150986Y-97242706D01*
X149220000Y-97279595D01*
X149220001Y-99705197D01*
X148200000Y-100725198D01*
X148200000Y-97279595D01*
X148269014Y-97242706D01*
X148495134Y-97057134D01*
X148680706Y-96831014D01*
X148710000Y-96776209D01*
X148739294Y-96831014D01*
G36*
X151279294Y-96831014D02*
G01*
X151464866Y-97057134D01*
X151690986Y-97242706D01*
X151760001Y-97279595D01*
X151760001Y-98165197D01*
X150740000Y-99185198D01*
X150740000Y-97279595D01*
X150809014Y-97242706D01*
X151035134Y-97057134D01*
X151220706Y-96831014D01*
X151250000Y-96776209D01*
X151279294Y-96831014D01*
X151279294Y-96831014D01*
G37*
X151279294Y-96831014D02*
X151464866Y-97057134D01*
X151690986Y-97242706D01*
X151760001Y-97279595D01*
X151760001Y-98165197D01*
X150740000Y-99185198D01*
X150740000Y-97279595D01*
X150809014Y-97242706D01*
X151035134Y-97057134D01*
X151220706Y-96831014D01*
X151250000Y-96776209D01*
X151279294Y-96831014D01*
G36*
X95655434Y-88449487D02*
G01*
X95635845Y-88462576D01*
X95604951Y-88493470D01*
X95571183Y-88521183D01*
X95543472Y-88554949D01*
X95512576Y-88585845D01*
X95488301Y-88622175D01*
X95460589Y-88655942D01*
X95439999Y-88694463D01*
X95415723Y-88730795D01*
X95399000Y-88771169D01*
X95378411Y-88809688D01*
X95365732Y-88851484D01*
X95349010Y-88891855D01*
X95340486Y-88934708D01*
X95327805Y-88976511D01*
X95323523Y-89019986D01*
X95315000Y-89062835D01*
X95315000Y-89106524D01*
X95315001Y-92562830D01*
X95315000Y-92562835D01*
X95315000Y-92737165D01*
X95323525Y-92780023D01*
X95327806Y-92823490D01*
X95340485Y-92865285D01*
X95349010Y-92908145D01*
X95365735Y-92948522D01*
X95378412Y-92990313D01*
X95398998Y-93028827D01*
X95415723Y-93069205D01*
X95440001Y-93105540D01*
X95460590Y-93144059D01*
X95488299Y-93177823D01*
X95512576Y-93214155D01*
X95543476Y-93245055D01*
X95571184Y-93278817D01*
X95604946Y-93306525D01*
X95635845Y-93337424D01*
X95672176Y-93361700D01*
X95705942Y-93389411D01*
X95744463Y-93410001D01*
X95780795Y-93434277D01*
X95821169Y-93451000D01*
X95859688Y-93471589D01*
X95901484Y-93484268D01*
X95941855Y-93500990D01*
X95984708Y-93509514D01*
X96026511Y-93522195D01*
X96069987Y-93526477D01*
X96112835Y-93535000D01*
X96156524Y-93535000D01*
X96200000Y-93539282D01*
X96243477Y-93535000D01*
X96287165Y-93535000D01*
X96330013Y-93526477D01*
X96373490Y-93522195D01*
X96414489Y-93509758D01*
X96436487Y-93733111D01*
X96521401Y-94013034D01*
X96659294Y-94271014D01*
X96844866Y-94497134D01*
X97070986Y-94682706D01*
X97125791Y-94712000D01*
X97070986Y-94741294D01*
X96844866Y-94926866D01*
X96659294Y-95152986D01*
X96622405Y-95222000D01*
X96528599Y-95222000D01*
X96519205Y-95215723D01*
X96358145Y-95149010D01*
X96187165Y-95115000D01*
X96012835Y-95115000D01*
X95841855Y-95149010D01*
X95680795Y-95215723D01*
X95535845Y-95312576D01*
X95412576Y-95435845D01*
X95315723Y-95580795D01*
X95249010Y-95741855D01*
X95215000Y-95912835D01*
X95215000Y-95940199D01*
X95060000Y-95785199D01*
X95060000Y-88637325D01*
X95063676Y-88600000D01*
X95060000Y-88562675D01*
X95060000Y-88562667D01*
X95049003Y-88451014D01*
X95005546Y-88307753D01*
X94934974Y-88175724D01*
X94840001Y-88059999D01*
X94811003Y-88036201D01*
X93834801Y-87060000D01*
X94265947Y-87060000D01*
X95655434Y-88449487D01*
X95655434Y-88449487D01*
G37*
X95655434Y-88449487D02*
X95635845Y-88462576D01*
X95604951Y-88493470D01*
X95571183Y-88521183D01*
X95543472Y-88554949D01*
X95512576Y-88585845D01*
X95488301Y-88622175D01*
X95460589Y-88655942D01*
X95439999Y-88694463D01*
X95415723Y-88730795D01*
X95399000Y-88771169D01*
X95378411Y-88809688D01*
X95365732Y-88851484D01*
X95349010Y-88891855D01*
X95340486Y-88934708D01*
X95327805Y-88976511D01*
X95323523Y-89019986D01*
X95315000Y-89062835D01*
X95315000Y-89106524D01*
X95315001Y-92562830D01*
X95315000Y-92562835D01*
X95315000Y-92737165D01*
X95323525Y-92780023D01*
X95327806Y-92823490D01*
X95340485Y-92865285D01*
X95349010Y-92908145D01*
X95365735Y-92948522D01*
X95378412Y-92990313D01*
X95398998Y-93028827D01*
X95415723Y-93069205D01*
X95440001Y-93105540D01*
X95460590Y-93144059D01*
X95488299Y-93177823D01*
X95512576Y-93214155D01*
X95543476Y-93245055D01*
X95571184Y-93278817D01*
X95604946Y-93306525D01*
X95635845Y-93337424D01*
X95672176Y-93361700D01*
X95705942Y-93389411D01*
X95744463Y-93410001D01*
X95780795Y-93434277D01*
X95821169Y-93451000D01*
X95859688Y-93471589D01*
X95901484Y-93484268D01*
X95941855Y-93500990D01*
X95984708Y-93509514D01*
X96026511Y-93522195D01*
X96069987Y-93526477D01*
X96112835Y-93535000D01*
X96156524Y-93535000D01*
X96200000Y-93539282D01*
X96243477Y-93535000D01*
X96287165Y-93535000D01*
X96330013Y-93526477D01*
X96373490Y-93522195D01*
X96414489Y-93509758D01*
X96436487Y-93733111D01*
X96521401Y-94013034D01*
X96659294Y-94271014D01*
X96844866Y-94497134D01*
X97070986Y-94682706D01*
X97125791Y-94712000D01*
X97070986Y-94741294D01*
X96844866Y-94926866D01*
X96659294Y-95152986D01*
X96622405Y-95222000D01*
X96528599Y-95222000D01*
X96519205Y-95215723D01*
X96358145Y-95149010D01*
X96187165Y-95115000D01*
X96012835Y-95115000D01*
X95841855Y-95149010D01*
X95680795Y-95215723D01*
X95535845Y-95312576D01*
X95412576Y-95435845D01*
X95315723Y-95580795D01*
X95249010Y-95741855D01*
X95215000Y-95912835D01*
X95215000Y-95940199D01*
X95060000Y-95785199D01*
X95060000Y-88637325D01*
X95063676Y-88600000D01*
X95060000Y-88562675D01*
X95060000Y-88562667D01*
X95049003Y-88451014D01*
X95005546Y-88307753D01*
X94934974Y-88175724D01*
X94840001Y-88059999D01*
X94811003Y-88036201D01*
X93834801Y-87060000D01*
X94265947Y-87060000D01*
X95655434Y-88449487D01*
G36*
X152294022Y-81168823D02*
G01*
X152180795Y-81215723D01*
X152035845Y-81312576D01*
X151912576Y-81435845D01*
X151815723Y-81580795D01*
X151749010Y-81741855D01*
X151715000Y-81912835D01*
X151715000Y-82087165D01*
X151749010Y-82258145D01*
X151815723Y-82419205D01*
X151840000Y-82455538D01*
X151840001Y-92141644D01*
X151690986Y-92221294D01*
X151464866Y-92406866D01*
X151279294Y-92632986D01*
X151250000Y-92687791D01*
X151222503Y-92636347D01*
X151249003Y-92548986D01*
X151260000Y-92437333D01*
X151260000Y-92437324D01*
X151263676Y-92400001D01*
X151260000Y-92362678D01*
X151260000Y-82455538D01*
X151284277Y-82419205D01*
X151350990Y-82258145D01*
X151385000Y-82087165D01*
X151385000Y-81912835D01*
X151350990Y-81741855D01*
X151284277Y-81580795D01*
X151187424Y-81435845D01*
X151064155Y-81312576D01*
X150919205Y-81215723D01*
X150758145Y-81149010D01*
X150587165Y-81115000D01*
X150412835Y-81115000D01*
X150241855Y-81149010D01*
X150080795Y-81215723D01*
X149935845Y-81312576D01*
X149812576Y-81435845D01*
X149715723Y-81580795D01*
X149649010Y-81741855D01*
X149615000Y-81912835D01*
X149615000Y-82087165D01*
X149649010Y-82258145D01*
X149715723Y-82419205D01*
X149740001Y-82455539D01*
X149740000Y-91993453D01*
X149688889Y-91998487D01*
X149408966Y-92083401D01*
X149150986Y-92221294D01*
X148924866Y-92406866D01*
X148739294Y-92632986D01*
X148710000Y-92687791D01*
X148680706Y-92632986D01*
X148495134Y-92406866D01*
X148269014Y-92221294D01*
X148200000Y-92184405D01*
X148200000Y-86177322D01*
X148203676Y-86139999D01*
X148200000Y-86102676D01*
X148200000Y-86102667D01*
X148189003Y-85991014D01*
X148145546Y-85847753D01*
X148117057Y-85794454D01*
X148074974Y-85715723D01*
X148003799Y-85628997D01*
X147980001Y-85599999D01*
X147951003Y-85576201D01*
X146891802Y-84517000D01*
X147095656Y-84517000D01*
X147459834Y-84444561D01*
X147802882Y-84302466D01*
X148111618Y-84096175D01*
X148374175Y-83833618D01*
X148580466Y-83524882D01*
X148722561Y-83181834D01*
X148795000Y-82817656D01*
X148795000Y-82446344D01*
X148722561Y-82082166D01*
X148580466Y-81739118D01*
X148374175Y-81430382D01*
X148111618Y-81167825D01*
X147907056Y-81031141D01*
X148060166Y-81094561D01*
X148424344Y-81167000D01*
X148795656Y-81167000D01*
X149159834Y-81094561D01*
X149502882Y-80952466D01*
X149811618Y-80746175D01*
X150074175Y-80483618D01*
X150280466Y-80174882D01*
X150335507Y-80042000D01*
X151167199Y-80042000D01*
X152294022Y-81168823D01*
X152294022Y-81168823D01*
G37*
X152294022Y-81168823D02*
X152180795Y-81215723D01*
X152035845Y-81312576D01*
X151912576Y-81435845D01*
X151815723Y-81580795D01*
X151749010Y-81741855D01*
X151715000Y-81912835D01*
X151715000Y-82087165D01*
X151749010Y-82258145D01*
X151815723Y-82419205D01*
X151840000Y-82455538D01*
X151840001Y-92141644D01*
X151690986Y-92221294D01*
X151464866Y-92406866D01*
X151279294Y-92632986D01*
X151250000Y-92687791D01*
X151222503Y-92636347D01*
X151249003Y-92548986D01*
X151260000Y-92437333D01*
X151260000Y-92437324D01*
X151263676Y-92400001D01*
X151260000Y-92362678D01*
X151260000Y-82455538D01*
X151284277Y-82419205D01*
X151350990Y-82258145D01*
X151385000Y-82087165D01*
X151385000Y-81912835D01*
X151350990Y-81741855D01*
X151284277Y-81580795D01*
X151187424Y-81435845D01*
X151064155Y-81312576D01*
X150919205Y-81215723D01*
X150758145Y-81149010D01*
X150587165Y-81115000D01*
X150412835Y-81115000D01*
X150241855Y-81149010D01*
X150080795Y-81215723D01*
X149935845Y-81312576D01*
X149812576Y-81435845D01*
X149715723Y-81580795D01*
X149649010Y-81741855D01*
X149615000Y-81912835D01*
X149615000Y-82087165D01*
X149649010Y-82258145D01*
X149715723Y-82419205D01*
X149740001Y-82455539D01*
X149740000Y-91993453D01*
X149688889Y-91998487D01*
X149408966Y-92083401D01*
X149150986Y-92221294D01*
X148924866Y-92406866D01*
X148739294Y-92632986D01*
X148710000Y-92687791D01*
X148680706Y-92632986D01*
X148495134Y-92406866D01*
X148269014Y-92221294D01*
X148200000Y-92184405D01*
X148200000Y-86177322D01*
X148203676Y-86139999D01*
X148200000Y-86102676D01*
X148200000Y-86102667D01*
X148189003Y-85991014D01*
X148145546Y-85847753D01*
X148117057Y-85794454D01*
X148074974Y-85715723D01*
X148003799Y-85628997D01*
X147980001Y-85599999D01*
X147951003Y-85576201D01*
X146891802Y-84517000D01*
X147095656Y-84517000D01*
X147459834Y-84444561D01*
X147802882Y-84302466D01*
X148111618Y-84096175D01*
X148374175Y-83833618D01*
X148580466Y-83524882D01*
X148722561Y-83181834D01*
X148795000Y-82817656D01*
X148795000Y-82446344D01*
X148722561Y-82082166D01*
X148580466Y-81739118D01*
X148374175Y-81430382D01*
X148111618Y-81167825D01*
X147907056Y-81031141D01*
X148060166Y-81094561D01*
X148424344Y-81167000D01*
X148795656Y-81167000D01*
X149159834Y-81094561D01*
X149502882Y-80952466D01*
X149811618Y-80746175D01*
X150074175Y-80483618D01*
X150280466Y-80174882D01*
X150335507Y-80042000D01*
X151167199Y-80042000D01*
X152294022Y-81168823D01*
G36*
X136520001Y-86394804D02*
G01*
X136520000Y-92184405D01*
X136450986Y-92221294D01*
X136224866Y-92406866D01*
X136039294Y-92632986D01*
X136010000Y-92687791D01*
X135980706Y-92632986D01*
X135795134Y-92406866D01*
X135569014Y-92221294D01*
X135500000Y-92184405D01*
X135500000Y-85374802D01*
X136520001Y-86394804D01*
X136520001Y-86394804D01*
G37*
X136520001Y-86394804D02*
X136520000Y-92184405D01*
X136450986Y-92221294D01*
X136224866Y-92406866D01*
X136039294Y-92632986D01*
X136010000Y-92687791D01*
X135980706Y-92632986D01*
X135795134Y-92406866D01*
X135569014Y-92221294D01*
X135500000Y-92184405D01*
X135500000Y-85374802D01*
X136520001Y-86394804D01*
G36*
X141600001Y-88174803D02*
G01*
X141600000Y-92184405D01*
X141530986Y-92221294D01*
X141304866Y-92406866D01*
X141119294Y-92632986D01*
X141090000Y-92687791D01*
X141060706Y-92632986D01*
X140875134Y-92406866D01*
X140649014Y-92221294D01*
X140580000Y-92184405D01*
X140580000Y-87154802D01*
X141600001Y-88174803D01*
X141600001Y-88174803D01*
G37*
X141600001Y-88174803D02*
X141600000Y-92184405D01*
X141530986Y-92221294D01*
X141304866Y-92406866D01*
X141119294Y-92632986D01*
X141090000Y-92687791D01*
X141060706Y-92632986D01*
X140875134Y-92406866D01*
X140649014Y-92221294D01*
X140580000Y-92184405D01*
X140580000Y-87154802D01*
X141600001Y-88174803D01*
G36*
X144140001Y-89214803D02*
G01*
X144140000Y-92184405D01*
X144070986Y-92221294D01*
X143844866Y-92406866D01*
X143659294Y-92632986D01*
X143630000Y-92687791D01*
X143600706Y-92632986D01*
X143415134Y-92406866D01*
X143189014Y-92221294D01*
X143120000Y-92184405D01*
X143120000Y-88194802D01*
X144140001Y-89214803D01*
X144140001Y-89214803D01*
G37*
X144140001Y-89214803D02*
X144140000Y-92184405D01*
X144070986Y-92221294D01*
X143844866Y-92406866D01*
X143659294Y-92632986D01*
X143630000Y-92687791D01*
X143600706Y-92632986D01*
X143415134Y-92406866D01*
X143189014Y-92221294D01*
X143120000Y-92184405D01*
X143120000Y-88194802D01*
X144140001Y-89214803D01*
G36*
X138088501Y-86805546D02*
G01*
X138231762Y-86849003D01*
X138343415Y-86860000D01*
X138343423Y-86860000D01*
X138380748Y-86863676D01*
X138418073Y-86860000D01*
X139060001Y-86860000D01*
X139060000Y-92184405D01*
X138990986Y-92221294D01*
X138764866Y-92406866D01*
X138579294Y-92632986D01*
X138550000Y-92687791D01*
X138520706Y-92632986D01*
X138335134Y-92406866D01*
X138109014Y-92221294D01*
X138040000Y-92184405D01*
X138040000Y-86779621D01*
X138088501Y-86805546D01*
X138088501Y-86805546D01*
G37*
X138088501Y-86805546D02*
X138231762Y-86849003D01*
X138343415Y-86860000D01*
X138343423Y-86860000D01*
X138380748Y-86863676D01*
X138418073Y-86860000D01*
X139060001Y-86860000D01*
X139060000Y-92184405D01*
X138990986Y-92221294D01*
X138764866Y-92406866D01*
X138579294Y-92632986D01*
X138550000Y-92687791D01*
X138520706Y-92632986D01*
X138335134Y-92406866D01*
X138109014Y-92221294D01*
X138040000Y-92184405D01*
X138040000Y-86779621D01*
X138088501Y-86805546D01*
G36*
X146680001Y-86454803D02*
G01*
X146680000Y-92184405D01*
X146610986Y-92221294D01*
X146384866Y-92406866D01*
X146199294Y-92632986D01*
X146170000Y-92687791D01*
X146140706Y-92632986D01*
X145955134Y-92406866D01*
X145729014Y-92221294D01*
X145660000Y-92184405D01*
X145660000Y-88937322D01*
X145663676Y-88899999D01*
X145660000Y-88862676D01*
X145660000Y-88862667D01*
X145649003Y-88751014D01*
X145605546Y-88607753D01*
X145534974Y-88475724D01*
X145440001Y-88359999D01*
X145411003Y-88336201D01*
X142841801Y-85767000D01*
X143095656Y-85767000D01*
X143459834Y-85694561D01*
X143802882Y-85552466D01*
X144111618Y-85346175D01*
X144374175Y-85083618D01*
X144580466Y-84774882D01*
X144703368Y-84478169D01*
X146680001Y-86454803D01*
X146680001Y-86454803D01*
G37*
X146680001Y-86454803D02*
X146680000Y-92184405D01*
X146610986Y-92221294D01*
X146384866Y-92406866D01*
X146199294Y-92632986D01*
X146170000Y-92687791D01*
X146140706Y-92632986D01*
X145955134Y-92406866D01*
X145729014Y-92221294D01*
X145660000Y-92184405D01*
X145660000Y-88937322D01*
X145663676Y-88899999D01*
X145660000Y-88862676D01*
X145660000Y-88862667D01*
X145649003Y-88751014D01*
X145605546Y-88607753D01*
X145534974Y-88475724D01*
X145440001Y-88359999D01*
X145411003Y-88336201D01*
X142841801Y-85767000D01*
X143095656Y-85767000D01*
X143459834Y-85694561D01*
X143802882Y-85552466D01*
X144111618Y-85346175D01*
X144374175Y-85083618D01*
X144580466Y-84774882D01*
X144703368Y-84478169D01*
X146680001Y-86454803D01*
G36*
X114920000Y-89094820D02*
G01*
X114920001Y-92164405D01*
X114850986Y-92201294D01*
X114624866Y-92386866D01*
X114439294Y-92612986D01*
X114410000Y-92667791D01*
X114380706Y-92612986D01*
X114195134Y-92386866D01*
X113969014Y-92201294D01*
X113900000Y-92164405D01*
X113900000Y-89427350D01*
X113903676Y-89390027D01*
X113900000Y-89352704D01*
X113900000Y-89352695D01*
X113889003Y-89241042D01*
X113845546Y-89097781D01*
X113774974Y-88965752D01*
X113680001Y-88850027D01*
X113651004Y-88826230D01*
X113184792Y-88360018D01*
X114185199Y-88360018D01*
X114920000Y-89094820D01*
X114920000Y-89094820D01*
G37*
X114920000Y-89094820D02*
X114920001Y-92164405D01*
X114850986Y-92201294D01*
X114624866Y-92386866D01*
X114439294Y-92612986D01*
X114410000Y-92667791D01*
X114380706Y-92612986D01*
X114195134Y-92386866D01*
X113969014Y-92201294D01*
X113900000Y-92164405D01*
X113900000Y-89427350D01*
X113903676Y-89390027D01*
X113900000Y-89352704D01*
X113900000Y-89352695D01*
X113889003Y-89241042D01*
X113845546Y-89097781D01*
X113774974Y-88965752D01*
X113680001Y-88850027D01*
X113651004Y-88826230D01*
X113184792Y-88360018D01*
X114185199Y-88360018D01*
X114920000Y-89094820D01*
G36*
X117460000Y-90554055D02*
G01*
X117460001Y-92164405D01*
X117390986Y-92201294D01*
X117164866Y-92386866D01*
X116979294Y-92612986D01*
X116950000Y-92667791D01*
X116920706Y-92612986D01*
X116735134Y-92386866D01*
X116509014Y-92201294D01*
X116440000Y-92164405D01*
X116440000Y-89534054D01*
X117460000Y-90554055D01*
X117460000Y-90554055D01*
G37*
X117460000Y-90554055D02*
X117460001Y-92164405D01*
X117390986Y-92201294D01*
X117164866Y-92386866D01*
X116979294Y-92612986D01*
X116950000Y-92667791D01*
X116920706Y-92612986D01*
X116735134Y-92386866D01*
X116509014Y-92201294D01*
X116440000Y-92164405D01*
X116440000Y-89534054D01*
X117460000Y-90554055D01*
G36*
X99680001Y-91554804D02*
G01*
X99680001Y-92164405D01*
X99610986Y-92201294D01*
X99384866Y-92386866D01*
X99199294Y-92612986D01*
X99170000Y-92667791D01*
X99140706Y-92612986D01*
X98955134Y-92386866D01*
X98729014Y-92201294D01*
X98660000Y-92164405D01*
X98660000Y-90534803D01*
X99680001Y-91554804D01*
X99680001Y-91554804D01*
G37*
X99680001Y-91554804D02*
X99680001Y-92164405D01*
X99610986Y-92201294D01*
X99384866Y-92386866D01*
X99199294Y-92612986D01*
X99170000Y-92667791D01*
X99140706Y-92612986D01*
X98955134Y-92386866D01*
X98729014Y-92201294D01*
X98660000Y-92164405D01*
X98660000Y-90534803D01*
X99680001Y-91554804D01*
G36*
X101887880Y-92431934D02*
G01*
X101739294Y-92612986D01*
X101710000Y-92667791D01*
X101680706Y-92612986D01*
X101495134Y-92386866D01*
X101269014Y-92201294D01*
X101200000Y-92164405D01*
X101200000Y-91744054D01*
X101887880Y-92431934D01*
X101887880Y-92431934D01*
G37*
X101887880Y-92431934D02*
X101739294Y-92612986D01*
X101710000Y-92667791D01*
X101680706Y-92612986D01*
X101495134Y-92386866D01*
X101269014Y-92201294D01*
X101200000Y-92164405D01*
X101200000Y-91744054D01*
X101887880Y-92431934D01*
G36*
X104573176Y-92297978D02*
G01*
X104464866Y-92386866D01*
X104279294Y-92612986D01*
X104250000Y-92667791D01*
X104220706Y-92612986D01*
X104035134Y-92386866D01*
X103809014Y-92201294D01*
X103669303Y-92126617D01*
X103614974Y-92024976D01*
X103520001Y-91909251D01*
X103491003Y-91885453D01*
X102765550Y-91160000D01*
X103435199Y-91160000D01*
X104573176Y-92297978D01*
X104573176Y-92297978D01*
G37*
X104573176Y-92297978D02*
X104464866Y-92386866D01*
X104279294Y-92612986D01*
X104250000Y-92667791D01*
X104220706Y-92612986D01*
X104035134Y-92386866D01*
X103809014Y-92201294D01*
X103669303Y-92126617D01*
X103614974Y-92024976D01*
X103520001Y-91909251D01*
X103491003Y-91885453D01*
X102765550Y-91160000D01*
X103435199Y-91160000D01*
X104573176Y-92297978D01*
G36*
X107300001Y-91174803D02*
G01*
X107300000Y-92164405D01*
X107230986Y-92201294D01*
X107004866Y-92386866D01*
X106819294Y-92612986D01*
X106790000Y-92667791D01*
X106760706Y-92612986D01*
X106575134Y-92386866D01*
X106349014Y-92201294D01*
X106283299Y-92166168D01*
X106280000Y-92132677D01*
X106280000Y-92132667D01*
X106269003Y-92021014D01*
X106225546Y-91877753D01*
X106216056Y-91859999D01*
X106154974Y-91745723D01*
X106083799Y-91658997D01*
X106060001Y-91629999D01*
X106031003Y-91606201D01*
X104784801Y-90360000D01*
X106485199Y-90360000D01*
X107300001Y-91174803D01*
X107300001Y-91174803D01*
G37*
X107300001Y-91174803D02*
X107300000Y-92164405D01*
X107230986Y-92201294D01*
X107004866Y-92386866D01*
X106819294Y-92612986D01*
X106790000Y-92667791D01*
X106760706Y-92612986D01*
X106575134Y-92386866D01*
X106349014Y-92201294D01*
X106283299Y-92166168D01*
X106280000Y-92132677D01*
X106280000Y-92132667D01*
X106269003Y-92021014D01*
X106225546Y-91877753D01*
X106216056Y-91859999D01*
X106154974Y-91745723D01*
X106083799Y-91658997D01*
X106060001Y-91629999D01*
X106031003Y-91606201D01*
X104784801Y-90360000D01*
X106485199Y-90360000D01*
X107300001Y-91174803D01*
G36*
X109840000Y-90814838D02*
G01*
X109840001Y-92164405D01*
X109770986Y-92201294D01*
X109544866Y-92386866D01*
X109359294Y-92612986D01*
X109330000Y-92667791D01*
X109300706Y-92612986D01*
X109115134Y-92386866D01*
X108889014Y-92201294D01*
X108820000Y-92164405D01*
X108820000Y-90897322D01*
X108823676Y-90859999D01*
X108820000Y-90822676D01*
X108820000Y-90822667D01*
X108809003Y-90711014D01*
X108765546Y-90567753D01*
X108761413Y-90560020D01*
X108694974Y-90435723D01*
X108623799Y-90348997D01*
X108600001Y-90319999D01*
X108571003Y-90296201D01*
X107934837Y-89660036D01*
X108685199Y-89660036D01*
X109840000Y-90814838D01*
X109840000Y-90814838D01*
G37*
X109840000Y-90814838D02*
X109840001Y-92164405D01*
X109770986Y-92201294D01*
X109544866Y-92386866D01*
X109359294Y-92612986D01*
X109330000Y-92667791D01*
X109300706Y-92612986D01*
X109115134Y-92386866D01*
X108889014Y-92201294D01*
X108820000Y-92164405D01*
X108820000Y-90897322D01*
X108823676Y-90859999D01*
X108820000Y-90822676D01*
X108820000Y-90822667D01*
X108809003Y-90711014D01*
X108765546Y-90567753D01*
X108761413Y-90560020D01*
X108694974Y-90435723D01*
X108623799Y-90348997D01*
X108600001Y-90319999D01*
X108571003Y-90296201D01*
X107934837Y-89660036D01*
X108685199Y-89660036D01*
X109840000Y-90814838D01*
G36*
X112380000Y-89704830D02*
G01*
X112380001Y-92164405D01*
X112310986Y-92201294D01*
X112084866Y-92386866D01*
X111899294Y-92612986D01*
X111870000Y-92667791D01*
X111840706Y-92612986D01*
X111655134Y-92386866D01*
X111429014Y-92201294D01*
X111360000Y-92164405D01*
X111360000Y-90537361D01*
X111363676Y-90500036D01*
X111360000Y-90462711D01*
X111360000Y-90462703D01*
X111349003Y-90351050D01*
X111305546Y-90207789D01*
X111234974Y-90075760D01*
X111140001Y-89960035D01*
X111111004Y-89936238D01*
X110184791Y-89010026D01*
X111685197Y-89010026D01*
X112380000Y-89704830D01*
X112380000Y-89704830D01*
G37*
X112380000Y-89704830D02*
X112380001Y-92164405D01*
X112310986Y-92201294D01*
X112084866Y-92386866D01*
X111899294Y-92612986D01*
X111870000Y-92667791D01*
X111840706Y-92612986D01*
X111655134Y-92386866D01*
X111429014Y-92201294D01*
X111360000Y-92164405D01*
X111360000Y-90537361D01*
X111363676Y-90500036D01*
X111360000Y-90462711D01*
X111360000Y-90462703D01*
X111349003Y-90351050D01*
X111305546Y-90207789D01*
X111234974Y-90075760D01*
X111140001Y-89960035D01*
X111111004Y-89936238D01*
X110184791Y-89010026D01*
X111685197Y-89010026D01*
X112380000Y-89704830D01*
G36*
X154300001Y-83174803D02*
G01*
X154300000Y-91973928D01*
X154210000Y-91973928D01*
X154085518Y-91986188D01*
X153965820Y-92022498D01*
X153855506Y-92081463D01*
X153758815Y-92160815D01*
X153679463Y-92257506D01*
X153620498Y-92367820D01*
X153599607Y-92436687D01*
X153575134Y-92406866D01*
X153360000Y-92230310D01*
X153360000Y-82455538D01*
X153384277Y-82419205D01*
X153431177Y-82305978D01*
X154300001Y-83174803D01*
X154300001Y-83174803D01*
G37*
X154300001Y-83174803D02*
X154300000Y-91973928D01*
X154210000Y-91973928D01*
X154085518Y-91986188D01*
X153965820Y-92022498D01*
X153855506Y-92081463D01*
X153758815Y-92160815D01*
X153679463Y-92257506D01*
X153620498Y-92367820D01*
X153599607Y-92436687D01*
X153575134Y-92406866D01*
X153360000Y-92230310D01*
X153360000Y-82455538D01*
X153384277Y-82419205D01*
X153431177Y-82305978D01*
X154300001Y-83174803D01*
G36*
X121436200Y-85211002D02*
G01*
X121459999Y-85240001D01*
X121575724Y-85334974D01*
X121707753Y-85405546D01*
X121851014Y-85449003D01*
X121962667Y-85460000D01*
X121962676Y-85460000D01*
X121999999Y-85463676D01*
X122037322Y-85460000D01*
X123185199Y-85460000D01*
X124440001Y-86714803D01*
X124440001Y-90825510D01*
X124387165Y-90815000D01*
X124377803Y-90815000D01*
X119115796Y-85552994D01*
X119459834Y-85484561D01*
X119802882Y-85342466D01*
X120111618Y-85136175D01*
X120374175Y-84873618D01*
X120580466Y-84564882D01*
X120641861Y-84416662D01*
X121436200Y-85211002D01*
X121436200Y-85211002D01*
G37*
X121436200Y-85211002D02*
X121459999Y-85240001D01*
X121575724Y-85334974D01*
X121707753Y-85405546D01*
X121851014Y-85449003D01*
X121962667Y-85460000D01*
X121962676Y-85460000D01*
X121999999Y-85463676D01*
X122037322Y-85460000D01*
X123185199Y-85460000D01*
X124440001Y-86714803D01*
X124440001Y-90825510D01*
X124387165Y-90815000D01*
X124377803Y-90815000D01*
X119115796Y-85552994D01*
X119459834Y-85484561D01*
X119802882Y-85342466D01*
X120111618Y-85136175D01*
X120374175Y-84873618D01*
X120580466Y-84564882D01*
X120641861Y-84416662D01*
X121436200Y-85211002D01*
G36*
X124060166Y-80884561D02*
G01*
X124424344Y-80957000D01*
X124795656Y-80957000D01*
X125159834Y-80884561D01*
X125240001Y-80851355D01*
X125240001Y-85365199D01*
X124063804Y-84189003D01*
X124040001Y-84159999D01*
X123924276Y-84065026D01*
X123879649Y-84041172D01*
X124111618Y-83886175D01*
X124374175Y-83623618D01*
X124580466Y-83314882D01*
X124722561Y-82971834D01*
X124795000Y-82607656D01*
X124795000Y-82236344D01*
X124722561Y-81872166D01*
X124580466Y-81529118D01*
X124374175Y-81220382D01*
X124111618Y-80957825D01*
X123907056Y-80821141D01*
X124060166Y-80884561D01*
X124060166Y-80884561D01*
G37*
X124060166Y-80884561D02*
X124424344Y-80957000D01*
X124795656Y-80957000D01*
X125159834Y-80884561D01*
X125240001Y-80851355D01*
X125240001Y-85365199D01*
X124063804Y-84189003D01*
X124040001Y-84159999D01*
X123924276Y-84065026D01*
X123879649Y-84041172D01*
X124111618Y-83886175D01*
X124374175Y-83623618D01*
X124580466Y-83314882D01*
X124722561Y-82971834D01*
X124795000Y-82607656D01*
X124795000Y-82236344D01*
X124722561Y-81872166D01*
X124580466Y-81529118D01*
X124374175Y-81220382D01*
X124111618Y-80957825D01*
X123907056Y-80821141D01*
X124060166Y-80884561D01*
G36*
X67665198Y-85040000D02*
G01*
X61322070Y-85040000D01*
X61334974Y-85024276D01*
X61405546Y-84892247D01*
X61449003Y-84748986D01*
X61460000Y-84637333D01*
X61460000Y-84637324D01*
X61463676Y-84600001D01*
X61460000Y-84562678D01*
X61460000Y-83637793D01*
X61708382Y-83886175D01*
X62017118Y-84092466D01*
X62360166Y-84234561D01*
X62724344Y-84307000D01*
X63095656Y-84307000D01*
X63459834Y-84234561D01*
X63802882Y-84092466D01*
X64111618Y-83886175D01*
X64374175Y-83623618D01*
X64580466Y-83314882D01*
X64722561Y-82971834D01*
X64795000Y-82607656D01*
X64795000Y-82236344D01*
X64778477Y-82153279D01*
X67665198Y-85040000D01*
X67665198Y-85040000D01*
G37*
X67665198Y-85040000D02*
X61322070Y-85040000D01*
X61334974Y-85024276D01*
X61405546Y-84892247D01*
X61449003Y-84748986D01*
X61460000Y-84637333D01*
X61460000Y-84637324D01*
X61463676Y-84600001D01*
X61460000Y-84562678D01*
X61460000Y-83637793D01*
X61708382Y-83886175D01*
X62017118Y-84092466D01*
X62360166Y-84234561D01*
X62724344Y-84307000D01*
X63095656Y-84307000D01*
X63459834Y-84234561D01*
X63802882Y-84092466D01*
X64111618Y-83886175D01*
X64374175Y-83623618D01*
X64580466Y-83314882D01*
X64722561Y-82971834D01*
X64795000Y-82607656D01*
X64795000Y-82236344D01*
X64778477Y-82153279D01*
X67665198Y-85040000D01*
G36*
X90112576Y-80464155D02*
G01*
X90235845Y-80587424D01*
X90380795Y-80684277D01*
X90541855Y-80750990D01*
X90712835Y-80785000D01*
X90815000Y-80785000D01*
X90815000Y-80787165D01*
X90849010Y-80958145D01*
X90915723Y-81119205D01*
X91012576Y-81264155D01*
X91135845Y-81387424D01*
X91280795Y-81484277D01*
X91441855Y-81550990D01*
X91612835Y-81585000D01*
X91615000Y-81585000D01*
X91615000Y-81587165D01*
X91649010Y-81758145D01*
X91715723Y-81919205D01*
X91812576Y-82064155D01*
X91935845Y-82187424D01*
X92080795Y-82284277D01*
X92241855Y-82350990D01*
X92412835Y-82385000D01*
X92415000Y-82385000D01*
X92415000Y-82387165D01*
X92449010Y-82558145D01*
X92515723Y-82719205D01*
X92612576Y-82864155D01*
X92735845Y-82987424D01*
X92880795Y-83084277D01*
X93041855Y-83150990D01*
X93212835Y-83185000D01*
X93215000Y-83185000D01*
X93215000Y-83187165D01*
X93249010Y-83358145D01*
X93315723Y-83519205D01*
X93412576Y-83664155D01*
X93535845Y-83787424D01*
X93680795Y-83884277D01*
X93841855Y-83950990D01*
X94012835Y-83985000D01*
X94015000Y-83985000D01*
X94015000Y-83987165D01*
X94035455Y-84090000D01*
X87806573Y-84090000D01*
X88111618Y-83886175D01*
X88374175Y-83623618D01*
X88580466Y-83314882D01*
X88722561Y-82971834D01*
X88795000Y-82607656D01*
X88795000Y-82236344D01*
X88722561Y-81872166D01*
X88580466Y-81529118D01*
X88374175Y-81220382D01*
X88111618Y-80957825D01*
X87907056Y-80821141D01*
X88060166Y-80884561D01*
X88424344Y-80957000D01*
X88795656Y-80957000D01*
X89159834Y-80884561D01*
X89502882Y-80742466D01*
X89811618Y-80536175D01*
X90020876Y-80326917D01*
X90112576Y-80464155D01*
X90112576Y-80464155D01*
G37*
X90112576Y-80464155D02*
X90235845Y-80587424D01*
X90380795Y-80684277D01*
X90541855Y-80750990D01*
X90712835Y-80785000D01*
X90815000Y-80785000D01*
X90815000Y-80787165D01*
X90849010Y-80958145D01*
X90915723Y-81119205D01*
X91012576Y-81264155D01*
X91135845Y-81387424D01*
X91280795Y-81484277D01*
X91441855Y-81550990D01*
X91612835Y-81585000D01*
X91615000Y-81585000D01*
X91615000Y-81587165D01*
X91649010Y-81758145D01*
X91715723Y-81919205D01*
X91812576Y-82064155D01*
X91935845Y-82187424D01*
X92080795Y-82284277D01*
X92241855Y-82350990D01*
X92412835Y-82385000D01*
X92415000Y-82385000D01*
X92415000Y-82387165D01*
X92449010Y-82558145D01*
X92515723Y-82719205D01*
X92612576Y-82864155D01*
X92735845Y-82987424D01*
X92880795Y-83084277D01*
X93041855Y-83150990D01*
X93212835Y-83185000D01*
X93215000Y-83185000D01*
X93215000Y-83187165D01*
X93249010Y-83358145D01*
X93315723Y-83519205D01*
X93412576Y-83664155D01*
X93535845Y-83787424D01*
X93680795Y-83884277D01*
X93841855Y-83950990D01*
X94012835Y-83985000D01*
X94015000Y-83985000D01*
X94015000Y-83987165D01*
X94035455Y-84090000D01*
X87806573Y-84090000D01*
X88111618Y-83886175D01*
X88374175Y-83623618D01*
X88580466Y-83314882D01*
X88722561Y-82971834D01*
X88795000Y-82607656D01*
X88795000Y-82236344D01*
X88722561Y-81872166D01*
X88580466Y-81529118D01*
X88374175Y-81220382D01*
X88111618Y-80957825D01*
X87907056Y-80821141D01*
X88060166Y-80884561D01*
X88424344Y-80957000D01*
X88795656Y-80957000D01*
X89159834Y-80884561D01*
X89502882Y-80742466D01*
X89811618Y-80536175D01*
X90020876Y-80326917D01*
X90112576Y-80464155D01*
G36*
X111745825Y-75623618D02*
G01*
X112008382Y-75886175D01*
X112317118Y-76092466D01*
X112660166Y-76234561D01*
X113024344Y-76307000D01*
X113395656Y-76307000D01*
X113759834Y-76234561D01*
X114102882Y-76092466D01*
X114411618Y-75886175D01*
X114640000Y-75657793D01*
X114640000Y-76362677D01*
X114636324Y-76400000D01*
X114640000Y-76437322D01*
X114640000Y-76437332D01*
X114650997Y-76548985D01*
X114684971Y-76660985D01*
X114694454Y-76692246D01*
X114765026Y-76824276D01*
X114804871Y-76872826D01*
X114859999Y-76940001D01*
X114889003Y-76963804D01*
X120040001Y-82114803D01*
X120040001Y-82159972D01*
X119802882Y-82001534D01*
X119459834Y-81859439D01*
X119095656Y-81787000D01*
X118724344Y-81787000D01*
X118360166Y-81859439D01*
X118017118Y-82001534D01*
X117708382Y-82207825D01*
X117445825Y-82470382D01*
X117239534Y-82779118D01*
X117097439Y-83122166D01*
X117029006Y-83466205D01*
X116667519Y-83104718D01*
X116722561Y-82971834D01*
X116795000Y-82607656D01*
X116795000Y-82236344D01*
X116722561Y-81872166D01*
X116580466Y-81529118D01*
X116374175Y-81220382D01*
X116111618Y-80957825D01*
X115802882Y-80751534D01*
X115459834Y-80609439D01*
X115095656Y-80537000D01*
X114724344Y-80537000D01*
X114360166Y-80609439D01*
X114207056Y-80672859D01*
X114411618Y-80536175D01*
X114674175Y-80273618D01*
X114880466Y-79964882D01*
X115022561Y-79621834D01*
X115095000Y-79257656D01*
X115095000Y-78886344D01*
X115022561Y-78522166D01*
X114880466Y-78179118D01*
X114674175Y-77870382D01*
X114411618Y-77607825D01*
X114102882Y-77401534D01*
X113759834Y-77259439D01*
X113395656Y-77187000D01*
X113024344Y-77187000D01*
X112660166Y-77259439D01*
X112317118Y-77401534D01*
X112008382Y-77607825D01*
X111745825Y-77870382D01*
X111539534Y-78179118D01*
X111460000Y-78371130D01*
X111460000Y-75714801D01*
X111667862Y-75506939D01*
X111745825Y-75623618D01*
X111745825Y-75623618D01*
G37*
X111745825Y-75623618D02*
X112008382Y-75886175D01*
X112317118Y-76092466D01*
X112660166Y-76234561D01*
X113024344Y-76307000D01*
X113395656Y-76307000D01*
X113759834Y-76234561D01*
X114102882Y-76092466D01*
X114411618Y-75886175D01*
X114640000Y-75657793D01*
X114640000Y-76362677D01*
X114636324Y-76400000D01*
X114640000Y-76437322D01*
X114640000Y-76437332D01*
X114650997Y-76548985D01*
X114684971Y-76660985D01*
X114694454Y-76692246D01*
X114765026Y-76824276D01*
X114804871Y-76872826D01*
X114859999Y-76940001D01*
X114889003Y-76963804D01*
X120040001Y-82114803D01*
X120040001Y-82159972D01*
X119802882Y-82001534D01*
X119459834Y-81859439D01*
X119095656Y-81787000D01*
X118724344Y-81787000D01*
X118360166Y-81859439D01*
X118017118Y-82001534D01*
X117708382Y-82207825D01*
X117445825Y-82470382D01*
X117239534Y-82779118D01*
X117097439Y-83122166D01*
X117029006Y-83466205D01*
X116667519Y-83104718D01*
X116722561Y-82971834D01*
X116795000Y-82607656D01*
X116795000Y-82236344D01*
X116722561Y-81872166D01*
X116580466Y-81529118D01*
X116374175Y-81220382D01*
X116111618Y-80957825D01*
X115802882Y-80751534D01*
X115459834Y-80609439D01*
X115095656Y-80537000D01*
X114724344Y-80537000D01*
X114360166Y-80609439D01*
X114207056Y-80672859D01*
X114411618Y-80536175D01*
X114674175Y-80273618D01*
X114880466Y-79964882D01*
X115022561Y-79621834D01*
X115095000Y-79257656D01*
X115095000Y-78886344D01*
X115022561Y-78522166D01*
X114880466Y-78179118D01*
X114674175Y-77870382D01*
X114411618Y-77607825D01*
X114102882Y-77401534D01*
X113759834Y-77259439D01*
X113395656Y-77187000D01*
X113024344Y-77187000D01*
X112660166Y-77259439D01*
X112317118Y-77401534D01*
X112008382Y-77607825D01*
X111745825Y-77870382D01*
X111539534Y-78179118D01*
X111460000Y-78371130D01*
X111460000Y-75714801D01*
X111667862Y-75506939D01*
X111745825Y-75623618D01*
G36*
X111539534Y-79964882D02*
G01*
X111745825Y-80273618D01*
X111840001Y-80367794D01*
X111840000Y-82565199D01*
X111460000Y-82185199D01*
X111460000Y-79772870D01*
X111539534Y-79964882D01*
X111539534Y-79964882D01*
G37*
X111539534Y-79964882D02*
X111745825Y-80273618D01*
X111840001Y-80367794D01*
X111840000Y-82565199D01*
X111460000Y-82185199D01*
X111460000Y-79772870D01*
X111539534Y-79964882D01*
G36*
X145540000Y-79985198D02*
G01*
X144488998Y-81036201D01*
X144460000Y-81059999D01*
X144436202Y-81088997D01*
X144436201Y-81088998D01*
X144365026Y-81175724D01*
X144294454Y-81307754D01*
X144270287Y-81387424D01*
X144250998Y-81451014D01*
X144241347Y-81549003D01*
X144236324Y-81600000D01*
X144240001Y-81637332D01*
X144240001Y-82546208D01*
X144111618Y-82417825D01*
X143802882Y-82211534D01*
X143459834Y-82069439D01*
X143095656Y-81997000D01*
X142724344Y-81997000D01*
X142360166Y-82069439D01*
X142017118Y-82211534D01*
X141708382Y-82417825D01*
X141660000Y-82466207D01*
X141660000Y-77437322D01*
X141661649Y-77420575D01*
X141951801Y-77540760D01*
X142586456Y-77667000D01*
X143233544Y-77667000D01*
X143868199Y-77540760D01*
X144466031Y-77293129D01*
X145004066Y-76933626D01*
X145461626Y-76476066D01*
X145540000Y-76358770D01*
X145540000Y-79985198D01*
X145540000Y-79985198D01*
G37*
X145540000Y-79985198D02*
X144488998Y-81036201D01*
X144460000Y-81059999D01*
X144436202Y-81088997D01*
X144436201Y-81088998D01*
X144365026Y-81175724D01*
X144294454Y-81307754D01*
X144270287Y-81387424D01*
X144250998Y-81451014D01*
X144241347Y-81549003D01*
X144236324Y-81600000D01*
X144240001Y-81637332D01*
X144240001Y-82546208D01*
X144111618Y-82417825D01*
X143802882Y-82211534D01*
X143459834Y-82069439D01*
X143095656Y-81997000D01*
X142724344Y-81997000D01*
X142360166Y-82069439D01*
X142017118Y-82211534D01*
X141708382Y-82417825D01*
X141660000Y-82466207D01*
X141660000Y-77437322D01*
X141661649Y-77420575D01*
X141951801Y-77540760D01*
X142586456Y-77667000D01*
X143233544Y-77667000D01*
X143868199Y-77540760D01*
X144466031Y-77293129D01*
X145004066Y-76933626D01*
X145461626Y-76476066D01*
X145540000Y-76358770D01*
X145540000Y-79985198D01*
G36*
X83874758Y-82049560D02*
G01*
X83802882Y-82001534D01*
X83459834Y-81859439D01*
X83095656Y-81787000D01*
X82724344Y-81787000D01*
X82360166Y-81859439D01*
X82017118Y-82001534D01*
X81810000Y-82139926D01*
X81810000Y-80287333D01*
X81813677Y-80250000D01*
X81799003Y-80101014D01*
X81755546Y-79957753D01*
X81724076Y-79898878D01*
X83874758Y-82049560D01*
X83874758Y-82049560D01*
G37*
X83874758Y-82049560D02*
X83802882Y-82001534D01*
X83459834Y-81859439D01*
X83095656Y-81787000D01*
X82724344Y-81787000D01*
X82360166Y-81859439D01*
X82017118Y-82001534D01*
X81810000Y-82139926D01*
X81810000Y-80287333D01*
X81813677Y-80250000D01*
X81799003Y-80101014D01*
X81755546Y-79957753D01*
X81724076Y-79898878D01*
X83874758Y-82049560D01*
G36*
X59940001Y-82093154D02*
G01*
X59802882Y-82001534D01*
X59459834Y-81859439D01*
X59095656Y-81787000D01*
X58724344Y-81787000D01*
X58678728Y-81796074D01*
X59940001Y-80534800D01*
X59940001Y-82093154D01*
X59940001Y-82093154D01*
G37*
X59940001Y-82093154D02*
X59802882Y-82001534D01*
X59459834Y-81859439D01*
X59095656Y-81787000D01*
X58724344Y-81787000D01*
X58678728Y-81796074D01*
X59940001Y-80534800D01*
X59940001Y-82093154D01*
G36*
X119592717Y-63664481D02*
G01*
X119459834Y-63609439D01*
X119095656Y-63537000D01*
X118724344Y-63537000D01*
X118360166Y-63609439D01*
X118017118Y-63751534D01*
X117708382Y-63957825D01*
X117445825Y-64220382D01*
X117239534Y-64529118D01*
X117097439Y-64872166D01*
X117025000Y-65236344D01*
X117025000Y-65607656D01*
X117097439Y-65971834D01*
X117239534Y-66314882D01*
X117445825Y-66623618D01*
X117708382Y-66886175D01*
X118017118Y-67092466D01*
X118360166Y-67234561D01*
X118724344Y-67307000D01*
X119095656Y-67307000D01*
X119459834Y-67234561D01*
X119802882Y-67092466D01*
X120111618Y-66886175D01*
X120374175Y-66623618D01*
X120580466Y-66314882D01*
X120722561Y-65971834D01*
X120795000Y-65607656D01*
X120795000Y-65236344D01*
X120722561Y-64872166D01*
X120667519Y-64739283D01*
X121346802Y-64060000D01*
X125785199Y-64060000D01*
X128140001Y-66414803D01*
X128140001Y-67765199D01*
X126285804Y-65911003D01*
X126262001Y-65881999D01*
X126146276Y-65787026D01*
X126014247Y-65716454D01*
X125870986Y-65672997D01*
X125759333Y-65662000D01*
X125759322Y-65662000D01*
X125722000Y-65658324D01*
X125684678Y-65662000D01*
X124635507Y-65662000D01*
X124580466Y-65529118D01*
X124374175Y-65220382D01*
X124111618Y-64957825D01*
X123802882Y-64751534D01*
X123459834Y-64609439D01*
X123095656Y-64537000D01*
X122724344Y-64537000D01*
X122360166Y-64609439D01*
X122017118Y-64751534D01*
X121708382Y-64957825D01*
X121445825Y-65220382D01*
X121239534Y-65529118D01*
X121097439Y-65872166D01*
X121025000Y-66236344D01*
X121025000Y-66607656D01*
X121097439Y-66971834D01*
X121239534Y-67314882D01*
X121445825Y-67623618D01*
X121708382Y-67886175D01*
X122017118Y-68092466D01*
X122360166Y-68234561D01*
X122724344Y-68307000D01*
X123095656Y-68307000D01*
X123459834Y-68234561D01*
X123480502Y-68226000D01*
X123208382Y-68407825D01*
X122945825Y-68670382D01*
X122739534Y-68979118D01*
X122597439Y-69322166D01*
X122525000Y-69686344D01*
X122525000Y-70057656D01*
X122597439Y-70421834D01*
X122739534Y-70764882D01*
X122945825Y-71073618D01*
X123208382Y-71336175D01*
X123517118Y-71542466D01*
X123860166Y-71684561D01*
X124224344Y-71757000D01*
X124595656Y-71757000D01*
X124959834Y-71684561D01*
X125092717Y-71629519D01*
X126640001Y-73176803D01*
X126640001Y-75377199D01*
X126367519Y-75104717D01*
X126422561Y-74971834D01*
X126495000Y-74607656D01*
X126495000Y-74236344D01*
X126422561Y-73872166D01*
X126280466Y-73529118D01*
X126074175Y-73220382D01*
X125811618Y-72957825D01*
X125502882Y-72751534D01*
X125159834Y-72609439D01*
X124795656Y-72537000D01*
X124424344Y-72537000D01*
X124060166Y-72609439D01*
X123717118Y-72751534D01*
X123408382Y-72957825D01*
X123145825Y-73220382D01*
X122939534Y-73529118D01*
X122797439Y-73872166D01*
X122725000Y-74236344D01*
X122725000Y-74607656D01*
X122797439Y-74971834D01*
X122939534Y-75314882D01*
X123145825Y-75623618D01*
X123408382Y-75886175D01*
X123717118Y-76092466D01*
X124060166Y-76234561D01*
X124424344Y-76307000D01*
X124795656Y-76307000D01*
X125159834Y-76234561D01*
X125292717Y-76179519D01*
X125940001Y-76826803D01*
X125940001Y-77736208D01*
X125811618Y-77607825D01*
X125502882Y-77401534D01*
X125159834Y-77259439D01*
X124795656Y-77187000D01*
X124424344Y-77187000D01*
X124060166Y-77259439D01*
X123717118Y-77401534D01*
X123408382Y-77607825D01*
X123145825Y-77870382D01*
X122939534Y-78179118D01*
X122797439Y-78522166D01*
X122725000Y-78886344D01*
X122725000Y-79257656D01*
X122797439Y-79621834D01*
X122939534Y-79964882D01*
X123145825Y-80273618D01*
X123408382Y-80536175D01*
X123612944Y-80672859D01*
X123459834Y-80609439D01*
X123095656Y-80537000D01*
X122724344Y-80537000D01*
X122360166Y-80609439D01*
X122017118Y-80751534D01*
X121708382Y-80957825D01*
X121445825Y-81220382D01*
X121383741Y-81313297D01*
X121340001Y-81259999D01*
X121311003Y-81236201D01*
X116160000Y-76085199D01*
X116160000Y-75969178D01*
X116358374Y-76266066D01*
X116815934Y-76723626D01*
X117353969Y-77083129D01*
X117951801Y-77330760D01*
X118586456Y-77457000D01*
X119233544Y-77457000D01*
X119868199Y-77330760D01*
X120466031Y-77083129D01*
X121004066Y-76723626D01*
X121461626Y-76266066D01*
X121821129Y-75728031D01*
X122068760Y-75130199D01*
X122195000Y-74495544D01*
X122195000Y-73848456D01*
X122068760Y-73213801D01*
X121821129Y-72615969D01*
X121461626Y-72077934D01*
X121004066Y-71620374D01*
X120466031Y-71260871D01*
X119868199Y-71013240D01*
X119233544Y-70887000D01*
X118586456Y-70887000D01*
X117951801Y-71013240D01*
X117353969Y-71260871D01*
X116815934Y-71620374D01*
X116358374Y-72077934D01*
X116160000Y-72374822D01*
X116160000Y-71899322D01*
X116163676Y-71862000D01*
X116160000Y-71824677D01*
X116160000Y-71824667D01*
X116149003Y-71713014D01*
X116105546Y-71569753D01*
X116048912Y-71463799D01*
X116034974Y-71437723D01*
X115963799Y-71350997D01*
X115940001Y-71321999D01*
X115911003Y-71298201D01*
X115167519Y-70554717D01*
X115222561Y-70421834D01*
X115295000Y-70057656D01*
X115295000Y-69686344D01*
X115222561Y-69322166D01*
X115080466Y-68979118D01*
X114874175Y-68670382D01*
X114611618Y-68407825D01*
X114339498Y-68226000D01*
X114360166Y-68234561D01*
X114724344Y-68307000D01*
X115095656Y-68307000D01*
X115459834Y-68234561D01*
X115802882Y-68092466D01*
X116111618Y-67886175D01*
X116374175Y-67623618D01*
X116580466Y-67314882D01*
X116722561Y-66971834D01*
X116795000Y-66607656D01*
X116795000Y-66236344D01*
X116722561Y-65872166D01*
X116580466Y-65529118D01*
X116374175Y-65220382D01*
X116111618Y-64957825D01*
X115802882Y-64751534D01*
X115670000Y-64696493D01*
X115670000Y-64504801D01*
X116814802Y-63360000D01*
X119897198Y-63360000D01*
X119592717Y-63664481D01*
X119592717Y-63664481D01*
G37*
X119592717Y-63664481D02*
X119459834Y-63609439D01*
X119095656Y-63537000D01*
X118724344Y-63537000D01*
X118360166Y-63609439D01*
X118017118Y-63751534D01*
X117708382Y-63957825D01*
X117445825Y-64220382D01*
X117239534Y-64529118D01*
X117097439Y-64872166D01*
X117025000Y-65236344D01*
X117025000Y-65607656D01*
X117097439Y-65971834D01*
X117239534Y-66314882D01*
X117445825Y-66623618D01*
X117708382Y-66886175D01*
X118017118Y-67092466D01*
X118360166Y-67234561D01*
X118724344Y-67307000D01*
X119095656Y-67307000D01*
X119459834Y-67234561D01*
X119802882Y-67092466D01*
X120111618Y-66886175D01*
X120374175Y-66623618D01*
X120580466Y-66314882D01*
X120722561Y-65971834D01*
X120795000Y-65607656D01*
X120795000Y-65236344D01*
X120722561Y-64872166D01*
X120667519Y-64739283D01*
X121346802Y-64060000D01*
X125785199Y-64060000D01*
X128140001Y-66414803D01*
X128140001Y-67765199D01*
X126285804Y-65911003D01*
X126262001Y-65881999D01*
X126146276Y-65787026D01*
X126014247Y-65716454D01*
X125870986Y-65672997D01*
X125759333Y-65662000D01*
X125759322Y-65662000D01*
X125722000Y-65658324D01*
X125684678Y-65662000D01*
X124635507Y-65662000D01*
X124580466Y-65529118D01*
X124374175Y-65220382D01*
X124111618Y-64957825D01*
X123802882Y-64751534D01*
X123459834Y-64609439D01*
X123095656Y-64537000D01*
X122724344Y-64537000D01*
X122360166Y-64609439D01*
X122017118Y-64751534D01*
X121708382Y-64957825D01*
X121445825Y-65220382D01*
X121239534Y-65529118D01*
X121097439Y-65872166D01*
X121025000Y-66236344D01*
X121025000Y-66607656D01*
X121097439Y-66971834D01*
X121239534Y-67314882D01*
X121445825Y-67623618D01*
X121708382Y-67886175D01*
X122017118Y-68092466D01*
X122360166Y-68234561D01*
X122724344Y-68307000D01*
X123095656Y-68307000D01*
X123459834Y-68234561D01*
X123480502Y-68226000D01*
X123208382Y-68407825D01*
X122945825Y-68670382D01*
X122739534Y-68979118D01*
X122597439Y-69322166D01*
X122525000Y-69686344D01*
X122525000Y-70057656D01*
X122597439Y-70421834D01*
X122739534Y-70764882D01*
X122945825Y-71073618D01*
X123208382Y-71336175D01*
X123517118Y-71542466D01*
X123860166Y-71684561D01*
X124224344Y-71757000D01*
X124595656Y-71757000D01*
X124959834Y-71684561D01*
X125092717Y-71629519D01*
X126640001Y-73176803D01*
X126640001Y-75377199D01*
X126367519Y-75104717D01*
X126422561Y-74971834D01*
X126495000Y-74607656D01*
X126495000Y-74236344D01*
X126422561Y-73872166D01*
X126280466Y-73529118D01*
X126074175Y-73220382D01*
X125811618Y-72957825D01*
X125502882Y-72751534D01*
X125159834Y-72609439D01*
X124795656Y-72537000D01*
X124424344Y-72537000D01*
X124060166Y-72609439D01*
X123717118Y-72751534D01*
X123408382Y-72957825D01*
X123145825Y-73220382D01*
X122939534Y-73529118D01*
X122797439Y-73872166D01*
X122725000Y-74236344D01*
X122725000Y-74607656D01*
X122797439Y-74971834D01*
X122939534Y-75314882D01*
X123145825Y-75623618D01*
X123408382Y-75886175D01*
X123717118Y-76092466D01*
X124060166Y-76234561D01*
X124424344Y-76307000D01*
X124795656Y-76307000D01*
X125159834Y-76234561D01*
X125292717Y-76179519D01*
X125940001Y-76826803D01*
X125940001Y-77736208D01*
X125811618Y-77607825D01*
X125502882Y-77401534D01*
X125159834Y-77259439D01*
X124795656Y-77187000D01*
X124424344Y-77187000D01*
X124060166Y-77259439D01*
X123717118Y-77401534D01*
X123408382Y-77607825D01*
X123145825Y-77870382D01*
X122939534Y-78179118D01*
X122797439Y-78522166D01*
X122725000Y-78886344D01*
X122725000Y-79257656D01*
X122797439Y-79621834D01*
X122939534Y-79964882D01*
X123145825Y-80273618D01*
X123408382Y-80536175D01*
X123612944Y-80672859D01*
X123459834Y-80609439D01*
X123095656Y-80537000D01*
X122724344Y-80537000D01*
X122360166Y-80609439D01*
X122017118Y-80751534D01*
X121708382Y-80957825D01*
X121445825Y-81220382D01*
X121383741Y-81313297D01*
X121340001Y-81259999D01*
X121311003Y-81236201D01*
X116160000Y-76085199D01*
X116160000Y-75969178D01*
X116358374Y-76266066D01*
X116815934Y-76723626D01*
X117353969Y-77083129D01*
X117951801Y-77330760D01*
X118586456Y-77457000D01*
X119233544Y-77457000D01*
X119868199Y-77330760D01*
X120466031Y-77083129D01*
X121004066Y-76723626D01*
X121461626Y-76266066D01*
X121821129Y-75728031D01*
X122068760Y-75130199D01*
X122195000Y-74495544D01*
X122195000Y-73848456D01*
X122068760Y-73213801D01*
X121821129Y-72615969D01*
X121461626Y-72077934D01*
X121004066Y-71620374D01*
X120466031Y-71260871D01*
X119868199Y-71013240D01*
X119233544Y-70887000D01*
X118586456Y-70887000D01*
X117951801Y-71013240D01*
X117353969Y-71260871D01*
X116815934Y-71620374D01*
X116358374Y-72077934D01*
X116160000Y-72374822D01*
X116160000Y-71899322D01*
X116163676Y-71862000D01*
X116160000Y-71824677D01*
X116160000Y-71824667D01*
X116149003Y-71713014D01*
X116105546Y-71569753D01*
X116048912Y-71463799D01*
X116034974Y-71437723D01*
X115963799Y-71350997D01*
X115940001Y-71321999D01*
X115911003Y-71298201D01*
X115167519Y-70554717D01*
X115222561Y-70421834D01*
X115295000Y-70057656D01*
X115295000Y-69686344D01*
X115222561Y-69322166D01*
X115080466Y-68979118D01*
X114874175Y-68670382D01*
X114611618Y-68407825D01*
X114339498Y-68226000D01*
X114360166Y-68234561D01*
X114724344Y-68307000D01*
X115095656Y-68307000D01*
X115459834Y-68234561D01*
X115802882Y-68092466D01*
X116111618Y-67886175D01*
X116374175Y-67623618D01*
X116580466Y-67314882D01*
X116722561Y-66971834D01*
X116795000Y-66607656D01*
X116795000Y-66236344D01*
X116722561Y-65872166D01*
X116580466Y-65529118D01*
X116374175Y-65220382D01*
X116111618Y-64957825D01*
X115802882Y-64751534D01*
X115670000Y-64696493D01*
X115670000Y-64504801D01*
X116814802Y-63360000D01*
X119897198Y-63360000D01*
X119592717Y-63664481D01*
G36*
X80290001Y-80564803D02*
G01*
X80290001Y-81136208D01*
X80111618Y-80957825D01*
X79802882Y-80751534D01*
X79459834Y-80609439D01*
X79095656Y-80537000D01*
X78724344Y-80537000D01*
X78360166Y-80609439D01*
X78207056Y-80672859D01*
X78411618Y-80536175D01*
X78674175Y-80273618D01*
X78880466Y-79964882D01*
X78935507Y-79832000D01*
X79557199Y-79832000D01*
X80290001Y-80564803D01*
X80290001Y-80564803D01*
G37*
X80290001Y-80564803D02*
X80290001Y-81136208D01*
X80111618Y-80957825D01*
X79802882Y-80751534D01*
X79459834Y-80609439D01*
X79095656Y-80537000D01*
X78724344Y-80537000D01*
X78360166Y-80609439D01*
X78207056Y-80672859D01*
X78411618Y-80536175D01*
X78674175Y-80273618D01*
X78880466Y-79964882D01*
X78935507Y-79832000D01*
X79557199Y-79832000D01*
X80290001Y-80564803D01*
G36*
X127340001Y-69114803D02*
G01*
X127340001Y-71727199D01*
X126167519Y-70554717D01*
X126222561Y-70421834D01*
X126295000Y-70057656D01*
X126295000Y-69686344D01*
X126222561Y-69322166D01*
X126080466Y-68979118D01*
X125874175Y-68670382D01*
X125611618Y-68407825D01*
X125302882Y-68201534D01*
X124959834Y-68059439D01*
X124595656Y-67987000D01*
X124224344Y-67987000D01*
X123860166Y-68059439D01*
X123839498Y-68068000D01*
X124111618Y-67886175D01*
X124374175Y-67623618D01*
X124580466Y-67314882D01*
X124635507Y-67182000D01*
X125407199Y-67182000D01*
X127340001Y-69114803D01*
X127340001Y-69114803D01*
G37*
X127340001Y-69114803D02*
X127340001Y-71727199D01*
X126167519Y-70554717D01*
X126222561Y-70421834D01*
X126295000Y-70057656D01*
X126295000Y-69686344D01*
X126222561Y-69322166D01*
X126080466Y-68979118D01*
X125874175Y-68670382D01*
X125611618Y-68407825D01*
X125302882Y-68201534D01*
X124959834Y-68059439D01*
X124595656Y-67987000D01*
X124224344Y-67987000D01*
X123860166Y-68059439D01*
X123839498Y-68068000D01*
X124111618Y-67886175D01*
X124374175Y-67623618D01*
X124580466Y-67314882D01*
X124635507Y-67182000D01*
X125407199Y-67182000D01*
X127340001Y-69114803D01*
G36*
X53239534Y-67314882D02*
G01*
X53445825Y-67623618D01*
X53708382Y-67886175D01*
X53980502Y-68068000D01*
X53959834Y-68059439D01*
X53595656Y-67987000D01*
X53224344Y-67987000D01*
X52860166Y-68059439D01*
X52517118Y-68201534D01*
X52208382Y-68407825D01*
X51945825Y-68670382D01*
X51739534Y-68979118D01*
X51684493Y-69112000D01*
X51065333Y-69112000D01*
X51028000Y-69108323D01*
X50990667Y-69112000D01*
X50879014Y-69122997D01*
X50735753Y-69166454D01*
X50603724Y-69237026D01*
X50487999Y-69331999D01*
X50464201Y-69360997D01*
X50060000Y-69765198D01*
X50060000Y-68914801D01*
X51792802Y-67182000D01*
X53184493Y-67182000D01*
X53239534Y-67314882D01*
X53239534Y-67314882D01*
G37*
X53239534Y-67314882D02*
X53445825Y-67623618D01*
X53708382Y-67886175D01*
X53980502Y-68068000D01*
X53959834Y-68059439D01*
X53595656Y-67987000D01*
X53224344Y-67987000D01*
X52860166Y-68059439D01*
X52517118Y-68201534D01*
X52208382Y-68407825D01*
X51945825Y-68670382D01*
X51739534Y-68979118D01*
X51684493Y-69112000D01*
X51065333Y-69112000D01*
X51028000Y-69108323D01*
X50990667Y-69112000D01*
X50879014Y-69122997D01*
X50735753Y-69166454D01*
X50603724Y-69237026D01*
X50487999Y-69331999D01*
X50464201Y-69360997D01*
X50060000Y-69765198D01*
X50060000Y-68914801D01*
X51792802Y-67182000D01*
X53184493Y-67182000D01*
X53239534Y-67314882D01*
M02*
