G04 #@! TF.GenerationSoftware,KiCad,Pcbnew,5.1.4*
G04 #@! TF.CreationDate,2019-08-29T18:55:29+02:00*
G04 #@! TF.ProjectId,NixieClock,4e697869-6543-46c6-9f63-6b2e6b696361,rev?*
G04 #@! TF.SameCoordinates,Original*
G04 #@! TF.FileFunction,Paste,Top*
G04 #@! TF.FilePolarity,Positive*
%FSLAX46Y46*%
G04 Gerber Fmt 4.6, Leading zero omitted, Abs format (unit mm)*
G04 Created by KiCad (PCBNEW 5.1.4) date 2019-08-29 18:55:29*
%MOMM*%
%LPD*%
G04 APERTURE LIST*
%ADD10C,0.100000*%
%ADD11C,1.425000*%
%ADD12C,0.950000*%
G04 APERTURE END LIST*
D10*
G36*
X147559504Y-89776204D02*
G01*
X147583773Y-89779804D01*
X147607571Y-89785765D01*
X147630671Y-89794030D01*
X147652849Y-89804520D01*
X147673893Y-89817133D01*
X147693598Y-89831747D01*
X147711777Y-89848223D01*
X147728253Y-89866402D01*
X147742867Y-89886107D01*
X147755480Y-89907151D01*
X147765970Y-89929329D01*
X147774235Y-89952429D01*
X147780196Y-89976227D01*
X147783796Y-90000496D01*
X147785000Y-90025000D01*
X147785000Y-90950000D01*
X147783796Y-90974504D01*
X147780196Y-90998773D01*
X147774235Y-91022571D01*
X147765970Y-91045671D01*
X147755480Y-91067849D01*
X147742867Y-91088893D01*
X147728253Y-91108598D01*
X147711777Y-91126777D01*
X147693598Y-91143253D01*
X147673893Y-91157867D01*
X147652849Y-91170480D01*
X147630671Y-91180970D01*
X147607571Y-91189235D01*
X147583773Y-91195196D01*
X147559504Y-91198796D01*
X147535000Y-91200000D01*
X146285000Y-91200000D01*
X146260496Y-91198796D01*
X146236227Y-91195196D01*
X146212429Y-91189235D01*
X146189329Y-91180970D01*
X146167151Y-91170480D01*
X146146107Y-91157867D01*
X146126402Y-91143253D01*
X146108223Y-91126777D01*
X146091747Y-91108598D01*
X146077133Y-91088893D01*
X146064520Y-91067849D01*
X146054030Y-91045671D01*
X146045765Y-91022571D01*
X146039804Y-90998773D01*
X146036204Y-90974504D01*
X146035000Y-90950000D01*
X146035000Y-90025000D01*
X146036204Y-90000496D01*
X146039804Y-89976227D01*
X146045765Y-89952429D01*
X146054030Y-89929329D01*
X146064520Y-89907151D01*
X146077133Y-89886107D01*
X146091747Y-89866402D01*
X146108223Y-89848223D01*
X146126402Y-89831747D01*
X146146107Y-89817133D01*
X146167151Y-89804520D01*
X146189329Y-89794030D01*
X146212429Y-89785765D01*
X146236227Y-89779804D01*
X146260496Y-89776204D01*
X146285000Y-89775000D01*
X147535000Y-89775000D01*
X147559504Y-89776204D01*
X147559504Y-89776204D01*
G37*
D11*
X146910000Y-90487500D03*
D10*
G36*
X147559504Y-86801204D02*
G01*
X147583773Y-86804804D01*
X147607571Y-86810765D01*
X147630671Y-86819030D01*
X147652849Y-86829520D01*
X147673893Y-86842133D01*
X147693598Y-86856747D01*
X147711777Y-86873223D01*
X147728253Y-86891402D01*
X147742867Y-86911107D01*
X147755480Y-86932151D01*
X147765970Y-86954329D01*
X147774235Y-86977429D01*
X147780196Y-87001227D01*
X147783796Y-87025496D01*
X147785000Y-87050000D01*
X147785000Y-87975000D01*
X147783796Y-87999504D01*
X147780196Y-88023773D01*
X147774235Y-88047571D01*
X147765970Y-88070671D01*
X147755480Y-88092849D01*
X147742867Y-88113893D01*
X147728253Y-88133598D01*
X147711777Y-88151777D01*
X147693598Y-88168253D01*
X147673893Y-88182867D01*
X147652849Y-88195480D01*
X147630671Y-88205970D01*
X147607571Y-88214235D01*
X147583773Y-88220196D01*
X147559504Y-88223796D01*
X147535000Y-88225000D01*
X146285000Y-88225000D01*
X146260496Y-88223796D01*
X146236227Y-88220196D01*
X146212429Y-88214235D01*
X146189329Y-88205970D01*
X146167151Y-88195480D01*
X146146107Y-88182867D01*
X146126402Y-88168253D01*
X146108223Y-88151777D01*
X146091747Y-88133598D01*
X146077133Y-88113893D01*
X146064520Y-88092849D01*
X146054030Y-88070671D01*
X146045765Y-88047571D01*
X146039804Y-88023773D01*
X146036204Y-87999504D01*
X146035000Y-87975000D01*
X146035000Y-87050000D01*
X146036204Y-87025496D01*
X146039804Y-87001227D01*
X146045765Y-86977429D01*
X146054030Y-86954329D01*
X146064520Y-86932151D01*
X146077133Y-86911107D01*
X146091747Y-86891402D01*
X146108223Y-86873223D01*
X146126402Y-86856747D01*
X146146107Y-86842133D01*
X146167151Y-86829520D01*
X146189329Y-86819030D01*
X146212429Y-86810765D01*
X146236227Y-86804804D01*
X146260496Y-86801204D01*
X146285000Y-86800000D01*
X147535000Y-86800000D01*
X147559504Y-86801204D01*
X147559504Y-86801204D01*
G37*
D11*
X146910000Y-87512500D03*
D10*
G36*
X123559504Y-89776204D02*
G01*
X123583773Y-89779804D01*
X123607571Y-89785765D01*
X123630671Y-89794030D01*
X123652849Y-89804520D01*
X123673893Y-89817133D01*
X123693598Y-89831747D01*
X123711777Y-89848223D01*
X123728253Y-89866402D01*
X123742867Y-89886107D01*
X123755480Y-89907151D01*
X123765970Y-89929329D01*
X123774235Y-89952429D01*
X123780196Y-89976227D01*
X123783796Y-90000496D01*
X123785000Y-90025000D01*
X123785000Y-90950000D01*
X123783796Y-90974504D01*
X123780196Y-90998773D01*
X123774235Y-91022571D01*
X123765970Y-91045671D01*
X123755480Y-91067849D01*
X123742867Y-91088893D01*
X123728253Y-91108598D01*
X123711777Y-91126777D01*
X123693598Y-91143253D01*
X123673893Y-91157867D01*
X123652849Y-91170480D01*
X123630671Y-91180970D01*
X123607571Y-91189235D01*
X123583773Y-91195196D01*
X123559504Y-91198796D01*
X123535000Y-91200000D01*
X122285000Y-91200000D01*
X122260496Y-91198796D01*
X122236227Y-91195196D01*
X122212429Y-91189235D01*
X122189329Y-91180970D01*
X122167151Y-91170480D01*
X122146107Y-91157867D01*
X122126402Y-91143253D01*
X122108223Y-91126777D01*
X122091747Y-91108598D01*
X122077133Y-91088893D01*
X122064520Y-91067849D01*
X122054030Y-91045671D01*
X122045765Y-91022571D01*
X122039804Y-90998773D01*
X122036204Y-90974504D01*
X122035000Y-90950000D01*
X122035000Y-90025000D01*
X122036204Y-90000496D01*
X122039804Y-89976227D01*
X122045765Y-89952429D01*
X122054030Y-89929329D01*
X122064520Y-89907151D01*
X122077133Y-89886107D01*
X122091747Y-89866402D01*
X122108223Y-89848223D01*
X122126402Y-89831747D01*
X122146107Y-89817133D01*
X122167151Y-89804520D01*
X122189329Y-89794030D01*
X122212429Y-89785765D01*
X122236227Y-89779804D01*
X122260496Y-89776204D01*
X122285000Y-89775000D01*
X123535000Y-89775000D01*
X123559504Y-89776204D01*
X123559504Y-89776204D01*
G37*
D11*
X122910000Y-90487500D03*
D10*
G36*
X123559504Y-86801204D02*
G01*
X123583773Y-86804804D01*
X123607571Y-86810765D01*
X123630671Y-86819030D01*
X123652849Y-86829520D01*
X123673893Y-86842133D01*
X123693598Y-86856747D01*
X123711777Y-86873223D01*
X123728253Y-86891402D01*
X123742867Y-86911107D01*
X123755480Y-86932151D01*
X123765970Y-86954329D01*
X123774235Y-86977429D01*
X123780196Y-87001227D01*
X123783796Y-87025496D01*
X123785000Y-87050000D01*
X123785000Y-87975000D01*
X123783796Y-87999504D01*
X123780196Y-88023773D01*
X123774235Y-88047571D01*
X123765970Y-88070671D01*
X123755480Y-88092849D01*
X123742867Y-88113893D01*
X123728253Y-88133598D01*
X123711777Y-88151777D01*
X123693598Y-88168253D01*
X123673893Y-88182867D01*
X123652849Y-88195480D01*
X123630671Y-88205970D01*
X123607571Y-88214235D01*
X123583773Y-88220196D01*
X123559504Y-88223796D01*
X123535000Y-88225000D01*
X122285000Y-88225000D01*
X122260496Y-88223796D01*
X122236227Y-88220196D01*
X122212429Y-88214235D01*
X122189329Y-88205970D01*
X122167151Y-88195480D01*
X122146107Y-88182867D01*
X122126402Y-88168253D01*
X122108223Y-88151777D01*
X122091747Y-88133598D01*
X122077133Y-88113893D01*
X122064520Y-88092849D01*
X122054030Y-88070671D01*
X122045765Y-88047571D01*
X122039804Y-88023773D01*
X122036204Y-87999504D01*
X122035000Y-87975000D01*
X122035000Y-87050000D01*
X122036204Y-87025496D01*
X122039804Y-87001227D01*
X122045765Y-86977429D01*
X122054030Y-86954329D01*
X122064520Y-86932151D01*
X122077133Y-86911107D01*
X122091747Y-86891402D01*
X122108223Y-86873223D01*
X122126402Y-86856747D01*
X122146107Y-86842133D01*
X122167151Y-86829520D01*
X122189329Y-86819030D01*
X122212429Y-86810765D01*
X122236227Y-86804804D01*
X122260496Y-86801204D01*
X122285000Y-86800000D01*
X123535000Y-86800000D01*
X123559504Y-86801204D01*
X123559504Y-86801204D01*
G37*
D11*
X122910000Y-87512500D03*
D10*
G36*
X63559504Y-89776204D02*
G01*
X63583773Y-89779804D01*
X63607571Y-89785765D01*
X63630671Y-89794030D01*
X63652849Y-89804520D01*
X63673893Y-89817133D01*
X63693598Y-89831747D01*
X63711777Y-89848223D01*
X63728253Y-89866402D01*
X63742867Y-89886107D01*
X63755480Y-89907151D01*
X63765970Y-89929329D01*
X63774235Y-89952429D01*
X63780196Y-89976227D01*
X63783796Y-90000496D01*
X63785000Y-90025000D01*
X63785000Y-90950000D01*
X63783796Y-90974504D01*
X63780196Y-90998773D01*
X63774235Y-91022571D01*
X63765970Y-91045671D01*
X63755480Y-91067849D01*
X63742867Y-91088893D01*
X63728253Y-91108598D01*
X63711777Y-91126777D01*
X63693598Y-91143253D01*
X63673893Y-91157867D01*
X63652849Y-91170480D01*
X63630671Y-91180970D01*
X63607571Y-91189235D01*
X63583773Y-91195196D01*
X63559504Y-91198796D01*
X63535000Y-91200000D01*
X62285000Y-91200000D01*
X62260496Y-91198796D01*
X62236227Y-91195196D01*
X62212429Y-91189235D01*
X62189329Y-91180970D01*
X62167151Y-91170480D01*
X62146107Y-91157867D01*
X62126402Y-91143253D01*
X62108223Y-91126777D01*
X62091747Y-91108598D01*
X62077133Y-91088893D01*
X62064520Y-91067849D01*
X62054030Y-91045671D01*
X62045765Y-91022571D01*
X62039804Y-90998773D01*
X62036204Y-90974504D01*
X62035000Y-90950000D01*
X62035000Y-90025000D01*
X62036204Y-90000496D01*
X62039804Y-89976227D01*
X62045765Y-89952429D01*
X62054030Y-89929329D01*
X62064520Y-89907151D01*
X62077133Y-89886107D01*
X62091747Y-89866402D01*
X62108223Y-89848223D01*
X62126402Y-89831747D01*
X62146107Y-89817133D01*
X62167151Y-89804520D01*
X62189329Y-89794030D01*
X62212429Y-89785765D01*
X62236227Y-89779804D01*
X62260496Y-89776204D01*
X62285000Y-89775000D01*
X63535000Y-89775000D01*
X63559504Y-89776204D01*
X63559504Y-89776204D01*
G37*
D11*
X62910000Y-90487500D03*
D10*
G36*
X63559504Y-86801204D02*
G01*
X63583773Y-86804804D01*
X63607571Y-86810765D01*
X63630671Y-86819030D01*
X63652849Y-86829520D01*
X63673893Y-86842133D01*
X63693598Y-86856747D01*
X63711777Y-86873223D01*
X63728253Y-86891402D01*
X63742867Y-86911107D01*
X63755480Y-86932151D01*
X63765970Y-86954329D01*
X63774235Y-86977429D01*
X63780196Y-87001227D01*
X63783796Y-87025496D01*
X63785000Y-87050000D01*
X63785000Y-87975000D01*
X63783796Y-87999504D01*
X63780196Y-88023773D01*
X63774235Y-88047571D01*
X63765970Y-88070671D01*
X63755480Y-88092849D01*
X63742867Y-88113893D01*
X63728253Y-88133598D01*
X63711777Y-88151777D01*
X63693598Y-88168253D01*
X63673893Y-88182867D01*
X63652849Y-88195480D01*
X63630671Y-88205970D01*
X63607571Y-88214235D01*
X63583773Y-88220196D01*
X63559504Y-88223796D01*
X63535000Y-88225000D01*
X62285000Y-88225000D01*
X62260496Y-88223796D01*
X62236227Y-88220196D01*
X62212429Y-88214235D01*
X62189329Y-88205970D01*
X62167151Y-88195480D01*
X62146107Y-88182867D01*
X62126402Y-88168253D01*
X62108223Y-88151777D01*
X62091747Y-88133598D01*
X62077133Y-88113893D01*
X62064520Y-88092849D01*
X62054030Y-88070671D01*
X62045765Y-88047571D01*
X62039804Y-88023773D01*
X62036204Y-87999504D01*
X62035000Y-87975000D01*
X62035000Y-87050000D01*
X62036204Y-87025496D01*
X62039804Y-87001227D01*
X62045765Y-86977429D01*
X62054030Y-86954329D01*
X62064520Y-86932151D01*
X62077133Y-86911107D01*
X62091747Y-86891402D01*
X62108223Y-86873223D01*
X62126402Y-86856747D01*
X62146107Y-86842133D01*
X62167151Y-86829520D01*
X62189329Y-86819030D01*
X62212429Y-86810765D01*
X62236227Y-86804804D01*
X62260496Y-86801204D01*
X62285000Y-86800000D01*
X63535000Y-86800000D01*
X63559504Y-86801204D01*
X63559504Y-86801204D01*
G37*
D11*
X62910000Y-87512500D03*
D10*
G36*
X87559504Y-89776204D02*
G01*
X87583773Y-89779804D01*
X87607571Y-89785765D01*
X87630671Y-89794030D01*
X87652849Y-89804520D01*
X87673893Y-89817133D01*
X87693598Y-89831747D01*
X87711777Y-89848223D01*
X87728253Y-89866402D01*
X87742867Y-89886107D01*
X87755480Y-89907151D01*
X87765970Y-89929329D01*
X87774235Y-89952429D01*
X87780196Y-89976227D01*
X87783796Y-90000496D01*
X87785000Y-90025000D01*
X87785000Y-90950000D01*
X87783796Y-90974504D01*
X87780196Y-90998773D01*
X87774235Y-91022571D01*
X87765970Y-91045671D01*
X87755480Y-91067849D01*
X87742867Y-91088893D01*
X87728253Y-91108598D01*
X87711777Y-91126777D01*
X87693598Y-91143253D01*
X87673893Y-91157867D01*
X87652849Y-91170480D01*
X87630671Y-91180970D01*
X87607571Y-91189235D01*
X87583773Y-91195196D01*
X87559504Y-91198796D01*
X87535000Y-91200000D01*
X86285000Y-91200000D01*
X86260496Y-91198796D01*
X86236227Y-91195196D01*
X86212429Y-91189235D01*
X86189329Y-91180970D01*
X86167151Y-91170480D01*
X86146107Y-91157867D01*
X86126402Y-91143253D01*
X86108223Y-91126777D01*
X86091747Y-91108598D01*
X86077133Y-91088893D01*
X86064520Y-91067849D01*
X86054030Y-91045671D01*
X86045765Y-91022571D01*
X86039804Y-90998773D01*
X86036204Y-90974504D01*
X86035000Y-90950000D01*
X86035000Y-90025000D01*
X86036204Y-90000496D01*
X86039804Y-89976227D01*
X86045765Y-89952429D01*
X86054030Y-89929329D01*
X86064520Y-89907151D01*
X86077133Y-89886107D01*
X86091747Y-89866402D01*
X86108223Y-89848223D01*
X86126402Y-89831747D01*
X86146107Y-89817133D01*
X86167151Y-89804520D01*
X86189329Y-89794030D01*
X86212429Y-89785765D01*
X86236227Y-89779804D01*
X86260496Y-89776204D01*
X86285000Y-89775000D01*
X87535000Y-89775000D01*
X87559504Y-89776204D01*
X87559504Y-89776204D01*
G37*
D11*
X86910000Y-90487500D03*
D10*
G36*
X87559504Y-86801204D02*
G01*
X87583773Y-86804804D01*
X87607571Y-86810765D01*
X87630671Y-86819030D01*
X87652849Y-86829520D01*
X87673893Y-86842133D01*
X87693598Y-86856747D01*
X87711777Y-86873223D01*
X87728253Y-86891402D01*
X87742867Y-86911107D01*
X87755480Y-86932151D01*
X87765970Y-86954329D01*
X87774235Y-86977429D01*
X87780196Y-87001227D01*
X87783796Y-87025496D01*
X87785000Y-87050000D01*
X87785000Y-87975000D01*
X87783796Y-87999504D01*
X87780196Y-88023773D01*
X87774235Y-88047571D01*
X87765970Y-88070671D01*
X87755480Y-88092849D01*
X87742867Y-88113893D01*
X87728253Y-88133598D01*
X87711777Y-88151777D01*
X87693598Y-88168253D01*
X87673893Y-88182867D01*
X87652849Y-88195480D01*
X87630671Y-88205970D01*
X87607571Y-88214235D01*
X87583773Y-88220196D01*
X87559504Y-88223796D01*
X87535000Y-88225000D01*
X86285000Y-88225000D01*
X86260496Y-88223796D01*
X86236227Y-88220196D01*
X86212429Y-88214235D01*
X86189329Y-88205970D01*
X86167151Y-88195480D01*
X86146107Y-88182867D01*
X86126402Y-88168253D01*
X86108223Y-88151777D01*
X86091747Y-88133598D01*
X86077133Y-88113893D01*
X86064520Y-88092849D01*
X86054030Y-88070671D01*
X86045765Y-88047571D01*
X86039804Y-88023773D01*
X86036204Y-87999504D01*
X86035000Y-87975000D01*
X86035000Y-87050000D01*
X86036204Y-87025496D01*
X86039804Y-87001227D01*
X86045765Y-86977429D01*
X86054030Y-86954329D01*
X86064520Y-86932151D01*
X86077133Y-86911107D01*
X86091747Y-86891402D01*
X86108223Y-86873223D01*
X86126402Y-86856747D01*
X86146107Y-86842133D01*
X86167151Y-86829520D01*
X86189329Y-86819030D01*
X86212429Y-86810765D01*
X86236227Y-86804804D01*
X86260496Y-86801204D01*
X86285000Y-86800000D01*
X87535000Y-86800000D01*
X87559504Y-86801204D01*
X87559504Y-86801204D01*
G37*
D11*
X86910000Y-87512500D03*
D10*
G36*
X103095779Y-62698144D02*
G01*
X103118834Y-62701563D01*
X103141443Y-62707227D01*
X103163387Y-62715079D01*
X103184457Y-62725044D01*
X103204448Y-62737026D01*
X103223168Y-62750910D01*
X103240438Y-62766562D01*
X103256090Y-62783832D01*
X103269974Y-62802552D01*
X103281956Y-62822543D01*
X103291921Y-62843613D01*
X103299773Y-62865557D01*
X103305437Y-62888166D01*
X103308856Y-62911221D01*
X103310000Y-62934500D01*
X103310000Y-63409500D01*
X103308856Y-63432779D01*
X103305437Y-63455834D01*
X103299773Y-63478443D01*
X103291921Y-63500387D01*
X103281956Y-63521457D01*
X103269974Y-63541448D01*
X103256090Y-63560168D01*
X103240438Y-63577438D01*
X103223168Y-63593090D01*
X103204448Y-63606974D01*
X103184457Y-63618956D01*
X103163387Y-63628921D01*
X103141443Y-63636773D01*
X103118834Y-63642437D01*
X103095779Y-63645856D01*
X103072500Y-63647000D01*
X102497500Y-63647000D01*
X102474221Y-63645856D01*
X102451166Y-63642437D01*
X102428557Y-63636773D01*
X102406613Y-63628921D01*
X102385543Y-63618956D01*
X102365552Y-63606974D01*
X102346832Y-63593090D01*
X102329562Y-63577438D01*
X102313910Y-63560168D01*
X102300026Y-63541448D01*
X102288044Y-63521457D01*
X102278079Y-63500387D01*
X102270227Y-63478443D01*
X102264563Y-63455834D01*
X102261144Y-63432779D01*
X102260000Y-63409500D01*
X102260000Y-62934500D01*
X102261144Y-62911221D01*
X102264563Y-62888166D01*
X102270227Y-62865557D01*
X102278079Y-62843613D01*
X102288044Y-62822543D01*
X102300026Y-62802552D01*
X102313910Y-62783832D01*
X102329562Y-62766562D01*
X102346832Y-62750910D01*
X102365552Y-62737026D01*
X102385543Y-62725044D01*
X102406613Y-62715079D01*
X102428557Y-62707227D01*
X102451166Y-62701563D01*
X102474221Y-62698144D01*
X102497500Y-62697000D01*
X103072500Y-62697000D01*
X103095779Y-62698144D01*
X103095779Y-62698144D01*
G37*
D12*
X102785000Y-63172000D03*
D10*
G36*
X101345779Y-62698144D02*
G01*
X101368834Y-62701563D01*
X101391443Y-62707227D01*
X101413387Y-62715079D01*
X101434457Y-62725044D01*
X101454448Y-62737026D01*
X101473168Y-62750910D01*
X101490438Y-62766562D01*
X101506090Y-62783832D01*
X101519974Y-62802552D01*
X101531956Y-62822543D01*
X101541921Y-62843613D01*
X101549773Y-62865557D01*
X101555437Y-62888166D01*
X101558856Y-62911221D01*
X101560000Y-62934500D01*
X101560000Y-63409500D01*
X101558856Y-63432779D01*
X101555437Y-63455834D01*
X101549773Y-63478443D01*
X101541921Y-63500387D01*
X101531956Y-63521457D01*
X101519974Y-63541448D01*
X101506090Y-63560168D01*
X101490438Y-63577438D01*
X101473168Y-63593090D01*
X101454448Y-63606974D01*
X101434457Y-63618956D01*
X101413387Y-63628921D01*
X101391443Y-63636773D01*
X101368834Y-63642437D01*
X101345779Y-63645856D01*
X101322500Y-63647000D01*
X100747500Y-63647000D01*
X100724221Y-63645856D01*
X100701166Y-63642437D01*
X100678557Y-63636773D01*
X100656613Y-63628921D01*
X100635543Y-63618956D01*
X100615552Y-63606974D01*
X100596832Y-63593090D01*
X100579562Y-63577438D01*
X100563910Y-63560168D01*
X100550026Y-63541448D01*
X100538044Y-63521457D01*
X100528079Y-63500387D01*
X100520227Y-63478443D01*
X100514563Y-63455834D01*
X100511144Y-63432779D01*
X100510000Y-63409500D01*
X100510000Y-62934500D01*
X100511144Y-62911221D01*
X100514563Y-62888166D01*
X100520227Y-62865557D01*
X100528079Y-62843613D01*
X100538044Y-62822543D01*
X100550026Y-62802552D01*
X100563910Y-62783832D01*
X100579562Y-62766562D01*
X100596832Y-62750910D01*
X100615552Y-62737026D01*
X100635543Y-62725044D01*
X100656613Y-62715079D01*
X100678557Y-62707227D01*
X100701166Y-62701563D01*
X100724221Y-62698144D01*
X100747500Y-62697000D01*
X101322500Y-62697000D01*
X101345779Y-62698144D01*
X101345779Y-62698144D01*
G37*
D12*
X101035000Y-63172000D03*
M02*
